<?xml version="1.0" encoding="UTF-8" standalone="no"?>
<svg width="1440" height="132" viewBox="0 0 1440 132" fill="none" xmlns="http://www.w3.org/2000/svg">
    <g clip-path="url(#clip0_16_359)">
        <path d="M1230.45 90.5737C1290.3 88.155 1405.55 95.2755 1497.08 102.602C1493.84 107.845 1483.68 113.005 1473.59 117.069L1433.12 117.851L1467.69 117.071C1447.27 117.427 1118.76 116.697 895.244 116.755C1015.92 106.564 1136.94 94.3537 1230.45 90.5745L1230.45 90.5737ZM258.755 88.377C326.667 92.5177 414.417 105.928 501.948 117.119C339.419 117.088 100.516 117.942 85.6796 117.553L110.804 118.405L75.3697 117.376L-21.3 113.645C24.1136 105.721 190.837 84.2355 258.755 88.3777V88.377Z" fill="#E6FFEA"/>
        <path d="M456.589 113.136C456.589 113.136 451.124 105.902 447.686 104.793C444.247 103.684 446.934 107.506 446.934 107.506C446.934 107.506 441.387 101.443 439.148 102.042C437.097 102.591 439.148 106.712 439.148 106.712C439.148 106.712 436.837 104.43 434.034 104.43C431.232 104.43 436.201 112.973 436.201 112.973L456.589 113.136Z" fill="#9CC8A1"/>
        <path d="M439.148 113.096C439.148 113.096 434.703 101.943 430.077 103.095C426.328 104.028 428.53 108.266 428.301 108.038C428.072 107.81 427.236 106.379 423.983 106.379C420.729 106.379 424.041 110.413 424.041 110.413C424.041 110.413 418.05 108.81 417.507 111.075C417.057 112.955 419.575 113.096 419.575 113.096H439.148ZM1089.53 113.25C1089.53 113.25 1093.47 102.417 1098.28 103.589C1102.19 104.538 1099.36 110.337 1099.6 110.106C1099.83 109.874 1101.92 106.413 1105.31 106.413C1108.7 106.413 1104.27 111.083 1104.27 111.083C1104.27 111.083 1111.48 108.888 1112.05 111.194C1112.52 113.107 1109.9 113.25 1109.9 113.25H1089.53Z" fill="#9CC8A1"/>
        <path d="M-13.7891 113.25H1498.95C1480.88 121.218 1444.68 127.5 1444.68 127.5L1422.54 127.414L-13.7891 127.258V113.25Z" fill="#D5F4D2"/>
        <path d="M313.214 113.057H314.738V86.445H313.214V113.057Z" fill="#05173E"/>
        <path d="M313.577 39L321.086 92.715H306.068L313.577 39Z" fill="#9CC8A1"/>
        <path d="M320.61 89.3062L307.136 85.0732L307.339 83.616L320.387 87.7162L320.61 89.3062ZM318.239 72.3375L309.308 69.531L309.512 68.076L318.016 70.746L318.239 72.3367V72.3375Z" fill="#5BA06A"/>
        <path d="M332.974 112.522H334.269V98.2275H332.974V112.522Z" fill="#05173E"/>
        <path d="M333.623 70.5L337.846 104.516H329.398L333.623 70.5Z" fill="#9CC8A1"/>
        <path d="M336.314 92.178L330.293 97.326L330.524 95.46L336.127 90.6712L336.314 92.178ZM335.388 84.7222L331.701 85.9785L331.873 84.5835L335.23 83.439L335.388 84.7222Z" fill="#5BA06A"/>
        <path d="M816.333 114C816.333 114 822.377 97.3335 829.76 99.1365C835.743 100.597 831.4 109.519 831.769 109.163C832.13 108.806 835.344 103.482 840.537 103.482C845.723 103.482 838.942 110.667 838.942 110.667C838.942 110.667 849.997 107.289 850.87 110.836C851.585 113.78 847.566 114 847.566 114H816.333Z" fill="#9CC8A1"/>
        <g style="mix-blend-mode:luminosity" opacity="0.5">
            <path d="M711.629 112.072H715.21V67.8878H711.629V112.072Z" fill="#FCF5EB"/>
            <path d="M715.331 50.199H690.172V64.6912H715.331V50.199Z" fill="#B6D8C2"/>
            <path d="M715.331 50.199H712.366V64.6912H715.331V50.199Z" fill="#E4E4E4"/>
            <path d="M715.883 49.5H689.022V50.8965H715.883V49.5Z" fill="#2B373C"/>
            <path d="M696.852 60.5445V52.8945H691.111V60.5445H696.852ZM704.033 60.5437V52.8937H698.291V60.5437H704.033ZM711.067 60.5445V52.8945H705.324V60.5445H711.067Z" fill="#D3E3F1"/>
            <path d="M758.481 64.6912H783.64V50.199H758.481V64.6912Z" fill="#B6D8C2"/>
            <path d="M758.481 64.6912H761.446V50.199H758.481V64.6912Z" fill="#E4E4E4"/>
            <path d="M715.389 64.905H683.591V113.23H715.389V64.905Z" fill="#B6D8C2"/>
            <path d="M698.069 75.5302V67.8802H685.847V75.5302H698.069ZM698.069 84.4057V76.7557H685.847V84.4057H698.069ZM698.069 93.2812V85.6312H685.847V93.2812H698.069ZM698.069 102.158V94.5075H685.847V102.158H698.069ZM698.069 111.032V103.382H685.847V111.032H698.069ZM711.623 75.5302V67.8802H699.401V75.5302H711.623ZM711.623 84.4057V76.7557H699.401V84.4057H711.623ZM711.623 93.2812V85.6312H699.401V93.2812H711.623ZM711.623 102.157V94.5067H699.401V102.157H711.623ZM711.623 111.032V103.382H699.401V111.032H711.623Z" fill="#D3E3F1"/>
            <path d="M758.481 113.229H790.278V64.9042H758.481V113.229Z" fill="#B6D8C2"/>
            <path d="M758.481 113.229H790.654V112.077H758.481V113.229ZM683.311 113.229H715.487V112.077H683.311V113.229Z" fill="#2B373C"/>
            <path d="M758.481 113.229H761.446V64.905H758.481V113.229Z" fill="#E4E4E4"/>
            <path d="M757.954 50.8972H784.792V49.5007H757.954V50.8972Z" fill="#2B373C"/>
            <path d="M715.22 64.3425H758.481V54.3075H715.22V64.3425ZM715.22 113.229H758.481V65.7517H715.22V113.229Z" fill="#B6D8C2"/>
            <path d="M788.02 75.531V67.881H775.798V75.531H788.02ZM788.02 84.4057V76.7557H775.798V84.4057H788.02ZM788.02 93.2812V85.6312H775.798V93.2812H788.02ZM788.02 102.157V94.5067H775.798V102.157H788.02ZM788.02 111.033V103.383H775.798V111.033H788.02ZM774.466 75.531V67.881H762.244V75.531H774.466ZM782.7 60.5445V52.8945H776.957V60.5445H782.7ZM775.52 60.5437V52.8937H769.777V60.5437H775.52ZM768.483 60.5445V52.8945H762.74V60.5445H768.483ZM774.466 84.4057V76.7557H762.244V84.4057H774.466ZM774.466 93.282V85.632H762.244V93.282H774.466ZM774.466 102.157V94.5067H762.244V102.157H774.466ZM774.466 111.033V103.383H762.244V111.033H774.466Z" fill="#D3E3F1"/>
            <path d="M730.344 113.341H742.756V101.321H730.344V113.341Z" fill="#FF7768"/>
            <path d="M776.799 60.666H782.858V60.2685H776.799V60.666ZM769.619 60.666H775.678V60.2685H769.619V60.666ZM762.582 60.666H768.641V60.2685H762.582V60.666ZM705.239 60.666H711.298V60.2685H705.239V60.666ZM698.059 60.666H704.118V60.2685H698.059V60.666ZM691.024 60.666H697.083V60.2685H691.024V60.666Z" fill="#D3E3F1"/>
            <path opacity="0.5" d="M782.165 110.636H789.187L781.059 67.8802H774.037L782.165 110.636Z" fill="white"/>
            <path d="M788.02 111.381H790.278V67.8795H788.02V111.381Z" fill="#B6D8C2"/>
            <path opacity="0.5" d="M773.134 110.636H777.047L768.919 67.8802H765.013L773.134 110.636Z" fill="white"/>
            <path d="M762.093 75.5303H774.616V75.1328H762.093V75.5303ZM775.648 84.4065H788.171V84.009H775.648V84.4065ZM762.093 84.4065H774.616V84.009H762.093V84.4065ZM775.648 93.2812H788.171V92.8838H775.648V93.2812ZM762.093 93.2812H774.616V92.8838H762.093V93.2812ZM775.648 102.158H788.171V101.76H775.648V102.158ZM762.093 102.158H774.616V101.76H762.093V102.158ZM775.648 111.033H788.171V110.636H775.648V111.033ZM762.093 111.033H774.616V110.636H762.093V111.033ZM775.648 75.5303H788.171V75.1328H775.648V75.5303Z" fill="#D3E3F1"/>
            <path d="M774.466 111.382H775.798V67.8307H774.466V111.382Z" fill="#B6D8C2"/>
            <path d="M762.093 103.383H788.472V102.157H762.093V103.383ZM762.093 94.5075H788.472V93.2813H762.093V94.5075ZM762.093 85.6313H788.472V84.405H762.093V85.6313ZM762.093 76.7558H788.472V75.5303H762.093V76.7558Z" fill="#B6D8C2"/>
            <path opacity="0.5" d="M707.84 110.636H714.861L706.737 67.8802H699.716L707.84 110.636ZM696.736 110.637H700.644L692.519 67.881H688.611L696.736 110.637Z" fill="white"/>
            <path d="M698.066 111.382H699.396V67.8315H698.066V111.382Z" fill="#B6D8C2"/>
            <path d="M685.692 103.383H712.071V102.157H685.692V103.383ZM685.692 94.5075H712.071V93.2813H685.692V94.5075ZM685.692 85.6313H712.071V84.405H685.692V85.6313ZM685.692 76.7558H712.071V75.5303H685.692V76.7558Z" fill="#B6D8C2"/>
            <path opacity="0.5" d="M779.99 60.2685H781.796L779.689 52.8937H777.883L779.99 60.2685ZM772.517 60.2685H773.781L771.674 52.8937H770.409L772.517 60.2685ZM767.136 60.2685H768.144L766.037 52.8937H765.028L767.136 60.2685ZM708.569 60.2685H710.378L708.271 52.8937H706.461L708.569 60.2685ZM701.097 60.2685H702.364L700.256 52.8937H698.99L701.097 60.2685ZM695.72 60.2685H696.728L694.621 52.8937H693.613L695.72 60.2685Z" fill="white"/>
            <path d="M685.718 75.5302H698.243V75.1327H685.718V75.5302ZM699.271 84.4065H711.797V84.009H699.271V84.4065ZM685.718 84.4065H698.243V84.009H685.718V84.4065ZM699.271 93.2812H711.797V92.8837H699.271V93.2812ZM685.718 93.2812H698.243V92.8837H685.718V93.2812ZM699.271 102.158H711.797V101.76H699.271V102.158ZM685.718 102.158H698.243V101.76H685.718V102.158ZM699.271 111.033H711.797V110.636H699.271V111.033ZM685.718 111.033H698.243V110.636H685.718V111.033ZM699.271 75.5302H711.797V75.1327H699.271V75.5302ZM743.185 77.9445V70.2945H730.962V77.9445H743.185ZM756.735 77.9445V70.2945H744.515V77.9445H756.735Z" fill="#D3E3F1"/>
            <path d="M730.834 77.9437H743.359V77.5462H730.834V77.9437ZM729.692 77.9445V70.2945H717.469V77.9445H729.692Z" fill="#D3E3F1"/>
            <path d="M717.34 77.9438H729.865V77.5463H717.34V77.9438ZM744.387 77.9438H756.908V77.5463H744.387V77.9438ZM743.186 88.2878V80.6378H730.963V88.2878H743.186ZM756.742 88.2878V80.6378H744.515V88.2878H756.742Z" fill="#D3E3F1"/>
            <path d="M730.834 88.2878H743.359V87.8903H730.834V88.2878ZM729.692 88.2878V80.6378H717.469V88.2878H729.692Z" fill="#D3E3F1"/>
            <path d="M717.34 88.2878H729.865V87.8903H717.34V88.2878ZM744.387 88.2878H756.908V87.8903H744.387V88.2878Z" fill="#D3E3F1"/>
            <path opacity="0.5" d="M715.22 57.651H758.481V54.3075H715.22V57.651Z" fill="#F7EDE7"/>
            <path d="M714.264 55.068H759.436V53.6715H714.264V55.068Z" fill="#2B373C"/>
            <path d="M736.501 113.341H736.6V101.321H736.501V113.341Z" fill="#FF5B51"/>
            <path d="M717.814 113.229H720.057V101.321H717.814V113.229ZM753.672 113.229H755.914V101.321H753.672V113.229Z" fill="#FF7768"/>
            <path d="M741.845 110.636V101.959H737.402V110.636H741.845ZM735.699 110.636V101.959H731.256V110.636H735.699Z" fill="#D3E3F1"/>
            <path opacity="0.2" d="M739.508 110.636H741.448L739.916 101.959H737.977L739.508 110.636ZM733.274 110.636H735.212L733.682 101.959H731.743L733.274 110.636Z" fill="#E9F1F8"/>
            <path d="M715.211 65.5972H712.246V112.975H715.211V65.5972Z" fill="#E4E4E4"/>
            <path opacity="0.3" d="M752.926 59.8627H755.741V58.7902H752.926V59.8627ZM755.147 61.4977H757.954V60.4252H755.147V61.4977ZM753.325 63.1072H756.2V62.1997H753.325V63.1072ZM751.542 61.4235H754.334V60.516H751.542V61.4235ZM734.425 63.102H736.697V62.292H734.425V63.102ZM732.922 61.7797H735.194V60.969H732.922V61.779V61.7797ZM746.095 104.98H748.366V104.169H746.095V104.98ZM744.593 103.658H746.863V102.847H744.593V103.658ZM721.894 104.584H724.165V103.773H721.894V104.584ZM720.767 106.06H723.038V105.25H720.767V106.06ZM724.443 59.1652H721.634V60.2377H724.443V59.1652ZM716.138 62.028H715.224V63.1005H716.138V62.028ZM717.155 60.3105H715.201V61.383H717.155V60.3105ZM723.05 60.5752H720.241V61.6477H723.05V60.5752ZM743.864 60.9315H741.056V62.004H743.864V60.9315ZM745.545 59.3242H742.736V60.3967H745.545V59.3242ZM724.044 62.1997H721.17V63.1072H724.044V62.1997ZM728.775 107.563H725.967V108.636H728.775V107.563ZM727.382 108.973H724.573V110.045H727.382V108.973ZM728.376 110.598H725.502V111.505H728.376V110.598ZM747.25 108.856H750.057V107.784H747.25V108.856ZM748.642 110.265H751.451V109.192H748.642V110.265ZM747.646 111.726H750.518V110.818H747.646V111.726ZM726.362 60.7582H723.57V61.6657H726.362V60.7582Z" fill="#2A4667"/>
            <path d="M717.778 97.1768H755.922V88.989H717.778V97.1768Z" fill="#FF7768"/>
            <path opacity="0.5" d="M753.416 77.5763H755.719L751.895 70.2938H749.595L753.416 77.5763ZM749.944 77.577H752.242L748.419 70.2938H746.12L749.944 77.577ZM739.886 77.5763H742.185L738.362 70.2938H736.064L739.886 77.5763ZM736.413 77.577H738.711L734.889 70.2938H732.59L736.413 77.577ZM726.356 77.5763H728.655L724.831 70.2938H722.533L726.356 77.5763ZM722.881 77.5763H725.179L721.355 70.2938H719.057L722.881 77.5763ZM753.416 87.9255H755.719L751.895 80.6423H749.595L753.416 87.9255ZM749.944 87.9255H752.242L748.419 80.6423H746.12L749.944 87.9255ZM739.886 87.9255H742.185L738.362 80.6423H736.064L739.886 87.9255ZM736.413 87.9255H738.711L734.889 80.6423H732.59L736.413 87.9255ZM726.356 87.9255H728.655L724.831 80.6423H722.533L726.356 87.9255ZM722.881 87.9255H725.179L721.355 80.6423H719.057L722.881 87.9255Z" fill="white"/>
            <path d="M716.927 101.322H756.772V97.8653H716.927V101.322ZM727.542 64.1475H682.37V65.7563H727.542V64.1475Z" fill="#2B373C"/>
            <path d="M721.632 65.757H791.497V64.1475H721.632V65.757Z" fill="#2B373C"/>
        </g>
        <g style="mix-blend-mode:luminosity" opacity="0.5">
            <path d="M551.794 83.7098H483.092V113.396H551.794V83.7098Z" fill="#B6D8C2"/>
            <path d="M512.909 92.7697H509.802V87.7912C509.802 87.3807 509.966 86.9869 510.257 86.6966C510.548 86.4063 510.944 86.2432 511.356 86.2432C511.768 86.2432 512.163 86.4063 512.454 86.6966C512.745 86.9869 512.909 87.3807 512.909 87.7912V92.7697Z" fill="#97B2E4"/>
            <path style="mix-blend-mode:screen" d="M511.356 86.2432C510.498 86.2432 509.802 86.9362 509.802 87.7912V90.7057L512.909 87.7912C512.909 86.9362 512.214 86.2432 511.356 86.2432Z" fill="url(#paint0_linear_16_359)"/>
            <path d="M511.356 85.9875C510.876 85.9881 510.416 86.1783 510.076 86.5165C509.737 86.8546 509.546 87.313 509.546 87.7912V93.021H513.161V87.7912C513.16 87.313 512.97 86.8546 512.63 86.5165C512.291 86.1783 511.831 85.9881 511.351 85.9875H511.356ZM512.909 87.7912V88.368H511.496V86.2477C511.882 86.2826 512.241 86.4603 512.503 86.746C512.765 87.0316 512.909 87.4045 512.909 87.7912ZM511.216 86.2477V88.368H509.802V87.7912C509.802 86.9827 510.422 86.3175 511.216 86.2477ZM509.802 88.6425H511.216V92.7652H509.802V88.6425ZM511.496 92.7652V88.6425H512.909V92.7652H511.496Z" fill="white"/>
            <path d="M512.909 105.911H509.802V100.933C509.802 100.522 509.966 100.128 510.257 99.8382C510.548 99.5479 510.944 99.3848 511.356 99.3848C511.768 99.3848 512.163 99.5479 512.454 99.8382C512.745 100.128 512.909 100.522 512.909 100.933V105.911Z" fill="#97B2E4"/>
            <path style="mix-blend-mode:screen" d="M511.356 99.3795C510.498 99.3795 509.802 100.073 509.802 100.928V103.843L512.909 100.928C512.909 100.073 512.214 99.3795 511.356 99.3795Z" fill="url(#paint1_linear_16_359)"/>
            <path d="M511.356 99.129C510.876 99.1294 510.415 99.3196 510.076 99.6578C509.737 99.996 509.546 100.455 509.546 100.933V106.163H513.161V100.933C513.161 100.455 512.97 99.996 512.63 99.6578C512.291 99.3196 511.831 99.1294 511.351 99.129H511.356ZM512.909 100.933V101.509H511.496V99.3893C511.882 99.424 512.242 99.6017 512.503 99.8873C512.765 100.173 512.91 100.546 512.909 100.933ZM511.216 99.3893V101.509H509.802V100.933C509.802 100.124 510.422 99.459 511.216 99.3893ZM509.802 101.783H511.216V105.907H509.802V101.783ZM511.496 105.907V101.783H512.909V105.907H511.496Z" fill="white"/>
            <path d="M525.705 92.7697H522.598V87.7912C522.598 87.3807 522.762 86.9869 523.053 86.6966C523.344 86.4063 523.739 86.2432 524.151 86.2432C524.563 86.2432 524.958 86.4063 525.25 86.6966C525.541 86.9869 525.705 87.3807 525.705 87.7912V92.7697Z" fill="#97B2E4"/>
            <path style="mix-blend-mode:screen" d="M524.146 86.2432C523.288 86.2432 522.593 86.9362 522.593 87.7912V90.7057L525.699 87.7912C525.699 86.9362 525.005 86.2432 524.146 86.2432Z" fill="url(#paint2_linear_16_359)"/>
            <path d="M524.146 85.9875C523.666 85.9881 523.206 86.1783 522.867 86.5165C522.528 86.8546 522.337 87.313 522.336 87.7912V93.021H525.952V87.7912C525.951 87.313 525.76 86.8546 525.421 86.5165C525.081 86.1783 524.621 85.9881 524.142 85.9875H524.146ZM525.699 87.7912V88.368H524.286V86.2477C524.673 86.2826 525.032 86.4603 525.293 86.746C525.555 87.0316 525.7 87.4045 525.699 87.7912ZM524.006 86.2477V88.368H522.593V87.7912C522.593 86.9827 523.214 86.3175 524.006 86.2477ZM522.593 88.6425H524.006V92.7652H522.593V88.6425ZM524.286 92.7652V88.6425H525.699V92.7652H524.286Z" fill="white"/>
            <path d="M519.305 92.7697H516.199V87.7912C516.199 87.3807 516.362 86.9869 516.654 86.6966C516.945 86.4063 517.34 86.2432 517.752 86.2432C518.164 86.2432 518.559 86.4063 518.85 86.6966C519.142 86.9869 519.305 87.3807 519.305 87.7912V92.7697Z" fill="#97B2E4"/>
            <g style="mix-blend-mode:screen">
                <path d="M517.752 86.2432C516.894 86.2432 516.199 86.9362 516.199 87.7912V90.7057L519.305 87.7912C519.305 86.9362 518.611 86.2432 517.752 86.2432Z" fill="black"/>
            </g>
            <path d="M517.752 85.9875C517.272 85.9881 516.812 86.1783 516.473 86.5165C516.133 86.8546 515.943 87.313 515.942 87.7912V93.021H519.557V87.7912C519.557 87.313 519.366 86.8546 519.027 86.5165C518.687 86.1783 518.227 85.9881 517.747 85.9875H517.752ZM519.305 87.7912V88.368H517.892V86.2477C518.278 86.2826 518.638 86.4603 518.899 86.746C519.161 87.0316 519.306 87.4045 519.305 87.7912ZM517.612 86.2477V88.368H516.199V87.7912C516.199 86.9827 516.819 86.3175 517.612 86.2477ZM516.199 88.6425H517.612V92.7652H516.199V88.6425ZM517.892 92.7652V88.6425H519.305V92.7652H517.892Z" fill="white"/>
            <path d="M525.705 105.911H522.598V100.933C522.598 100.522 522.762 100.128 523.053 99.8382C523.344 99.5479 523.739 99.3848 524.151 99.3848C524.563 99.3848 524.958 99.5479 525.25 99.8382C525.541 100.128 525.705 100.522 525.705 100.933V105.911Z" fill="#97B2E4"/>
            <path style="mix-blend-mode:screen" d="M524.146 99.3795C523.288 99.3795 522.593 100.073 522.593 100.928V103.843L525.699 100.928C525.699 100.073 525.005 99.3795 524.146 99.3795Z" fill="url(#paint3_linear_16_359)"/>
            <path d="M524.146 99.129C523.666 99.1294 523.206 99.3196 522.867 99.6578C522.527 99.996 522.336 100.455 522.336 100.933V106.163H525.952V100.933C525.951 100.455 525.76 99.996 525.421 99.6578C525.082 99.3196 524.621 99.1294 524.142 99.129H524.146ZM525.699 100.933V101.509H524.286V99.3893C524.673 99.424 525.032 99.6017 525.294 99.8873C525.555 100.173 525.7 100.546 525.699 100.933ZM524.006 99.3893V101.509H522.593V100.933C522.593 100.124 523.214 99.459 524.006 99.3893ZM522.593 101.783H524.006V105.907H522.593V101.783ZM524.286 105.907V101.783H525.699V105.907H524.286Z" fill="white"/>
            <path d="M536.56 92.7697H533.454V87.7912C533.454 87.3807 533.617 86.9869 533.908 86.6966C534.2 86.4063 534.595 86.2432 535.007 86.2432C535.419 86.2432 535.814 86.4063 536.105 86.6966C536.397 86.9869 536.56 87.3807 536.56 87.7912V92.7697Z" fill="#97B2E4"/>
            <path style="mix-blend-mode:screen" d="M535.002 86.2432C534.144 86.2432 533.448 86.9362 533.448 87.7912V90.7057L536.555 87.7912C536.555 86.9362 535.86 86.2432 535.002 86.2432Z" fill="url(#paint4_linear_16_359)"/>
            <path d="M535.002 85.9875C534.522 85.9881 534.062 86.1783 533.722 86.5165C533.383 86.8546 533.192 87.313 533.192 87.7912V93.021H536.807V87.7912C536.807 87.313 536.616 86.8546 536.276 86.5165C535.937 86.1783 535.477 85.9881 534.997 85.9875H535.002ZM536.555 87.7912V88.368H535.142V86.2477C535.528 86.2826 535.887 86.4603 536.149 86.746C536.411 87.0316 536.555 87.4045 536.555 87.7912ZM534.862 86.2477V88.368H533.448V87.7912C533.448 86.9827 534.068 86.3175 534.862 86.2477ZM533.448 88.6425H534.862V92.7652H533.448V88.6425ZM535.142 92.7652V88.6425H536.555V92.7652H535.142Z" fill="white"/>
            <path d="M536.56 105.911H533.454V100.933C533.454 100.522 533.617 100.128 533.908 99.8382C534.2 99.5479 534.595 99.3848 535.007 99.3848C535.419 99.3848 535.814 99.5479 536.105 99.8382C536.397 100.128 536.56 100.522 536.56 100.933V105.911Z" fill="#97B2E4"/>
            <path style="mix-blend-mode:screen" d="M535.002 99.3802C534.144 99.3802 533.448 100.072 533.448 100.928V103.843L536.555 100.928C536.555 100.725 536.515 100.524 536.437 100.336C536.359 100.148 536.244 99.9772 536.1 99.8334C535.956 99.6897 535.785 99.5756 535.596 99.4979C535.408 99.4201 535.206 99.3802 535.002 99.3802Z" fill="url(#paint5_linear_16_359)"/>
            <path d="M535.002 99.129C534.522 99.1296 534.062 99.3199 533.722 99.658C533.383 99.9961 533.192 100.455 533.192 100.933V106.163H536.807V100.933C536.807 100.455 536.616 99.9961 536.276 99.658C535.937 99.3199 535.477 99.1296 534.997 99.129H535.002ZM536.555 100.933V101.51H535.142V99.3893C535.528 99.4241 535.887 99.6019 536.149 99.8875C536.411 100.173 536.555 100.546 536.555 100.933ZM534.862 99.3893V101.51H533.448V100.933C533.448 100.124 534.068 99.459 534.862 99.3893ZM533.448 101.784H534.862V105.907H533.448V101.784ZM535.142 105.907V101.784H536.555V105.907H535.142Z" fill="white"/>
            <path d="M543.274 92.7697H540.167V87.7912C540.167 87.3807 540.331 86.9869 540.622 86.6966C540.914 86.4063 541.309 86.2432 541.721 86.2432C542.133 86.2432 542.528 86.4063 542.819 86.6966C543.111 86.9869 543.274 87.3807 543.274 87.7912V92.7697Z" fill="#97B2E4"/>
            <g style="mix-blend-mode:screen">
                <path d="M541.721 86.2432C541.517 86.2431 541.315 86.2831 541.126 86.3609C540.938 86.4386 540.767 86.5526 540.622 86.6964C540.478 86.8402 540.364 87.0109 540.286 87.1987C540.208 87.3866 540.167 87.5879 540.167 87.7912V90.7057L543.274 87.7912C543.274 86.9362 542.579 86.2432 541.721 86.2432Z" fill="black"/>
            </g>
            <path d="M541.721 85.9875C541.241 85.9879 540.781 86.1781 540.441 86.5162C540.102 86.8544 539.911 87.313 539.911 87.7912V93.021H543.526V87.7912C543.525 87.3131 543.334 86.8547 542.995 86.5165C542.656 86.1783 542.196 85.9881 541.716 85.9875H541.721ZM543.274 87.7912V88.368H541.861V86.2477C542.247 86.2828 542.607 86.4605 542.868 86.7462C543.13 87.0318 543.275 87.4046 543.274 87.7912ZM541.581 86.2477V88.368H540.167V87.7912C540.167 86.9827 540.788 86.3175 541.581 86.2477ZM540.167 88.6425H541.581V92.7652H540.167V88.6425ZM541.861 92.7652V88.6425H543.274V92.7652H541.861Z" fill="white"/>
            <path d="M543.274 105.911H540.167V100.933C540.167 100.522 540.331 100.128 540.622 99.8382C540.914 99.5479 541.309 99.3848 541.721 99.3848C542.133 99.3848 542.528 99.5479 542.819 99.8382C543.111 100.128 543.274 100.522 543.274 100.933V105.911Z" fill="#97B2E4"/>
            <path style="mix-blend-mode:screen" d="M541.721 99.3795C541.517 99.3794 541.315 99.4194 541.126 99.4972C540.938 99.5749 540.767 99.6889 540.622 99.8327C540.478 99.9765 540.364 100.147 540.286 100.335C540.208 100.523 540.167 100.724 540.167 100.928V103.843L543.274 100.928C543.274 100.073 542.579 99.3795 541.721 99.3795Z" fill="url(#paint6_linear_16_359)"/>
            <path d="M541.721 99.129C541.241 99.1294 540.781 99.3196 540.441 99.6578C540.102 99.996 539.911 100.455 539.911 100.933V106.163H543.526V100.933C543.525 100.455 543.335 99.996 542.996 99.6578C542.656 99.3196 542.196 99.1294 541.716 99.129H541.721ZM543.274 100.933V101.509H541.861V99.3893C542.247 99.4241 542.607 99.6019 542.868 99.8875C543.13 100.173 543.275 100.546 543.274 100.933ZM541.581 99.3893V101.509H540.167V100.933C540.167 100.124 540.788 99.459 541.581 99.3893ZM540.167 101.783H541.581V105.907H540.167V101.783ZM541.861 105.907V101.783H543.274V105.907H541.861Z" fill="white"/>
            <path d="M550.143 92.7697H547.036V87.7912C547.036 87.3807 547.2 86.9869 547.491 86.6966C547.783 86.4063 548.178 86.2432 548.59 86.2432C549.002 86.2432 549.397 86.4063 549.688 86.6966C549.98 86.9869 550.143 87.3807 550.143 87.7912V92.7697Z" fill="#97B2E4"/>
            <path style="mix-blend-mode:screen" d="M548.59 86.2432C548.386 86.2431 548.184 86.2831 547.995 86.3609C547.807 86.4386 547.636 86.5526 547.491 86.6964C547.347 86.8402 547.233 87.0109 547.155 87.1987C547.077 87.3866 547.036 87.5879 547.036 87.7912V90.7057L550.143 87.7912C550.143 86.9362 549.448 86.2432 548.59 86.2432Z" fill="url(#paint7_linear_16_359)"/>
            <path d="M548.59 85.9875C548.11 85.9879 547.65 86.1781 547.31 86.5162C546.971 86.8544 546.78 87.313 546.78 87.7912V93.021H550.395V87.7912C550.394 87.3131 550.204 86.8547 549.864 86.5165C549.525 86.1783 549.065 85.9881 548.585 85.9875H548.59ZM550.143 87.7912V88.368H548.73V86.2477C549.116 86.2828 549.476 86.4605 549.737 86.7462C549.999 87.0318 550.144 87.4046 550.143 87.7912ZM548.45 86.2477V88.368H547.037V87.7912C547.037 86.9827 547.657 86.3175 548.45 86.2477ZM547.037 88.6425H548.45V92.7652H547.037V88.6425ZM548.73 92.7652V88.6425H550.143V92.7652H548.73Z" fill="white"/>
            <path d="M550.143 105.911H547.036V100.933C547.036 100.522 547.2 100.128 547.491 99.8382C547.783 99.5479 548.178 99.3848 548.59 99.3848C549.002 99.3848 549.397 99.5479 549.688 99.8382C549.98 100.128 550.143 100.522 550.143 100.933V105.911Z" fill="#97B2E4"/>
            <path style="mix-blend-mode:screen" d="M548.59 99.3802C548.386 99.3802 548.184 99.4201 547.995 99.4979C547.807 99.5756 547.636 99.6897 547.491 99.8334C547.347 99.9772 547.233 100.148 547.155 100.336C547.077 100.524 547.036 100.725 547.036 100.928V103.843L550.143 100.928C550.143 100.725 550.103 100.524 550.025 100.336C549.947 100.148 549.833 99.9772 549.688 99.8334C549.544 99.6897 549.373 99.5756 549.184 99.4979C548.996 99.4201 548.794 99.3802 548.59 99.3802Z" fill="url(#paint8_linear_16_359)"/>
            <path d="M548.59 99.129C548.11 99.1294 547.65 99.3196 547.31 99.6578C546.971 99.996 546.78 100.455 546.78 100.933V106.163H550.395V100.933C550.394 100.455 550.204 99.9962 549.864 99.658C549.525 99.3199 549.065 99.1296 548.585 99.129H548.59ZM550.143 100.933V101.51H548.73V99.3893C549.116 99.4243 549.476 99.6021 549.737 99.8877C549.999 100.173 550.144 100.546 550.143 100.933ZM548.45 99.3893V101.51H547.037V100.933C547.037 100.124 547.657 99.459 548.45 99.3893ZM547.037 101.784H548.45V105.907H547.037V101.784ZM548.73 105.907V101.784H550.143V105.907H548.73Z" fill="white"/>
            <path d="M488.444 92.7697H485.337V87.7912C485.337 87.3807 485.501 86.9869 485.792 86.6966C486.084 86.4063 486.479 86.2432 486.891 86.2432C487.303 86.2432 487.698 86.4063 487.989 86.6966C488.28 86.9869 488.444 87.3807 488.444 87.7912V92.7697Z" fill="#97B2E4"/>
            <path style="mix-blend-mode:screen" d="M486.885 86.2432C486.027 86.2432 485.332 86.9362 485.332 87.7912V90.7057L488.439 87.7912C488.439 86.9362 487.744 86.2432 486.885 86.2432Z" fill="url(#paint9_linear_16_359)"/>
            <path d="M486.885 85.9875C486.406 85.9881 485.946 86.1783 485.606 86.5165C485.267 86.8547 485.077 87.3131 485.076 87.7912V93.021H488.691V87.7912C488.69 87.313 488.5 86.8544 488.16 86.5162C487.821 86.1781 487.361 85.9879 486.881 85.9875H486.885ZM488.439 87.7912V88.368H487.025V86.2477C487.412 86.2826 487.771 86.4603 488.033 86.746C488.294 87.0316 488.439 87.4045 488.439 87.7912ZM486.745 86.2477V88.368H485.332V87.7912C485.332 86.9827 485.953 86.3175 486.745 86.2477ZM485.332 88.6425H486.745V92.7652H485.332V88.6425ZM487.025 92.7652V88.6425H488.439V92.7652H487.025Z" fill="white"/>
            <path d="M488.444 105.911H485.337V100.933C485.337 100.522 485.501 100.128 485.792 99.8382C486.084 99.5479 486.479 99.3848 486.891 99.3848C487.303 99.3848 487.698 99.5479 487.989 99.8382C488.28 100.128 488.444 100.522 488.444 100.933V105.911Z" fill="#97B2E4"/>
            <path style="mix-blend-mode:screen" d="M486.885 99.3795C486.027 99.3795 485.332 100.073 485.332 100.928V103.843L488.439 100.928C488.439 100.073 487.744 99.3795 486.885 99.3795Z" fill="url(#paint10_linear_16_359)"/>
            <path d="M486.885 99.129C486.406 99.1294 485.945 99.3196 485.606 99.6578C485.267 99.996 485.076 100.455 485.076 100.933V106.163H488.691V100.933C488.69 100.455 488.5 99.996 488.16 99.6578C487.821 99.3196 487.361 99.1294 486.881 99.129H486.885ZM488.439 100.933V101.509H487.025V99.3893C487.412 99.424 487.771 99.6017 488.033 99.8873C488.295 100.173 488.439 100.546 488.439 100.933ZM486.745 99.3893V101.509H485.332V100.933C485.332 100.124 485.953 99.459 486.745 99.3893ZM485.332 101.783H486.745V105.907H485.332V101.783ZM487.025 105.907V101.783H488.439V105.907H487.025Z" fill="white"/>
            <path d="M495.154 92.7697H492.047V87.7912C492.047 87.3807 492.211 86.9869 492.502 86.6966C492.794 86.4063 493.189 86.2432 493.601 86.2432C494.013 86.2432 494.408 86.4063 494.699 86.6966C494.991 86.9869 495.154 87.3807 495.154 87.7912V92.7697Z" fill="#97B2E4"/>
            <g style="mix-blend-mode:screen">
                <path d="M493.601 86.2432C492.743 86.2432 492.047 86.9362 492.047 87.7912V90.7057L495.154 87.7912C495.154 86.9362 494.46 86.2432 493.601 86.2432Z" fill="black"/>
            </g>
            <path d="M493.601 85.9875C493.121 85.9881 492.661 86.1783 492.322 86.5165C491.982 86.8546 491.791 87.313 491.791 87.7912V93.021H495.406V87.7912C495.406 87.313 495.215 86.8546 494.876 86.5165C494.536 86.1783 494.076 85.9881 493.596 85.9875H493.601ZM495.154 87.7912V88.368H493.741V86.2477C494.127 86.2826 494.487 86.4603 494.748 86.746C495.01 87.0316 495.155 87.4045 495.154 87.7912ZM493.461 86.2477V88.368H492.047V87.7912C492.047 86.9827 492.668 86.3175 493.461 86.2477ZM492.047 88.6425H493.461V92.7652H492.047V88.6425ZM493.741 92.7652V88.6425H495.154V92.7652H493.741Z" fill="white"/>
            <path d="M495.154 105.911H492.047V100.933C492.047 100.522 492.211 100.128 492.502 99.8382C492.794 99.5479 493.189 99.3848 493.601 99.3848C494.013 99.3848 494.408 99.5479 494.699 99.8382C494.991 100.128 495.154 100.522 495.154 100.933V105.911Z" fill="#97B2E4"/>
            <path style="mix-blend-mode:screen" d="M493.601 99.3795C492.743 99.3795 492.047 100.073 492.047 100.928V103.843L495.154 100.928C495.154 100.073 494.46 99.3795 493.601 99.3795Z" fill="url(#paint11_linear_16_359)"/>
            <path d="M493.601 99.129C493.121 99.1294 492.661 99.3196 492.321 99.6578C491.982 99.996 491.791 100.455 491.791 100.933V106.163H495.406V100.933C495.406 100.455 495.215 99.996 494.876 99.6578C494.536 99.3196 494.076 99.1294 493.596 99.129H493.601ZM495.154 100.933V101.509H493.741V99.3893C494.127 99.424 494.487 99.6017 494.748 99.8873C495.01 100.173 495.155 100.546 495.154 100.933ZM493.461 99.3893V101.509H492.047V100.933C492.047 100.124 492.668 99.459 493.461 99.3893ZM492.047 101.783H493.461V105.907H492.047V101.783ZM493.741 105.907V101.783H495.154V105.907H493.741Z" fill="white"/>
            <path d="M502.026 92.769H498.919V87.7905C498.919 87.3799 499.083 86.9862 499.374 86.6959C499.666 86.4056 500.061 86.2425 500.473 86.2425C500.885 86.2425 501.28 86.4056 501.571 86.6959C501.863 86.9862 502.026 87.3799 502.026 87.7905V92.769Z" fill="#97B2E4"/>
            <path style="mix-blend-mode:screen" d="M500.473 86.2425C499.615 86.2425 498.919 86.9355 498.919 87.7905V90.705L502.026 87.7905C502.026 86.9355 501.332 86.2425 500.473 86.2425Z" fill="url(#paint12_linear_16_359)"/>
            <path d="M500.473 85.9868C499.993 85.9874 499.533 86.1776 499.194 86.5157C498.854 86.8539 498.664 87.3123 498.663 87.7905V93.0203H502.278V87.7905C502.278 87.3123 502.087 86.8539 501.748 86.5157C501.408 86.1776 500.948 85.9874 500.468 85.9868H500.473ZM502.026 87.7905V88.3673H500.613V86.2478C500.999 86.2823 501.359 86.4598 501.62 86.7454C501.882 87.0309 502.027 87.4038 502.026 87.7905ZM500.333 86.2478V88.3673H498.919V87.7905C498.919 86.982 499.54 86.3168 500.333 86.2478ZM498.919 88.6418H500.333V92.7645H498.919V88.6418ZM500.613 92.7645V88.6418H502.026V92.7645H500.613Z" fill="white"/>
            <path d="M502.026 105.911H498.919V100.933C498.919 100.522 499.083 100.128 499.374 99.8382C499.666 99.5479 500.061 99.3848 500.473 99.3848C500.885 99.3848 501.28 99.5479 501.571 99.8382C501.863 100.128 502.026 100.522 502.026 100.933V105.911Z" fill="#97B2E4"/>
            <path style="mix-blend-mode:screen" d="M500.473 99.3795C499.615 99.3795 498.919 100.073 498.919 100.928V103.843L502.026 100.928C502.026 100.073 501.332 99.3795 500.473 99.3795Z" fill="url(#paint13_linear_16_359)"/>
            <path d="M500.473 99.129C499.993 99.1294 499.533 99.3196 499.193 99.6578C498.854 99.996 498.663 100.455 498.663 100.933V106.163H502.278V100.933C502.278 100.455 502.087 99.996 501.748 99.6578C501.408 99.3196 500.948 99.1294 500.468 99.129H500.473ZM502.026 100.933V101.509H500.613V99.3893C500.999 99.424 501.359 99.6017 501.621 99.8873C501.882 100.173 502.027 100.546 502.026 100.933ZM500.333 99.3893V101.509H498.919V100.933C498.919 100.124 499.54 99.459 500.333 99.3893ZM498.919 101.783H500.333V105.907H498.919V101.783ZM500.613 105.907V101.783H502.026V105.907H500.613Z" fill="white"/>
            <path d="M551.794 83.733H483.092V84.858H551.794V83.733Z" fill="#C9C8C8"/>
            <path d="M552.899 109.212H482.177V113.395H552.899V109.212Z" fill="#2B373C"/>
            <path d="M552.713 80.223H482.177V83.733H552.713V80.223ZM552.713 94.1738H482.177V96.2468H552.713V94.1738Z" fill="#C5D9FC"/>
            <path d="M527.188 93.444H508.011V97.1955H527.188V93.444Z" fill="#FF7768"/>
            <path d="M532.374 84.858H531.114V109.216H532.374V84.858ZM509.271 84.858H508.011V109.216H509.271V84.858Z" fill="#C9C8C8"/>
            <path d="M526.872 108.464H531.443C531.793 108.464 532.078 108.747 532.078 109.096V109.217H526.233V109.096C526.233 108.747 526.517 108.464 526.867 108.464H526.872ZM526.233 83.7098H532.078V84.03C532.078 84.0863 532.067 84.142 532.046 84.194C532.024 84.246 531.992 84.2932 531.953 84.333C531.913 84.3728 531.865 84.4044 531.813 84.4259C531.761 84.4474 531.705 84.4584 531.649 84.4583H526.667C526.611 84.4585 526.555 84.4475 526.503 84.4261C526.45 84.4046 526.403 84.3731 526.363 84.3333C526.323 84.2935 526.291 84.2462 526.27 84.1941C526.248 84.1421 526.237 84.0863 526.238 84.03V83.7098H526.233ZM531.549 84.4628H526.758V84.8393H531.549V84.4628ZM531.122 84.8393H527.19V108.464H531.122V84.8393Z" fill="#FF7768"/>
            <path d="M531.549 84.4628H526.758V84.6488H531.549V84.4628ZM531.122 84.8393H527.19V85.0253H531.122V84.8393ZM532.078 83.7098H526.233V83.8958H532.078V83.7098ZM503.761 108.464H508.332C508.682 108.464 508.967 108.747 508.967 109.096V109.217H503.122V109.096C503.122 108.747 503.407 108.464 503.756 108.464H503.761ZM503.127 83.7098H508.972V84.03C508.972 84.0863 508.961 84.142 508.94 84.194C508.918 84.246 508.887 84.2932 508.847 84.333C508.807 84.3728 508.76 84.4044 508.708 84.4259C508.655 84.4474 508.6 84.4584 508.543 84.4583H503.561C503.504 84.4584 503.448 84.4474 503.396 84.4259C503.344 84.4044 503.297 84.3728 503.257 84.333C503.217 84.2932 503.186 84.246 503.164 84.194C503.143 84.142 503.132 84.0863 503.132 84.03V83.7098H503.127ZM508.438 84.4628H503.647V84.8393H508.438V84.4628ZM508.015 84.8393H504.082V108.464H508.015V84.8393Z" fill="#FF7768"/>
            <path d="M508.438 84.4628H503.647V84.6488H508.438V84.4628ZM508.015 84.8393H504.082V85.0253H508.015V84.8393ZM508.972 83.7098H503.127V83.8958H508.972V83.7098Z" fill="#FF7768"/>
            <path d="M551.794 68.8898H483.092V80.2185H551.794V68.8898Z" fill="#B6D8C2"/>
            <path d="M517.461 65.25L498.2 80.223H536.727L517.461 65.25Z" fill="#C5D9FC"/>
            <path d="M504.209 80.6737L517.461 70.3725L530.719 80.6737H504.209Z" fill="white"/>
            <path d="M525.521 109.212H510.314V110.257H525.521V109.212Z" fill="#E0D6C0"/>
            <path d="M525.521 110.258H510.314V111.304H525.521V110.258Z" fill="#FFF7DF"/>
            <path d="M525.521 111.304H510.314V112.349H525.521V111.304Z" fill="#E0D6C0"/>
            <path d="M525.521 112.349H510.314V113.395H525.521V112.349Z" fill="#FFF7DF"/>
            <path d="M513.671 93.9323C514.034 93.9323 514.231 94.1273 514.231 94.4903V94.746C514.231 94.7828 514.212 94.806 514.17 94.806H513.777C513.741 94.806 513.717 94.7828 513.717 94.746V94.5833C513.717 94.4813 513.666 94.4295 513.563 94.4295H513.348C513.251 94.4295 513.195 94.4858 513.195 94.5833V94.9133L514.137 95.2155C514.168 95.2243 514.195 95.2434 514.214 95.2696C514.232 95.2958 514.241 95.3275 514.24 95.3595V96.0893C514.24 96.4568 514.044 96.6473 513.68 96.6473H513.242C512.877 96.6473 512.682 96.4523 512.682 96.0893V95.838C512.682 95.7968 512.705 95.778 512.743 95.778H513.134C513.176 95.778 513.195 95.7968 513.195 95.838V96.0008C513.195 96.108 513.255 96.1545 513.348 96.1545H513.558C513.662 96.1545 513.713 96.1035 513.713 96.0008V95.6108L512.779 95.3085C512.709 95.2853 512.673 95.2388 512.673 95.1645V94.4948C512.673 94.1273 512.873 93.9368 513.232 93.9368H513.671V93.9323ZM516.147 94.9133C516.147 94.95 516.124 94.9733 516.086 94.9733H515.723C515.681 94.9733 515.662 94.95 515.662 94.9133V94.5968C515.662 94.4948 515.606 94.4438 515.508 94.4438H515.261C515.153 94.4438 515.107 94.4993 515.107 94.5968V96.0053C515.107 96.1125 515.163 96.159 515.261 96.159H515.508C515.611 96.159 515.662 96.108 515.662 96.0053V95.6753C515.662 95.6385 515.681 95.6153 515.723 95.6153H516.086C516.124 95.6153 516.147 95.6385 516.147 95.6753V96.0938C516.147 96.4613 515.946 96.6518 515.587 96.6518H515.153C514.785 96.6518 514.589 96.456 514.589 96.0938V94.4948C514.589 94.1273 514.79 93.9368 515.153 93.9368H515.587C515.951 93.9368 516.147 94.1318 516.147 94.4948V94.9133ZM517.566 93.9975C517.566 93.96 517.589 93.9368 517.626 93.9368H518.027C518.074 93.9368 518.093 93.96 518.093 93.9975V96.591C518.093 96.6285 518.074 96.6518 518.027 96.6518H517.626C517.589 96.6518 517.566 96.6285 517.566 96.591V95.559H517.067V96.591C517.067 96.6285 517.044 96.6518 517.006 96.6518H516.605C516.558 96.6518 516.54 96.6285 516.54 96.591V93.9975C516.54 93.96 516.558 93.9368 516.605 93.9368H517.006C517.044 93.9368 517.067 93.96 517.067 93.9975V95.043H517.566V93.9975ZM518.486 94.4948C518.486 94.1273 518.681 93.9368 519.046 93.9368H519.484C519.852 93.9368 520.044 94.1318 520.044 94.4948V96.0938C520.044 96.4613 519.848 96.6518 519.484 96.6518H519.046C518.677 96.6518 518.486 96.456 518.486 96.0938V94.4948ZM519.396 96.1545C519.498 96.1545 519.549 96.1028 519.549 96.0008V94.5968C519.549 94.4948 519.493 94.4438 519.396 94.4438H519.148C519.046 94.4438 518.994 94.4993 518.994 94.5968V96.0008C518.994 96.108 519.05 96.1545 519.148 96.1545H519.396ZM520.434 94.4948C520.434 94.1273 520.63 93.9368 520.994 93.9368H521.432C521.796 93.9368 521.992 94.1318 521.992 94.4948V96.0938C521.992 96.4613 521.796 96.6518 521.432 96.6518H520.994C520.625 96.6518 520.434 96.456 520.434 96.0938V94.4948ZM521.344 96.1545C521.446 96.1545 521.498 96.1028 521.498 96.0008V94.5968C521.498 94.4948 521.442 94.4438 521.344 94.4438H521.097C520.994 94.4438 520.943 94.4993 520.943 94.5968V96.0008C520.943 96.108 520.999 96.1545 521.097 96.1545H521.344ZM522.917 96.1403H523.687C523.729 96.1403 523.748 96.1635 523.748 96.201V96.591C523.748 96.633 523.729 96.6518 523.687 96.6518H522.446C522.409 96.6518 522.386 96.633 522.386 96.591V93.9975C522.386 93.96 522.409 93.9368 522.446 93.9368H522.852C522.894 93.9368 522.913 93.96 522.913 93.9975V96.1403H522.917Z" fill="white"/>
            <path d="M511.35 109.212H510.314V113.396H511.35V109.212ZM522.149 68.8898H523.385L543.098 80.223H536.727L522.149 68.8898ZM504.209 80.6738H504.657L517.891 71.4413L530.141 80.6738H530.719L517.461 70.3725L504.209 80.6738Z" fill="#C9C8C8"/>
            <path d="M517.77 98.7427C515.876 98.7427 514.337 100.142 514.337 101.866V109.216H521.203V101.866C521.203 100.142 519.664 98.7427 517.77 98.7427Z" fill="#E0D6C0"/>
            <path d="M517.513 99.0165H517.649V109.211H514.645V101.875C514.645 101.117 514.948 100.39 515.485 99.8543C516.023 99.3182 516.753 99.0169 517.513 99.0165ZM520.891 109.216H517.887V99.0217H518.023C518.784 99.0221 519.513 99.3235 520.051 99.8596C520.589 100.396 520.891 101.123 520.891 101.881V109.216Z" fill="#312A20"/>
            <path d="M514.748 76.6162C514.748 75.8655 515.047 75.1455 515.58 74.6147C516.113 74.0838 516.835 73.7854 517.589 73.785C518.342 73.7854 519.064 74.0838 519.597 74.6147C520.13 75.1455 520.429 75.8655 520.43 76.6162C520.429 77.3669 520.13 78.0866 519.597 78.6173C519.064 79.148 518.342 79.4463 517.589 79.4467C516.835 79.4463 516.113 79.148 515.58 78.6173C515.048 78.0866 514.748 77.3669 514.748 76.6162Z" fill="#C5D9FC"/>
            <path d="M519.056 78.2055L517.498 76.653V74.487H517.671V76.5832L519.182 78.0847L519.056 78.2055Z" fill="#312A20"/>
            <path d="M504.078 96.2468H483.092V97.0373H504.078V96.2468ZM551.792 96.2468H532.373V97.0373H551.792V96.2468ZM527.193 97.1903H509.275V98.046H527.193V97.1903Z" fill="#C9C8C8"/>
        </g>
        <g style="mix-blend-mode:luminosity" opacity="0.5">
            <path d="M966.267 30.384H925.581V33.66H966.267V30.384Z" fill="#366ED7"/>
            <path d="M960.593 27.1072H931.256V30.3832H960.593V27.1072Z" fill="#A5E6FA"/>
            <path d="M950.771 23.8305H941.077C940.645 23.83 940.218 23.9144 939.818 24.0789C939.419 24.2434 939.057 24.4848 938.751 24.7891C938.446 25.0935 938.203 25.4549 938.038 25.8527C937.873 26.2505 937.788 26.6768 937.789 27.1073H954.06C954.06 26.238 953.713 25.4044 953.097 24.7897C952.48 24.1751 951.643 23.8298 950.771 23.8298V23.8305Z" fill="#5FD6FA"/>
            <path d="M970.264 33.3937H950.922V114.415H970.264V33.3937ZM945.33 33.3937H940.649V114.415H945.33V33.3937Z" fill="#A5E6FA"/>
            <path d="M950.922 32.9655H944.299V114.414H950.922V32.9655Z" fill="#5FD6FA"/>
            <path d="M947.046 20.5702H943.614V23.88H947.046V20.5702ZM945.691 9.85272H944.645V20.5702H945.691V9.85272Z" fill="#545244"/>
            <path d="M945.33 0.32251H945.006V11.04H945.33V0.32251Z" fill="#545244"/>
            <path d="M945.826 9.50777H944.502V9.85202H945.826V9.50702V9.50777Z" fill="#545244"/>
            <path d="M944.841 0.3225C944.841 0.14475 944.984 0 945.164 0C945.345 0 945.488 0.14475 945.488 0.3225C945.488 0.4995 945.345 0.64425 945.164 0.64425C945.122 0.644449 945.079 0.636243 945.04 0.620106C945.001 0.603969 944.965 0.580221 944.935 0.550235C944.905 0.520248 944.881 0.484617 944.865 0.4454C944.849 0.406183 944.84 0.364157 944.841 0.32175V0.3225Z" fill="#D24A43"/>
            <path d="M968.239 36.0203H952.856V37.8143H968.239V36.0203Z" fill="#366ED7"/>
            <path d="M968.239 35.592H952.856V36.0255H968.239V35.592Z" fill="#6A777D"/>
            <path d="M949.89 36.0203H945.33V37.8143H949.89V36.0203Z" fill="#366ED7"/>
            <path d="M949.89 35.5928H945.33V36.0263H949.89V35.5928Z" fill="#41494D"/>
            <path d="M949.89 40.1077H945.33V41.9017H949.89V40.1077Z" fill="#366ED7"/>
            <path d="M949.89 39.675H945.33V40.1078H949.89V39.6743V39.675Z" fill="#41494D"/>
            <path d="M949.89 44.1953H945.33V45.9893H949.89V44.1953Z" fill="#366ED7"/>
            <path d="M949.89 43.7625H945.33V44.1953H949.89V43.7625Z" fill="#41494D"/>
            <path d="M949.89 48.2828H945.33V50.0768H949.89V48.2828Z" fill="#366ED7"/>
            <path d="M949.89 47.85H945.33V48.2827H949.89V47.85Z" fill="#41494D"/>
            <path d="M949.89 52.3702H945.33V54.1642H949.89V52.3702Z" fill="#366ED7"/>
            <path d="M949.89 51.9375H945.33V52.3703H949.89V51.9368V51.9375Z" fill="#41494D"/>
            <path d="M949.89 56.4578H945.33V58.2518H949.89V56.4578Z" fill="#366ED7"/>
            <path d="M949.89 56.025H945.33V56.4577H949.89V56.0242V56.025Z" fill="#41494D"/>
            <path d="M949.89 60.5452H945.33V62.3392H949.89V60.5452Z" fill="#366ED7"/>
            <path d="M949.89 60.1125H945.33V60.5453H949.89V60.1118V60.1125Z" fill="#41494D"/>
            <path d="M949.89 64.632H945.33V66.426H949.89V64.632Z" fill="#366ED7"/>
            <path d="M949.89 64.2H945.33V64.6327H949.89V64.1992V64.2Z" fill="#41494D"/>
            <path d="M949.89 68.7195H945.33V70.5135H949.89V68.7195Z" fill="#366ED7"/>
            <path d="M949.89 68.2867H945.33V68.7195H949.89V68.2867Z" fill="#41494D"/>
            <path d="M949.89 72.807H945.33V74.601H949.89V72.807Z" fill="#366ED7"/>
            <path d="M949.89 72.3743H945.33V72.807H949.89V72.375V72.3743Z" fill="#41494D"/>
            <path d="M949.89 76.8945H945.33V78.6885H949.89V76.8945Z" fill="#366ED7"/>
            <path d="M949.89 76.461H945.33V76.8945H949.89V76.461Z" fill="#41494D"/>
            <path d="M949.89 80.982H945.33V82.7752H949.89V80.982Z" fill="#366ED7"/>
            <path d="M949.89 80.5485H945.33V80.982H949.89V80.5485Z" fill="#41494D"/>
            <path d="M949.89 85.0695H945.33V86.8635H949.89V85.0695Z" fill="#366ED7"/>
            <path d="M949.89 84.6367H945.33V85.0695H949.89V84.6367Z" fill="#41494D"/>
            <path d="M949.89 89.157H945.33V90.951H949.89V89.157Z" fill="#366ED7"/>
            <path d="M949.89 88.7235H945.33V89.157H949.89V88.7235Z" fill="#41494D"/>
            <path d="M949.89 93.2445H945.33V95.0378H949.89V93.2445Z" fill="#366ED7"/>
            <path d="M949.89 92.811H945.33V93.2445H949.89V92.811Z" fill="#41494D"/>
            <path d="M949.89 97.332H945.33V99.126H949.89V97.332Z" fill="#366ED7"/>
            <path d="M949.89 96.8985H945.33V97.332H949.89V96.8985Z" fill="#41494D"/>
            <path d="M949.89 101.419H945.33V103.213H949.89V101.419Z" fill="#366ED7"/>
            <path d="M949.89 100.986H945.33V101.42H949.89V100.986Z" fill="#41494D"/>
            <path d="M940.649 32.9655H934.033V114.414H940.649V32.9655Z" fill="#5FD6FA"/>
            <path d="M939.617 36.0203H935.064V37.8143H939.617V36.0203Z" fill="#366ED7"/>
            <path d="M939.617 35.592H935.064V36.0255H939.617V35.592Z" fill="#41494D"/>
            <path d="M939.617 40.1077H935.064V41.9017H939.617V40.1077Z" fill="#366ED7"/>
            <path d="M939.617 39.675H935.064V40.1078H939.617V39.6743V39.675Z" fill="#41494D"/>
            <path d="M939.617 44.1945H935.064V45.9885H939.617V44.1945Z" fill="#366ED7"/>
            <path d="M939.617 43.7617H935.064V44.1945H939.617V43.7617Z" fill="#41494D"/>
            <path d="M939.617 48.282H935.064V50.076H939.617V48.282Z" fill="#366ED7"/>
            <path d="M939.617 47.8492H935.064V48.282H939.617V47.85V47.8492Z" fill="#41494D"/>
            <path d="M939.617 52.3702H935.064V54.1642H939.617V52.3702Z" fill="#366ED7"/>
            <path d="M939.617 51.9375H935.064V52.3703H939.617V51.9368V51.9375Z" fill="#41494D"/>
            <path d="M939.617 56.4578H935.064V58.2518H939.617V56.4578Z" fill="#366ED7"/>
            <path d="M939.617 56.025H935.064V56.4577H939.617V56.0242V56.025Z" fill="#41494D"/>
            <path d="M939.617 60.5452H935.064V62.3392H939.617V60.5452Z" fill="#366ED7"/>
            <path d="M939.617 60.1125H935.064V60.5453H939.617V60.1118V60.1125Z" fill="#41494D"/>
            <path d="M939.617 64.632H935.064V66.426H939.617V64.632Z" fill="#366ED7"/>
            <path d="M939.617 64.1992H935.064V64.632H939.617V64.2V64.1992Z" fill="#41494D"/>
            <path d="M939.617 68.7195H935.064V70.5135H939.617V68.7195Z" fill="#366ED7"/>
            <path d="M939.617 68.2867H935.064V68.7195H939.617V68.2867Z" fill="#41494D"/>
            <path d="M939.617 72.807H935.064V74.601H939.617V72.807Z" fill="#366ED7"/>
            <path d="M939.617 72.3743H935.064V72.807H939.617V72.375V72.3743Z" fill="#41494D"/>
            <path d="M939.617 76.8945H935.064V78.6885H939.617V76.8945Z" fill="#366ED7"/>
            <path d="M939.617 76.4617H935.064V76.8945H939.617V76.4617Z" fill="#41494D"/>
            <path d="M939.617 80.982H935.064V82.776H939.617V80.982Z" fill="#366ED7"/>
            <path d="M939.617 80.5485H935.064V80.982H939.617V80.5485Z" fill="#41494D"/>
            <path d="M939.617 85.0695H935.064V86.8635H939.617V85.0695Z" fill="#366ED7"/>
            <path d="M939.617 84.6367H935.064V85.0695H939.617V84.6367Z" fill="#41494D"/>
            <path d="M939.617 89.157H935.064V90.951H939.617V89.157Z" fill="#366ED7"/>
            <path d="M939.617 88.7235H935.064V89.157H939.617V88.7235Z" fill="#41494D"/>
            <path d="M939.617 93.2445H935.064V95.0378H939.617V93.2445Z" fill="#366ED7"/>
            <path d="M939.617 92.811H935.064V93.2445H939.617V92.811Z" fill="#41494D"/>
            <path d="M939.617 97.332H935.064V99.126H939.617V97.332Z" fill="#366ED7"/>
            <path d="M939.617 96.8985H935.064V97.332H939.617V96.8985Z" fill="#41494D"/>
            <path d="M939.617 101.419H935.064V103.213H939.617V101.419Z" fill="#366ED7"/>
            <path d="M939.617 100.985H935.064V101.419H939.617V100.985Z" fill="#41494D"/>
            <path d="M968.239 40.1077H952.856V41.9017H968.239V40.1077Z" fill="#366ED7"/>
            <path d="M968.239 39.675H952.856V40.1078H968.239V39.6743V39.675Z" fill="#6A777D"/>
            <path d="M968.239 44.1953H952.856V45.9893H968.239V44.1953Z" fill="#366ED7"/>
            <path d="M968.239 43.7625H952.856V44.1952H968.239V43.7617V43.7625Z" fill="#6A777D"/>
            <path d="M968.239 48.282H952.856V50.076H968.239V48.282Z" fill="#366ED7"/>
            <path d="M968.239 47.8492H952.856V48.282H968.239V47.85V47.8492Z" fill="#6A777D"/>
            <path d="M968.239 52.3702H952.856V54.1642H968.239V52.3702Z" fill="#366ED7"/>
            <path d="M968.239 51.9375H952.856V52.3703H968.239V51.9368V51.9375Z" fill="#6A777D"/>
            <path d="M968.239 56.4578H952.856V58.2518H968.239V56.4578Z" fill="#366ED7"/>
            <path d="M968.239 56.025H952.856V56.4577H968.239V56.0242V56.025Z" fill="#6A777D"/>
            <path d="M968.239 60.5452H952.856V62.3392H968.239V60.5452Z" fill="#366ED7"/>
            <path d="M968.239 60.1125H952.856V60.5453H968.239V60.1118V60.1125Z" fill="#6A777D"/>
            <path d="M968.239 64.632H952.856V66.426H968.239V64.632Z" fill="#366ED7"/>
            <path d="M968.239 64.1992H952.856V64.632H968.239V64.2V64.1992Z" fill="#6A777D"/>
            <path d="M968.239 68.7195H952.856V70.5135H968.239V68.7195Z" fill="#366ED7"/>
            <path d="M968.239 68.2867H952.856V68.7195H968.239V68.2867Z" fill="#6A777D"/>
            <path d="M968.239 72.807H952.856V74.601H968.239V72.807Z" fill="#366ED7"/>
            <path d="M968.239 72.3743H952.856V72.807H968.239V72.375V72.3743Z" fill="#6A777D"/>
            <path d="M968.239 76.8945H952.856V78.6885H968.239V76.8945Z" fill="#366ED7"/>
            <path d="M968.239 76.4617H952.856V76.8945H968.239V76.4617Z" fill="#6A777D"/>
            <path d="M968.239 80.982H952.856V82.7752H968.239V80.982Z" fill="#366ED7"/>
            <path d="M968.239 80.5485H952.856V80.982H968.239V80.5485Z" fill="#6A777D"/>
            <path d="M968.239 85.0695H952.856V86.8635H968.239V85.0695Z" fill="#366ED7"/>
            <path d="M968.239 84.6367H952.856V85.0695H968.239V84.6367Z" fill="#6A777D"/>
            <path d="M968.239 89.157H952.856V90.951H968.239V89.157Z" fill="#366ED7"/>
            <path d="M968.239 88.7235H952.856V89.157H968.239V88.7235Z" fill="#6A777D"/>
            <path d="M968.239 93.2445H952.856V95.0378H968.239V93.2445Z" fill="#366ED7"/>
            <path d="M968.239 92.811H952.856V93.2445H968.239V92.811Z" fill="#6A777D"/>
            <path d="M968.239 97.332H952.856V99.126H968.239V97.332Z" fill="#366ED7"/>
            <path d="M968.239 96.8985H952.856V97.332H968.239V96.8985Z" fill="#6A777D"/>
            <path d="M968.239 101.419H952.856V103.213H968.239V101.419Z" fill="#366ED7"/>
            <path d="M968.239 100.985H952.856V101.419H968.239V100.985Z" fill="#6A777D"/>
            <path d="M934.033 33.3937H922.074V114.415H934.033V33.3937Z" fill="#A5E6FA"/>
            <path d="M932.016 36.0203H924.008V37.8143H932.016V36.0203Z" fill="#366ED7"/>
            <path d="M932.016 35.592H924.008V36.0255H932.016V35.592Z" fill="#6A777D"/>
            <path d="M932.016 40.1077H924.008V41.9017H932.016V40.1077Z" fill="#366ED7"/>
            <path d="M932.016 39.675H924.008V40.1078H932.016V39.6743V39.675Z" fill="#6A777D"/>
            <path d="M932.016 44.1945H924.008V45.9885H932.016V44.1945Z" fill="#366ED7"/>
            <path d="M932.016 43.7617H924.008V44.1945H932.016V43.7617Z" fill="#6A777D"/>
            <path d="M932.016 48.282H924.008V50.076H932.016V48.282Z" fill="#366ED7"/>
            <path d="M932.016 47.8492H924.008V48.282H932.016V47.85V47.8492Z" fill="#6A777D"/>
            <path d="M932.016 52.3702H924.008V54.1642H932.016V52.3702Z" fill="#366ED7"/>
            <path d="M932.016 51.9375H924.008V52.3703H932.016V51.9368V51.9375Z" fill="#6A777D"/>
            <path d="M932.016 56.4578H924.008V58.2518H932.016V56.4578Z" fill="#366ED7"/>
            <path d="M932.016 56.025H924.008V56.4577H932.016V56.0242V56.025Z" fill="#6A777D"/>
            <path d="M932.016 60.5452H924.008V62.3392H932.016V60.5452Z" fill="#366ED7"/>
            <path d="M932.016 60.1125H924.008V60.5453H932.016V60.1118V60.1125Z" fill="#6A777D"/>
            <path d="M932.016 64.632H924.008V66.426H932.016V64.632Z" fill="#366ED7"/>
            <path d="M932.016 64.1992H924.008V64.632H932.016V64.2V64.1992Z" fill="#6A777D"/>
            <path d="M932.016 68.7195H924.008V70.5135H932.016V68.7195Z" fill="#366ED7"/>
            <path d="M932.016 68.2867H924.008V68.7195H932.016V68.2867Z" fill="#6A777D"/>
            <path d="M932.016 72.807H924.008V74.601H932.016V72.807Z" fill="#366ED7"/>
            <path d="M932.016 72.3743H924.008V72.807H932.016V72.375V72.3743Z" fill="#6A777D"/>
            <path d="M932.016 76.8945H924.008V78.6885H932.016V76.8945Z" fill="#366ED7"/>
            <path d="M932.016 76.4617H924.008V76.8945H932.016V76.4617Z" fill="#6A777D"/>
            <path d="M932.016 80.982H924.008V82.776H932.016V80.982Z" fill="#366ED7"/>
            <path d="M932.016 80.5485H924.008V80.982H932.016V80.5485Z" fill="#6A777D"/>
            <path d="M932.016 85.0695H924.008V86.8635H932.016V85.0695Z" fill="#366ED7"/>
            <path d="M932.016 84.6367H924.008V85.0695H932.016V84.6367Z" fill="#6A777D"/>
            <path d="M932.016 89.157H924.008V90.951H932.016V89.157Z" fill="#366ED7"/>
            <path d="M932.016 88.7235H924.008V89.157H932.016V88.7235Z" fill="#6A777D"/>
            <path d="M932.016 93.2445H924.008V95.0378H932.016V93.2445Z" fill="#366ED7"/>
            <path d="M932.016 92.811H924.008V93.2445H932.016V92.811Z" fill="#6A777D"/>
            <path d="M932.016 97.332H924.008V99.126H932.016V97.332Z" fill="#366ED7"/>
            <path d="M932.016 96.8985H924.008V97.332H932.016V96.8985Z" fill="#6A777D"/>
            <path d="M932.016 101.419H924.008V103.213H932.016V101.419Z" fill="#366ED7"/>
            <path d="M932.016 100.985H924.008V101.419H932.016V100.985Z" fill="#6A777D"/>
            <path d="M940.649 114.415H941.454L943.185 33.3937H940.649V114.415ZM950.922 114.415H951.727L953.458 33.3937H950.922V114.415Z" fill="#EBEEFC"/>
            <path d="M970.858 32.9655H921.811V33.66H970.858V32.9655Z" fill="#366ED7"/>
            <path d="M934.033 33.6547H922.074V34.2487H934.033V33.6547Z" fill="#EBEEFC"/>
            <path d="M970.263 105.979H922.074V114.415H970.263V105.979Z" fill="#96D1E3"/>
            <path d="M970.256 33.6547H953.45V34.2487H970.256V33.6547Z" fill="#EBEEFC"/>
            <path d="M971.227 104.196H920.945V105.979H971.227V104.196Z" fill="#366ED7"/>
            <path d="M996.499 104.196H969.895V105.979H996.499V104.196ZM924.008 105.979H922.074V114.415H924.008V105.979Z" fill="#366ED7"/>
            <path d="M970.263 105.968H968.322V114.404H970.263V105.968Z" fill="#366ED7"/>
            <path d="M942.304 107.017H937.081V114.415H942.304V107.017Z" fill="#0F283D"/>
            <path d="M942.124 107.267H937.284V114.165H942.124V107.267Z" fill="#366ED7"/>
            <path style="mix-blend-mode:screen" d="M942.124 107.267L937.284 112.454V107.267H942.124Z" fill="url(#paint14_linear_16_359)"/>
            <path d="M939.866 107.183H939.64V114.286H939.866V107.183ZM948.799 107.017H943.576V114.415H948.799V107.017Z" fill="#0F283D"/>
            <path d="M948.619 107.266H943.779V114.164H948.619V107.266Z" fill="#366ED7"/>
            <path style="mix-blend-mode:screen" d="M948.619 107.266L943.779 112.454V107.266H948.619Z" fill="url(#paint15_linear_16_359)"/>
            <path d="M946.361 107.183H946.135V114.286H946.361V107.183ZM955.249 107.017H950.033V114.415H955.249V107.017Z" fill="#0F283D"/>
            <path d="M955.076 107.266H950.237V114.164H955.076V107.266Z" fill="#366ED7"/>
            <path style="mix-blend-mode:screen" d="M955.076 107.266L950.237 112.454V107.266H955.076Z" fill="url(#paint16_linear_16_359)"/>
            <path d="M952.818 107.183H952.585V114.286H952.818V107.183Z" fill="#0F283D"/>
            <path d="M935.802 107.6H924.964V110.027H935.802V107.6Z" fill="#366ED7"/>
            <path d="M935.802 107.017H924.964V107.6H935.802V107.017Z" fill="#0F283D"/>
            <path d="M967.449 107.6H956.619V110.027H967.449V107.6Z" fill="#366ED7"/>
            <path d="M967.449 107.017H956.619V107.6H967.449V107.017Z" fill="#0F283D"/>
            <path d="M968.322 114.043H924.008V114.415H968.322V114.043Z" fill="#CAE1ED"/>
            <path d="M956.446 113.676H935.884V114.048H956.446V113.676Z" fill="#CAE1ED"/>
            <path d="M995.611 65.193H970.256V104.196H995.611V65.193Z" fill="#96D1E3"/>
            <path d="M976.096 71.952V67.1145H971.475V71.952H976.096Z" fill="#B6D8C2"/>
            <path d="M975.78 71.6302V67.4325H971.799V71.631H975.78V71.6302Z" fill="#0F283D"/>
            <path d="M975.419 71.2575V67.71H972.145V71.2583H975.419V71.2575Z" fill="#366ED7"/>
            <path style="mix-blend-mode:screen" d="M975.426 68.8755L972.153 71.3025V67.7153H975.426V68.8755Z" fill="url(#paint17_linear_16_359)"/>
            <path d="M982.117 71.9468V67.1093H977.496V71.9468H982.117Z" fill="#B6D8C2"/>
            <path d="M981.808 71.6302V67.4325H977.82V71.631H981.808V71.6302Z" fill="#0F283D"/>
            <path d="M981.447 71.2635V67.7153H978.173V71.2635H981.447Z" fill="#366ED7"/>
            <path style="mix-blend-mode:screen" d="M981.447 68.8755L978.173 71.3025V67.7153H981.447V68.8755Z" fill="url(#paint18_linear_16_359)"/>
            <path d="M988.145 71.952V67.1145H983.524V71.952H988.145Z" fill="#B6D8C2"/>
            <path d="M987.829 71.6302V67.4325H983.848V71.631H987.829V71.6302Z" fill="#0F283D"/>
            <path d="M987.476 71.2635V67.7153H984.202V71.2635H987.476Z" fill="#366ED7"/>
            <path style="mix-blend-mode:screen" d="M987.476 68.8755L984.202 71.3025V67.7153H987.476V68.8755Z" fill="url(#paint19_linear_16_359)"/>
            <path d="M994.174 71.9468V67.1093H989.545V71.9468H994.174Z" fill="#B6D8C2"/>
            <path d="M993.858 71.6302V67.4325H989.876V71.631H993.858V71.6302Z" fill="#0F283D"/>
            <path d="M993.496 71.2635V67.7153H990.223V71.2635H993.496Z" fill="#366ED7"/>
            <path style="mix-blend-mode:screen" d="M993.496 68.8755L990.223 71.3025V67.7153H993.496V68.8755Z" fill="url(#paint20_linear_16_359)"/>
            <path d="M976.096 78.1665V73.329H971.475V78.1665H976.096Z" fill="#B6D8C2"/>
            <path d="M975.78 77.844V73.6455H971.799V77.844H975.78Z" fill="#0F283D"/>
            <path d="M975.426 77.472V73.923H972.153V77.472H975.426Z" fill="#366ED7"/>
            <path style="mix-blend-mode:screen" d="M975.426 75.09L972.153 77.517V73.929H975.426V75.09Z" fill="url(#paint21_linear_16_359)"/>
            <path d="M982.125 78.1605V73.323H977.496V78.1605H982.125Z" fill="#B6D8C2"/>
            <path d="M981.808 77.844V73.6455H977.82V77.844H981.808Z" fill="#0F283D"/>
            <path d="M981.447 77.4773V73.929H978.173V77.4773H981.447Z" fill="#366ED7"/>
            <path style="mix-blend-mode:screen" d="M981.447 75.0893L978.173 77.5163V73.929H981.447V75.0893Z" fill="url(#paint22_linear_16_359)"/>
            <path d="M988.145 78.1665V73.329H983.524V78.1665H988.145Z" fill="#B6D8C2"/>
            <path d="M987.829 77.844V73.6455H983.848V77.844H987.829Z" fill="#0F283D"/>
            <path d="M987.476 77.478V73.929H984.202V77.478H987.476Z" fill="#366ED7"/>
            <path style="mix-blend-mode:screen" d="M987.476 75.09L984.202 77.517V73.929H987.476V75.09Z" fill="url(#paint23_linear_16_359)"/>
            <path d="M994.174 78.1605V73.323H989.545V78.1605H994.174Z" fill="#B6D8C2"/>
            <path d="M993.858 77.844V73.6455H989.876V77.844H993.858Z" fill="#0F283D"/>
            <path d="M993.496 77.4773V73.929H990.223V77.4773H993.496Z" fill="#366ED7"/>
            <path style="mix-blend-mode:screen" d="M993.496 75.0893L990.223 77.5163V73.929H993.496V75.0893Z" fill="url(#paint24_linear_16_359)"/>
            <path d="M976.096 84.3803V79.5435H971.475V84.3803H976.096Z" fill="#B6D8C2"/>
            <path d="M975.78 84.0578V79.8593H971.799V84.0578H975.78Z" fill="#0F283D"/>
            <path d="M975.426 83.6858V80.1375H972.153V83.6858H975.426Z" fill="#366ED7"/>
            <path style="mix-blend-mode:screen" d="M975.426 81.3038L972.153 83.736V80.1428H975.426V81.3038Z" fill="url(#paint25_linear_16_359)"/>
            <path d="M982.125 84.3803V79.5435H977.496V84.3803H982.125Z" fill="#B6D8C2"/>
            <path d="M981.808 84.0637V79.8652H977.82V84.0637H981.808Z" fill="#0F283D"/>
            <path d="M981.447 83.6918V80.1428H978.173V83.6918H981.447Z" fill="#366ED7"/>
            <path style="mix-blend-mode:screen" d="M981.447 81.3038L978.173 83.736V80.1428H981.447V81.3038Z" fill="url(#paint26_linear_16_359)"/>
            <path d="M988.145 84.3803V79.5435H983.524V84.3803H988.145Z" fill="#B6D8C2"/>
            <path d="M987.829 84.0578V79.8593H983.848V84.0578H987.829Z" fill="#0F283D"/>
            <path d="M987.476 83.6918V80.1428H984.202V83.6918H987.476Z" fill="#366ED7"/>
            <path style="mix-blend-mode:screen" d="M987.476 81.3038L984.202 83.736V80.1428H987.476V81.3038Z" fill="url(#paint27_linear_16_359)"/>
            <path d="M994.174 84.3803V79.5435H989.545V84.3803H994.174Z" fill="#B6D8C2"/>
            <path d="M993.858 84.0578V79.8593H989.876V84.0578H993.858Z" fill="#0F283D"/>
            <path d="M993.496 83.6918V80.1428H990.223V83.6918H993.496Z" fill="#366ED7"/>
            <path style="mix-blend-mode:screen" d="M993.496 81.3038L990.223 83.736V80.1428H993.496V81.3038Z" fill="url(#paint28_linear_16_359)"/>
            <path d="M976.096 90.5947V85.758H971.475V90.5947H976.096Z" fill="#B6D8C2"/>
            <path d="M975.773 90.273V86.0745H971.791V90.273H975.773Z" fill="#0F283D"/>
            <path d="M975.426 89.9062V86.358H972.153V89.9062H975.426Z" fill="#366ED7"/>
            <path style="mix-blend-mode:screen" d="M975.426 87.5242L972.153 89.9505V86.358H975.426V87.5242Z" fill="url(#paint29_linear_16_359)"/>
            <path d="M982.125 90.5947V85.758H977.496V90.5947H982.125Z" fill="#B6D8C2"/>
            <path d="M981.801 90.2783V86.0798H977.812V90.2783H981.801Z" fill="#0F283D"/>
            <path d="M981.447 89.9062V86.358H978.173V89.9062H981.447Z" fill="#366ED7"/>
            <path style="mix-blend-mode:screen" d="M981.447 87.5242L978.173 89.9505V86.358H981.447V87.5242Z" fill="url(#paint30_linear_16_359)"/>
            <path d="M988.145 90.5947V85.758H983.524V90.5947H988.145Z" fill="#B6D8C2"/>
            <path d="M987.822 90.273V86.0745H983.84V90.273H987.822Z" fill="#0F283D"/>
            <path d="M987.476 89.9123V86.3633H984.202V89.9123H987.476Z" fill="#366ED7"/>
            <path style="mix-blend-mode:screen" d="M987.476 87.5242L984.202 89.9505V86.358H987.476V87.5242Z" fill="url(#paint31_linear_16_359)"/>
            <path d="M994.174 90.5947V85.758H989.545V90.5947H994.174Z" fill="#B6D8C2"/>
            <path d="M993.85 90.2783V86.0798H989.869V90.2783H993.85Z" fill="#0F283D"/>
            <path d="M993.496 89.9062V86.358H990.223V89.9062H993.496Z" fill="#366ED7"/>
            <path style="mix-blend-mode:screen" d="M993.496 87.5242L990.223 89.9505V86.358H993.496V87.5242Z" fill="url(#paint32_linear_16_359)"/>
            <path d="M976.096 96.8092V91.9717H971.475V96.8092H976.096Z" fill="#B6D8C2"/>
            <path d="M975.78 96.4875V92.289H971.799V96.4875H975.78Z" fill="#0F283D"/>
            <path d="M975.426 96.1208V92.5718H972.153V96.1208H975.426Z" fill="#366ED7"/>
            <path style="mix-blend-mode:screen" d="M975.426 93.738L972.153 96.165V92.5718H975.426V93.738Z" fill="url(#paint33_linear_16_359)"/>
            <path d="M982.125 96.8092V91.9717H977.496V96.8092H982.125Z" fill="#B6D8C2"/>
            <path d="M981.801 96.4928V92.2943H977.812V96.4928H981.801Z" fill="#0F283D"/>
            <path d="M981.447 96.1208V92.5718H978.181V96.1208H981.447Z" fill="#366ED7"/>
            <path style="mix-blend-mode:screen" d="M981.447 93.738L978.173 96.165V92.5718H981.447V93.738Z" fill="url(#paint34_linear_16_359)"/>
            <path d="M988.153 96.8092V91.9717H983.524V96.8092H988.153Z" fill="#B6D8C2"/>
            <path d="M987.829 96.4875V92.289H983.84V96.4875H987.829Z" fill="#0F283D"/>
            <path d="M987.476 96.126V92.5778H984.202V96.126H987.476Z" fill="#366ED7"/>
            <path style="mix-blend-mode:screen" d="M987.476 93.738L984.202 96.165V92.5718H987.476V93.738Z" fill="url(#paint35_linear_16_359)"/>
            <path d="M994.174 96.8092V91.9717H989.545V96.8092H994.174Z" fill="#B6D8C2"/>
            <path d="M993.85 96.4928V92.2943H989.869V96.4928H993.85Z" fill="#0F283D"/>
            <path d="M993.504 96.1208V92.5718H990.23V96.1208H993.504Z" fill="#366ED7"/>
            <path style="mix-blend-mode:screen" d="M993.496 93.738L990.223 96.165V92.5718H993.496V93.738Z" fill="url(#paint36_linear_16_359)"/>
            <path d="M976.096 103.024V98.187H971.475V103.024H976.096Z" fill="#B6D8C2"/>
            <path d="M975.78 102.702V98.5035H971.799V102.702H975.78Z" fill="#0F283D"/>
            <path d="M975.426 102.335V98.7863H972.153V102.335H975.426Z" fill="#366ED7"/>
            <path style="mix-blend-mode:screen" d="M975.426 99.9525L972.153 102.38V98.7863H975.426V99.9525Z" fill="url(#paint37_linear_16_359)"/>
            <path d="M982.117 103.024V98.187H977.496V103.024H982.117Z" fill="#B6D8C2"/>
            <path d="M981.801 102.707V98.5087H977.82V102.707H981.801Z" fill="#0F283D"/>
            <path d="M981.455 102.335V98.7863H978.181V102.335H981.455Z" fill="#366ED7"/>
            <path style="mix-blend-mode:screen" d="M981.447 99.9525L978.173 102.38V98.7863H981.447V99.9525Z" fill="url(#paint38_linear_16_359)"/>
            <path d="M988.145 103.024V98.187H983.524V103.024H988.145Z" fill="#B6D8C2"/>
            <path d="M987.829 102.702V98.5035H983.848V102.702H987.829Z" fill="#0F283D"/>
            <path d="M987.476 102.34V98.7922H984.202V102.34H987.476Z" fill="#366ED7"/>
            <path style="mix-blend-mode:screen" d="M987.476 99.9525L984.202 102.38V98.7863H987.476V99.9525Z" fill="url(#paint39_linear_16_359)"/>
            <path d="M994.174 103.024V98.187H989.545V103.024H994.174Z" fill="#B6D8C2"/>
            <path d="M993.858 102.707V98.5087H989.869V102.707H993.858Z" fill="#0F283D"/>
            <path d="M993.504 102.335V98.7863H990.238V102.335H993.504Z" fill="#366ED7"/>
            <path style="mix-blend-mode:screen" d="M993.496 99.9525L990.23 102.38V98.7863H993.496V99.9525Z" fill="url(#paint40_linear_16_359)"/>
            <path d="M995.987 64.0605H969.895V65.4487H995.987V64.0612V64.0605Z" fill="#B6D8C2"/>
            <path d="M995.619 66.3262L970.256 65.7487V65.454H995.619V66.3262Z" fill="#B7E3F0"/>
            <path d="M995.619 105.979H970.263V114.415H995.619V105.979Z" fill="#96D1E3"/>
            <path d="M980.785 107.017H975.562V114.415H980.785V107.017Z" fill="#0F283D"/>
            <path d="M980.604 107.267H975.765V114.165H980.604V107.267Z" fill="#366ED7"/>
            <path style="mix-blend-mode:screen" d="M980.604 107.267L975.765 112.454V107.267H980.604Z" fill="url(#paint41_linear_16_359)"/>
            <path d="M978.354 107.183H978.121V114.286H978.354V107.183ZM987.348 107.017H982.125V114.415H987.348V107.017Z" fill="#0F283D"/>
            <path d="M987.167 107.267H982.328V114.165H987.167V107.267Z" fill="#366ED7"/>
            <path style="mix-blend-mode:screen" d="M987.167 107.267L982.328 112.454V107.267H987.167Z" fill="url(#paint42_linear_16_359)"/>
            <path d="M984.909 107.183H984.683V114.286H984.909V107.183Z" fill="#0F283D"/>
            <path d="M987.912 113.426H974.952V113.915H987.912V113.426ZM989.681 113.921H973.184V114.409H989.681V113.921Z" fill="#CAE1ED"/>
        </g>
    </g>
    <defs>
        <linearGradient id="paint0_linear_16_359" x1="509.802" y1="88.4745" x2="512.909" y2="88.4745" gradientUnits="userSpaceOnUse">
            <stop/>
            <stop offset="1" stop-color="#655E4F"/>
        </linearGradient>
        <linearGradient id="paint1_linear_16_359" x1="472.405" y1="101.616" x2="472.871" y2="101.616" gradientUnits="userSpaceOnUse">
            <stop/>
            <stop offset="1" stop-color="#655E4F"/>
        </linearGradient>
        <linearGradient id="paint2_linear_16_359" x1="522.593" y1="65.25" x2="525.704" y2="65.25" gradientUnits="userSpaceOnUse">
            <stop/>
            <stop offset="1" stop-color="#655E4F"/>
        </linearGradient>
        <linearGradient id="paint3_linear_16_359" x1="522.593" y1="101.616" x2="525.704" y2="101.616" gradientUnits="userSpaceOnUse">
            <stop/>
            <stop offset="1" stop-color="#655E4F"/>
        </linearGradient>
        <linearGradient id="paint4_linear_16_359" x1="533.448" y1="65.25" x2="536.56" y2="65.25" gradientUnits="userSpaceOnUse">
            <stop/>
            <stop offset="1" stop-color="#655E4F"/>
        </linearGradient>
        <linearGradient id="paint5_linear_16_359" x1="533.448" y1="101.616" x2="536.56" y2="101.616" gradientUnits="userSpaceOnUse">
            <stop/>
            <stop offset="1" stop-color="#655E4F"/>
        </linearGradient>
        <linearGradient id="paint6_linear_16_359" x1="540.167" y1="101.616" x2="543.274" y2="101.616" gradientUnits="userSpaceOnUse">
            <stop/>
            <stop offset="1" stop-color="#655E4F"/>
        </linearGradient>
        <linearGradient id="paint7_linear_16_359" x1="547.031" y1="65.25" x2="550.143" y2="65.25" gradientUnits="userSpaceOnUse">
            <stop/>
            <stop offset="1" stop-color="#655E4F"/>
        </linearGradient>
        <linearGradient id="paint8_linear_16_359" x1="547.031" y1="101.616" x2="550.143" y2="101.616" gradientUnits="userSpaceOnUse">
            <stop/>
            <stop offset="1" stop-color="#655E4F"/>
        </linearGradient>
        <linearGradient id="paint9_linear_16_359" x1="485.332" y1="65.25" x2="488.444" y2="65.25" gradientUnits="userSpaceOnUse">
            <stop/>
            <stop offset="1" stop-color="#655E4F"/>
        </linearGradient>
        <linearGradient id="paint10_linear_16_359" x1="485.332" y1="101.616" x2="488.444" y2="101.616" gradientUnits="userSpaceOnUse">
            <stop/>
            <stop offset="1" stop-color="#655E4F"/>
        </linearGradient>
        <linearGradient id="paint11_linear_16_359" x1="492.047" y1="101.616" x2="495.154" y2="101.616" gradientUnits="userSpaceOnUse">
            <stop/>
            <stop offset="1" stop-color="#655E4F"/>
        </linearGradient>
        <linearGradient id="paint12_linear_16_359" x1="498.915" y1="65.2492" x2="502.026" y2="65.2492" gradientUnits="userSpaceOnUse">
            <stop/>
            <stop offset="1" stop-color="#655E4F"/>
        </linearGradient>
        <linearGradient id="paint13_linear_16_359" x1="498.915" y1="101.616" x2="502.026" y2="101.616" gradientUnits="userSpaceOnUse">
            <stop/>
            <stop offset="1" stop-color="#655E4F"/>
        </linearGradient>
        <linearGradient id="paint14_linear_16_359" x1="937.284" y1="109.861" x2="942.124" y2="109.861" gradientUnits="userSpaceOnUse">
            <stop/>
            <stop offset="1" stop-color="#655E4F"/>
        </linearGradient>
        <linearGradient id="paint15_linear_16_359" x1="943.779" y1="9.53137e-05" x2="948.619" y2="9.53137e-05" gradientUnits="userSpaceOnUse">
            <stop/>
            <stop offset="1" stop-color="#655E4F"/>
        </linearGradient>
        <linearGradient id="paint16_linear_16_359" x1="950.237" y1="9.53137e-05" x2="955.076" y2="9.53137e-05" gradientUnits="userSpaceOnUse">
            <stop/>
            <stop offset="1" stop-color="#655E4F"/>
        </linearGradient>
        <linearGradient id="paint17_linear_16_359" x1="972.153" y1="69.5085" x2="975.426" y2="69.5085" gradientUnits="userSpaceOnUse">
            <stop/>
            <stop offset="1" stop-color="#655E4F"/>
        </linearGradient>
        <linearGradient id="paint18_linear_16_359" x1="978.173" y1="69.5085" x2="981.447" y2="69.5085" gradientUnits="userSpaceOnUse">
            <stop/>
            <stop offset="1" stop-color="#655E4F"/>
        </linearGradient>
        <linearGradient id="paint19_linear_16_359" x1="984.202" y1="69.5085" x2="987.476" y2="69.5085" gradientUnits="userSpaceOnUse">
            <stop/>
            <stop offset="1" stop-color="#655E4F"/>
        </linearGradient>
        <linearGradient id="paint20_linear_16_359" x1="990.223" y1="69.5085" x2="993.496" y2="69.5085" gradientUnits="userSpaceOnUse">
            <stop/>
            <stop offset="1" stop-color="#655E4F"/>
        </linearGradient>
        <linearGradient id="paint21_linear_16_359" x1="972.153" y1="75.723" x2="975.426" y2="75.723" gradientUnits="userSpaceOnUse">
            <stop/>
            <stop offset="1" stop-color="#655E4F"/>
        </linearGradient>
        <linearGradient id="paint22_linear_16_359" x1="978.173" y1="75.723" x2="981.447" y2="75.723" gradientUnits="userSpaceOnUse">
            <stop/>
            <stop offset="1" stop-color="#655E4F"/>
        </linearGradient>
        <linearGradient id="paint23_linear_16_359" x1="984.202" y1="75.723" x2="987.476" y2="75.723" gradientUnits="userSpaceOnUse">
            <stop/>
            <stop offset="1" stop-color="#655E4F"/>
        </linearGradient>
        <linearGradient id="paint24_linear_16_359" x1="990.223" y1="75.723" x2="993.496" y2="75.723" gradientUnits="userSpaceOnUse">
            <stop/>
            <stop offset="1" stop-color="#655E4F"/>
        </linearGradient>
        <linearGradient id="paint25_linear_16_359" x1="972.153" y1="81.9368" x2="975.426" y2="81.9368" gradientUnits="userSpaceOnUse">
            <stop/>
            <stop offset="1" stop-color="#655E4F"/>
        </linearGradient>
        <linearGradient id="paint26_linear_16_359" x1="978.173" y1="81.9368" x2="981.447" y2="81.9368" gradientUnits="userSpaceOnUse">
            <stop/>
            <stop offset="1" stop-color="#655E4F"/>
        </linearGradient>
        <linearGradient id="paint27_linear_16_359" x1="984.202" y1="81.9368" x2="987.476" y2="81.9368" gradientUnits="userSpaceOnUse">
            <stop/>
            <stop offset="1" stop-color="#655E4F"/>
        </linearGradient>
        <linearGradient id="paint28_linear_16_359" x1="990.223" y1="81.9368" x2="993.496" y2="81.9368" gradientUnits="userSpaceOnUse">
            <stop/>
            <stop offset="1" stop-color="#655E4F"/>
        </linearGradient>
        <linearGradient id="paint29_linear_16_359" x1="972.153" y1="88.1512" x2="975.426" y2="88.1512" gradientUnits="userSpaceOnUse">
            <stop/>
            <stop offset="1" stop-color="#655E4F"/>
        </linearGradient>
        <linearGradient id="paint30_linear_16_359" x1="978.173" y1="88.1512" x2="981.447" y2="88.1512" gradientUnits="userSpaceOnUse">
            <stop/>
            <stop offset="1" stop-color="#655E4F"/>
        </linearGradient>
        <linearGradient id="paint31_linear_16_359" x1="984.202" y1="88.1512" x2="987.476" y2="88.1512" gradientUnits="userSpaceOnUse">
            <stop/>
            <stop offset="1" stop-color="#655E4F"/>
        </linearGradient>
        <linearGradient id="paint32_linear_16_359" x1="990.223" y1="88.1512" x2="993.496" y2="88.1512" gradientUnits="userSpaceOnUse">
            <stop/>
            <stop offset="1" stop-color="#655E4F"/>
        </linearGradient>
        <linearGradient id="paint33_linear_16_359" x1="972.153" y1="94.371" x2="975.426" y2="94.371" gradientUnits="userSpaceOnUse">
            <stop/>
            <stop offset="1" stop-color="#655E4F"/>
        </linearGradient>
        <linearGradient id="paint34_linear_16_359" x1="978.173" y1="94.371" x2="981.447" y2="94.371" gradientUnits="userSpaceOnUse">
            <stop/>
            <stop offset="1" stop-color="#655E4F"/>
        </linearGradient>
        <linearGradient id="paint35_linear_16_359" x1="984.202" y1="94.371" x2="987.476" y2="94.371" gradientUnits="userSpaceOnUse">
            <stop/>
            <stop offset="1" stop-color="#655E4F"/>
        </linearGradient>
        <linearGradient id="paint36_linear_16_359" x1="990.223" y1="94.371" x2="993.496" y2="94.371" gradientUnits="userSpaceOnUse">
            <stop/>
            <stop offset="1" stop-color="#655E4F"/>
        </linearGradient>
        <linearGradient id="paint37_linear_16_359" x1="972.153" y1="100.586" x2="975.426" y2="100.586" gradientUnits="userSpaceOnUse">
            <stop/>
            <stop offset="1" stop-color="#655E4F"/>
        </linearGradient>
        <linearGradient id="paint38_linear_16_359" x1="978.173" y1="100.586" x2="981.447" y2="100.586" gradientUnits="userSpaceOnUse">
            <stop/>
            <stop offset="1" stop-color="#655E4F"/>
        </linearGradient>
        <linearGradient id="paint39_linear_16_359" x1="984.202" y1="100.586" x2="987.476" y2="100.586" gradientUnits="userSpaceOnUse">
            <stop/>
            <stop offset="1" stop-color="#655E4F"/>
        </linearGradient>
        <linearGradient id="paint40_linear_16_359" x1="990.23" y1="100.586" x2="993.496" y2="100.586" gradientUnits="userSpaceOnUse">
            <stop/>
            <stop offset="1" stop-color="#655E4F"/>
        </linearGradient>
        <linearGradient id="paint41_linear_16_359" x1="975.765" y1="1.48735e-05" x2="980.604" y2="1.48735e-05" gradientUnits="userSpaceOnUse">
            <stop/>
            <stop offset="1" stop-color="#655E4F"/>
        </linearGradient>
        <linearGradient id="paint42_linear_16_359" x1="982.328" y1="1.48735e-05" x2="987.167" y2="1.48735e-05" gradientUnits="userSpaceOnUse">
            <stop/>
            <stop offset="1" stop-color="#655E4F"/>
        </linearGradient>
        <clipPath id="clip0_16_359">
            <rect width="1445" height="132" fill="white" transform="translate(-2.5)"/>
        </clipPath>
    </defs>
</svg>
