<?xml version="1.0" encoding="UTF-8" standalone="no"?>
<svg width="40" height="40" viewBox="0 0 40 40" fill="none" xmlns="http://www.w3.org/2000/svg">
    <path fill-rule="evenodd" clip-rule="evenodd" d="M19.629 39.3397C30.4149 39.3397 39.1584 30.6038 39.1584 19.8275C39.1584 9.05121 30.4149 0.315308 19.629 0.315308C8.84321 0.315308 0.0996094 9.05121 0.0996094 19.8275C0.0996094 30.6038 8.84321 39.3397 19.629 39.3397ZM22.6433 15.391C24.308 13.7277 24.308 11.031 22.6433 9.36766C20.9786 7.70436 18.2795 7.70436 16.6147 9.36766C14.95 11.031 14.95 13.7277 16.6147 15.391L19.629 18.4026L22.6433 15.391ZM24.0695 22.8392C25.7343 24.5025 28.4333 24.5025 30.0981 22.8392C31.7628 21.1759 31.7628 18.4792 30.0981 16.8159C28.4333 15.1526 25.7343 15.1526 24.0695 16.8159L21.0552 19.8276L24.0695 22.8392ZM22.6433 30.2874C24.308 28.624 24.308 25.9274 22.6433 24.264L19.629 21.2524L16.6147 24.264C14.95 25.9274 14.95 28.624 16.6147 30.2874C18.2795 31.9507 20.9786 31.9507 22.6433 30.2874ZM9.15992 22.8392C7.49519 21.1759 7.49519 18.4792 9.15992 16.8159C10.8247 15.1526 13.5238 15.1526 15.1886 16.8159L18.2028 19.8276L15.1886 22.8392C13.5238 24.5025 10.8247 24.5025 9.15992 22.8392Z" fill="#43D894"/>
</svg>
