<?xml version="1.0" encoding="UTF-8" standalone="no"?>
<svg width="52" height="52" viewBox="0 0 52 52" fill="none" xmlns="http://www.w3.org/2000/svg">
    <path d="M49.9062 26C49.9062 15.5609 43.2922 6.71561 33.9688 3.44843V48.5515C43.2922 45.2844 49.9062 36.439 49.9062 26ZM2.09375 26C2.09375 36.439 8.7875 45.2844 18.0312 48.5515V3.44843C8.7875 6.71561 2.09375 15.5609 2.09375 26Z" fill="#ED4C5C"/>
    <path d="M33.9688 3.44844C31.4984 2.57188 28.7891 2.09375 26 2.09375C23.2109 2.09375 20.5016 2.57188 18.0312 3.44844V48.5516C20.5016 49.4281 23.2109 49.9062 26 49.9062C28.7891 49.9062 31.4984 49.4281 33.9688 48.5516V3.44844Z" fill="#F9F9F9"/>
</svg>
