<?xml version="1.0" encoding="UTF-8" standalone="no"?>
<svg width="73" height="49" viewBox="0 0 73 49" fill="none" xmlns="http://www.w3.org/2000/svg">
    <g clip-path="url(#clip0_132_617)">
        <path d="M0.5 0.300781H72.5V48.3008H0.5V0.300781Z" fill="white"/>
        <path d="M0.5 0.300781H72.5V3.99201H0.5V0.300781ZM0.5 7.68324H72.5V11.3745H0.5V7.68324ZM0.5 15.0657H72.5V18.7569H0.5V15.0657ZM0.5 22.4482H72.5V26.1394H0.5V22.4482ZM0.5 29.8446H72.5V33.5359H0.5V29.8446ZM0.5 37.2271H72.5V40.9183H0.5V37.2271ZM0.5 44.6096H72.5V48.3008H0.5V44.6096Z" fill="#D80027"/>
        <path d="M0.5 0.300781H36.5V26.1394H0.5V0.300781Z" fill="#2E52B2"/>
        <path d="M7.20882 19.7955L6.64742 17.999L6.02988 19.7955H4.17725L5.679 20.8762L5.1176 22.6727L6.64742 21.5639L8.13514 22.6727L7.5597 20.8762L9.08953 19.7955H7.20882ZM15.1106 19.7955L14.5351 17.999L13.9457 19.7955H12.093L13.5948 20.8762L13.0334 22.6727L14.5351 21.5639L16.0509 22.6727L15.4895 20.8762L16.9913 19.7955H15.1106ZM23.0404 19.7955L22.4369 17.999L21.8755 19.7955H19.9808L21.5246 20.8762L20.9351 22.6727L22.4369 21.5639L23.9808 22.6727L23.3913 20.8762L24.893 19.7955H23.0404ZM30.9281 19.7955L30.3667 17.999L29.7772 19.7955H27.9106L29.4264 20.8762L28.865 22.6727L30.3667 21.5639L31.8825 22.6727L31.279 20.8762L32.8229 19.7955H30.9281ZM14.5351 10.8692L13.9457 12.6657H12.093L13.5948 13.7745L13.0334 15.5429L14.5351 14.4482L16.0509 15.5429L15.4895 13.7745L16.9913 12.6657H15.1106L14.5351 10.8692ZM6.64742 10.8692L6.02988 12.6657H4.17725L5.679 13.7745L5.1176 15.5429L6.64742 14.4482L8.13514 15.5429L7.5597 13.7745L9.08953 12.6657H7.20882L6.64742 10.8692ZM22.4369 10.8692L21.8755 12.6657H19.9808L21.5246 13.7745L20.9351 15.5429L22.4369 14.4482L23.9808 15.5429L23.3913 13.7745L24.893 12.6657H23.0404L22.4369 10.8692ZM30.3667 10.8692L29.7772 12.6657H27.9106L29.4264 13.7745L28.865 15.5429L30.3667 14.4482L31.8825 15.5429L31.279 13.7745L32.8229 12.6657H30.9281L30.3667 10.8692ZM6.64742 3.76745L6.02988 5.53587H4.17725L5.679 6.64464L5.1176 8.4271L6.64742 7.31833L8.13514 8.4271L7.5597 6.64464L9.08953 5.53587H7.20882L6.64742 3.76745ZM14.5351 3.76745L13.9457 5.53587H12.093L13.5948 6.64464L13.0334 8.4271L14.5351 7.31833L16.0509 8.4271L15.4895 6.64464L16.9913 5.53587H15.1106L14.5351 3.76745ZM22.4369 3.76745L21.8755 5.53587H19.9808L21.5246 6.64464L20.9351 8.4271L22.4369 7.31833L23.9808 8.4271L23.3913 6.64464L24.893 5.53587H23.0404L22.4369 3.76745ZM30.3667 3.76745L29.7772 5.53587H27.9106L29.4264 6.64464L28.865 8.4271L30.3667 7.31833L31.8825 8.4271L31.279 6.64464L32.8229 5.53587H30.9281L30.3667 3.76745Z" fill="white"/>
    </g>
    <defs>
        <clipPath id="clip0_132_617">
            <rect width="72" height="48" fill="white" transform="translate(0.5 0.300781)"/>
        </clipPath>
    </defs>
</svg>
