<?xml version="1.0" encoding="UTF-8" standalone="no"?>
<svg width="52" height="52" viewBox="0 0 52 52" fill="none" xmlns="http://www.w3.org/2000/svg">
    <path d="M2.09375 26C2.09375 30.7016 3.44844 35.0844 5.75937 38.75H46.1609C48.4719 35.0844 49.8266 30.7016 49.8266 26C49.8266 21.2984 48.4719 16.9156 46.1609 13.25H5.75937C3.44844 16.9156 2.09375 21.2984 2.09375 26Z" fill="#F9F9F9"/>
    <path d="M46.241 13.25C42.0176 6.55625 34.527 2.09375 26.0004 2.09375C17.4738 2.09375 9.9832 6.55625 5.75977 13.25H46.241ZM5.75977 38.75C9.9832 45.4437 17.4738 49.9062 26.0004 49.9062C34.527 49.9062 42.0176 45.4437 46.241 38.75H5.75977ZM24.8051 28.0719C24.0082 29.3469 21.6176 29.0281 21.1395 28.0719V20.2625H19.9441V28.2312C20.502 31.0203 23.8488 31.7375 24.8051 28.0719ZM30.6223 20.2625V28.0719C30.0645 28.9484 27.8332 29.3469 27.0363 28.0719C27.9926 31.7375 31.3395 31.0203 31.8973 28.2312V20.2625H30.6223Z" fill="#ED4C5C"/>
    <path d="M23.6094 16.3578L23.2906 15.8797C22.4937 16.1188 21.7766 16.3578 21.0594 16.7563C21.6172 17.9516 23.1312 20.7406 23.1312 20.7406C23.1312 20.7406 23.2109 16.5969 23.6094 16.3578ZM28.3906 18.5891V20.7406C29.1875 19.386 29.9844 17.9516 30.8609 16.5969C30.7016 16.5172 30.4625 16.4375 30.2234 16.2781C29.825 16.1188 29.4266 15.9594 29.0281 15.8797C28.7891 15.8 28.6297 15.7203 28.3906 15.7203H28.3109C27.9922 16.6766 27.4344 18.5891 27.4344 18.5891H28.3906Z" fill="#FFCE31"/>
    <path d="M27.9918 34.2875C27.1152 34.2875 26.4777 35.1641 25.7605 35.0844C25.0434 35.0047 24.7246 34.2078 23.6887 34.2078H23.609C22.8918 34.2078 21.8559 34.6859 21.4574 34.925C21.4574 34.925 23.1309 36.2797 25.8402 36.2797C28.5496 36.2797 30.3027 34.925 30.3027 34.925C30.3027 34.925 28.948 34.2875 27.9918 34.2875ZM28.2309 33.1719C27.1949 33.2516 26.8762 32.5344 25.9199 32.6141C24.9637 32.6141 24.4059 33.1719 23.6887 33.2516C22.9715 33.2516 22.0152 32.5344 21.4574 32.6141C20.9793 32.6141 19.6246 33.1719 19.1465 33.3313L19.6246 33.8094H32.3746C32.4543 33.7297 32.534 33.65 32.6137 33.65C32.2152 33.3312 31.3387 32.6141 30.3027 32.6141C28.8684 32.4547 29.2668 33.0125 28.2309 33.1719ZM32.4543 30.8609C31.6574 30.8609 31.0199 31.6578 30.3824 31.6578C29.7449 31.6578 28.948 30.8609 28.1512 30.8609C27.3543 30.8609 26.5574 31.6578 25.8402 31.6578C25.123 31.6578 24.4855 30.8609 23.5293 30.8609C22.573 30.8609 22.0949 31.7375 21.3777 31.6578C20.6605 31.5781 20.023 30.7813 19.3059 30.7813C18.8277 30.7813 18.1105 31.2594 17.6324 31.5781C17.7918 31.7375 17.8715 31.9766 18.0309 32.1359H33.9684C34.048 32.0563 34.1277 31.8969 34.2074 31.8172C34.048 31.4984 33.1715 30.9406 32.4543 30.8609ZM25.8402 29.5063C24.7246 29.5063 23.9277 30.6219 24.0074 30.6219H27.7527C27.7527 30.5422 26.8762 29.4266 25.8402 29.5063ZM32.534 30.1438C31.8965 30.1438 31.9762 29.9844 31.6574 29.7453C31.498 30.0641 30.7809 30.5422 30.7809 30.5422H35.1637C35.2434 30.3828 35.323 30.1438 35.4027 29.9844C35.084 29.7453 34.7652 29.5063 34.4465 29.5063C33.809 29.5063 33.1715 30.2234 32.534 30.1438ZM20.023 29.825C19.7043 29.9844 19.784 30.1438 19.1465 30.2234C18.509 30.2234 17.8715 29.5063 17.234 29.5063C16.9949 29.5063 16.7559 29.6656 16.5965 29.825C16.6762 30.0641 16.8355 30.3828 16.9949 30.6219H20.9793C20.8996 30.6219 20.1824 30.1438 20.023 29.825ZM19.5449 27.9922C18.5887 27.6734 17.8715 28.6297 17.1543 28.7094C16.6762 28.7094 16.198 28.3906 15.959 28.2313C16.0387 28.55 16.1184 28.7891 16.198 29.1078H19.784C19.784 29.0281 19.5449 28.55 19.5449 27.9922ZM34.6059 28.7094C33.9684 28.7094 33.1715 27.6734 32.2152 27.9922C32.2152 28.55 31.9762 29.0281 31.9762 29.0281H35.5621L35.9605 27.9922C35.9605 27.9922 35.2434 28.7094 34.6059 28.7094ZM24.884 29.0281H26.7965C26.7965 29.0281 26.7965 28.4703 25.8402 28.4703C24.884 28.4703 24.9637 29.0281 24.884 29.0281Z" fill="#2A5F9E"/>
    <path d="M23.9277 23.3703L27.7527 24.3265V19.1468C25.9996 19.2265 24.4855 15.9593 27.673 15.8C24.6449 15.4015 24.2465 16.1187 23.9277 16.9156V23.3703Z" fill="#ED4C5C"/>
    <path d="M21.6172 23.8484V24.4859H23.2906L21.6172 23.8484ZM23.2906 24.3265V23.45C22.8125 23.1312 22.0953 22.4141 21.6172 22.175V23.5297L23.2906 24.3265ZM15.6406 24.8844V25.6812C15.6406 26.239 15.7203 26.7172 15.7203 27.1953H19.2266V24.9641L15.6406 24.8844ZM16.3578 21.8562C16.0391 22.5734 15.8 23.3703 15.7203 24.1672L19.2266 24.4859V22.8922L16.3578 21.8562ZM18.0312 19.2265C17.4734 19.864 17.075 20.5812 16.6766 21.2984L19.2266 22.4937V20.2625L18.0312 19.2265ZM21.6172 21.5375L23.2109 23.0515V21.4578L20.3422 17.1547C19.7047 17.5531 19.0672 18.1109 18.5094 18.6687C18.8281 19.0672 19.3859 19.5453 19.625 19.864H21.6172V21.5375ZM36.3594 24.8047L32.375 25.1234V27.275H36.2C36.1203 27.1953 36.3594 26.239 36.3594 24.8047ZM36.2 24.1672C36.0406 22.7328 35.5625 21.6969 35.5625 21.6969L32.375 22.9719V24.5656L36.2 24.1672ZM35.2437 21.0594C34.8453 20.3422 34.4469 19.7047 33.8891 19.0672C33.3313 19.4656 32.8531 19.7844 32.2953 20.1828V22.4937C33.3313 22.0156 34.2875 21.5375 35.2437 21.0594ZM28.3906 24.5656L29.9844 24.4859V23.8484L28.3906 24.5656ZM28.3906 23.5297V24.2469L29.9844 23.5297V22.175C29.4266 22.5734 28.3906 23.5297 28.3906 23.5297ZM32.1359 19.7844L33.4109 18.5094C32.8531 17.9516 32.1359 17.3937 31.4187 16.9953C30.3828 18.5094 29.4266 19.9437 28.3906 21.4578V23.2109C28.9484 22.7328 29.5063 22.2547 29.9844 21.6969V19.864L32.1359 19.7844Z" fill="#FFCE31"/>
    <path d="M21.8562 28.4703H23.6094C24.3266 28.4703 24.6453 27.5141 24.6453 27.5141H23.0516C22.175 27.4344 21.8562 28.4703 21.8562 28.4703ZM28.6297 27.4344H27.0359C27.0359 27.4344 27.3547 28.3906 28.0719 28.3906H29.825C29.825 28.4703 29.5062 27.4344 28.6297 27.4344ZM21.4578 26.9562H30.2234V27.275H21.4578V26.9562ZM25.2828 26.5578L25.8406 26.0797L26.3984 26.5578L26.5578 26.3984L26 25.9203L26.5578 25.3625L26.3984 25.2031L25.9203 25.6015V24.9641H25.6812V25.6015L25.2828 25.2031L25.1234 25.3625L25.6812 25.9203L25.1234 26.3984L25.2828 26.5578ZM30.2234 25.3625L30.0641 25.2031L29.5859 25.6015V24.9641H29.3469V25.6015L28.9484 25.2031L28.7891 25.3625L29.3469 25.9203L28.7891 26.3984L28.9484 26.5578L29.5062 26.0797L30.0641 26.5578L30.2234 26.3984L29.6656 25.9203L30.2234 25.3625ZM27.1156 26.5578L27.6734 26.0797L28.2312 26.5578L28.3906 26.3984L27.8328 25.9203L28.3906 25.3625L28.2312 25.2031L27.7531 25.6015V24.9641H27.5141V25.6015L27.1156 25.2031L26.9562 25.3625L27.5141 25.9203L26.9562 26.3984L27.1156 26.5578ZM23.45 26.5578L24.0078 26.0797L24.5656 26.5578L24.725 26.3984L24.1672 25.9203L24.725 25.3625L24.5656 25.2031L24.0875 25.6015V24.9641H23.8484V25.6015L23.45 25.2031L23.2906 25.3625L23.8484 25.9203L23.2906 26.3984L23.45 26.5578ZM21.6172 26.5578L22.175 26.0797L22.7328 26.5578L22.8922 26.3984L22.3344 25.9203L22.8922 25.3625L22.7328 25.2031L22.2547 25.6015V24.9641H22.0156V25.6015L21.6172 25.2031L21.4578 25.3625L22.0156 25.9203L21.4578 26.3984L21.6172 26.5578Z" fill="#ED4C5C"/>
</svg>
