<?xml version="1.0" encoding="UTF-8" standalone="no"?>
<svg width="52" height="52" viewBox="0 0 52 52" fill="none" xmlns="http://www.w3.org/2000/svg">
    <g clip-path="url(#clip0_16_810)">
        <mask id="mask0_16_810" style="mask-type:luminance" maskUnits="userSpaceOnUse" x="0" y="0" width="52" height="52">
            <path d="M26 51.5C40.0833 51.5 51.5 40.0833 51.5 26C51.5 11.9167 40.0833 0.5 26 0.5C11.9167 0.5 0.5 11.9167 0.5 26C0.5 40.0833 11.9167 51.5 26 51.5Z" fill="white"/>
        </mask>
        <g mask="url(#mask0_16_810)">
            <path d="M0.5 0.5L1.29688 2.69141L0.5 4.98242V7.27344L3.6875 12.6523L0.5 18.0312V21.2188L3.6875 26L0.5 30.7812V33.9688L3.6875 39.3477L0.5 44.7266V51.5L2.69141 50.7031L4.98242 51.5H7.27344L12.6523 48.3125L18.0312 51.5H21.2188L26 48.3125L30.7812 51.5H33.9688L39.3477 48.3125L44.7266 51.5H51.5L50.7031 49.3086L51.5 47.0176V44.7266L48.3125 39.3477L51.5 33.9688V30.7812L48.3125 26L51.5 21.2188V18.0312L48.3125 12.6523L51.5 7.27344V0.5L49.3086 1.29688L47.0176 0.5H44.7266L39.3477 3.6875L33.9688 0.5H30.7812L26 3.6875L21.2188 0.5H18.0312L12.6523 3.6875L7.27344 0.5H0.5Z" fill="#EEEEEE"/>
            <path d="M33.9688 0.5V11.2578L44.7266 0.5H33.9688ZM51.5 7.27344L40.7422 18.0312H51.5V7.27344ZM0.5 18.0312H11.2578L0.5 7.27344V18.0312ZM7.27344 0.5L18.0312 11.2578V0.5H7.27344ZM18.0312 51.5V40.7422L7.27344 51.5H18.0312ZM0.5 44.7266L11.2578 33.9688H0.5V44.7266ZM51.5 33.9688H40.7422L51.5 44.7266V33.9688ZM44.7266 51.5L33.9688 40.7422V51.5H44.7266Z" fill="#0052B4"/>
            <path d="M0.5 0.5V4.98242L13.5488 18.0312H18.0312L0.5 0.5ZM21.2188 0.5V21.2188H0.5V30.7812H21.2188V51.5H30.7812V30.7812H51.5V21.2188H30.7812V0.5H21.2188ZM47.0176 0.5L33.9688 13.5488V18.0312L51.5 0.5H47.0176ZM18.0312 33.9688L0.5 51.5H4.98242L18.0312 38.4512V33.9688ZM33.9688 33.9688L51.5 51.5V47.0176L38.4512 33.9688H33.9688Z" fill="#D80027"/>
        </g>
    </g>
    <defs>
        <clipPath id="clip0_16_810">
            <rect width="51" height="51" fill="white" transform="translate(0.5 0.5)"/>
        </clipPath>
    </defs>
</svg>
