<?xml version="1.0" encoding="UTF-8" standalone="no"?>
<svg width="20" height="18" viewBox="0 0 20 18" fill="none" xmlns="http://www.w3.org/2000/svg">
   <mask id="mask0_18_4180" style="mask-type:luminance" maskUnits="userSpaceOnUse" x="0" y="0" width="20" height="18">
      <rect x="0.5" y="0.5" width="19" height="17" fill="white"/>
   </mask>
   <g mask="url(#mask0_18_4180)">
      <path fill-rule="evenodd" clip-rule="evenodd" d="M0.5 0.5V17.5H19.5V0.5H0.5Z" fill="#2E42A5"/>
      <mask id="mask1_18_4180" style="mask-type:luminance" maskUnits="userSpaceOnUse" x="0" y="0" width="20" height="18">
         <path fill-rule="evenodd" clip-rule="evenodd" d="M0.5 0.5V17.5H19.5V0.5H0.5Z" fill="white"/>
      </mask>
      <g mask="url(#mask1_18_4180)">
         <mask id="mask2_18_4180" style="mask-type:luminance" maskUnits="userSpaceOnUse" x="0" y="0" width="20" height="18">
            <rect x="0.5" y="0.5" width="19" height="17" fill="white"/>
         </mask>
         <g mask="url(#mask2_18_4180)">
            <path d="M-1.61572 16.2855L2.56528 18.395L19.5948 2.79348L21.8001 -0.341238L17.3292 -1.04628L10.3832 5.67684L4.7925 10.2067L-1.61572 16.2855Z" fill="white"/>
            <path d="M-1.04346 17.7634L1.08657 18.9876L21.0081 -0.632492H18.0173L-1.04346 17.7634Z" fill="#F50100"/>
            <path d="M21.6157 16.2855L17.4347 18.395L0.405235 2.79348L-1.80015 -0.341238L2.67083 -1.04628L9.61675 5.67684L15.2075 10.2067L21.6157 16.2855Z" fill="white"/>
            <path d="M21.4731 17.3462L19.3431 18.5704L10.8603 10.17L8.34536 9.23143L-2.01227 -0.330503H0.978535L11.3303 9.00447L14.08 10.1299L21.4731 17.3462Z" fill="#F50100"/>
            <mask id="path-9-inside-1_18_4180" fill="white">
               <path fill-rule="evenodd" clip-rule="evenodd" d="M12.2431 -0.916664H7.75695V6.16667H-0.671143V11.8333H7.75695V18.9167H12.2431V11.8333H20.7039V6.16667H12.2431V-0.916664Z"/>
            </mask>
            <path fill-rule="evenodd" clip-rule="evenodd" d="M12.2431 -0.916664H7.75695V6.16667H-0.671143V11.8333H7.75695V18.9167H12.2431V11.8333H20.7039V6.16667H12.2431V-0.916664Z" fill="#F50100"/>
            <path d="M7.75695 -0.916664V-1.91666H6.75695V-0.916664H7.75695ZM12.2431 -0.916664H13.2431V-1.91666H12.2431V-0.916664ZM7.75695 6.16667V7.16667H8.75695V6.16667H7.75695ZM-0.671143 6.16667V5.16667H-1.67114V6.16667H-0.671143ZM-0.671143 11.8333H-1.67114V12.8333H-0.671143V11.8333ZM7.75695 11.8333H8.75695V10.8333H7.75695V11.8333ZM7.75695 18.9167H6.75695V19.9167H7.75695V18.9167ZM12.2431 18.9167V19.9167H13.2431V18.9167H12.2431ZM12.2431 11.8333V10.8333H11.2431V11.8333H12.2431ZM20.7039 11.8333V12.8333H21.7039V11.8333H20.7039ZM20.7039 6.16667H21.7039V5.16667H20.7039V6.16667ZM12.2431 6.16667H11.2431V7.16667H12.2431V6.16667ZM7.75695 0.0833359H12.2431V-1.91666H7.75695V0.0833359ZM8.75695 6.16667V-0.916664H6.75695V6.16667H8.75695ZM-0.671143 7.16667H7.75695V5.16667H-0.671143V7.16667ZM0.328857 11.8333V6.16667H-1.67114V11.8333H0.328857ZM7.75695 10.8333H-0.671143V12.8333H7.75695V10.8333ZM8.75695 18.9167V11.8333H6.75695V18.9167H8.75695ZM12.2431 17.9167H7.75695V19.9167H12.2431V17.9167ZM11.2431 11.8333V18.9167H13.2431V11.8333H11.2431ZM20.7039 10.8333H12.2431V12.8333H20.7039V10.8333ZM19.7039 6.16667V11.8333H21.7039V6.16667H19.7039ZM12.2431 7.16667H20.7039V5.16667H12.2431V7.16667ZM11.2431 -0.916664V6.16667H13.2431V-0.916664H11.2431Z" fill="white" mask="url(#path-9-inside-1_18_4180)"/>
         </g>
      </g>
   </g>
</svg>
