<?xml version="1.0" encoding="UTF-8" standalone="no"?>
<svg width="73" height="49" viewBox="0 0 73 49" fill="none" xmlns="http://www.w3.org/2000/svg">
    <g clip-path="url(#clip0_132_473)">
        <path d="M0.316406 0.291016H72.3164V48.291H0.316406V0.291016Z" fill="#E30A17"/>
        <path d="M36.7654 16.9366C34.9268 15.6033 32.6953 14.8875 30.4075 14.9015C24.6812 14.9015 20.0496 19.2243 20.0496 24.5717C20.0496 29.9191 24.6953 34.2419 30.4075 34.2419C32.8075 34.2419 35.0251 33.484 36.7654 32.2068C32.5549 37.6244 24.7374 38.6068 19.3198 34.3823C13.9023 30.1577 12.9198 22.3542 17.1444 16.9366C21.3689 11.5191 29.1724 10.5366 34.59 14.7612C35.404 15.3928 36.1339 16.1366 36.7654 16.9366ZM42.3654 26.1717L39.8251 29.2454L39.9935 25.2594L36.2882 23.7998L40.1198 22.7331L40.3724 18.7612L42.5619 22.0875L46.4216 21.091L43.9654 24.1787L46.1128 27.5331L42.3654 26.1717Z" fill="white"/>
    </g>
    <defs>
        <clipPath id="clip0_132_473">
            <rect width="71.9999" height="48" fill="white" transform="translate(0.316406 0.291016)"/>
        </clipPath>
    </defs>
</svg>
