<?xml version="1.0" encoding="UTF-8" standalone="no"?>
<svg width="26" height="18" viewBox="0 0 26 18" fill="none" xmlns="http://www.w3.org/2000/svg">
    <path d="M25.956 2.01057C25.0066 2.36423 24.0045 2.58527 22.9496 2.71789C24.0045 2.1874 24.8484 1.34746 25.2176 0.330692C24.2155 0.816973 23.1078 1.17063 21.8947 1.39167C20.9453 0.551729 19.5739 0.0212402 18.0971 0.0212402C15.2489 0.0212402 12.9281 1.96637 12.9281 4.35356C12.9281 4.70722 12.9808 5.01667 13.0863 5.32613C8.81401 5.1493 4.96365 3.42521 2.37916 0.772766C1.9572 1.43588 1.69347 2.14319 1.69347 2.93893C1.69347 4.44198 2.59013 5.7682 4.01424 6.56393C3.17033 6.51973 2.37916 6.3429 1.64073 6.03344V6.07765C1.64073 8.19961 3.43405 9.9679 5.80756 10.3658C5.3856 10.4542 4.9109 10.4984 4.4362 10.4984C4.11973 10.4984 3.75052 10.4542 3.43405 10.41C4.11973 12.1341 6.01854 13.4161 8.28656 13.4161C6.49324 14.5655 4.27796 15.2728 1.85171 15.2728C1.42975 15.2728 1.00779 15.2728 0.63858 15.2286C2.95935 16.4664 5.64933 17.1737 8.60303 17.1737C18.1498 17.1737 23.3715 10.5426 23.3715 4.79564C23.3715 4.61881 23.3715 4.39777 23.3715 4.22094C24.3737 3.64625 25.2704 2.89472 25.956 2.01057Z" fill="#0EA5E9"/>
</svg>
