<?xml version="1.0" encoding="UTF-8" standalone="no"?>
<svg width="38" height="39" viewBox="0 0 38 39" fill="none" xmlns="http://www.w3.org/2000/svg">
    <g clip-path="url(#clip0_97_207)">
        <path d="M25.892 37.8469C25.7014 37.8471 25.5141 37.797 25.3491 37.7016C25.184 37.6063 25.047 37.4691 24.952 37.3039L16.993 23.5179C16.9218 23.3946 16.8756 23.2584 16.857 23.1173C16.8384 22.9761 16.8478 22.8327 16.8847 22.6951C16.9216 22.5576 16.9852 22.4287 17.0719 22.3157C17.1586 22.2028 17.2667 22.108 17.39 22.0369L25.008 17.6389C25.2568 17.4953 25.5524 17.4564 25.8299 17.5306C26.1074 17.6049 26.3441 17.7862 26.488 18.0349L34.448 31.8219C34.5339 31.9706 34.5832 32.1376 34.5919 32.3091C34.6006 32.4806 34.5684 32.6517 34.498 32.8084C34.4276 32.965 34.321 33.1027 34.1869 33.21C34.0529 33.3174 33.8952 33.3914 33.727 33.4259L29.539 34.2829L26.703 37.4819C26.6012 37.5964 26.4763 37.6881 26.3365 37.7508C26.1967 37.8136 26.0452 37.846 25.892 37.8459V37.8469Z" fill="#FFE4AD"/>
        <path d="M12.112 37.8469C11.804 37.8469 11.508 37.7149 11.302 37.4819L8.465 34.2819L4.277 33.4259C4.10867 33.3915 3.95093 33.3176 3.81676 33.2103C3.6826 33.103 3.57586 32.9654 3.50534 32.8087C3.43483 32.6521 3.40256 32.4809 3.41119 32.3093C3.41982 32.1377 3.46911 31.9707 3.555 31.8219L11.515 18.0349C11.6589 17.7862 11.8956 17.6049 12.1731 17.5306C12.4506 17.4564 12.7462 17.4953 12.995 17.6389L20.614 22.0369C21.132 22.3369 21.31 22.9989 21.011 23.5169L13.051 37.3039C12.9558 37.4687 12.819 37.6056 12.6541 37.7007C12.4893 37.7958 12.3023 37.8459 12.112 37.8459V37.8469Z" fill="#FFE4AD"/>
        <path d="M19.034 28.8419H18.984C17.568 28.8199 16.569 27.9139 15.688 27.1149C15.173 26.6479 14.686 26.2069 14.194 26.0029C13.757 25.8219 13.148 25.8059 12.502 25.7889C11.355 25.7589 10.056 25.7239 9.09199 24.7309C8.10599 23.7129 8.03999 22.3659 7.98199 21.1779C7.94799 20.4829 7.91599 19.8279 7.71199 19.3349C7.53099 18.8979 7.11199 18.4549 6.66699 17.9869C5.87699 17.1549 4.98299 16.2119 5.00399 14.8269C5.02599 13.4109 5.93199 12.4119 6.73099 11.5309C7.19799 11.0159 7.63999 10.5289 7.84399 10.0369C8.02399 9.59992 8.04099 8.99092 8.05799 8.34492C8.08799 7.19792 8.12199 5.89892 9.11599 4.93492C10.133 3.94892 11.48 3.88292 12.669 3.82492C13.363 3.79092 14.019 3.75892 14.511 3.55492C14.948 3.37492 15.391 2.95492 15.859 2.50992C16.68 1.72992 17.613 0.846924 18.969 0.846924H19.019C20.435 0.868924 21.434 1.77492 22.315 2.57392C22.831 3.04192 23.317 3.48292 23.809 3.68692C24.247 3.86692 24.856 3.88392 25.501 3.90092C26.648 3.93092 27.948 3.96492 28.911 4.95892C29.897 5.97592 29.963 7.32292 30.021 8.51192C30.055 9.20592 30.087 9.86192 30.291 10.3539C30.472 10.7919 30.891 11.2339 31.336 11.7019C32.126 12.5339 33.02 13.4779 32.999 14.8619C32.977 16.2779 32.071 17.2769 31.272 18.1589C30.805 18.6739 30.364 19.1609 30.16 19.6519C29.979 20.0899 29.963 20.6989 29.946 21.3439C29.916 22.4909 29.881 23.7909 28.887 24.7539C27.87 25.7399 26.523 25.8059 25.335 25.8639C24.64 25.8979 23.985 25.9309 23.492 26.1339C23.055 26.3149 22.612 26.7339 22.144 27.1789C21.322 27.9589 20.391 28.8419 19.034 28.8419Z" fill="#FAB223"/>
        <path d="M19.002 23.7839C14.072 23.7839 10.062 19.7739 10.062 14.8439C10.062 9.91588 14.072 5.90588 19.002 5.90588C23.931 5.90588 27.941 9.91588 27.941 14.8449C27.941 19.7739 23.931 23.7839 19.001 23.7839H19.002Z" fill="#FAB223"/>
        <path d="M16.438 19.7289C16.1578 19.7291 15.8884 19.6208 15.6863 19.4267C15.4842 19.2327 15.3651 18.9679 15.354 18.6879L15.256 16.1929L13.972 14.4009C13.8749 14.2653 13.8104 14.109 13.7835 13.9444C13.7566 13.7797 13.7681 13.6111 13.8171 13.4517C13.8661 13.2922 13.9512 13.1462 14.0658 13.025C14.1804 12.9038 14.3215 12.8107 14.478 12.7529L16.82 11.8879L18.128 10.1139C18.227 9.97974 18.3556 9.87024 18.5038 9.7939C18.652 9.71756 18.8159 9.67644 18.9826 9.67373C19.1493 9.67102 19.3143 9.7068 19.465 9.77828C19.6156 9.84977 19.7477 9.95503 19.851 10.0859L21.398 12.0459L23.489 12.7409C23.6472 12.7935 23.7912 12.8819 23.9097 12.9992C24.0282 13.1165 24.1181 13.2596 24.1723 13.4173C24.2264 13.5751 24.2435 13.7431 24.2221 13.9085C24.2008 14.0739 24.1415 14.2321 24.049 14.3709L22.662 16.4489L22.647 18.6519C22.6459 18.8187 22.6062 18.983 22.5312 19.132C22.4562 19.281 22.3478 19.4107 22.2144 19.511C22.0811 19.6112 21.9264 19.6793 21.7624 19.71C21.5984 19.7407 21.4296 19.7331 21.269 19.6879L18.866 19.0109C18.866 19.0109 16.803 19.7289 16.438 19.7289Z" fill="#FFFAC1"/>
    </g>
    <defs>
        <clipPath id="clip0_97_207">
            <rect width="37" height="38" fill="white" transform="translate(0.5 0.346924)"/>
        </clipPath>
    </defs>
</svg>
