<?xml version="1.0" encoding="UTF-8" standalone="no"?>
<svg width="21" height="31" viewBox="0 0 21 31" fill="none" xmlns="http://www.w3.org/2000/svg">
   <path d="M15.1346 11.6261C18.4527 13.2799 20.7249 16.6492 20.7249 20.5369C20.7249 26.0597 16.139 30.5371 10.4824 30.5371C4.82573 30.5371 0.240479 26.0597 0.240479 20.5369C0.240479 16.7405 2.40705 13.4382 5.59945 11.7443C7.05053 10.9748 8.71394 10.5372 10.4824 10.5372C12.1573 10.5372 13.7388 10.9298 15.1346 11.6261Z" fill="#FFCE68"/>
   <path d="M10.4823 30.1277C7.85848 30.1277 5.39184 29.1301 3.53661 27.3186C1.68137 25.5072 0.659668 23.0986 0.659668 20.5369C0.659668 17.0175 2.62918 13.7862 5.79957 12.104C7.22755 11.3468 8.84681 10.9465 10.4823 10.9465C12.054 10.9465 13.555 11.2978 14.9438 11.9906C16.5318 12.7822 17.8718 13.9821 18.8184 15.4608C19.7913 16.9803 20.3055 18.7356 20.3055 20.5369C20.3055 23.0986 19.2838 25.5072 17.4283 27.3186C15.5729 29.1301 13.1062 30.1277 10.4823 30.1277Z" fill="#FDBC62"/>
   <path d="M10.4825 28.9582C8.17863 28.9582 6.01271 28.0822 4.38378 26.4916C2.7548 24.9011 1.85767 22.7862 1.85767 20.5369C1.85767 17.4466 3.58694 14.6095 6.37074 13.1324C7.62461 12.4674 9.04642 12.116 10.4825 12.116C11.8624 12.116 13.1804 12.4244 14.3999 13.0328C15.7943 13.7278 16.9707 14.7814 17.802 16.0799C18.6562 17.414 19.1078 18.9552 19.1078 20.5369C19.1078 22.7862 18.2106 24.9009 16.5814 26.4916C14.9523 28.0822 12.7863 28.9582 10.4825 28.9582Z" stroke="#C49047" stroke-width="2.61099" stroke-miterlimit="10"/>
   <path d="M10.4826 26.2472C8.92039 26.2472 7.45174 25.6533 6.34715 24.5748C5.24263 23.4962 4.63428 22.0623 4.63428 20.5369C4.63428 18.4416 5.80689 16.5177 7.6945 15.5161C8.54473 15.0652 9.50882 14.827 10.4826 14.827C11.4183 14.827 12.312 15.0361 13.1388 15.4485C14.0845 15.92 14.8822 16.6343 15.4458 17.5147C16.025 18.4194 16.3313 19.4645 16.3313 20.5369C16.3313 22.0623 15.7229 23.4962 14.6183 24.5748C13.5135 25.6533 12.0448 26.2472 10.4826 26.2472V26.2472Z" stroke="#FDBC62" stroke-width="1.865" stroke-miterlimit="10"/>
   <path d="M10.4824 27.4902C8.58013 27.4902 6.7918 26.767 5.44679 25.4536C4.10178 24.1402 3.36108 22.3942 3.36108 20.5369C3.36108 17.9854 4.78892 15.6428 7.08743 14.4231C8.12271 13.8741 9.29667 13.584 10.4824 13.584C11.6218 13.584 12.71 13.8387 13.7168 14.3409C14.8682 14.9149 15.8396 15.7849 16.526 16.8568C17.2312 17.9585 17.6041 19.231 17.6041 20.5369C17.6041 22.3941 16.8633 24.1402 15.5182 25.4536C14.173 26.767 12.3847 27.4902 10.4824 27.4902V27.4902Z" stroke="#C49047" stroke-width="2.61099" stroke-miterlimit="10"/>
   <path d="M13.6097 10.1034V9.7338C13.6097 9.62684 13.5208 9.54008 13.4112 9.54008H7.18628C7.07663 9.54008 6.98778 9.62684 6.98778 9.7338V10.1034C6.98778 10.2109 7.07663 10.2977 7.18628 10.2977H13.4112C13.5208 10.2977 13.6097 10.2109 13.6097 10.1034ZM14.6362 9.82686C14.897 10.3946 15.0417 11.0059 15.0648 11.6261C13.6692 10.9298 12.0877 10.5372 10.4127 10.5372C8.64428 10.5372 6.98087 10.9749 5.52979 11.7444C5.53728 11.0836 5.68438 10.4307 5.96134 9.82686L6.0906 9.54564C6.23484 9.23076 6.53485 9.01055 6.88503 8.96271L7.26643 8.91032C9.27779 8.63539 11.3197 8.63539 13.3317 8.91032L13.7125 8.96271C14.0627 9.01055 14.3627 9.23076 14.5069 9.54564L14.6362 9.82686Z" fill="#FDBC62"/>
   <path d="M16.8004 0L13.2491 9.68259H11.2759L14.8168 0.00790215V0H16.8004Z" fill="#FF545F"/>
   <path d="M14.8168 0V0.00790215L11.2758 9.68259H9.32739L12.8683 0.00790215V0H14.8168Z" fill="#62DADC"/>
   <path d="M12.8681 0V0.00790215L9.32726 9.68259H7.33667L10.8879 0H12.8681Z" fill="#AC748C"/>
   <path d="M20.0434 20.5372C20.0434 23.6908 17.425 26.2472 14.195 26.2472C10.9649 26.2472 8.34644 23.6908 8.34644 20.5372C8.34644 17.3834 10.9649 14.827 14.195 14.827C17.425 14.827 20.0434 17.3834 20.0434 20.5372Z" fill="#FFDEAE"/>
   <path d="M3.78491 0L7.33624 9.68259H9.3095L5.76859 0.00790215V0H3.78491Z" fill="#AC748C"/>
   <path d="M5.76855 0V0.00790215L9.30946 9.68259H11.2579L7.717 0.00790215V0H5.76855Z" fill="#62DADC"/>
   <path d="M7.71704 0V0.00790215L11.2579 9.68259H13.2485L9.69721 0H7.71704Z" fill="#FF545F"/>
   <path d="M19.6628 20.5371C19.6628 23.4853 17.2148 25.8754 14.1952 25.8754C11.1755 25.8754 8.72754 23.4853 8.72754 20.5371C8.72754 17.5888 11.1755 15.1987 14.1952 15.1987C17.2148 15.1987 19.6628 17.5888 19.6628 20.5371Z" fill="#FFCE68"/>
   <path d="M18.3583 20.5371C18.3583 22.7821 16.4943 24.602 14.195 24.602C11.8955 24.602 10.0315 22.7821 10.0315 20.5371C10.0315 18.292 11.8955 16.4721 14.195 16.4721C16.4943 16.4721 18.3583 18.292 18.3583 20.5371Z" fill="#C49047"/>
   <path d="M15.9638 23.1313H12.426V22.2277H13.5435V19.4929H12.426V18.6485C12.5969 18.6485 12.7605 18.6386 12.9171 18.6189C13.0737 18.5992 13.2043 18.5651 13.3087 18.5164C13.432 18.4586 13.5245 18.3832 13.5863 18.2905C13.648 18.1978 13.6835 18.082 13.6931 17.943H14.8712V22.2277H15.9638V23.1313Z" fill="#FFCE68"/>
   <path d="M9.28178 18.759C9.28172 18.7594 9.28196 18.7597 9.2819 18.7602C9.28154 18.7849 9.28008 19.1399 9.37099 19.3756C9.46536 19.6201 9.38515 19.9996 9.38515 19.9996C9.38515 19.9996 9.12863 19.7142 9.11048 19.5054C9.08818 19.2541 9.27569 18.7739 9.28178 18.759Z" fill="#C49047"/>
   <path d="M9.34129 18.9662C9.41222 19.1208 9.48503 19.2448 9.54613 19.4293C9.58192 19.537 9.5291 19.8128 9.44857 19.9269C9.42233 19.9791 9.38261 19.9996 9.38261 19.9996C9.38261 19.9996 9.46092 19.6201 9.36878 19.3756C9.28003 19.1399 9.28145 18.7849 9.2818 18.7602C9.28442 18.7736 9.30449 18.8854 9.34129 18.9662Z" fill="#FFDEAE"/>
   <path d="M10.1375 19.1024C10.1372 19.1027 10.1372 19.103 10.1368 19.1033C10.1199 19.1215 9.87872 19.3873 9.78758 19.623C9.69303 19.8673 9.37622 20.1007 9.37622 20.1007C9.37622 20.1007 9.37651 19.721 9.50413 19.5525C9.65727 19.3494 10.1228 19.1096 10.1375 19.1024Z" fill="#C49047"/>
   <path d="M10.0433 19.2973C9.99317 19.4603 9.96548 19.6013 9.88768 19.7804C9.84237 19.8849 9.6153 20.0571 9.47609 20.0897C9.42065 20.1115 9.37622 20.1007 9.37622 20.1007C9.37622 20.1007 9.69303 19.8673 9.78758 19.623C9.87872 19.3873 10.1198 19.1216 10.1368 19.1033C10.1297 19.1151 10.0695 19.2123 10.0433 19.2973Z" fill="#FFDEAE"/>
   <path d="M9.05531 19.6285C9.05536 19.6288 9.05554 19.6291 9.0556 19.6294C9.05894 19.654 9.11075 20.0053 9.23602 20.2257C9.36598 20.4541 9.34362 20.8409 9.34362 20.8409C9.34362 20.8409 9.047 20.5953 8.99783 20.3913C8.93805 20.1459 9.05157 19.644 9.05531 19.6285Z" fill="#C49047"/>
   <path d="M9.14687 19.8246C9.24188 19.9673 9.33426 20.0792 9.42382 20.2527C9.47622 20.3541 9.46404 20.6346 9.39958 20.7593C9.38079 20.8147 9.34368 20.8409 9.34368 20.8409C9.34368 20.8409 9.36604 20.4541 9.23608 20.2257C9.11081 20.0053 9.05901 19.654 9.05566 19.6294C9.06035 19.6426 9.0974 19.7503 9.14687 19.8246Z" fill="#FFDEAE"/>
   <path d="M9.95339 19.8458C9.9531 19.8461 9.95316 19.8464 9.95286 19.8467C9.93888 19.8673 9.74019 20.1645 9.68528 20.4107C9.6285 20.6661 9.35009 20.9422 9.35009 20.9422C9.35009 20.9422 9.29341 20.5666 9.39434 20.3816C9.51546 20.1588 9.93999 19.855 9.95339 19.8458Z" fill="#C49047"/>
   <path d="M9.88942 20.0521C9.86436 20.2204 9.8581 20.3641 9.80799 20.5523C9.77884 20.662 9.57997 20.8649 9.44715 20.917C9.39564 20.9466 9.3501 20.9422 9.3501 20.9422C9.3501 20.9422 9.62851 20.6661 9.68529 20.4108C9.7402 20.1645 9.93889 19.8673 9.95287 19.8467C9.94761 19.8596 9.90265 19.9644 9.88942 20.0521Z" fill="#FFDEAE"/>
   <path d="M8.96216 20.5724C8.96228 20.5727 8.9625 20.5729 8.96262 20.5733C8.97176 20.5964 9.10546 20.9264 9.27963 21.1125C9.46021 21.3052 9.53022 21.6866 9.53022 21.6866C9.53022 21.6866 9.18344 21.5147 9.08714 21.3274C8.97082 21.1023 8.96216 20.5884 8.96216 20.5724Z" fill="#C49047"/>
   <path d="M9.09746 20.7425C9.22373 20.8598 9.34016 20.9477 9.46849 21.0964C9.54348 21.183 9.59821 21.4587 9.56501 21.5946C9.55992 21.6528 9.53 21.6866 9.53 21.6866C9.53 21.6866 9.45999 21.3052 9.27941 21.1125C9.10524 20.9264 8.97154 20.5964 8.9624 20.5733C8.97014 20.5849 9.03165 20.6813 9.09746 20.7425Z" fill="#FFDEAE"/>
   <path d="M9.88716 20.5806C9.88699 20.5811 9.88711 20.5813 9.88693 20.5816C9.87815 20.6049 9.75539 20.9389 9.76036 21.1909C9.7657 21.4521 9.5604 21.7838 9.5604 21.7838C9.5604 21.7838 9.41616 21.431 9.47048 21.2284C9.5354 20.9842 9.87634 20.5928 9.88716 20.5806Z" fill="#C49047"/>
   <path d="M9.87378 20.7958C9.88935 20.9653 9.91727 21.1063 9.91318 21.3008C9.91083 21.4142 9.7656 21.6565 9.64875 21.7373C9.60561 21.7776 9.5603 21.7838 9.5603 21.7838C9.5603 21.7838 9.7656 21.4521 9.76026 21.1909C9.75529 20.9389 9.87805 20.6049 9.88684 20.5816C9.88472 20.5954 9.86581 20.7075 9.87378 20.7958Z" fill="#FFDEAE"/>
   <path d="M9.07104 21.4575C9.07122 21.4579 9.07152 21.4579 9.07169 21.4584C9.08329 21.4803 9.25334 21.794 9.44735 21.9602C9.64854 22.1325 9.76105 22.5041 9.76105 22.5041C9.76105 22.5041 9.39699 22.3704 9.28027 22.1946C9.13931 21.9832 9.07286 21.4734 9.07104 21.4575Z" fill="#C49047"/>
   <path d="M9.22504 21.6122C9.36372 21.7152 9.48929 21.7901 9.63359 21.924C9.71789 22.0021 9.8033 22.2703 9.78561 22.409C9.78708 22.4672 9.76114 22.5041 9.76114 22.5041C9.76114 22.5041 9.64863 22.1325 9.44744 21.9602C9.25343 21.794 9.08338 21.4803 9.07178 21.4584C9.08068 21.4691 9.15275 21.5583 9.22504 21.6122Z" fill="#FFDEAE"/>
   <path d="M9.99165 21.3665C9.99147 21.3669 9.99165 21.3672 9.99153 21.3677C9.98538 21.3917 9.90097 21.7368 9.93428 21.9867C9.96894 22.2457 9.80216 22.5975 9.80216 22.5975C9.80216 22.5975 9.61911 22.2624 9.65031 22.0551C9.68735 21.8055 9.98222 21.3797 9.99165 21.3665Z" fill="#C49047"/>
   <path d="M10.0025 21.5819C10.037 21.7487 10.0806 21.8858 10.0984 22.0795C10.1089 22.1925 9.99179 22.449 9.88471 22.5417C9.84638 22.5865 9.802 22.5975 9.802 22.5975C9.802 22.5975 9.96878 22.2457 9.93412 21.9867C9.90081 21.7368 9.98522 21.3917 9.99137 21.3677C9.99078 21.3814 9.98464 21.4948 10.0025 21.5819Z" fill="#FFDEAE"/>
   <path d="M9.31201 22.3256C9.31224 22.326 9.3126 22.326 9.31282 22.3263C9.32839 22.3459 9.55506 22.6234 9.77727 22.7515C10.0077 22.8844 10.1888 23.2291 10.1888 23.2291C10.1888 23.2291 9.80567 23.1637 9.65756 23.0121C9.4789 22.83 9.31687 22.341 9.31201 22.3256Z" fill="#C49047"/>
   <path d="M9.49252 22.4497C9.64836 22.5259 9.78598 22.5767 9.95322 22.6823C10.0509 22.7438 10.1857 22.9918 10.1947 23.1312C10.2072 23.1883 10.1887 23.2291 10.1887 23.2291C10.1887 23.2291 10.0076 22.8844 9.7772 22.7515C9.55498 22.6234 9.32831 22.3459 9.31274 22.3263C9.32352 22.3353 9.41126 22.4099 9.49252 22.4497Z" fill="#FFDEAE"/>
   <path d="M10.1992 22.0697C10.1992 22.0701 10.1994 22.0703 10.1993 22.0707C10.1979 22.0955 10.1804 22.45 10.2606 22.6895C10.3439 22.9378 10.2468 23.3134 10.2468 23.3134C10.2468 23.3134 10.0033 23.0172 9.99456 22.808C9.98362 22.5559 10.1925 22.0843 10.1992 22.0697Z" fill="#C49047"/>
   <path d="M10.2497 22.2792C10.3137 22.4368 10.3811 22.5638 10.434 22.7508C10.465 22.8599 10.4002 23.1331 10.3146 23.2437C10.2861 23.2947 10.2456 23.3134 10.2456 23.3134C10.2456 23.3134 10.3404 22.9378 10.2591 22.6895C10.1808 22.45 10.1979 22.0955 10.1993 22.0707C10.2013 22.0843 10.2164 22.197 10.2497 22.2792Z" fill="#FFDEAE"/>
   <path d="M9.6875 23.1217C9.6878 23.122 9.68808 23.122 9.68838 23.1224C9.70724 23.1389 9.9802 23.3734 10.2219 23.4615C10.4726 23.5529 10.7128 23.8614 10.7128 23.8614C10.7128 23.8614 10.3238 23.8626 10.1508 23.7385C9.94221 23.5896 9.69499 23.1361 9.6875 23.1217Z" fill="#C49047"/>
   <path d="M9.88763 23.2131C10.0547 23.2614 10.1994 23.2879 10.3829 23.3631C10.4901 23.407 10.6673 23.6281 10.7012 23.7639C10.7238 23.818 10.7129 23.8614 10.7129 23.8614C10.7129 23.8614 10.4727 23.5529 10.222 23.4615C9.98029 23.3734 9.70733 23.1389 9.68848 23.1224C9.70071 23.1293 9.80045 23.1877 9.88763 23.2131Z" fill="#FFDEAE"/>
   <path d="M10.515 22.718C10.515 22.7185 10.5152 22.7186 10.5152 22.719C10.5182 22.7436 10.5647 23.0957 10.6866 23.3176C10.8131 23.548 10.7849 23.9344 10.7849 23.9344C10.7849 23.9344 10.4921 23.6844 10.4459 23.4799C10.3899 23.2337 10.511 22.7335 10.515 22.718Z" fill="#C49047"/>
   <path d="M10.6037 22.9154C10.6965 23.0594 10.7872 23.1726 10.8741 23.3474C10.9249 23.4496 10.9085 23.7299 10.8422 23.8537C10.8225 23.9089 10.7851 23.9344 10.7851 23.9344C10.7851 23.9344 10.8133 23.548 10.6868 23.3176C10.5649 23.0957 10.5184 22.7436 10.5154 22.719C10.5199 22.7321 10.5553 22.8403 10.6037 22.9154Z" fill="#FFDEAE"/>
   <path d="M10.302 23.9165C10.3023 23.9167 10.3026 23.9167 10.303 23.9168C10.3254 23.9284 10.6487 24.0908 10.9051 24.1189C11.1711 24.1479 11.4811 24.3899 11.4811 24.3899C11.4811 24.3899 11.1041 24.4834 10.9053 24.4043C10.6659 24.3097 10.3128 23.9285 10.302 23.9165Z" fill="#C49047"/>
   <path d="M10.5188 23.9573C10.6929 23.9645 10.8398 23.9559 11.0366 23.9852C11.1515 24.0023 11.3786 24.1745 11.4453 24.2982C11.4807 24.3451 11.481 24.3899 11.481 24.3899C11.481 24.3899 11.1711 24.1479 10.9051 24.1189C10.6487 24.0908 10.3254 23.9284 10.303 23.9168C10.3166 23.9206 10.4279 23.9536 10.5188 23.9573Z" fill="#FFDEAE"/>
   <path d="M11.0039 23.328C11.0041 23.3283 11.0044 23.3285 11.0045 23.3289C11.0135 23.3521 11.1465 23.6824 11.3201 23.8687C11.5003 24.062 11.5694 24.4436 11.5694 24.4436C11.5694 24.4436 11.223 24.2708 11.1272 24.0834C11.0113 23.8579 11.004 23.344 11.0039 23.328Z" fill="#C49047"/>
   <path d="M11.139 23.4985C11.265 23.616 11.3812 23.7042 11.5092 23.8532C11.5839 23.94 11.638 24.2157 11.6045 24.3517C11.5993 24.4098 11.5693 24.4436 11.5693 24.4436C11.5693 24.4436 11.5002 24.062 11.32 23.8687C11.1464 23.6824 11.0134 23.3521 11.0044 23.3289C11.012 23.3406 11.0734 23.4371 11.139 23.4985Z" fill="#FFDEAE"/>
   <path d="M10.9722 24.4857C10.9725 24.486 10.9728 24.4859 10.9732 24.4862C10.996 24.4968 11.3251 24.6477 11.5825 24.6666C11.8493 24.686 12.1681 24.9169 12.1681 24.9169C12.1681 24.9169 11.7947 25.0239 11.5932 24.9519C11.3504 24.8657 10.9834 24.4974 10.9722 24.4857Z" fill="#C49047"/>
   <path d="M11.1903 24.519C11.3646 24.5198 11.511 24.506 11.7088 24.5283C11.8243 24.5413 12.0576 24.7053 12.1289 24.8265C12.1661 24.8723 12.168 24.9169 12.168 24.9169C12.168 24.9169 11.8493 24.686 11.5824 24.6666C11.3251 24.6477 10.996 24.4968 10.9731 24.4862C10.9869 24.4894 11.0994 24.5183 11.1903 24.519Z" fill="#FFDEAE"/>
   <path d="M11.6514 23.8728C11.6515 23.8731 11.6518 23.8732 11.652 23.8736C11.6618 23.8963 11.807 24.2219 11.9874 24.4019C12.1747 24.5885 12.2581 24.9674 12.2581 24.9674C12.2581 24.9674 11.9054 24.8072 11.8026 24.6232C11.6785 24.402 11.652 23.8887 11.6514 23.8728Z" fill="#C49047"/>
   <path d="M11.7929 24.0382C11.9233 24.1512 12.0426 24.2353 12.1761 24.3796C12.254 24.4638 12.3183 24.7374 12.29 24.8743C12.2868 24.9327 12.2582 24.9674 12.2582 24.9674C12.2582 24.9674 12.1749 24.5885 11.9876 24.4019C11.8071 24.2219 11.6619 23.8963 11.6521 23.8736C11.6601 23.8849 11.725 23.9793 11.7929 24.0382Z" fill="#FFDEAE"/>
   <path d="M11.833 25.0254C11.8335 25.0254 11.8336 25.0253 11.8341 25.0254C11.8591 25.0297 12.2176 25.0884 12.4707 25.0388C12.7329 24.9873 13.1037 25.1257 13.1037 25.1257C13.1037 25.1257 12.7738 25.3269 12.5598 25.3108C12.3022 25.2918 11.8471 25.0337 11.833 25.0254Z" fill="#C49047"/>
   <path d="M12.0524 24.9998C12.2204 24.955 12.3577 24.903 12.5543 24.8724C12.6691 24.8544 12.9392 24.9511 13.0412 25.049C13.0896 25.0833 13.1039 25.1257 13.1039 25.1257C13.1039 25.1257 12.7331 24.9873 12.4708 25.0388C12.2177 25.0884 11.8593 25.0297 11.8342 25.0254C11.8485 25.025 11.9648 25.0233 12.0524 24.9998Z" fill="#FFDEAE"/>
   <path d="M12.8438 25.3698C12.8442 25.3698 12.8444 25.3697 12.8448 25.3697C12.8701 25.3698 13.2337 25.3689 13.4747 25.2788C13.7245 25.1851 14.1137 25.2609 14.1137 25.2609C14.1137 25.2609 13.8229 25.5133 13.6092 25.5322C13.3519 25.5556 12.859 25.3755 12.8438 25.3698Z" fill="#C49047"/>
   <path d="M13.0557 25.3088C13.2136 25.2369 13.34 25.1633 13.5286 25.101C13.6386 25.0646 13.9214 25.1156 14.0389 25.1955C14.0926 25.2214 14.1139 25.2609 14.1139 25.2609C14.1139 25.2609 13.7247 25.1851 13.4748 25.2788C13.2339 25.3689 12.8703 25.3698 12.845 25.3697C12.8589 25.3668 12.9733 25.3462 13.0557 25.3088Z" fill="#FFDEAE"/>
   <path d="M12.3181 24.2561C12.3184 24.2566 12.3187 24.2566 12.3189 24.2569C12.3347 24.2762 12.5643 24.5514 12.7879 24.6773C13.0198 24.8078 13.2047 25.1506 13.2047 25.1506C13.2047 25.1506 12.8209 25.0891 12.671 24.939C12.4905 24.7588 12.3231 24.2715 12.3181 24.2561Z" fill="#C49047"/>
   <path d="M12.5 24.3784C12.6566 24.4529 12.7948 24.5024 12.9633 24.6061C13.0616 24.6667 13.199 24.9133 13.2095 25.0527C13.2227 25.1096 13.2047 25.1506 13.2047 25.1506C13.2047 25.1506 13.0198 24.8078 12.7879 24.6773C12.5643 24.5514 12.3347 24.2762 12.3188 24.2569C12.3298 24.2658 12.4184 24.3394 12.5 24.3784Z" fill="#FFDEAE"/>
   <path d="M13.1755 24.6187C13.1758 24.619 13.1761 24.619 13.1764 24.6193C13.1931 24.6335 13.434 24.8365 13.6464 24.9118C13.8667 24.9898 14.0797 25.2578 14.0797 25.2578C14.0797 25.2578 13.7392 25.2619 13.5866 25.1549C13.4027 25.0263 13.1823 24.6311 13.1755 24.6187Z" fill="#C49047"/>
   <path d="M13.3516 24.697C13.4983 24.738 13.6252 24.7599 13.7865 24.8244C13.8807 24.8619 14.0378 25.054 14.0686 25.1727C14.0889 25.2198 14.0797 25.2578 14.0797 25.2578C14.0797 25.2578 13.8668 24.9898 13.6465 24.9118C13.4341 24.8366 13.1931 24.6335 13.1765 24.6193C13.1873 24.6253 13.2751 24.6757 13.3516 24.697Z" fill="#FFDEAE"/>
   <path d="M13.5518 25.5936C13.5519 25.5935 13.5521 25.5934 13.5522 25.5934C13.564 25.5876 13.7319 25.506 13.8223 25.4105C13.9158 25.3112 14.1136 25.2593 14.1136 25.2593C14.1136 25.2593 14.0384 25.4409 13.9439 25.4975C13.8305 25.5659 13.5602 25.5929 13.5518 25.5936Z" fill="#C49047"/>
   <path d="M13.6357 25.5179C13.6919 25.4495 13.7331 25.3872 13.8058 25.3162C13.848 25.2746 13.9908 25.235 14.0638 25.2457C14.0947 25.2457 14.1139 25.2593 14.1139 25.2593C14.1139 25.2593 13.9161 25.3112 13.8225 25.4104C13.7322 25.5059 13.5643 25.5876 13.5525 25.5933C13.5583 25.5889 13.6063 25.5537 13.6357 25.5179Z" fill="#FFDEAE"/>
   <path d="M19.1085 18.759C19.1086 18.7594 19.1083 18.7597 19.1083 18.7602C19.1088 18.7849 19.1101 19.1399 19.0193 19.3756C18.9251 19.6201 19.0051 19.9996 19.0051 19.9996C19.0051 19.9996 19.2616 19.7142 19.2798 19.5054C19.3021 19.2541 19.1146 18.7739 19.1085 18.759Z" fill="#C49047"/>
   <path d="M19.0422 18.9662C18.9712 19.1208 18.8984 19.2448 18.8374 19.4293C18.8015 19.537 18.8543 19.8128 18.935 19.9269C18.9611 19.9791 19.0008 19.9996 19.0008 19.9996C19.0008 19.9996 18.9227 19.6201 19.0147 19.3756C19.1034 19.1399 19.102 18.7849 19.1016 18.7602C19.099 18.7736 19.0791 18.8854 19.0422 18.9662Z" fill="#FFDEAE"/>
   <path d="M18.2527 19.1024C18.253 19.1027 18.253 19.103 18.2533 19.1033C18.2704 19.1215 18.5115 19.3873 18.6026 19.623C18.6972 19.8673 19.014 20.1007 19.014 20.1007C19.014 20.1007 19.0137 19.721 18.886 19.5525C18.7328 19.3494 18.2674 19.1096 18.2527 19.1024Z" fill="#C49047"/>
   <path d="M18.3468 19.2973C18.3969 19.4603 18.4246 19.6013 18.5024 19.7804C18.5477 19.8849 18.7748 20.0571 18.9139 20.0897C18.9694 20.1115 19.0139 20.1007 19.0139 20.1007C19.0139 20.1007 18.6971 19.8673 18.6025 19.623C18.5114 19.3873 18.2703 19.1216 18.2532 19.1033C18.2604 19.1151 18.3206 19.2123 18.3468 19.2973Z" fill="#FFDEAE"/>
   <path d="M19.3347 19.6285C19.3347 19.6288 19.3344 19.6291 19.3344 19.6294C19.3311 19.654 19.2793 20.0053 19.154 20.2257C19.0241 20.4541 19.0464 20.8409 19.0464 20.8409C19.0464 20.8409 19.343 20.5953 19.3923 20.3913C19.4519 20.1459 19.3385 19.644 19.3347 19.6285Z" fill="#C49047"/>
   <path d="M19.2432 19.8246C19.1482 19.9673 19.0559 20.0792 18.9663 20.2527C18.914 20.3541 18.9261 20.6346 18.9906 20.7593C19.0093 20.8147 19.0465 20.8409 19.0465 20.8409C19.0465 20.8409 19.0241 20.4541 19.1541 20.2257C19.2794 20.0053 19.3312 19.654 19.3345 19.6294C19.3299 19.6426 19.2927 19.7503 19.2432 19.8246Z" fill="#FFDEAE"/>
   <path d="M18.4368 19.8458C18.4369 19.8461 18.4369 19.8464 18.4372 19.8467C18.4513 19.8673 18.6499 20.1645 18.7049 20.4107C18.7617 20.6661 19.0401 20.9422 19.0401 20.9422C19.0401 20.9422 19.0968 20.5666 18.9958 20.3816C18.8747 20.1588 18.4501 19.855 18.4368 19.8458Z" fill="#C49047"/>
   <path d="M18.5006 20.0521C18.5258 20.2204 18.5321 20.3641 18.5822 20.5523C18.6114 20.662 18.8101 20.8649 18.943 20.917C18.9946 20.9466 19.0402 20.9422 19.0402 20.9422C19.0402 20.9422 18.7617 20.6661 18.7049 20.4108C18.6499 20.1645 18.4513 19.8673 18.4373 19.8467C18.4425 19.8596 18.4875 19.9644 18.5006 20.0521Z" fill="#FFDEAE"/>
   <path d="M19.4282 20.5724C19.4281 20.5727 19.4278 20.5729 19.4276 20.5733C19.4186 20.5964 19.2848 20.9264 19.1107 21.1125C18.9301 21.3052 18.8601 21.6866 18.8601 21.6866C18.8601 21.6866 19.2069 21.5147 19.3031 21.3274C19.4195 21.1023 19.4281 20.5884 19.4282 20.5724Z" fill="#C49047"/>
   <path d="M19.2926 20.7425C19.1664 20.8598 19.05 20.9477 18.9217 21.0964C18.8466 21.183 18.7919 21.4587 18.8251 21.5946C18.8302 21.6528 18.8601 21.6866 18.8601 21.6866C18.8601 21.6866 18.9301 21.3052 19.1107 21.1125C19.2848 20.9264 19.4187 20.5964 19.4277 20.5733C19.42 20.5849 19.3584 20.6813 19.2926 20.7425Z" fill="#FFDEAE"/>
   <path d="M18.5032 20.5806C18.5033 20.5811 18.5032 20.5813 18.5033 20.5816C18.5122 20.6049 18.6349 20.9389 18.6298 21.1909C18.6246 21.4521 18.8299 21.7838 18.8299 21.7838C18.8299 21.7838 18.9742 21.431 18.9198 21.2284C18.8549 20.9842 18.514 20.5928 18.5032 20.5806Z" fill="#C49047"/>
   <path d="M18.5164 20.7958C18.5008 20.9653 18.4729 21.1063 18.477 21.3008C18.4794 21.4142 18.6246 21.6565 18.7415 21.7373C18.7846 21.7776 18.8299 21.7838 18.8299 21.7838C18.8299 21.7838 18.6246 21.4521 18.6298 21.1909C18.6349 20.9389 18.5122 20.6049 18.5033 20.5816C18.5054 20.5954 18.5243 20.7075 18.5164 20.7958Z" fill="#FFDEAE"/>
   <path d="M19.319 21.4575C19.3189 21.4579 19.3186 21.4579 19.3184 21.4584C19.3067 21.4803 19.1366 21.794 18.9427 21.9602C18.7415 22.1325 18.6289 22.5041 18.6289 22.5041C18.6289 22.5041 18.9931 22.3704 19.1098 22.1946C19.2507 21.9832 19.3171 21.4734 19.319 21.4575Z" fill="#C49047"/>
   <path d="M19.165 21.6122C19.0264 21.7152 18.9008 21.7901 18.7565 21.924C18.6721 22.0021 18.5867 22.2703 18.6044 22.409C18.6029 22.4672 18.6288 22.5041 18.6288 22.5041C18.6288 22.5041 18.7414 22.1325 18.9426 21.9602C19.1366 21.794 19.3066 21.4803 19.3183 21.4584C19.3093 21.4691 19.2373 21.5583 19.165 21.6122Z" fill="#FFDEAE"/>
   <path d="M18.3987 21.3665C18.3988 21.3669 18.3987 21.3672 18.3988 21.3677C18.4048 21.3917 18.4893 21.7368 18.4559 21.9867C18.4213 22.2457 18.5881 22.5975 18.5881 22.5975C18.5881 22.5975 18.7711 22.2624 18.7399 22.0551C18.7029 21.8055 18.408 21.3797 18.3987 21.3665Z" fill="#C49047"/>
   <path d="M18.3876 21.5819C18.3531 21.7487 18.3095 21.8858 18.2917 22.0795C18.2812 22.1925 18.3984 22.449 18.5054 22.5417C18.5437 22.5865 18.5881 22.5975 18.5881 22.5975C18.5881 22.5975 18.4213 22.2457 18.4559 21.9867C18.4893 21.7368 18.4048 21.3917 18.3988 21.3677C18.3993 21.3814 18.4056 21.4948 18.3876 21.5819Z" fill="#FFDEAE"/>
   <path d="M19.0781 22.3256C19.078 22.326 19.0777 22.326 19.0774 22.3263C19.0618 22.3459 18.835 22.6234 18.6129 22.7515C18.3824 22.8844 18.2014 23.2291 18.2014 23.2291C18.2014 23.2291 18.5845 23.1637 18.7325 23.0121C18.9113 22.83 19.0733 22.341 19.0781 22.3256Z" fill="#C49047"/>
   <path d="M18.8974 22.4497C18.7417 22.5259 18.604 22.5767 18.4367 22.6823C18.3392 22.7438 18.2043 22.9918 18.1953 23.1312C18.1827 23.1883 18.2013 23.2291 18.2013 23.2291C18.2013 23.2291 18.3823 22.8844 18.6128 22.7515C18.8349 22.6234 19.0616 22.3459 19.0772 22.3263C19.0664 22.3353 18.9786 22.4099 18.8974 22.4497Z" fill="#FFDEAE"/>
   <path d="M18.1911 22.0697C18.1911 22.0701 18.1909 22.0703 18.1909 22.0707C18.1924 22.0955 18.2098 22.45 18.1296 22.6895C18.0464 22.9378 18.1436 23.3134 18.1436 23.3134C18.1436 23.3134 18.3871 23.0172 18.3958 22.808C18.4067 22.5559 18.1978 22.0843 18.1911 22.0697Z" fill="#C49047"/>
   <path d="M18.1346 22.2792C18.0705 22.4368 18.0032 22.5638 17.9503 22.7508C17.9192 22.8599 17.9842 23.1331 18.0697 23.2437C18.0982 23.2947 18.1387 23.3134 18.1387 23.3134C18.1387 23.3134 18.0439 22.9378 18.1251 22.6895C18.2034 22.45 18.1864 22.0955 18.1849 22.0707C18.1829 22.0843 18.1678 22.197 18.1346 22.2792Z" fill="#FFDEAE"/>
   <path d="M18.7026 23.1217C18.7023 23.122 18.702 23.122 18.7017 23.1224C18.6828 23.1389 18.4098 23.3734 18.168 23.4615C17.9175 23.5529 17.6772 23.8614 17.6772 23.8614C17.6772 23.8614 18.0661 23.8626 18.2392 23.7385C18.4478 23.5896 18.6951 23.1361 18.7026 23.1217Z" fill="#C49047"/>
   <path d="M18.5027 23.2131C18.3356 23.2614 18.191 23.2879 18.0074 23.3631C17.9003 23.407 17.723 23.6281 17.6891 23.7639C17.6665 23.818 17.6774 23.8614 17.6774 23.8614C17.6774 23.8614 17.9177 23.5529 18.1682 23.4615C18.41 23.3734 18.683 23.1389 18.7019 23.1224C18.6896 23.1293 18.5898 23.1877 18.5027 23.2131Z" fill="#FFDEAE"/>
   <path d="M17.8751 22.718C17.8751 22.7185 17.875 22.7186 17.8748 22.719C17.872 22.7436 17.8255 23.0957 17.7035 23.3176C17.577 23.548 17.6052 23.9344 17.6052 23.9344C17.6052 23.9344 17.898 23.6844 17.9442 23.4799C18.0003 23.2337 17.8792 22.7335 17.8751 22.718Z" fill="#C49047"/>
   <path d="M17.7867 22.9154C17.6937 23.0594 17.6031 23.1726 17.5162 23.3474C17.4654 23.4496 17.4817 23.7299 17.5481 23.8537C17.5677 23.9089 17.6052 23.9344 17.6052 23.9344C17.6052 23.9344 17.577 23.548 17.7035 23.3176C17.8255 23.0957 17.8719 22.7436 17.8748 22.719C17.8703 22.7321 17.8349 22.8403 17.7867 22.9154Z" fill="#FFDEAE"/>
   <path d="M18.0881 23.9165C18.0878 23.9167 18.0875 23.9167 18.0871 23.9168C18.0648 23.9284 17.7415 24.0908 17.4849 24.1189C17.2191 24.1479 16.9092 24.3899 16.9092 24.3899C16.9092 24.3899 17.2861 24.4834 17.4848 24.4043C17.7243 24.3097 18.0774 23.9285 18.0881 23.9165Z" fill="#C49047"/>
   <path d="M17.8714 23.9573C17.6973 23.9645 17.5504 23.9559 17.3535 23.9852C17.2387 24.0023 17.0115 24.1745 16.9448 24.2982C16.9095 24.3451 16.9092 24.3899 16.9092 24.3899C16.9092 24.3899 17.2191 24.1479 17.4849 24.1189C17.7415 24.0908 18.0648 23.9284 18.0871 23.9168C18.0736 23.9206 17.9623 23.9536 17.8714 23.9573Z" fill="#FFDEAE"/>
   <path d="M17.3862 23.328C17.3861 23.3283 17.3858 23.3285 17.3858 23.3289C17.3766 23.3521 17.2437 23.6824 17.07 23.8687C16.8899 24.062 16.8208 24.4436 16.8208 24.4436C16.8208 24.4436 17.1671 24.2708 17.263 24.0834C17.3787 23.8579 17.3862 23.344 17.3862 23.328Z" fill="#C49047"/>
   <path d="M17.251 23.4985C17.1251 23.616 17.0089 23.7042 16.8809 23.8532C16.8061 23.94 16.752 24.2157 16.7856 24.3517C16.7908 24.4098 16.8208 24.4436 16.8208 24.4436C16.8208 24.4436 16.8899 24.062 17.07 23.8687C17.2437 23.6824 17.3766 23.3521 17.3858 23.3289C17.378 23.3406 17.3167 23.4371 17.251 23.4985Z" fill="#FFDEAE"/>
   <path d="M17.4181 24.4857C17.4178 24.486 17.4175 24.4859 17.417 24.4862C17.3942 24.4968 17.0651 24.6477 16.8078 24.6666C16.5409 24.686 16.2222 24.9169 16.2222 24.9169C16.2222 24.9169 16.5955 25.0239 16.797 24.9519C17.0398 24.8657 17.4068 24.4974 17.4181 24.4857Z" fill="#C49047"/>
   <path d="M17.1999 24.519C17.0257 24.5198 16.8792 24.506 16.6813 24.5283C16.566 24.5413 16.3326 24.7053 16.2613 24.8265C16.2241 24.8723 16.2222 24.9169 16.2222 24.9169C16.2222 24.9169 16.5409 24.686 16.8078 24.6666C17.0651 24.6477 17.3942 24.4968 17.417 24.4862C17.4034 24.4894 17.2908 24.5183 17.1999 24.519Z" fill="#FFDEAE"/>
   <path d="M16.7385 23.8728C16.7383 23.8731 16.7382 23.8732 16.738 23.8736C16.7281 23.8963 16.5829 24.2219 16.4025 24.4019C16.2152 24.5885 16.1318 24.9674 16.1318 24.9674C16.1318 24.9674 16.4845 24.8072 16.5873 24.6232C16.7114 24.402 16.7379 23.8887 16.7385 23.8728Z" fill="#C49047"/>
   <path d="M16.5972 24.0382C16.4669 24.1512 16.3475 24.2353 16.214 24.3796C16.136 24.4638 16.0717 24.7374 16.1001 24.8743C16.1032 24.9327 16.1318 24.9674 16.1318 24.9674C16.1318 24.9674 16.2152 24.5885 16.4025 24.4019C16.5829 24.2219 16.7281 23.8963 16.738 23.8736C16.7299 23.8849 16.6651 23.9793 16.5972 24.0382Z" fill="#FFDEAE"/>
   <path d="M16.5571 25.0254C16.5566 25.0254 16.5565 25.0253 16.556 25.0254C16.5311 25.0297 16.1725 25.0884 15.9194 25.0388C15.6571 24.9873 15.2864 25.1257 15.2864 25.1257C15.2864 25.1257 15.6162 25.3269 15.8302 25.3108C16.0878 25.2918 16.543 25.0337 16.5571 25.0254Z" fill="#C49047"/>
   <path d="M16.3378 24.9998C16.1698 24.955 16.0325 24.903 15.8359 24.8724C15.7211 24.8544 15.4511 24.9511 15.349 25.049C15.3006 25.0833 15.2864 25.1257 15.2864 25.1257C15.2864 25.1257 15.6571 24.9873 15.9194 25.0388C16.1725 25.0884 16.5311 25.0297 16.556 25.0254C16.5418 25.025 16.4255 25.0233 16.3378 24.9998Z" fill="#FFDEAE"/>
   <path d="M16.072 24.2561C16.0717 24.2566 16.0714 24.2566 16.0712 24.2569C16.0553 24.2762 15.8258 24.5514 15.6022 24.6773C15.3703 24.8078 15.1855 25.1506 15.1855 25.1506C15.1855 25.1506 15.5693 25.0891 15.7191 24.939C15.8996 24.7588 16.067 24.2715 16.072 24.2561Z" fill="#C49047"/>
   <path d="M15.89 24.3784C15.7334 24.4529 15.5953 24.5024 15.4268 24.6061C15.3287 24.6667 15.1911 24.9133 15.1806 25.0527C15.1674 25.1096 15.1855 25.1506 15.1855 25.1506C15.1855 25.1506 15.3703 24.8078 15.6021 24.6773C15.8257 24.5514 16.0553 24.2762 16.0712 24.2569C16.0603 24.2658 15.9717 24.3394 15.89 24.3784Z" fill="#FFDEAE"/>
   <path d="M15.6835 25.3678C15.683 25.3678 15.6829 25.3677 15.6824 25.3677C15.6571 25.3677 15.2935 25.3645 15.0532 25.2726C14.8041 25.1774 14.4143 25.2505 14.4143 25.2505C14.4143 25.2505 14.7032 25.5048 14.9168 25.5251C15.174 25.5503 15.6682 25.3736 15.6835 25.3678Z" fill="#C49047"/>
   <path d="M15.4722 25.3055C15.3147 25.2325 15.1888 25.158 15.0007 25.0945C14.8909 25.0574 14.6078 25.1065 14.4897 25.1855C14.4359 25.2111 14.4143 25.2505 14.4143 25.2505C14.4143 25.2505 14.8041 25.1773 15.0532 25.2726C15.2935 25.3645 15.6571 25.3677 15.6824 25.3677C15.6685 25.3649 15.5543 25.3434 15.4722 25.3055Z" fill="#FFDEAE"/>
   <path d="M15.2144 24.6187C15.2141 24.619 15.2138 24.619 15.2135 24.6193C15.197 24.6335 14.9559 24.8365 14.7436 24.9118C14.5233 24.9898 14.3103 25.2578 14.3103 25.2578C14.3103 25.2578 14.6508 25.2619 14.8033 25.1549C14.9872 25.0263 15.2077 24.6311 15.2144 24.6187Z" fill="#C49047"/>
   <path d="M15.0386 24.697C14.8919 24.738 14.7649 24.7599 14.6037 24.8244C14.5094 24.8619 14.3524 25.054 14.3215 25.1727C14.3013 25.2198 14.3104 25.2578 14.3104 25.2578C14.3104 25.2578 14.5234 24.9898 14.7437 24.9118C14.956 24.8366 15.1971 24.6335 15.2136 24.6193C15.203 24.6253 15.115 24.6757 15.0386 24.697Z" fill="#FFDEAE"/>
   <path d="M14.8382 25.5936C14.838 25.5935 14.8379 25.5934 14.8378 25.5934C14.8261 25.5876 14.6581 25.506 14.5677 25.4105C14.4742 25.3112 14.2764 25.2593 14.2764 25.2593C14.2764 25.2593 14.3516 25.4409 14.446 25.4975C14.5596 25.5659 14.8298 25.5929 14.8382 25.5936Z" fill="#C49047"/>
   <path d="M14.7546 25.5179C14.6984 25.4495 14.6572 25.3872 14.5846 25.3162C14.5422 25.2746 14.3994 25.235 14.3264 25.2457C14.2956 25.2457 14.2764 25.2593 14.2764 25.2593C14.2764 25.2593 14.4742 25.3112 14.5677 25.4104C14.6581 25.5059 14.8261 25.5876 14.8378 25.5933C14.8319 25.5889 14.7839 25.5537 14.7546 25.5179Z" fill="#FFDEAE"/>
   <path d="M11.7367 13.1644C9.00501 13.7033 6.93194 15.2942 5.75979 17.2237C4.79423 18.8114 4.65726 20.0881 5.06557 21.6021C7.03777 29.2339 9.83867 25.222 13.6017 28.9408C13.6339 28.9733 13.6288 29.0147 13.6023 29.0393L13.3161 29.3018C13.2898 29.3259 13.2474 29.3276 13.2188 29.2989C10.8984 27.0304 9.09849 27.8937 7.25267 26.6363C5.68563 25.5556 5.00738 23.2986 4.57993 21.421C4.1633 19.5803 4.72873 17.9367 5.92885 16.3919C6.00062 16.2962 6.22718 16.0334 6.26469 15.9924C7.73704 14.427 9.45629 13.42 11.7367 13.1644Z" fill="#C49047"/>
   <path d="M3.66842 15.3233C3.6682 15.3246 3.66866 15.3254 3.66842 15.3265C3.65567 15.4032 3.48397 16.5048 3.65515 17.2778C3.83293 18.0794 3.40536 19.2218 3.40536 19.2218C3.40536 19.2218 2.74309 18.2204 2.78512 17.564C2.83423 16.7736 3.64268 15.3668 3.66842 15.3233Z" fill="#C49047"/>
   <path d="M3.7608 15.9939C3.91334 16.5067 4.08669 16.9249 4.19411 17.5261C4.25709 17.8768 3.9593 18.7088 3.64933 19.0265C3.54132 19.1763 3.40552 19.2218 3.40552 19.2218C3.40552 19.2218 3.83309 18.0794 3.65531 17.2778C3.48414 16.5048 3.65583 15.4032 3.66859 15.3265C3.67052 15.37 3.68153 15.7263 3.7608 15.9939Z" fill="#FFDEAE"/>
   <path d="M5.39466 16.6542C5.39414 16.6553 5.39448 16.6561 5.39396 16.6574C5.36749 16.7305 4.99829 17.7848 5.02621 18.5753C5.05542 19.3948 4.42694 20.4451 4.42694 20.4451C4.42694 20.4451 3.95727 19.3448 4.11797 18.7061C4.31003 17.9368 5.36135 16.6924 5.39466 16.6542Z" fill="#C49047"/>
   <path d="M5.36346 17.33C5.42036 17.8611 5.51495 18.3027 5.51139 18.913C5.50957 19.269 5.06526 20.0363 4.70249 20.2951C4.56895 20.4238 4.427 20.4451 4.427 20.4451C4.427 20.4451 5.05548 19.3948 5.02627 18.5753C4.99835 17.7848 5.36755 16.7305 5.39402 16.6574C5.38811 16.7004 5.33419 17.053 5.36346 17.33Z" fill="#FFDEAE"/>
   <path d="M1.95312 17.4273C1.95359 17.4284 1.95429 17.4287 1.9547 17.4297C1.98368 17.4894 2.40809 18.342 2.91031 18.803C3.4312 19.2807 3.69656 20.2827 3.69656 20.2827C3.69656 20.2827 2.73738 19.8934 2.44221 19.4136C2.08583 18.8367 1.95657 17.4699 1.95312 17.4273Z" fill="#C49047"/>
   <path d="M2.34921 17.8537C2.7097 18.1412 3.03793 18.3524 3.41048 18.723C3.62807 18.9389 3.83085 19.6623 3.77074 20.0309C3.76909 20.1869 3.69645 20.2827 3.69645 20.2827C3.69645 20.2827 3.43109 19.2807 2.9102 18.803C2.40798 18.342 1.98357 17.4894 1.95459 17.4297C1.97743 17.4591 2.16135 17.7036 2.34921 17.8537Z" fill="#FFDEAE"/>
   <path d="M1.65332 19.8492C1.65401 19.8501 1.65483 19.8502 1.65554 19.8512C1.7005 19.9052 2.35445 20.6753 2.9875 21.0249C3.64407 21.387 4.17328 22.349 4.17328 22.349C4.17328 22.349 3.09017 22.1846 2.66453 21.7652C2.15119 21.2612 1.66777 19.8921 1.65332 19.8492Z" fill="#C49047"/>
   <path d="M2.16885 20.1892C2.61212 20.3955 3.0027 20.5318 3.47968 20.8203C3.75815 20.9886 4.15171 21.6802 4.18474 22.0728C4.22307 22.2329 4.17326 22.349 4.17326 22.349C4.17326 22.349 3.64405 21.387 2.98747 21.0249C2.35443 20.6753 1.70048 19.9052 1.65552 19.8512C1.68648 19.8758 1.9378 20.0814 2.16885 20.1892Z" fill="#FFDEAE"/>
   <path d="M3.96885 18.8999C3.9689 18.9012 3.9696 18.9019 3.9696 18.9032C3.975 18.9834 4.06427 20.1349 4.42142 20.8766C4.79197 21.6457 4.63258 22.8965 4.63258 22.8965C4.63258 22.8965 3.72509 22.0358 3.61106 21.3633C3.47225 20.554 3.95322 18.9496 3.96885 18.8999Z" fill="#C49047"/>
   <path d="M4.22173 19.5561C4.49805 20.0394 4.77277 20.4223 5.02461 21.0049C5.17184 21.3448 5.06945 22.2527 4.83213 22.6438C4.75877 22.8197 4.63246 22.8965 4.63246 22.8965C4.63246 22.8965 4.79185 21.6457 4.4213 20.8766C4.06415 20.1349 3.97488 18.9834 3.96948 18.9032C3.98185 18.9465 4.07791 19.3039 4.22173 19.5561Z" fill="#FFDEAE"/>
   <path d="M1.75366 23.628C1.75495 23.6286 1.75583 23.6281 1.75712 23.6287C1.83468 23.6557 2.95286 24.0318 3.7919 24.0056C4.66193 23.9781 5.77506 24.6167 5.77506 24.6167C5.77506 24.6167 4.60601 25.0891 3.92847 24.925C3.11243 24.7286 1.79429 23.6618 1.75366 23.628Z" fill="#C49047"/>
   <path d="M2.47102 23.6614C3.03494 23.605 3.50384 23.5105 4.15153 23.5156C4.52953 23.5182 5.34275 23.9698 5.61655 24.3375C5.75277 24.473 5.77501 24.6167 5.77501 24.6167C5.77501 24.6167 4.66188 23.9781 3.79186 24.0056C2.95281 24.0318 1.83463 23.6557 1.75708 23.6287C1.80268 23.6347 2.17686 23.6903 2.47102 23.6614Z" fill="#FFDEAE"/>
   <path d="M4.14771 22.4254C4.14835 22.4266 4.14929 22.4269 4.14994 22.428C4.19161 22.4974 4.80043 23.4874 5.46041 23.9939C6.14497 24.5189 6.57716 25.7067 6.57716 25.7067C6.57716 25.7067 5.37061 25.3348 4.95978 24.7837C4.46388 24.1214 4.15661 22.4768 4.14771 22.4254Z" fill="#C49047"/>
   <path d="M4.67529 22.9012C5.14431 23.212 5.56574 23.4338 6.05853 23.8443C6.34625 24.0836 6.67191 24.9399 6.63953 25.3933C6.65475 25.5826 6.57713 25.7067 6.57713 25.7067C6.57713 25.7067 6.14494 24.5189 5.46037 23.9939C4.80039 23.4874 4.19158 22.4974 4.1499 22.428C4.1808 22.4614 4.43089 22.7387 4.67529 22.9012Z" fill="#FFDEAE"/>
   <path d="M6.78162 22.1773C6.78168 22.1787 6.78238 22.1793 6.78244 22.1806C6.78887 22.2608 6.89378 23.411 7.26094 24.148C7.64192 24.9122 7.49943 26.165 7.49943 26.165C7.49943 26.165 6.58036 25.3161 6.45724 24.6452C6.30744 23.8378 6.76663 22.2273 6.78162 22.1773Z" fill="#C49047"/>
   <path d="M7.0435 22.8303C7.32636 23.3099 7.60623 23.6892 7.86591 24.2684C8.01777 24.6064 7.92769 25.5156 7.69574 25.9098C7.6248 26.0866 7.49945 26.165 7.49945 26.165C7.49945 26.165 7.64194 24.9122 7.26096 24.148C6.8938 23.411 6.7889 22.2608 6.78247 22.1806C6.7954 22.2238 6.89626 22.5799 7.0435 22.8303Z" fill="#FFDEAE"/>
   <path d="M8.57756 23.2559C8.57762 23.2572 8.57831 23.258 8.57831 23.2593C8.58475 23.3395 8.68965 24.4895 9.05681 25.2266C9.43779 25.9907 9.29536 27.2436 9.29536 27.2436C9.29536 27.2436 8.37629 26.3945 8.25312 25.7237C8.10338 24.9163 8.56257 23.3058 8.57756 23.2559Z" fill="#C49047"/>
   <path d="M8.83946 23.9089C9.12226 24.3884 9.40221 24.7677 9.66189 25.3471C9.81374 25.6851 9.72364 26.5941 9.49172 26.9883C9.42071 27.165 9.29543 27.2436 9.29543 27.2436C9.29543 27.2436 9.43786 25.9907 9.05688 25.2266C8.68972 24.4895 8.58481 23.3395 8.57837 23.2593C8.59132 23.3024 8.69223 23.6584 8.83946 23.9089Z" fill="#FFDEAE"/>
   <path d="M3.19727 26.2648C3.19867 26.2651 3.1995 26.2646 3.20095 26.2649C3.28589 26.2797 4.50767 26.4803 5.37008 26.3121C6.26422 26.1373 7.52717 26.61 7.52717 26.61C7.52717 26.61 6.4025 27.2949 5.67345 27.2391C4.79557 27.1736 3.24515 26.2929 3.19727 26.2648Z" fill="#C49047"/>
   <path d="M3.94444 26.1784C4.51719 26.0255 4.98505 25.8489 5.65522 25.7452C6.04625 25.6845 6.96627 26.0143 7.31405 26.3482C7.47878 26.4651 7.52714 26.61 7.52714 26.61C7.52714 26.61 6.26419 26.1373 5.37006 26.3121C4.50765 26.4803 3.28587 26.2797 3.20093 26.2649C3.24911 26.2636 3.64554 26.2579 3.94444 26.1784Z" fill="#FFDEAE"/>
   <path d="M6.78247 29.0248C6.78364 29.0245 6.78404 29.0237 6.78515 29.0234C6.85388 28.9993 7.83636 28.6435 8.396 28.165C8.97607 27.6688 10.1061 27.4953 10.1061 27.4953C10.1061 27.4953 9.57733 28.4604 9.01868 28.7198C8.34676 29.0331 6.82971 29.0256 6.78247 29.0248Z" fill="#C49047"/>
   <path d="M7.29305 28.654C7.64692 28.306 7.91363 27.9838 8.3603 27.6319C8.62074 27.4265 9.43765 27.2894 9.8369 27.3911C10.0082 27.4091 10.1061 27.4953 10.1061 27.4953C10.1061 27.4953 8.97608 27.6688 8.39601 28.165C7.83636 28.6435 6.85388 28.9993 6.78516 29.0234C6.81994 29.0025 7.10818 28.8353 7.29305 28.654Z" fill="#FFDEAE"/>
   <path d="M12.8355 11.5553C12.8343 11.5556 12.834 11.5563 12.8329 11.5568C12.7677 11.5824 11.8366 11.959 11.3165 12.4386C10.7774 12.936 9.69775 13.1426 9.69775 13.1426C9.69775 13.1426 10.1702 12.1963 10.6975 11.9274C11.3317 11.6026 12.7901 11.5562 12.8355 11.5553Z" fill="#C49047"/>
   <path d="M12.3585 11.9297C12.0313 12.2766 11.7869 12.5956 11.3706 12.9496C11.1279 13.1563 10.3478 13.3168 9.96036 13.2333C9.7951 13.222 9.69775 13.1425 9.69775 13.1425C9.69775 13.1425 10.7774 12.9359 11.3165 12.4386C11.8366 11.959 12.7677 11.5824 12.8329 11.5568C12.8003 11.578 12.5295 11.749 12.3585 11.9297Z" fill="#FFDEAE"/>
   <path d="M10.5742 11.0348C10.5735 11.0357 10.5736 11.0366 10.573 11.0375C10.535 11.0951 9.99873 11.9283 9.85852 12.6132C9.71347 13.3234 8.95514 14.1017 8.95514 14.1017C8.95514 14.1017 8.77999 13.063 9.05073 12.5459C9.37557 11.9226 10.5376 11.0612 10.5742 11.0348Z" fill="#C49047"/>
   <path d="M10.4069 11.6096C10.3455 12.0775 10.3352 12.4756 10.2054 12.9995C10.1299 13.3053 9.5886 13.8766 9.22302 14.0273C9.08153 14.1115 8.95508 14.1017 8.95508 14.1017C8.95508 14.1017 9.71341 13.3234 9.85846 12.6132C9.99867 11.9283 10.535 11.0951 10.5729 11.0375C10.5589 11.0733 10.4393 11.3657 10.4069 11.6096Z" fill="#FFDEAE"/>
   <path d="M8.7616 11.8566C8.7613 11.8574 8.7616 11.858 8.76126 11.8589C8.74527 11.9119 8.52358 12.6751 8.57403 13.2359C8.62655 13.8175 8.22041 14.5873 8.22041 14.5873C8.22041 14.5873 7.84394 13.8223 7.93343 13.3625C8.04021 12.8085 8.73941 11.8851 8.7616 11.8566Z" fill="#C49047"/>
   <path d="M8.76564 12.3382C8.82664 12.7138 8.91099 13.0242 8.932 13.4581C8.94453 13.7113 8.65832 14.2731 8.41047 14.4705C8.32055 14.5669 8.22046 14.5873 8.22046 14.5873C8.22046 14.5873 8.6266 13.8175 8.57409 13.2359C8.52363 12.6751 8.74532 11.9119 8.76131 11.8589C8.75879 11.8898 8.73402 12.1423 8.76564 12.3382Z" fill="#FFDEAE"/>
   <path d="M12.445 13.7038C12.444 13.704 12.4435 13.7045 12.4426 13.7048C12.3833 13.7196 11.535 13.9414 11.0296 14.2977C10.5057 14.6673 9.54883 14.7256 9.54883 14.7256C9.54883 14.7256 10.0676 13.9608 10.5546 13.7871C11.1403 13.5771 12.4056 13.6994 12.445 13.7038Z" fill="#C49047"/>
   <path d="M11.9891 13.9742C11.6659 14.2375 11.4175 14.4858 11.0166 14.7452C10.7827 14.8968 10.0901 14.9486 9.76514 14.8331C9.62364 14.805 9.54883 14.7256 9.54883 14.7256C9.54883 14.7256 10.5057 14.6673 11.0296 14.2977C11.535 13.9415 12.3833 13.7196 12.4426 13.7049C12.4119 13.7195 12.158 13.8371 11.9891 13.9742Z" fill="#FFDEAE"/>
   <path d="M9.85505 13.1928C9.85428 13.1936 9.8544 13.1944 9.85364 13.1951C9.81283 13.2469 9.23499 13.9965 9.04561 14.636C8.84944 15.2994 8.06519 15.9794 8.06519 15.9794C8.06519 15.9794 7.98405 14.9789 8.28372 14.5089C8.64351 13.9423 9.81817 13.2149 9.85505 13.1928Z" fill="#C49047"/>
   <path d="M9.64899 13.7256C9.55228 14.1653 9.50972 14.5427 9.34334 15.0302C9.24658 15.3146 8.68548 15.8152 8.32587 15.9296C8.18449 15.9985 8.06519 15.9794 8.06519 15.9794C8.06519 15.9794 8.84944 15.2994 9.04561 14.636C9.23499 13.9965 9.81283 13.2469 9.85364 13.1951C9.83736 13.228 9.69975 13.4965 9.64899 13.7256Z" fill="#FFDEAE"/>
   <path d="M10.3628 15.3815C10.3617 15.3818 10.3614 15.3826 10.3604 15.383C10.2993 15.4098 9.4266 15.8022 8.94926 16.2777C8.45449 16.771 7.43384 17.0067 7.43384 17.0067C7.43384 17.0067 7.84813 16.0882 8.34026 15.813C8.93205 15.4807 10.3195 15.3839 10.3628 15.3815Z" fill="#C49047"/>
   <path d="M9.9226 15.7554C9.624 16.0976 9.40317 16.4103 9.0201 16.7625C8.79671 16.9682 8.05969 17.1492 7.68744 17.0836C7.52956 17.0788 7.43384 17.0067 7.43384 17.0067C7.43384 17.0067 8.45449 16.771 8.94926 16.2777C9.4266 15.8022 10.2993 15.4098 10.3604 15.383C10.3301 15.4044 10.0786 15.577 9.9226 15.7554Z" fill="#FFDEAE"/>
   <path d="M6.45205 13.2555C6.45193 13.257 6.45258 13.2577 6.45252 13.259C6.45046 13.3407 6.4339 14.5137 6.72636 15.2959C7.03001 16.107 6.75248 17.3587 6.75248 17.3587C6.75248 17.3587 5.91406 16.4072 5.86115 15.7167C5.79588 14.8855 6.43156 13.3045 6.45205 13.2555Z" fill="#C49047"/>
   <path d="M6.64707 13.942C6.88177 14.4555 7.12423 14.8672 7.32497 15.4793C7.4424 15.8361 7.25449 16.7458 6.97799 17.1206C6.88743 17.2921 6.75245 17.3587 6.75245 17.3587C6.75245 17.3587 7.02998 16.107 6.72633 15.2959C6.43388 14.5137 6.45044 13.3407 6.45249 13.259C6.46093 13.3039 6.52496 13.6741 6.64707 13.942Z" fill="#FFDEAE"/>
   <path d="M8.18976 14.7676C8.189 14.7687 8.18922 14.7696 8.18852 14.7708C8.14825 14.8425 7.58047 15.8764 7.47148 16.7023C7.35866 17.5587 6.52225 18.5452 6.52225 18.5452C6.52225 18.5452 6.22645 17.3239 6.50493 16.687C6.83883 15.9197 8.14849 14.8018 8.18976 14.7676Z" fill="#C49047"/>
   <path d="M8.03947 15.4648C8.00579 16.0261 8.027 16.5006 7.9167 17.134C7.85266 17.5036 7.25702 18.2268 6.83489 18.4353C6.67373 18.5468 6.52246 18.5452 6.52246 18.5452C6.52246 18.5452 7.35887 17.5587 7.47169 16.7023C7.58068 15.8764 8.14846 14.8425 8.18873 14.7708C8.17503 14.8145 8.05744 15.172 8.03947 15.4648Z" fill="#FFDEAE"/>
   <path d="M9.10149 17.3587C9.10055 17.3593 9.10043 17.3602 9.09944 17.3609C9.04348 17.4066 8.24728 18.0701 7.89078 18.7066C7.52138 19.3668 6.52246 19.9087 6.52246 19.9087C6.52246 19.9087 6.67871 18.826 7.11137 18.3952C7.63132 17.8758 9.05688 17.3736 9.10149 17.3587Z" fill="#C49047"/>
   <path d="M8.75319 17.8779C8.54372 18.323 8.40697 18.7146 8.11193 19.1946C7.94 19.4748 7.22196 19.8774 6.81171 19.9161C6.64469 19.9567 6.52246 19.9087 6.52246 19.9087C6.52246 19.9087 7.52138 19.3668 7.89078 18.7066C8.24728 18.0701 9.04348 17.4066 9.09944 17.3609C9.07416 17.3921 8.8627 17.6458 8.75319 17.8779Z" fill="#FFDEAE"/>
   <path d="M5.56572 17.0067C5.56596 17.0077 5.56654 17.0081 5.56672 17.009C5.58123 17.068 5.79905 17.9118 6.16182 18.4178C6.53819 18.9423 6.58437 19.8912 6.58437 19.8912C6.58437 19.8912 5.79724 19.3658 5.62415 18.8809C5.41457 18.2972 5.56062 17.0456 5.56572 17.0067Z" fill="#C49047"/>
   <path d="M5.83985 17.4623C6.10861 17.7864 6.36296 18.0363 6.62656 18.4374C6.78064 18.6713 6.82408 19.3583 6.69934 19.6784C6.66796 19.8182 6.5843 19.8912 6.5843 19.8912C6.5843 19.8912 6.53811 18.9423 6.16175 18.4178C5.79898 17.9118 5.58116 17.068 5.56665 17.009C5.58152 17.0397 5.69988 17.293 5.83985 17.4623Z" fill="#FFDEAE"/>
   <path d="M8.17495 19.5842C8.17418 19.5848 8.17406 19.5855 8.17324 19.5861C8.12665 19.6262 7.46363 20.2077 7.1742 20.757C6.87436 21.3266 6.03613 21.8087 6.03613 21.8087C6.03613 21.8087 6.14525 20.884 6.50399 20.5084C6.93506 20.0552 8.1373 19.598 8.17495 19.5842Z" fill="#C49047"/>
   <path d="M7.88991 20.0334C7.72149 20.4166 7.61371 20.7529 7.37319 21.1675C7.23304 21.4097 6.63078 21.7674 6.28246 21.809C6.14122 21.847 6.03613 21.8087 6.03613 21.8087C6.03613 21.8087 6.87436 21.3266 7.1742 20.7569C7.46363 20.2077 8.12665 19.6262 8.17324 19.5861C8.15247 19.6133 7.97807 19.8337 7.88991 20.0334Z" fill="#FFDEAE"/>
   <path d="M6.13001 19.3311C6.12967 19.3324 6.13013 19.3332 6.12973 19.3346C6.11053 19.4159 5.84693 20.5857 5.97477 21.4268C6.10766 22.2988 5.56658 23.495 5.56658 23.495C5.56658 23.495 4.92844 22.375 5.02087 21.6739C5.13057 20.8295 6.09923 19.376 6.13001 19.3311Z" fill="#C49047"/>
   <path d="M6.18061 20.0568C6.30724 20.6175 6.46307 21.0778 6.53495 21.7301C6.57721 22.1107 6.19776 22.9829 5.84231 23.3021C5.71569 23.4555 5.56665 23.495 5.56665 23.495C5.56665 23.495 6.10773 22.2988 5.97484 21.4268C5.847 20.5857 6.1106 19.4159 6.1298 19.3346C6.1288 19.3812 6.11494 19.7643 6.18061 20.0568Z" fill="#FFDEAE"/>
</svg>
