<?xml version="1.0" encoding="UTF-8" standalone="no"?>
<svg width="21" height="31" viewBox="0 0 21 31" fill="none" xmlns="http://www.w3.org/2000/svg">
   <path d="M15.1346 11.6262C18.4528 13.28 20.7249 16.6493 20.7249 20.537C20.7249 26.0598 16.1391 30.5373 10.4824 30.5373C4.82568 30.5373 0.240479 26.0598 0.240479 20.537C0.240479 16.7406 2.40704 13.4383 5.59942 11.7444C7.05054 10.9749 8.71401 10.5373 10.4824 10.5373C12.1574 10.5373 13.7389 10.9298 15.1346 11.6262Z" fill="#E3E3E3"/>
   <path d="M10.4825 30.1279C7.85872 30.1279 5.39198 29.1303 3.53683 27.3187C1.68153 25.5073 0.659912 23.0988 0.659912 20.537C0.659912 17.0176 2.62941 13.7863 5.79975 12.1041C7.22779 11.3469 8.84706 10.9465 10.4825 10.9465C12.0541 10.9465 13.5552 11.2978 14.9439 11.9907C16.5322 12.7822 17.8719 13.9822 18.8188 15.4609C19.7915 16.9804 20.3059 18.7357 20.3059 20.537C20.3059 23.0988 19.2839 25.5073 17.4286 27.3187C15.5732 29.1303 13.1065 30.1279 10.4825 30.1279Z" fill="#C9C9C9"/>
   <path d="M10.4824 28.9584C8.17857 28.9584 6.01276 28.0823 4.38375 26.4918C2.75474 24.9012 1.85767 22.7864 1.85767 20.537C1.85767 17.4468 3.58693 14.6097 6.37078 13.1326C7.62453 12.4675 9.04643 12.1161 10.4824 12.1161C11.8625 12.1161 13.1804 12.4245 14.3998 13.0329C15.7944 13.7279 16.9709 14.7816 17.802 16.08C18.6564 17.4141 19.1078 18.9553 19.1078 20.537C19.1078 22.7864 18.2107 24.9011 16.5815 26.4918C14.9524 28.0823 12.7864 28.9584 10.4824 28.9584Z" stroke="#929292" stroke-width="2.61099" stroke-miterlimit="10"/>
   <path d="M10.4827 26.2473C8.9205 26.2473 7.45185 25.6534 6.34721 24.575C5.24272 23.4963 4.63428 22.0624 4.63428 20.537C4.63428 18.4417 5.80695 16.5178 7.69462 15.5162C8.54479 15.0653 9.50886 14.8271 10.4827 14.8271C11.4184 14.8271 12.312 15.0361 13.139 15.4486C14.0846 15.9201 14.8823 16.6344 15.446 17.5148C16.0252 18.4195 16.3314 19.4646 16.3314 20.537C16.3314 22.0624 15.7229 23.4963 14.6183 24.575C13.5136 25.6534 12.0448 26.2473 10.4827 26.2473V26.2473Z" stroke="#C9C9C9" stroke-width="1.865" stroke-miterlimit="10"/>
   <path d="M10.4827 27.4904C8.58045 27.4904 6.79198 26.7671 5.44697 25.4537C4.10195 24.1403 3.36133 22.3944 3.36133 20.537C3.36133 17.9855 4.78922 15.6429 7.08766 14.4232C8.12291 13.8742 9.29694 13.5841 10.4827 13.5841C11.6221 13.5841 12.7102 13.8388 13.7171 14.341C14.8685 14.915 15.8399 15.785 16.5262 16.8569C17.2316 17.9586 17.6044 19.2311 17.6044 20.537C17.6044 22.3942 16.8635 24.1403 15.5185 25.4537C14.1733 26.7671 12.3849 27.4904 10.4827 27.4904V27.4904Z" stroke="#929292" stroke-width="2.61099" stroke-miterlimit="10"/>
   <path d="M13.6098 10.1034V9.73382C13.6098 9.62686 13.5209 9.54009 13.4112 9.54009H7.18622C7.07667 9.54009 6.9878 9.62686 6.9878 9.73382V10.1034C6.9878 10.211 7.07667 10.2977 7.18622 10.2977H13.4112C13.5209 10.2977 13.6098 10.211 13.6098 10.1034ZM14.6362 9.82688C14.897 10.3946 15.0419 11.0059 15.065 11.6262C13.6691 10.9298 12.0876 10.5371 10.4128 10.5371C8.64438 10.5371 6.98091 10.9749 5.52979 11.7444C5.53728 11.0836 5.68444 10.4307 5.96139 9.82688L6.09057 9.54565C6.23489 9.23078 6.53491 9.01057 6.88514 8.96272L7.26655 8.91034C9.27785 8.63541 11.3197 8.63541 13.3316 8.91034L13.7124 8.96272C14.0627 9.01057 14.3627 9.23078 14.507 9.54565L14.6362 9.82688Z" fill="#C9C9C9"/>
   <path d="M16.8006 1.14441e-05L13.2493 9.68265H11.2759L14.8168 0.00791264V1.14441e-05H16.8006Z" fill="#FF545F"/>
   <path d="M14.8167 1.14441e-05V0.00791264L11.2758 9.68265H9.32739L12.8683 0.00791264V1.14441e-05H14.8167Z" fill="#62DADC"/>
   <path d="M12.8685 1.14441e-05V0.00791264L9.32754 9.68265H7.33691L10.8882 1.14441e-05H12.8685Z" fill="#AC748C"/>
   <path d="M20.0435 20.5373C20.0435 23.6909 17.4251 26.2473 14.195 26.2473C10.965 26.2473 8.34644 23.6909 8.34644 20.5373C8.34644 17.3835 10.965 14.8271 14.195 14.8271C17.4251 14.8271 20.0435 17.3835 20.0435 20.5373Z" fill="#9A9898"/>
   <path d="M3.78491 1.14441e-05L7.33621 9.68265H9.30945L5.76849 0.00791264V1.14441e-05H3.78491Z" fill="#AC748C"/>
   <path d="M5.76855 1.14441e-05V0.00791264L9.30951 9.68265H11.258L7.71707 0.00791264V1.14441e-05H5.76855Z" fill="#62DADC"/>
   <path d="M7.71704 1.14441e-05V0.00791264L11.258 9.68265H13.2485L9.69718 1.14441e-05H7.71704Z" fill="#FF545F"/>
   <path d="M19.6627 20.5373C19.6627 23.4855 17.2149 25.8756 14.1951 25.8756C11.1755 25.8756 8.72754 23.4855 8.72754 20.5373C8.72754 17.589 11.1755 15.1989 14.1951 15.1989C17.2149 15.1989 19.6627 17.589 19.6627 20.5373Z" fill="#E3E3E3"/>
   <path d="M18.3585 20.5373C18.3585 22.7823 16.4945 24.6022 14.195 24.6022C11.8956 24.6022 10.0315 22.7823 10.0315 20.5373C10.0315 18.2922 11.8956 16.4723 14.195 16.4723C16.4945 16.4723 18.3585 18.2922 18.3585 20.5373Z" fill="#929292"/>
   <path d="M9.28163 18.7591C9.28163 18.7595 9.28178 18.7598 9.28178 18.7602C9.28148 18.785 9.27999 19.1399 9.37095 19.3756C9.46522 19.6201 9.38504 19.9997 9.38504 19.9997C9.38504 19.9997 9.12847 19.7142 9.11049 19.5054C9.08816 19.2542 9.27564 18.774 9.28163 18.7591Z" fill="#929292"/>
   <path d="M9.34133 18.9662C9.41215 19.1209 9.48502 19.2448 9.54618 19.4293C9.58188 19.537 9.52906 19.8128 9.44859 19.927C9.4224 19.9792 9.3826 19.9997 9.3826 19.9997C9.3826 19.9997 9.46088 19.6201 9.36884 19.3756C9.28003 19.1399 9.28149 18.785 9.28179 18.7602C9.28442 18.7737 9.30446 18.8855 9.34133 18.9662Z" fill="#E6E6E6"/>
   <path d="M10.1374 19.1025C10.1371 19.1028 10.1371 19.1031 10.1368 19.1033C10.1198 19.1216 9.87871 19.3873 9.7876 19.6231C9.69303 19.8674 9.37622 20.1008 9.37622 20.1008C9.37622 20.1008 9.37652 19.7211 9.50405 19.5525C9.65721 19.3495 10.1228 19.1096 10.1374 19.1025Z" fill="#929292"/>
   <path d="M10.0433 19.2974C9.99321 19.4604 9.96548 19.6014 9.8877 19.7805C9.84245 19.885 9.61525 20.0572 9.47603 20.0898C9.42058 20.1116 9.37622 20.1008 9.37622 20.1008C9.37622 20.1008 9.69303 19.8674 9.7876 19.6231C9.87871 19.3873 10.1198 19.1216 10.1368 19.1033C10.1297 19.1152 10.0695 19.2123 10.0433 19.2974Z" fill="#E6E6E6"/>
   <path d="M9.05531 19.6286C9.05531 19.6289 9.05561 19.6292 9.05561 19.6295C9.05891 19.6541 9.11077 20.0054 9.23605 20.2257C9.36598 20.4541 9.34365 20.841 9.34365 20.841C9.34365 20.841 9.04707 20.5953 8.99777 20.3914C8.93812 20.146 9.05157 19.6441 9.05531 19.6286Z" fill="#929292"/>
   <path d="M9.14678 19.8247C9.24179 19.9673 9.33426 20.0793 9.42388 20.2528C9.47618 20.3542 9.46404 20.6347 9.3996 20.7594C9.38072 20.8148 9.3437 20.841 9.3437 20.841C9.3437 20.841 9.36603 20.4541 9.2361 20.2257C9.11081 20.0054 9.05896 19.6541 9.05566 19.6295C9.06031 19.6427 9.09733 19.7503 9.14678 19.8247Z" fill="#E6E6E6"/>
   <path d="M9.95341 19.8458C9.95311 19.8462 9.95311 19.8465 9.95296 19.8468C9.93887 19.8673 9.74015 20.1646 9.6853 20.4109C9.62851 20.6662 9.35006 20.9423 9.35006 20.9423C9.35006 20.9423 9.29341 20.5667 9.39442 20.3818C9.51551 20.1589 9.94007 19.8552 9.95341 19.8458Z" fill="#929292"/>
   <path d="M9.88946 20.0522C9.86443 20.2205 9.85813 20.3642 9.80808 20.5524C9.77886 20.6621 9.57999 20.865 9.44721 20.9171C9.39566 20.9467 9.3501 20.9423 9.3501 20.9423C9.3501 20.9423 9.62854 20.6662 9.68534 20.4109C9.74019 20.1646 9.93891 19.8673 9.953 19.8468C9.9476 19.8597 9.90264 19.9645 9.88946 20.0522Z" fill="#E6E6E6"/>
   <path d="M8.96216 20.5726C8.96231 20.5728 8.96261 20.573 8.96261 20.5734C8.97175 20.5965 9.10558 20.9265 9.27957 21.1126C9.4603 21.3053 9.53029 21.6868 9.53029 21.6868C9.53029 21.6868 9.18351 21.5148 9.08714 21.3276C8.97085 21.1024 8.96216 20.5885 8.96216 20.5726Z" fill="#929292"/>
   <path d="M9.09758 20.7426C9.22376 20.8599 9.34021 20.9479 9.46849 21.0965C9.54342 21.1831 9.59827 21.4588 9.56515 21.5947C9.5599 21.653 9.53008 21.6868 9.53008 21.6868C9.53008 21.6868 9.4601 21.3053 9.27936 21.1126C9.10537 20.9265 8.97154 20.5965 8.9624 20.5734C8.9702 20.585 9.03179 20.6814 9.09758 20.7426Z" fill="#E6E6E6"/>
   <path d="M9.88713 20.5807C9.88698 20.5812 9.88713 20.5815 9.88698 20.5818C9.87814 20.605 9.7554 20.9391 9.76034 21.191C9.76574 21.4522 9.56043 21.7839 9.56043 21.7839C9.56043 21.7839 9.41611 21.4311 9.47051 21.2285C9.5354 20.9843 9.87634 20.5929 9.88713 20.5807Z" fill="#929292"/>
   <path d="M9.87406 20.796C9.8895 20.9654 9.91752 21.1064 9.91347 21.3009C9.91108 21.4143 9.76586 21.6566 9.64897 21.7374C9.60581 21.7778 9.56055 21.7839 9.56055 21.7839C9.56055 21.7839 9.76586 21.4522 9.76046 21.191C9.75552 20.9391 9.87826 20.605 9.8871 20.5818C9.885 20.5955 9.86597 20.7076 9.87406 20.796Z" fill="#E6E6E6"/>
   <path d="M9.07129 21.4577C9.07144 21.4581 9.07174 21.4581 9.07189 21.4585C9.08358 21.4805 9.25352 21.7942 9.44759 21.9604C9.64886 22.1326 9.76126 22.5043 9.76126 22.5043C9.76126 22.5043 9.39724 22.3705 9.2805 22.1948C9.13948 21.9834 9.07309 21.4736 9.07129 21.4577Z" fill="#929292"/>
   <path d="M9.22509 21.6123C9.36371 21.7153 9.48929 21.7902 9.63361 21.9241C9.71784 22.0023 9.80326 22.2705 9.78572 22.409C9.78707 22.4674 9.76115 22.5043 9.76115 22.5043C9.76115 22.5043 9.64875 22.1326 9.44748 21.9604C9.25341 21.7942 9.08347 21.4805 9.07178 21.4585C9.08077 21.4692 9.15285 21.5585 9.22509 21.6123Z" fill="#E6E6E6"/>
   <path d="M9.99169 21.3666C9.99154 21.3671 9.99169 21.3674 9.99154 21.3678C9.98539 21.3918 9.90102 21.737 9.93429 21.9869C9.96906 22.2459 9.80226 22.5976 9.80226 22.5976C9.80226 22.5976 9.61913 22.2625 9.6503 22.0552C9.68747 21.8056 9.98225 21.3798 9.99169 21.3666Z" fill="#929292"/>
   <path d="M10.0028 21.582C10.0372 21.7488 10.0808 21.8859 10.0987 22.0796C10.1092 22.1926 9.99197 22.4491 9.88497 22.5419C9.84661 22.5867 9.80225 22.5976 9.80225 22.5976C9.80225 22.5976 9.96904 22.2459 9.93428 21.9869C9.90101 21.737 9.98538 21.3918 9.99152 21.3678C9.99107 21.3816 9.98478 21.495 10.0028 21.582Z" fill="#E6E6E6"/>
   <path d="M9.31226 22.3257C9.31241 22.3262 9.3127 22.3262 9.313 22.3265C9.32859 22.3461 9.55518 22.6235 9.77743 22.7516C10.0079 22.8845 10.189 23.2292 10.189 23.2292C10.189 23.2292 9.80575 23.1639 9.65769 23.0123C9.47905 22.8301 9.31705 22.3411 9.31226 22.3257Z" fill="#929292"/>
   <path d="M9.49267 22.4498C9.64853 22.5259 9.78625 22.5768 9.9535 22.6825C10.0511 22.7439 10.1859 22.9919 10.1949 23.1314C10.2074 23.1884 10.1889 23.2292 10.1889 23.2292C10.1889 23.2292 10.0079 22.8845 9.77741 22.7516C9.55517 22.6235 9.32857 22.3461 9.31299 22.3265C9.32378 22.3354 9.41145 22.41 9.49267 22.4498Z" fill="#E6E6E6"/>
   <path d="M10.1993 22.0698C10.1991 22.0702 10.1994 22.0704 10.1993 22.0708C10.1979 22.0956 10.1804 22.4501 10.2606 22.6896C10.3439 22.9379 10.2468 23.3135 10.2468 23.3135C10.2468 23.3135 10.0032 23.0173 9.99456 22.8081C9.98362 22.556 10.1925 22.0844 10.1993 22.0698Z" fill="#929292"/>
   <path d="M10.2497 22.2793C10.3137 22.4369 10.3811 22.5639 10.4341 22.7509C10.465 22.86 10.4001 23.1332 10.3147 23.2438C10.2862 23.2948 10.2456 23.3135 10.2456 23.3135C10.2456 23.3135 10.3404 22.9379 10.2591 22.6896C10.1808 22.4501 10.1979 22.0956 10.1993 22.0708C10.2013 22.0844 10.2164 22.1971 10.2497 22.2793Z" fill="#E6E6E6"/>
   <path d="M9.6875 23.1218C9.6878 23.1221 9.6881 23.1221 9.6884 23.1225C9.70728 23.139 9.98018 23.3735 10.2219 23.4616C10.4726 23.5531 10.7129 23.8615 10.7129 23.8615C10.7129 23.8615 10.3238 23.8627 10.1509 23.7386C9.94227 23.5898 9.69499 23.136 9.6875 23.1218Z" fill="#929292"/>
   <path d="M9.88764 23.2132C10.0547 23.2615 10.1994 23.288 10.3829 23.3633C10.4901 23.4071 10.6674 23.6282 10.7012 23.764C10.7237 23.8182 10.7129 23.8615 10.7129 23.8615C10.7129 23.8615 10.4727 23.5531 10.222 23.4616C9.98026 23.3735 9.70736 23.139 9.68848 23.1225C9.70077 23.1294 9.80042 23.1878 9.88764 23.2132Z" fill="#E6E6E6"/>
   <path d="M10.515 22.7181C10.515 22.7186 10.5153 22.7187 10.5153 22.7191C10.5182 22.7437 10.5647 23.0958 10.6867 23.3177C10.8132 23.5481 10.7849 23.9345 10.7849 23.9345C10.7849 23.9345 10.492 23.6846 10.4459 23.48C10.39 23.2338 10.5111 22.7337 10.515 22.7181Z" fill="#929292"/>
   <path d="M10.6037 22.9155C10.6964 23.0595 10.7872 23.1727 10.8742 23.3476C10.925 23.4497 10.9086 23.7301 10.8422 23.8539C10.8226 23.909 10.785 23.9345 10.785 23.9345C10.785 23.9345 10.8133 23.5481 10.6868 23.3177C10.5648 23.0958 10.5184 22.7437 10.5154 22.7191C10.5199 22.7322 10.5554 22.8404 10.6037 22.9155Z" fill="#E6E6E6"/>
   <path d="M10.302 23.9166C10.3023 23.9168 10.3026 23.9168 10.3029 23.9169C10.3254 23.9285 10.6486 24.0909 10.905 24.119C11.1711 24.148 11.481 24.39 11.481 24.39C11.481 24.39 11.1041 24.4835 10.9052 24.4045C10.6659 24.3098 10.3128 23.9286 10.302 23.9166Z" fill="#929292"/>
   <path d="M10.5188 23.9575C10.6929 23.9647 10.8398 23.956 11.0367 23.9853C11.1515 24.0024 11.3787 24.1746 11.4454 24.2983C11.4808 24.3452 11.4811 24.39 11.4811 24.39C11.4811 24.39 11.1711 24.148 10.9051 24.1191C10.6487 24.0909 10.3255 23.9286 10.303 23.917C10.3166 23.9208 10.428 23.9537 10.5188 23.9575Z" fill="#E6E6E6"/>
   <path d="M11.0039 23.3282C11.0041 23.3285 11.0042 23.3286 11.0044 23.329C11.0133 23.3522 11.1464 23.6825 11.3201 23.8688C11.5002 24.0621 11.5693 24.4437 11.5693 24.4437C11.5693 24.4437 11.2229 24.2709 11.1271 24.0835C11.0112 23.858 11.0039 23.3441 11.0039 23.3282Z" fill="#929292"/>
   <path d="M11.1391 23.4986C11.265 23.6161 11.3813 23.7044 11.5093 23.8533C11.5839 23.9401 11.638 24.2159 11.6046 24.3518C11.5993 24.4099 11.5694 24.4437 11.5694 24.4437C11.5694 24.4437 11.5003 24.0621 11.3202 23.8688C11.1465 23.6825 11.0134 23.3522 11.0044 23.329C11.012 23.3406 11.0735 23.4372 11.1391 23.4986Z" fill="#E6E6E6"/>
   <path d="M10.9719 24.4859C10.9724 24.4862 10.9727 24.486 10.973 24.4863C10.9959 24.497 11.325 24.6479 11.5823 24.6667C11.8491 24.6861 12.1678 24.9171 12.1678 24.9171C12.1678 24.9171 11.7947 25.024 11.5931 24.952C11.3503 24.8658 10.9833 24.4975 10.9719 24.4859Z" fill="#929292"/>
   <path d="M11.1903 24.5191C11.3646 24.5199 11.5111 24.5061 11.7088 24.5284C11.8244 24.5414 12.0577 24.7054 12.129 24.8266C12.166 24.8724 12.168 24.917 12.168 24.917C12.168 24.917 11.8492 24.6861 11.5825 24.6667C11.3252 24.6478 10.9961 24.4969 10.9731 24.4862C10.9869 24.4895 11.0995 24.5184 11.1903 24.5191Z" fill="#E6E6E6"/>
   <path d="M11.6514 23.8729C11.6515 23.8732 11.6518 23.8733 11.652 23.8737C11.6619 23.8964 11.8071 24.222 11.9875 24.402C12.1748 24.5886 12.258 24.9675 12.258 24.9675C12.258 24.9675 11.9054 24.8073 11.8027 24.6233C11.6785 24.4021 11.652 23.8888 11.6514 23.8729Z" fill="#929292"/>
   <path d="M11.793 24.0383C11.9232 24.1513 12.0426 24.2354 12.176 24.3797C12.2541 24.4639 12.3184 24.7375 12.2899 24.8744C12.2869 24.9328 12.2581 24.9675 12.2581 24.9675C12.2581 24.9675 12.175 24.5886 11.9876 24.402C11.8072 24.222 11.662 23.8964 11.6521 23.8737C11.6602 23.885 11.7251 23.9794 11.793 24.0383Z" fill="#E6E6E6"/>
   <path d="M11.8333 25.0256C11.8336 25.0256 11.8338 25.0255 11.8343 25.0256C11.8592 25.0299 12.2178 25.0885 12.4708 25.0389C12.7332 24.9874 13.1039 25.1258 13.1039 25.1258C13.1039 25.1258 12.7739 25.327 12.5601 25.3109C12.3025 25.2919 11.8473 25.0338 11.8333 25.0256Z" fill="#929292"/>
   <path d="M12.0524 25C12.2204 24.9551 12.3577 24.9032 12.5543 24.8726C12.669 24.8546 12.939 24.9511 13.0412 25.0492C13.0896 25.0834 13.1039 25.1259 13.1039 25.1259C13.1039 25.1259 12.7331 24.9874 12.4707 25.0389C12.2177 25.0885 11.8591 25.0299 11.8342 25.0256C11.8483 25.0252 11.9648 25.0234 12.0524 25Z" fill="#E6E6E6"/>
   <path d="M12.8438 25.3699C12.8442 25.3699 12.8445 25.3698 12.8448 25.3698C12.8701 25.3699 13.2337 25.369 13.4747 25.2789C13.7245 25.1852 14.1137 25.261 14.1137 25.261C14.1137 25.261 13.823 25.5134 13.6092 25.5323C13.3521 25.5557 12.859 25.3756 12.8438 25.3699Z" fill="#929292"/>
   <path d="M13.0556 25.3089C13.2135 25.2371 13.3399 25.1634 13.5285 25.1011C13.6385 25.0647 13.9213 25.1157 14.0388 25.1956C14.0923 25.2215 14.1136 25.2611 14.1136 25.2611C14.1136 25.2611 13.7244 25.1852 13.4746 25.2789C13.2336 25.369 12.8701 25.3699 12.8447 25.3698C12.8587 25.367 12.973 25.3463 13.0556 25.3089Z" fill="#E6E6E6"/>
   <path d="M12.3184 24.2563C12.3185 24.2567 12.3188 24.2567 12.3191 24.257C12.3348 24.2763 12.5646 24.5515 12.7882 24.6774C13.02 24.8079 13.2048 25.1507 13.2048 25.1507C13.2048 25.1507 12.821 25.0893 12.6713 24.9391C12.4907 24.7589 12.3233 24.2716 12.3184 24.2563Z" fill="#929292"/>
   <path d="M12.5001 24.3785C12.6569 24.453 12.7951 24.5025 12.9633 24.6062C13.0617 24.6668 13.1992 24.9134 13.2097 25.0528C13.2229 25.1097 13.2048 25.1507 13.2048 25.1507C13.2048 25.1507 13.02 24.8079 12.7882 24.6774C12.5646 24.5515 12.3348 24.2763 12.3191 24.257C12.33 24.2657 12.4186 24.3395 12.5001 24.3785Z" fill="#E6E6E6"/>
   <path d="M13.1758 24.6189C13.1761 24.6192 13.1762 24.6192 13.1765 24.6195C13.1932 24.6336 13.4341 24.8367 13.6466 24.9119C13.8669 24.99 14.0799 25.258 14.0799 25.258C14.0799 25.258 13.7393 25.2621 13.5867 25.1551C13.4028 25.0265 13.1825 24.6313 13.1758 24.6189Z" fill="#929292"/>
   <path d="M13.3517 24.6971C13.4984 24.7381 13.6252 24.7601 13.7866 24.8246C13.8809 24.862 14.0379 25.0542 14.0688 25.1728C14.089 25.2199 14.0799 25.258 14.0799 25.258C14.0799 25.258 13.8669 24.9899 13.6466 24.9119C13.4341 24.8367 13.1931 24.6336 13.1765 24.6194C13.1873 24.6253 13.2751 24.6758 13.3517 24.6971Z" fill="#E6E6E6"/>
   <path d="M13.552 25.5938C13.5522 25.5936 13.5521 25.5935 13.5524 25.5933C13.5641 25.5878 13.7321 25.5061 13.8224 25.4106C13.916 25.3113 14.1137 25.2594 14.1137 25.2594C14.1137 25.2594 14.0385 25.441 13.944 25.4976C13.8306 25.566 13.5604 25.5929 13.552 25.5938Z" fill="#929292"/>
   <path d="M13.6357 25.5181C13.6919 25.4496 13.7331 25.3873 13.8056 25.3163C13.848 25.2748 13.9907 25.2351 14.0638 25.2458C14.0947 25.2458 14.1137 25.2594 14.1137 25.2594C14.1137 25.2594 13.9161 25.3113 13.8224 25.4106C13.7322 25.5061 13.5642 25.5877 13.5525 25.5933C13.5582 25.5891 13.6063 25.5538 13.6357 25.5181Z" fill="#E6E6E6"/>
   <path d="M19.1086 18.7591C19.1086 18.7595 19.1084 18.7598 19.1084 18.7602C19.1087 18.785 19.1102 19.1399 19.0194 19.3756C18.925 19.6201 19.0052 19.9997 19.0052 19.9997C19.0052 19.9997 19.2617 19.7142 19.2799 19.5054C19.3022 19.2542 19.1146 18.774 19.1086 18.7591Z" fill="#929292"/>
   <path d="M19.0421 18.9662C18.9713 19.1209 18.8984 19.2448 18.8373 19.4293C18.8016 19.537 18.8544 19.8128 18.9349 19.927C18.9612 19.9792 19.0009 19.9997 19.0009 19.9997C19.0009 19.9997 18.9226 19.6201 19.0148 19.3756C19.1034 19.1399 19.102 18.785 19.1017 18.7602C19.099 18.7737 19.079 18.8855 19.0421 18.9662Z" fill="#E6E6E6"/>
   <path d="M18.2527 19.1025C18.253 19.1028 18.253 19.1031 18.2533 19.1033C18.2702 19.1216 18.5114 19.3873 18.6026 19.6231C18.697 19.8674 19.0138 20.1008 19.0138 20.1008C19.0138 20.1008 19.0135 19.7211 18.886 19.5525C18.7328 19.3495 18.2672 19.1096 18.2527 19.1025Z" fill="#929292"/>
   <path d="M18.3469 19.2974C18.397 19.4604 18.4247 19.6014 18.5026 19.7805C18.5479 19.885 18.7749 20.0572 18.9142 20.0898C18.9696 20.1116 19.014 20.1008 19.014 20.1008C19.014 20.1008 18.6972 19.8674 18.6027 19.6231C18.5115 19.3873 18.2704 19.1216 18.2534 19.1033C18.2606 19.1152 18.3207 19.2123 18.3469 19.2974Z" fill="#E6E6E6"/>
   <path d="M19.3348 19.6286C19.3348 19.6289 19.3347 19.6292 19.3347 19.6295C19.3312 19.6541 19.2795 20.0054 19.1542 20.2257C19.0242 20.4541 19.0466 20.841 19.0466 20.841C19.0466 20.841 19.3432 20.5953 19.3924 20.3914C19.4522 20.146 19.3387 19.6441 19.3348 19.6286Z" fill="#929292"/>
   <path d="M19.2433 19.8247C19.1483 19.9673 19.056 20.0793 18.9664 20.2528C18.9139 20.3542 18.9261 20.6347 18.9907 20.7594C19.0094 20.8148 19.0466 20.841 19.0466 20.841C19.0466 20.841 19.0241 20.4541 19.1542 20.2257C19.2795 20.0054 19.3312 19.6541 19.3346 19.6295C19.3298 19.6427 19.2928 19.7503 19.2433 19.8247Z" fill="#E6E6E6"/>
   <path d="M18.4368 19.8458C18.4371 19.8462 18.4371 19.8465 18.4374 19.8468C18.4513 19.8673 18.65 20.1646 18.7049 20.4109C18.7617 20.6662 19.0401 20.9423 19.0401 20.9423C19.0401 20.9423 19.0968 20.5667 18.9959 20.3818C18.8748 20.1589 18.4503 19.8552 18.4368 19.8458Z" fill="#929292"/>
   <path d="M18.5009 20.0522C18.5261 20.2205 18.5322 20.3642 18.5824 20.5524C18.6115 20.6621 18.8104 20.865 18.9431 20.9171C18.9947 20.9467 19.0403 20.9423 19.0403 20.9423C19.0403 20.9423 18.7618 20.6662 18.705 20.4109C18.6502 20.1646 18.4514 19.8673 18.4375 19.8468C18.4427 19.8597 18.4877 19.9645 18.5009 20.0522Z" fill="#E6E6E6"/>
   <path d="M19.4282 20.5726C19.4281 20.5728 19.4279 20.573 19.4278 20.5734C19.4186 20.5965 19.285 20.9265 19.1108 21.1126C18.9302 21.3053 18.8601 21.6868 18.8601 21.6868C18.8601 21.6868 19.207 21.5148 19.3032 21.3276C19.4195 21.1024 19.4282 20.5885 19.4282 20.5726Z" fill="#929292"/>
   <path d="M19.2926 20.7426C19.1663 20.8599 19.05 20.9479 18.9216 21.0965C18.8466 21.1831 18.7919 21.4588 18.8251 21.5947C18.8302 21.653 18.86 21.6868 18.86 21.6868C18.86 21.6868 18.9301 21.3053 19.1107 21.1126C19.2848 20.9265 19.4185 20.5965 19.4277 20.5734C19.42 20.585 19.3584 20.6814 19.2926 20.7426Z" fill="#E6E6E6"/>
   <path d="M18.5032 20.5807C18.5033 20.5812 18.5033 20.5815 18.5035 20.5818C18.5122 20.605 18.6351 20.9391 18.63 21.191C18.6247 21.4522 18.83 21.7839 18.83 21.7839C18.83 21.7839 18.9742 21.4311 18.9199 21.2285C18.8549 20.9843 18.514 20.5929 18.5032 20.5807Z" fill="#929292"/>
   <path d="M18.5164 20.796C18.5008 20.9654 18.4728 21.1064 18.477 21.3009C18.4792 21.4143 18.6246 21.6566 18.7413 21.7374C18.7845 21.7778 18.8299 21.7839 18.8299 21.7839C18.8299 21.7839 18.6246 21.4522 18.6298 21.191C18.6349 20.9391 18.5121 20.605 18.5034 20.5818C18.5055 20.5955 18.5243 20.7076 18.5164 20.796Z" fill="#E6E6E6"/>
   <path d="M19.3191 21.4577C19.319 21.4581 19.3187 21.4581 19.3185 21.4585C19.307 21.4805 19.1369 21.7942 18.9428 21.9604C18.7417 22.1326 18.6292 22.5043 18.6292 22.5043C18.6292 22.5043 18.9932 22.3705 19.1099 22.1948C19.2509 21.9834 19.3173 21.4736 19.3191 21.4577Z" fill="#929292"/>
   <path d="M19.1655 21.6123C19.0268 21.7153 18.9012 21.7902 18.7568 21.9241C18.6726 22.0023 18.5872 22.2705 18.6049 22.409C18.6034 22.4674 18.6293 22.5043 18.6293 22.5043C18.6293 22.5043 18.7419 22.1326 18.943 21.9604C19.137 21.7942 19.3071 21.4805 19.3187 21.4585C19.3098 21.4692 19.2378 21.5585 19.1655 21.6123Z" fill="#E6E6E6"/>
   <path d="M18.3987 21.3666C18.3988 21.3671 18.3987 21.3674 18.3988 21.3678C18.405 21.3918 18.4893 21.737 18.4561 21.9869C18.4215 22.2459 18.5883 22.5976 18.5883 22.5976C18.5883 22.5976 18.7712 22.2625 18.7401 22.0552C18.7031 21.8056 18.4081 21.3798 18.3987 21.3666Z" fill="#929292"/>
   <path d="M18.3876 21.582C18.353 21.7488 18.3094 21.8859 18.2917 22.0796C18.2812 22.1926 18.3982 22.4491 18.5054 22.5419C18.5437 22.5867 18.5881 22.5976 18.5881 22.5976C18.5881 22.5976 18.4213 22.2459 18.4559 21.9869C18.4892 21.737 18.4048 21.3918 18.3987 21.3678C18.3993 21.3816 18.4054 21.495 18.3876 21.582Z" fill="#E6E6E6"/>
   <path d="M19.0783 22.3257C19.078 22.3262 19.0777 22.3262 19.0774 22.3265C19.0619 22.3461 18.8352 22.6235 18.6129 22.7516C18.3826 22.8845 18.2014 23.2292 18.2014 23.2292C18.2014 23.2292 18.5846 23.1639 18.7327 23.0123C18.9113 22.8301 19.0735 22.3411 19.0783 22.3257Z" fill="#929292"/>
   <path d="M18.8977 22.4498C18.7419 22.5259 18.6043 22.5768 18.4371 22.6825C18.3393 22.7439 18.2045 22.9919 18.1955 23.1314C18.183 23.1884 18.2015 23.2292 18.2015 23.2292C18.2015 23.2292 18.3827 22.8845 18.613 22.7516C18.8352 22.6235 19.062 22.3461 19.0774 22.3265C19.0666 22.3354 18.979 22.41 18.8977 22.4498Z" fill="#E6E6E6"/>
   <path d="M18.1909 22.0698C18.1909 22.0702 18.1908 22.0704 18.1908 22.0708C18.1923 22.0956 18.2096 22.4501 18.1295 22.6896C18.0461 22.9379 18.1433 23.3135 18.1433 23.3135C18.1433 23.3135 18.3868 23.0173 18.3955 22.8081C18.4066 22.556 18.1975 22.0844 18.1909 22.0698Z" fill="#929292"/>
   <path d="M18.1345 22.2793C18.0705 22.4369 18.0032 22.5639 17.9503 22.7509C17.9192 22.86 17.9841 23.1332 18.0697 23.2438C18.098 23.2948 18.1386 23.3135 18.1386 23.3135C18.1386 23.3135 18.0438 22.9379 18.1251 22.6896C18.2034 22.4501 18.1864 22.0956 18.185 22.0708C18.1829 22.0844 18.1678 22.1971 18.1345 22.2793Z" fill="#E6E6E6"/>
   <path d="M18.7027 23.1218C18.7024 23.1221 18.7021 23.1221 18.7018 23.1225C18.6831 23.139 18.41 23.3735 18.1683 23.4616C17.9176 23.5531 17.6775 23.8615 17.6775 23.8615C17.6775 23.8615 18.0664 23.8627 18.2393 23.7386C18.4479 23.5898 18.6952 23.136 18.7027 23.1218Z" fill="#929292"/>
   <path d="M18.5028 23.2132C18.3357 23.2615 18.1909 23.288 18.0073 23.3633C17.9002 23.4071 17.7229 23.6282 17.689 23.764C17.6665 23.8182 17.6775 23.8615 17.6775 23.8615C17.6775 23.8615 17.9175 23.5531 18.1683 23.4616C18.41 23.3735 18.683 23.139 18.7018 23.1225C18.6896 23.1294 18.5898 23.1878 18.5028 23.2132Z" fill="#E6E6E6"/>
   <path d="M17.8752 22.7181C17.8752 22.7186 17.8749 22.7187 17.8749 22.7191C17.8719 22.7437 17.8254 23.0958 17.7036 23.3177C17.5769 23.5481 17.6052 23.9345 17.6052 23.9345C17.6052 23.9345 17.8981 23.6846 17.9442 23.48C18.0003 23.2338 17.8792 22.7337 17.8752 22.7181Z" fill="#929292"/>
   <path d="M17.7866 22.9155C17.6938 23.0595 17.6031 23.1727 17.5162 23.3476C17.4653 23.4497 17.4818 23.7301 17.5481 23.8539C17.5676 23.909 17.6052 23.9345 17.6052 23.9345C17.6052 23.9345 17.5769 23.5481 17.7036 23.3177C17.8254 23.0958 17.8719 22.7437 17.8748 22.7191C17.8704 22.7322 17.835 22.8404 17.7866 22.9155Z" fill="#E6E6E6"/>
   <path d="M18.0883 23.9166C18.0879 23.9168 18.0876 23.9168 18.0873 23.9169C18.0649 23.9285 17.7415 24.0909 17.4851 24.119C17.2192 24.148 16.9092 24.39 16.9092 24.39C16.9092 24.39 17.2862 24.4835 17.485 24.4045C17.7244 24.3098 18.0774 23.9286 18.0883 23.9166Z" fill="#929292"/>
   <path d="M17.8715 23.9575C17.6975 23.9647 17.5504 23.956 17.3537 23.9853C17.2387 24.0024 17.0117 24.1746 16.9449 24.2983C16.9095 24.3452 16.9092 24.39 16.9092 24.39C16.9092 24.39 17.2192 24.148 17.4851 24.1191C17.7415 24.0909 18.0649 23.9286 18.0873 23.917C18.0736 23.9208 17.9623 23.9537 17.8715 23.9575Z" fill="#E6E6E6"/>
   <path d="M17.3865 23.3282C17.3863 23.3285 17.386 23.3286 17.3859 23.329C17.3769 23.3522 17.244 23.6825 17.0703 23.8688C16.8901 24.0621 16.821 24.4437 16.821 24.4437C16.821 24.4437 17.1674 24.2709 17.2631 24.0835C17.379 23.858 17.3865 23.3441 17.3865 23.3282Z" fill="#929292"/>
   <path d="M17.2514 23.4986C17.1253 23.6161 17.0092 23.7044 16.8812 23.8533C16.8064 23.9401 16.7523 24.2159 16.7857 24.3518C16.791 24.4099 16.8211 24.4437 16.8211 24.4437C16.8211 24.4437 16.8902 24.0621 17.0703 23.8688C17.244 23.6825 17.3769 23.3522 17.3859 23.329C17.3783 23.3406 17.317 23.4372 17.2514 23.4986Z" fill="#E6E6E6"/>
   <path d="M17.4183 24.4859C17.4179 24.4862 17.4176 24.486 17.4173 24.4863C17.3945 24.497 17.0654 24.6479 16.8079 24.6667C16.5412 24.6861 16.2224 24.9171 16.2224 24.9171C16.2224 24.9171 16.5956 25.024 16.7971 24.952C17.0401 24.8658 17.4071 24.4975 17.4183 24.4859Z" fill="#929292"/>
   <path d="M17.2001 24.5191C17.0258 24.5199 16.8794 24.5061 16.6816 24.5284C16.5662 24.5414 16.3327 24.7054 16.2615 24.8266C16.2244 24.8724 16.2224 24.917 16.2224 24.917C16.2224 24.917 16.5412 24.6861 16.8079 24.6667C17.0654 24.6478 17.3945 24.4969 17.4173 24.4862C17.4035 24.4895 17.2911 24.5184 17.2001 24.5191Z" fill="#E6E6E6"/>
   <path d="M16.7387 23.8729C16.7386 23.8732 16.7383 23.8733 16.7381 23.8737C16.7282 23.8964 16.5832 24.222 16.4026 24.402C16.2154 24.5886 16.1321 24.9675 16.1321 24.9675C16.1321 24.9675 16.4847 24.8073 16.5875 24.6233C16.7116 24.4021 16.7381 23.8888 16.7387 23.8729Z" fill="#929292"/>
   <path d="M16.5973 24.0383C16.467 24.1513 16.3476 24.2354 16.2142 24.3797C16.1363 24.4639 16.072 24.7375 16.1003 24.8744C16.1033 24.9328 16.1321 24.9675 16.1321 24.9675C16.1321 24.9675 16.2154 24.5886 16.4026 24.402C16.5832 24.222 16.7282 23.8964 16.7381 23.8737C16.73 23.885 16.6652 23.9794 16.5973 24.0383Z" fill="#E6E6E6"/>
   <path d="M16.5571 25.0256C16.5566 25.0256 16.5563 25.0255 16.5559 25.0256C16.531 25.0299 16.1724 25.0885 15.9194 25.0389C15.657 24.9874 15.2864 25.1258 15.2864 25.1258C15.2864 25.1258 15.6162 25.327 15.8302 25.3109C16.0878 25.2919 16.543 25.0338 16.5571 25.0256Z" fill="#929292"/>
   <path d="M16.3378 25C16.1697 24.9551 16.0325 24.9032 15.8358 24.8726C15.7211 24.8546 15.4511 24.9511 15.3489 25.0492C15.3006 25.0834 15.2864 25.1259 15.2864 25.1259C15.2864 25.1259 15.657 24.9874 15.9194 25.0389C16.1724 25.0885 16.531 25.0299 16.5559 25.0256C16.5418 25.0252 16.4255 25.0234 16.3378 25Z" fill="#E6E6E6"/>
   <path d="M16.0721 24.2563C16.0718 24.2567 16.0715 24.2567 16.0712 24.257C16.0555 24.2763 15.8258 24.5515 15.6023 24.6774C15.3703 24.8079 15.1855 25.1507 15.1855 25.1507C15.1855 25.1507 15.5693 25.0893 15.7191 24.9391C15.8998 24.7589 16.067 24.2716 16.0721 24.2563Z" fill="#929292"/>
   <path d="M15.8901 24.3785C15.7335 24.453 15.5952 24.5025 15.4269 24.6062C15.3286 24.6668 15.191 24.9134 15.1805 25.0528C15.1675 25.1097 15.1855 25.1507 15.1855 25.1507C15.1855 25.1507 15.3703 24.8079 15.6022 24.6774C15.8257 24.5515 16.0554 24.2763 16.0712 24.257C16.0604 24.2657 15.9718 24.3395 15.8901 24.3785Z" fill="#E6E6E6"/>
   <path d="M15.6837 25.368C15.6833 25.368 15.683 25.3679 15.6825 25.3679C15.6572 25.3679 15.2938 25.3647 15.0534 25.2728C14.8043 25.1775 14.4146 25.2507 14.4146 25.2507C14.4146 25.2507 14.7035 25.505 14.917 25.5253C15.1741 25.5505 15.6683 25.3738 15.6837 25.368Z" fill="#929292"/>
   <path d="M15.4723 25.3056C15.3149 25.2326 15.189 25.1582 15.0008 25.0947C14.8911 25.0575 14.6079 25.1067 14.4899 25.1857C14.4361 25.2113 14.4146 25.2507 14.4146 25.2507C14.4146 25.2507 14.8043 25.1775 15.0534 25.2727C15.2938 25.3646 15.6572 25.3678 15.6825 25.3678C15.6688 25.3651 15.5546 25.3435 15.4723 25.3056Z" fill="#E6E6E6"/>
   <path d="M15.2145 24.6189C15.2144 24.6192 15.2141 24.6192 15.2138 24.6195C15.1971 24.6336 14.9562 24.8367 14.7436 24.9119C14.5235 24.99 14.3105 25.258 14.3105 25.258C14.3105 25.258 14.651 25.2621 14.8036 25.1551C14.9875 25.0265 15.2079 24.6313 15.2145 24.6189Z" fill="#929292"/>
   <path d="M15.0386 24.6971C14.8919 24.7381 14.7649 24.7601 14.6035 24.8246C14.5094 24.862 14.3522 25.0542 14.3215 25.1728C14.3013 25.2199 14.3104 25.258 14.3104 25.258C14.3104 25.258 14.5234 24.9899 14.7435 24.9119C14.956 24.8367 15.197 24.6336 15.2136 24.6194C15.2028 24.6253 15.115 24.6758 15.0386 24.6971Z" fill="#E6E6E6"/>
   <path d="M14.8382 25.5938C14.8379 25.5936 14.8379 25.5935 14.8378 25.5933C14.8259 25.5878 14.6579 25.5061 14.5677 25.4106C14.4742 25.3113 14.2764 25.2594 14.2764 25.2594C14.2764 25.2594 14.3516 25.441 14.446 25.4976C14.5595 25.566 14.8297 25.5929 14.8382 25.5938Z" fill="#929292"/>
   <path d="M14.7544 25.5181C14.6984 25.4496 14.6572 25.3873 14.5845 25.3163C14.5422 25.2748 14.3994 25.2351 14.3263 25.2458C14.2956 25.2458 14.2764 25.2594 14.2764 25.2594C14.2764 25.2594 14.4742 25.3113 14.5677 25.4106C14.6579 25.5061 14.8259 25.5877 14.8378 25.5933C14.8319 25.5891 14.7838 25.5538 14.7544 25.5181Z" fill="#E6E6E6"/>
   <path d="M11.737 13.1644C9.00531 13.7033 6.93211 15.2942 5.76004 17.2237C4.79447 18.8114 4.65749 20.0882 5.06572 21.6022C7.03806 29.234 9.839 25.2221 13.6021 28.9409C13.6343 28.9734 13.6292 29.0148 13.6025 29.0394L13.3164 29.3019C13.29 29.326 13.2476 29.3277 13.2191 29.299C10.8987 27.0305 9.09867 27.8939 7.25297 26.6364C5.68585 25.5557 5.00757 23.2987 4.58017 21.421C4.16355 19.5803 4.72898 17.9367 5.92908 16.3919C6.00086 16.2962 6.22746 16.0334 6.26492 15.9925C7.73732 14.427 9.45655 13.42 11.737 13.1644Z" fill="#929292"/>
   <path d="M3.66856 15.3234C3.66826 15.3247 3.66871 15.3254 3.66841 15.3266C3.65567 15.4033 3.48407 16.5049 3.65522 17.2779C3.83295 18.0794 3.4054 19.2219 3.4054 19.2219C3.4054 19.2219 2.74315 18.2205 2.78512 17.5641C2.83427 16.7737 3.64278 15.3668 3.66856 15.3234Z" fill="#929292"/>
   <path d="M3.76084 15.994C3.9134 16.5068 4.08665 16.925 4.1941 17.5262C4.25719 17.8769 3.95926 18.7089 3.64934 19.0266C3.54129 19.1764 3.40552 19.2219 3.40552 19.2219C3.40552 19.2219 3.83307 18.0794 3.65534 17.2779C3.48419 16.5049 3.65579 15.4033 3.66853 15.3266C3.67063 15.3701 3.68156 15.7263 3.76084 15.994Z" fill="#E6E6E6"/>
   <path d="M5.39469 16.6543C5.39409 16.6554 5.39454 16.6562 5.39394 16.6575C5.36756 16.7307 4.99831 17.7849 5.02618 18.5754C5.0554 19.395 4.42688 20.4451 4.42688 20.4451C4.42688 20.4451 3.95721 19.3449 4.11801 18.7062C4.30998 17.9369 5.36142 16.6925 5.39469 16.6543Z" fill="#929292"/>
   <path d="M5.36349 17.3301C5.42044 17.8613 5.515 18.3028 5.51141 18.9131C5.50961 19.2691 5.06527 20.0364 4.7026 20.2953C4.56907 20.4239 4.427 20.4451 4.427 20.4451C4.427 20.4451 5.05553 19.395 5.0263 18.5754C4.99843 17.7849 5.36769 16.7307 5.39406 16.6575C5.38822 16.7005 5.33427 17.0531 5.36349 17.3301Z" fill="#E6E6E6"/>
   <path d="M1.95288 17.4274C1.95333 17.4284 1.95408 17.4287 1.95453 17.4297C1.98345 17.4894 2.40786 18.342 2.91005 18.8031C3.43097 19.2808 3.69638 20.2828 3.69638 20.2828C3.69638 20.2828 2.73711 19.8935 2.44203 19.4137C2.08566 18.8367 1.95633 17.47 1.95288 17.4274Z" fill="#929292"/>
   <path d="M2.34918 17.8538C2.7096 18.1411 3.03795 18.3524 3.41051 18.723C3.62811 18.939 3.83087 19.6624 3.77063 20.031C3.76913 20.187 3.69644 20.2828 3.69644 20.2828C3.69644 20.2828 3.43104 19.2808 2.91011 18.8031C2.40792 18.342 1.98351 17.4894 1.95459 17.4297C1.97737 17.4591 2.1614 17.7036 2.34918 17.8538Z" fill="#E6E6E6"/>
   <path d="M1.65332 19.8493C1.65407 19.8501 1.65482 19.8503 1.65557 19.8512C1.70053 19.9053 2.35453 20.6754 2.98755 21.0249C3.6441 21.3871 4.17326 22.3491 4.17326 22.3491C4.17326 22.3491 3.0902 22.1847 2.66459 21.7653C2.15116 21.2612 1.66771 19.8921 1.65332 19.8493Z" fill="#929292"/>
   <path d="M2.1688 20.1893C2.61209 20.3956 3.00263 20.5318 3.47965 20.8204C3.75809 20.9887 4.15178 21.6803 4.18475 22.0729C4.22312 22.2329 4.17321 22.3491 4.17321 22.3491C4.17321 22.3491 3.64405 21.3871 2.9875 21.0249C2.35448 20.6754 1.70048 19.9053 1.65552 19.8512C1.68639 19.8758 1.93771 20.0815 2.1688 20.1893Z" fill="#E6E6E6"/>
   <path d="M3.96867 18.8999C3.96867 18.9013 3.96942 18.902 3.96942 18.9033C3.97482 18.9835 4.06414 20.135 4.42126 20.8767C4.79187 21.6458 4.63242 22.8966 4.63242 22.8966C4.63242 22.8966 3.72484 22.0358 3.6108 21.3634C3.47203 20.5541 3.95309 18.9497 3.96867 18.8999Z" fill="#929292"/>
   <path d="M4.2217 19.5562C4.49805 20.0395 4.77275 20.4222 5.02466 21.005C5.17183 21.3449 5.06947 22.2528 4.83209 22.6439C4.75881 22.8197 4.63247 22.8966 4.63247 22.8966C4.63247 22.8966 4.79193 21.6458 4.42132 20.8767C4.06419 20.135 3.97488 18.9835 3.96948 18.9033C3.98177 18.9466 4.07798 19.3039 4.2217 19.5562Z" fill="#E6E6E6"/>
   <path d="M1.75366 23.6281C1.75486 23.6287 1.75576 23.6283 1.75696 23.6289C1.83459 23.6558 2.95271 24.032 3.7918 24.0058C4.6619 23.9783 5.77493 24.6168 5.77493 24.6168C5.77493 24.6168 4.606 25.0893 3.92847 24.9251C3.11232 24.7287 1.79413 23.6619 1.75366 23.6281Z" fill="#929292"/>
   <path d="M2.47093 23.6615C3.03487 23.6051 3.50364 23.5106 4.15134 23.5157C4.5293 23.5183 5.3426 23.9699 5.6164 24.3376C5.75262 24.4731 5.77481 24.6168 5.77481 24.6168C5.77481 24.6168 4.66177 23.9782 3.79167 24.0057C2.95259 24.0319 1.83446 23.6557 1.75684 23.6288C1.80254 23.6348 2.17675 23.6904 2.47093 23.6615Z" fill="#E6E6E6"/>
   <path d="M4.14771 22.4255C4.1483 22.4267 4.1492 22.427 4.1498 22.4282C4.19146 22.4975 4.80036 23.4875 5.46035 23.994C6.14493 24.5191 6.57713 25.7069 6.57713 25.7069C6.57713 25.7069 5.37058 25.3349 4.95966 24.7839C4.46376 24.1215 4.15655 22.4769 4.14771 22.4255Z" fill="#929292"/>
   <path d="M4.67532 22.9013C5.14439 23.2121 5.56581 23.434 6.05856 23.8444C6.34629 24.0838 6.67194 24.94 6.63957 25.3934C6.65486 25.5828 6.57723 25.7069 6.57723 25.7069C6.57723 25.7069 6.14503 24.5191 5.46045 23.994C4.80046 23.4875 4.19156 22.4975 4.1499 22.4282C4.18092 22.4615 4.4309 22.7388 4.67532 22.9013Z" fill="#E6E6E6"/>
   <path d="M6.78166 22.1773C6.78166 22.1788 6.78241 22.1794 6.78241 22.1807C6.78886 22.2609 6.89376 23.411 7.26092 24.1481C7.64188 24.9123 7.4995 26.1651 7.4995 26.1651C7.4995 26.1651 6.5804 25.3162 6.45721 24.6453C6.3075 23.8379 6.76668 22.2274 6.78166 22.1773Z" fill="#929292"/>
   <path d="M7.04353 22.8304C7.32632 23.3099 7.60627 23.6892 7.86598 24.2685C8.01779 24.6065 7.92772 25.5157 7.69573 25.9099C7.62485 26.0867 7.49956 26.1651 7.49956 26.1651C7.49956 26.1651 7.64193 24.9123 7.26098 24.1481C6.89382 23.411 6.78891 22.2609 6.78247 22.1807C6.79536 22.2238 6.89637 22.58 7.04353 22.8304Z" fill="#E6E6E6"/>
   <path d="M8.57762 23.256C8.57762 23.2573 8.57822 23.2581 8.57837 23.2594C8.58481 23.3396 8.68972 24.4896 9.05688 25.2267C9.43783 25.9909 9.29531 27.2438 9.29531 27.2438C9.29531 27.2438 8.3762 26.3947 8.25316 25.7238C8.1033 24.9164 8.56248 23.3059 8.57762 23.256Z" fill="#929292"/>
   <path d="M8.83943 23.909C9.12222 24.3885 9.40217 24.7678 9.66188 25.3472C9.81369 25.6852 9.72362 26.5943 9.49164 26.9884C9.4206 27.1652 9.29531 27.2438 9.29531 27.2438C9.29531 27.2438 9.43783 25.9909 9.05688 25.2267C8.68972 24.4896 8.58481 23.3396 8.57837 23.2594C8.59126 23.3025 8.69212 23.6585 8.83943 23.909Z" fill="#E6E6E6"/>
   <path d="M3.19727 26.2649C3.19861 26.2652 3.19951 26.2647 3.20086 26.265C3.28583 26.2798 4.50767 26.4804 5.37013 26.3122C6.26421 26.1374 7.5271 26.6101 7.5271 26.6101C7.5271 26.6101 6.40253 27.295 5.67345 27.2392C4.79555 27.1737 3.24522 26.293 3.19727 26.2649Z" fill="#929292"/>
   <path d="M3.94454 26.1786C4.51732 26.0257 4.98519 25.8491 5.65538 25.7454C6.04637 25.6846 6.96638 26.0144 7.31421 26.3483C7.47891 26.4652 7.52716 26.6101 7.52716 26.6101C7.52716 26.6101 6.26427 26.1375 5.37019 26.3122C4.50773 26.4805 3.2859 26.2799 3.20093 26.2651C3.24918 26.2637 3.64557 26.258 3.94454 26.1786Z" fill="#E6E6E6"/>
   <path d="M6.78247 29.0249C6.78367 29.0246 6.78397 29.0239 6.78517 29.0236C6.85395 28.9994 7.8363 28.6436 8.39604 28.1651C8.97616 27.669 10.1061 27.4954 10.1061 27.4954C10.1061 27.4954 9.57741 28.4606 9.01872 28.72C8.34674 29.0333 6.82968 29.0258 6.78247 29.0249Z" fill="#929292"/>
   <path d="M7.29304 28.6542C7.64687 28.3062 7.91362 27.984 8.36021 27.6321C8.62068 27.4265 9.43773 27.2896 9.83696 27.3913C10.0083 27.4093 10.1061 27.4955 10.1061 27.4955C10.1061 27.4955 8.97615 27.669 8.39603 28.1651C7.83629 28.6437 6.85394 28.9994 6.78516 29.0236C6.81992 29.0027 7.10811 28.8355 7.29304 28.6542Z" fill="#E6E6E6"/>
   <path d="M12.8354 11.5554C12.8344 11.5557 12.8341 11.5564 12.8329 11.5568C12.7678 11.5824 11.8367 11.9591 11.3166 12.4387C10.7774 12.936 9.69775 13.1426 9.69775 13.1426C9.69775 13.1426 10.1703 12.1964 10.6975 11.9275C11.3317 11.6026 12.79 11.5563 12.8354 11.5554Z" fill="#929292"/>
   <path d="M12.3586 11.9298C12.0313 12.2767 11.7868 12.5957 11.3707 12.9496C11.1279 13.1564 10.3479 13.3169 9.96046 13.2333C9.79517 13.2221 9.69775 13.1426 9.69775 13.1426C9.69775 13.1426 10.7774 12.936 11.3166 12.4387C11.8367 11.959 12.7678 11.5824 12.8329 11.5568C12.8002 11.578 12.5294 11.7491 12.3586 11.9298Z" fill="#E6E6E6"/>
   <path d="M10.5741 11.0349C10.5735 11.0358 10.5737 11.0367 10.5729 11.0375C10.535 11.0952 9.99865 11.9283 9.85853 12.6132C9.71346 13.3235 8.95515 14.1017 8.95515 14.1017C8.95515 14.1017 8.77996 13.063 9.05076 12.5459C9.37552 11.9226 10.5376 11.0612 10.5741 11.0349Z" fill="#929292"/>
   <path d="M10.4069 11.6097C10.3455 12.0776 10.3352 12.4757 10.2052 12.9995C10.1299 13.3053 9.58855 13.8767 9.22303 14.0274C9.08156 14.1116 8.95508 14.1018 8.95508 14.1018C8.95508 14.1018 9.71338 13.3235 9.85845 12.6133C9.99857 11.9283 10.5349 11.0952 10.5728 11.0376C10.5589 11.0734 10.4393 11.3657 10.4069 11.6097Z" fill="#E6E6E6"/>
   <path d="M8.76161 11.8566C8.76131 11.8575 8.76161 11.8581 8.76116 11.859C8.74528 11.9119 8.52363 12.6751 8.57398 13.236C8.62643 13.8176 8.22031 14.5874 8.22031 14.5874C8.22031 14.5874 7.84385 13.8224 7.93347 13.3625C8.04017 12.8086 8.73943 11.8852 8.76161 11.8566Z" fill="#929292"/>
   <path d="M8.76541 12.3383C8.82641 12.7139 8.91078 13.0243 8.93191 13.4582C8.94435 13.7114 8.65811 14.2732 8.41024 14.4706C8.32032 14.567 8.22021 14.5874 8.22021 14.5874C8.22021 14.5874 8.62634 13.8176 8.57389 13.236C8.52354 12.6751 8.74519 11.9119 8.76107 11.859C8.75852 11.8898 8.73394 12.1424 8.76541 12.3383Z" fill="#E6E6E6"/>
   <path d="M12.4449 13.7039C12.444 13.7041 12.4436 13.7046 12.4425 13.7049C12.3833 13.7197 11.535 13.9415 11.0296 14.2978C10.5057 14.6674 9.54883 14.7256 9.54883 14.7256C9.54883 14.7256 10.0675 13.9608 10.5546 13.7872C11.1404 13.5772 12.4057 13.6995 12.4449 13.7039Z" fill="#929292"/>
   <path d="M11.9892 13.9743C11.6659 14.2375 11.4175 14.4858 11.0166 14.7453C10.7828 14.8969 10.09 14.9487 9.76508 14.8332C9.62361 14.8051 9.54883 14.7257 9.54883 14.7257C9.54883 14.7257 10.5057 14.6674 11.0296 14.2978C11.535 13.9415 12.3833 13.7197 12.4425 13.7049C12.4118 13.7196 12.1579 13.8372 11.9892 13.9743Z" fill="#E6E6E6"/>
   <path d="M9.85502 13.1928C9.85427 13.1937 9.85427 13.1944 9.85352 13.1952C9.81276 13.247 9.23489 13.9966 9.04561 14.6361C8.84944 15.2995 8.06521 15.9795 8.06521 15.9795C8.06521 15.9795 7.98399 14.9789 8.28371 14.509C8.64338 13.9424 9.81816 13.2149 9.85502 13.1928Z" fill="#929292"/>
   <path d="M9.64894 13.7257C9.55213 14.1654 9.50956 14.5428 9.34322 15.0303C9.2464 15.3148 8.68532 15.8153 8.3258 15.9297C8.18448 15.9987 8.06519 15.9795 8.06519 15.9795C8.06519 15.9795 8.84942 15.2995 9.04559 14.6361C9.23487 13.9966 9.81274 13.247 9.8535 13.1952C9.83731 13.2281 9.69974 13.4966 9.64894 13.7257Z" fill="#E6E6E6"/>
   <path d="M10.363 15.3816C10.3619 15.3819 10.3617 15.3826 10.3606 15.383C10.2995 15.4098 9.42681 15.8022 8.94949 16.2778C8.45465 16.771 7.43408 17.0067 7.43408 17.0067C7.43408 17.0067 7.8483 16.0883 8.34045 15.8131C8.93226 15.4808 10.3197 15.3839 10.363 15.3816Z" fill="#929292"/>
   <path d="M9.92285 15.7554C9.62418 16.0977 9.40343 16.4103 9.02023 16.7625C8.79693 16.9683 8.05991 17.1493 7.68765 17.0837C7.52969 17.0789 7.43408 17.0067 7.43408 17.0067C7.43408 17.0067 8.45465 16.771 8.94949 16.2778C9.4268 15.8022 10.2995 15.4098 10.3606 15.383C10.3303 15.4044 10.0787 15.5771 9.92285 15.7554Z" fill="#E6E6E6"/>
   <path d="M6.45206 13.2556C6.45191 13.2571 6.45266 13.2577 6.45251 13.2591C6.45042 13.3408 6.43393 14.5138 6.72646 15.296C7.02993 16.1071 6.75254 17.3588 6.75254 17.3588C6.75254 17.3588 5.91406 16.4073 5.86116 15.7168C5.79582 14.8856 6.43153 13.3046 6.45206 13.2556Z" fill="#929292"/>
   <path d="M6.64702 13.9421C6.88186 14.4556 7.12433 14.8673 7.325 15.4794C7.44234 15.8362 7.25442 16.7459 6.97807 17.1208C6.8874 17.2923 6.75253 17.3588 6.75253 17.3588C6.75253 17.3588 7.02992 16.1071 6.72645 15.296C6.43392 14.5138 6.4504 13.3408 6.4525 13.2591C6.46089 13.304 6.52503 13.6742 6.64702 13.9421Z" fill="#E6E6E6"/>
   <path d="M8.18981 14.7676C8.18906 14.7688 8.18935 14.7697 8.18861 14.7709C8.14829 14.8425 7.58046 15.8764 7.47151 16.7024C7.35867 17.5588 6.52228 18.5453 6.52228 18.5453C6.52228 18.5453 6.22646 17.324 6.5049 16.687C6.83879 15.9197 8.14844 14.8019 8.18981 14.7676Z" fill="#929292"/>
   <path d="M8.03952 15.4647C8.0058 16.0261 8.02693 16.5006 7.91663 17.134C7.85264 17.5036 7.25694 18.2269 6.83493 18.4354C6.67367 18.5469 6.52246 18.5453 6.52246 18.5453C6.52246 18.5453 7.35885 17.5588 7.47169 16.7024C7.58064 15.8764 8.14847 14.8425 8.18878 14.7709C8.175 14.8146 8.05735 15.1721 8.03952 15.4647Z" fill="#E6E6E6"/>
   <path d="M9.10145 17.3588C9.10055 17.3594 9.1004 17.3602 9.0995 17.361C9.04345 17.4066 8.24723 18.0702 7.89071 18.7067C7.5213 19.3668 6.52246 19.9088 6.52246 19.9088C6.52246 19.9088 6.67862 18.8261 7.11142 18.3953C7.6313 17.8759 9.05694 17.3737 9.10145 17.3588Z" fill="#929292"/>
   <path d="M8.75317 17.8779C8.54366 18.323 8.40698 18.7147 8.1119 19.1946C7.94001 19.4748 7.22187 19.8775 6.8117 19.9161C6.6446 19.9568 6.52246 19.9088 6.52246 19.9088C6.52246 19.9088 7.5213 19.3669 7.89071 18.7067C8.24723 18.0702 9.04345 17.4066 9.0995 17.361C9.07417 17.3921 8.86272 17.6459 8.75317 17.8779Z" fill="#E6E6E6"/>
   <path d="M5.56574 17.0068C5.56589 17.0078 5.56649 17.0083 5.56679 17.0091C5.58132 17.0681 5.79907 17.9119 6.16189 18.4179C6.5382 18.9424 6.58436 19.8913 6.58436 19.8913C6.58436 19.8913 5.79728 19.3659 5.62419 18.881C5.41453 18.2973 5.56065 17.0457 5.56574 17.0068Z" fill="#929292"/>
   <path d="M5.84009 17.4624C6.1088 17.7865 6.36311 18.0364 6.62672 18.4375C6.78078 18.6715 6.82424 19.3584 6.69956 19.6786C6.66809 19.8183 6.58446 19.8913 6.58446 19.8913C6.58446 19.8913 6.5383 18.9424 6.162 18.4179C5.79918 17.9119 5.58143 17.0681 5.56689 17.0091C5.58173 17.0399 5.70012 17.2931 5.84009 17.4624Z" fill="#E6E6E6"/>
   <path d="M8.17497 19.5843C8.17407 19.5849 8.17408 19.5856 8.17318 19.5862C8.12657 19.6263 7.46357 20.2078 7.17419 20.757C6.87431 21.3267 6.03613 21.8088 6.03613 21.8088C6.03613 21.8088 6.14523 20.884 6.504 20.5084C6.93501 20.0553 8.13721 19.598 8.17497 19.5843Z" fill="#929292"/>
   <path d="M7.88993 20.0335C7.72149 20.4167 7.61359 20.7529 7.37306 21.1676C7.23294 21.4098 6.63064 21.7675 6.28236 21.8091C6.14119 21.8471 6.03613 21.8088 6.03613 21.8088C6.03613 21.8088 6.87431 21.3267 7.17419 20.757C7.46357 20.2078 8.12657 19.6263 8.17318 19.5862C8.15235 19.6134 7.97805 19.8338 7.88993 20.0335Z" fill="#E6E6E6"/>
   <path d="M6.13001 19.3312C6.12956 19.3325 6.13016 19.3334 6.12971 19.3347C6.11053 19.4161 5.84692 20.5859 5.97475 21.4269C6.10768 22.299 5.56653 23.495 5.56653 23.495C5.56653 23.495 4.92841 22.3752 5.02088 21.674C5.13058 20.8296 6.09914 19.3761 6.13001 19.3312Z" fill="#929292"/>
   <path d="M6.18064 20.0569C6.30727 20.6176 6.46313 21.0779 6.53492 21.7302C6.57733 22.1108 6.19772 22.983 5.8424 23.3023C5.71577 23.4555 5.56665 23.495 5.56665 23.495C5.56665 23.495 6.1078 22.299 5.97488 21.4269C5.84704 20.5859 6.11065 19.4161 6.12984 19.3347C6.12879 19.3814 6.115 19.7644 6.18064 20.0569Z" fill="#E6E6E6"/>
   <path d="M16.3797 23.0944H12.2483V22.2456C13.6634 21.2456 14.7468 20.3459 14.7468 19.5886C14.7468 18.6665 13.5067 18.6523 12.4992 19.3195H12.3862V18.1772C13.456 17.7214 16.1357 17.4683 16.1357 19.4092C16.1357 20.5016 15.0906 21.3573 14.0153 22.1108H16.3797V23.0944Z" fill="#E6E3E3"/>
</svg>
