<?xml version="1.0" encoding="UTF-8" standalone="no"?>
<svg width="38" height="40" viewBox="0 0 38 40" fill="none" xmlns="http://www.w3.org/2000/svg">
    <path d="M13.16 4.49697L18.998 10.41L24.835 4.49597" stroke="#FFAEAE" stroke-width="2.523" stroke-linecap="round" stroke-linejoin="round"/>
    <path d="M34.693 27.396V16.059C34.693 11.332 31.949 8.57898 27.247 8.57898H11.32C6.54 8.57898 3.858 11.332 3.858 16.059V27.397C3.858 32.2 6.541 34.874 11.32 34.874H27.246C31.947 34.874 34.692 32.2 34.692 27.396H34.693Z" fill="#F76060"/>
    <path d="M21.414 25.5069L23.2 24.4669C25.502 23.13 25.502 20.9339 23.2 19.5969L21.414 18.5549L19.628 17.5139C17.325 16.1769 15.441 17.2609 15.441 19.9489V24.1149C15.441 26.7889 17.325 27.8869 19.628 26.5499L21.414 25.5079V25.5069Z" fill="white"/>
</svg>
