<?xml version="1.0" encoding="UTF-8" standalone="no"?>
<svg width="21" height="31" viewBox="0 0 21 31" fill="none" xmlns="http://www.w3.org/2000/svg">
   <path d="M15.1346 11.6261C18.4528 13.28 20.7249 16.6493 20.7249 20.5369C20.7249 26.0598 16.1391 30.5372 10.4824 30.5372C4.82568 30.5372 0.240479 26.0598 0.240479 20.5369C0.240479 16.7406 2.40704 13.4383 5.59942 11.7444C7.05054 10.9749 8.71402 10.5372 10.4824 10.5372C12.1574 10.5372 13.7389 10.9298 15.1346 11.6261Z" fill="#FFAD67"/>
   <path d="M10.4824 30.1278C7.85862 30.1278 5.39188 29.1302 3.53673 27.3187C1.68143 25.5073 0.659668 23.0987 0.659668 20.537C0.659668 17.0176 2.62931 13.7863 5.79966 12.104C7.22755 11.3468 8.84697 10.9465 10.4824 10.9465C12.054 10.9465 13.5551 11.2978 14.9438 11.9906C16.5321 12.7822 17.8718 13.9822 18.8185 15.4609C19.7914 16.9804 20.3056 18.7356 20.3056 20.537C20.3056 23.0987 19.2839 25.5073 17.4286 27.3187C15.5731 29.1302 13.1062 30.1278 10.4824 30.1278Z" fill="#F69C62"/>
   <path d="M10.4824 28.9583C8.17857 28.9583 6.01276 28.0823 4.38375 26.4917C2.75474 24.9011 1.85767 22.7863 1.85767 20.5369C1.85767 17.4467 3.58693 14.6096 6.37078 13.1325C7.62453 12.4675 9.04643 12.116 10.4824 12.116C11.8625 12.116 13.1804 12.4244 14.3998 13.0328C15.7943 13.7278 16.9707 14.7815 17.802 16.0799C18.6562 17.4141 19.1078 18.9552 19.1078 20.5369C19.1078 22.7863 18.2105 24.901 16.5815 26.4917C14.9524 28.0823 12.7863 28.9583 10.4824 28.9583Z" stroke="#BC7546" stroke-width="2.61099" stroke-miterlimit="10"/>
   <path d="M10.4827 26.2473C8.92035 26.2473 7.45185 25.6534 6.34721 24.575C5.24257 23.4963 4.63428 22.0624 4.63428 20.537C4.63428 18.4417 5.80695 16.5178 7.69447 15.5162C8.54479 15.0653 9.50886 14.8271 10.4827 14.8271C11.4184 14.8271 12.312 15.0361 13.139 15.4486C14.0845 15.9201 14.8822 16.6344 15.446 17.5148C16.0252 18.4195 16.3314 19.4646 16.3314 20.537C16.3314 22.0624 15.7229 23.4963 14.6183 24.575C13.5136 25.6534 12.0448 26.2473 10.4827 26.2473V26.2473Z" stroke="#F69C62" stroke-width="1.865" stroke-miterlimit="10"/>
   <path d="M10.4826 27.4904C8.5802 27.4904 6.79189 26.7671 5.44687 25.4537C4.10186 24.1403 3.36108 22.3944 3.36108 20.537C3.36108 17.9855 4.78898 15.6429 7.08757 14.4232C8.12282 13.8742 9.2967 13.5841 10.4826 13.5841C11.622 13.5841 12.7101 13.8388 13.7169 14.341C14.8684 14.915 15.8397 15.785 16.5261 16.8569C17.2315 17.9586 17.6042 19.2311 17.6042 20.537C17.6042 22.3942 16.8634 24.1403 15.5182 25.4537C14.1731 26.7671 12.3848 27.4904 10.4826 27.4904V27.4904Z" stroke="#BC7546" stroke-width="2.61099" stroke-miterlimit="10"/>
   <path d="M13.6098 10.1034V9.73382C13.6098 9.62686 13.5209 9.54009 13.4112 9.54009H7.18622C7.07667 9.54009 6.9878 9.62686 6.9878 9.73382V10.1034C6.9878 10.211 7.07667 10.2977 7.18622 10.2977H13.4112C13.5209 10.2977 13.6098 10.211 13.6098 10.1034ZM14.6362 9.82688C14.897 10.3946 15.0417 11.0059 15.0648 11.6262C13.6691 10.9298 12.0876 10.5371 10.4128 10.5371C8.64423 10.5371 6.98091 10.9749 5.52979 11.7444C5.53728 11.0836 5.68444 10.4307 5.96139 9.82688L6.09057 9.54565C6.23474 9.23078 6.53476 9.01057 6.88499 8.96272L7.26639 8.91034C9.27785 8.63541 11.3197 8.63541 13.3316 8.91034L13.7124 8.96272C14.0627 9.01057 14.3627 9.23078 14.507 9.54565L14.6362 9.82688Z" fill="#F69C62"/>
   <path d="M16.8004 4.29153e-05L13.2491 9.68268H11.2759L14.8168 0.00794506V4.29153e-05H16.8004Z" fill="#FF545F"/>
   <path d="M14.8167 4.29153e-05V0.00794506L11.2758 9.68268H9.32739L12.8682 0.00794506V4.29153e-05H14.8167Z" fill="#62DADC"/>
   <path d="M12.8681 4.29153e-05V0.00794506L9.3273 9.68268H7.33667L10.888 4.29153e-05H12.8681Z" fill="#AC748C"/>
   <path d="M20.0435 20.5373C20.0435 23.6909 17.425 26.2473 14.195 26.2473C10.965 26.2473 8.34644 23.6909 8.34644 20.5373C8.34644 17.3835 10.965 14.8271 14.195 14.8271C17.425 14.8271 20.0435 17.3835 20.0435 20.5373Z" fill="#F9C8A9"/>
   <path d="M3.78491 4.29153e-05L7.33621 9.68268H9.30945L5.76849 0.00794506V4.29153e-05H3.78491Z" fill="#AC748C"/>
   <path d="M5.76831 4.29153e-05V0.00794506L9.30927 9.68268H11.2576L7.71683 0.00794506V4.29153e-05H5.76831Z" fill="#62DADC"/>
   <path d="M7.71704 4.29153e-05V0.00794506L11.2578 9.68268H13.2485L9.69717 4.29153e-05H7.71704Z" fill="#FF545F"/>
   <path d="M19.6627 20.5373C19.6627 23.4854 17.2149 25.8755 14.1951 25.8755C11.1754 25.8755 8.72754 23.4854 8.72754 20.5373C8.72754 17.5889 11.1754 15.1988 14.1951 15.1988C17.2149 15.1988 19.6627 17.5889 19.6627 20.5373Z" fill="#FFAD67"/>
   <path d="M18.3585 20.5372C18.3585 22.7822 16.4943 24.6021 14.195 24.6021C11.8955 24.6021 10.0315 22.7822 10.0315 20.5372C10.0315 18.2921 11.8955 16.4722 14.195 16.4722C16.4943 16.4722 18.3585 18.2921 18.3585 20.5372Z" fill="#BC7546"/>
   <path d="M9.28178 18.7591C9.28178 18.7595 9.28193 18.7598 9.28193 18.7602C9.28163 18.785 9.28013 19.1399 9.3711 19.3756C9.46536 19.6201 9.38519 19.9997 9.38519 19.9997C9.38519 19.9997 9.12862 19.7142 9.11049 19.5054C9.08816 19.2542 9.27578 18.774 9.28178 18.7591Z" fill="#BC7546"/>
   <path d="M9.34134 18.9662C9.41216 19.1209 9.48502 19.2448 9.54618 19.4293C9.58189 19.537 9.52907 19.8128 9.44859 19.927C9.42225 19.9792 9.3826 19.9997 9.3826 19.9997C9.3826 19.9997 9.46088 19.6201 9.36885 19.3756C9.28003 19.1399 9.28149 18.785 9.28179 18.7602C9.28442 18.7737 9.30447 18.8855 9.34134 18.9662Z" fill="#F9C8A9"/>
   <path d="M10.1374 19.1024C10.1371 19.1027 10.1371 19.103 10.1368 19.1033C10.1198 19.1216 9.87871 19.3873 9.78744 19.623C9.69303 19.8674 9.37622 20.1008 9.37622 20.1008C9.37622 20.1008 9.37652 19.7211 9.50405 19.5525C9.65721 19.3494 10.1228 19.1096 10.1374 19.1024Z" fill="#BC7546"/>
   <path d="M10.0433 19.2973C9.99321 19.4603 9.96548 19.6014 9.8877 19.7805C9.8423 19.8849 9.61525 20.0572 9.47603 20.0898C9.42058 20.1116 9.37622 20.1008 9.37622 20.1008C9.37622 20.1008 9.69303 19.8674 9.78744 19.623C9.87871 19.3873 10.1198 19.1216 10.1368 19.1033C10.1296 19.1152 10.0695 19.2123 10.0433 19.2973Z" fill="#F9C8A9"/>
   <path d="M9.05539 19.6286C9.05539 19.6289 9.05554 19.6292 9.05569 19.6295C9.05899 19.654 9.11084 20.0053 9.23597 20.2257C9.36605 20.4541 9.34372 20.841 9.34372 20.841C9.34372 20.841 9.047 20.5953 8.99784 20.3913C8.93805 20.146 9.05149 19.6441 9.05539 19.6286Z" fill="#BC7546"/>
   <path d="M9.14678 19.8246C9.24179 19.9673 9.33411 20.0792 9.42372 20.2528C9.47618 20.3542 9.46404 20.6347 9.39945 20.7593C9.38072 20.8148 9.3437 20.841 9.3437 20.841C9.3437 20.841 9.36603 20.4541 9.23595 20.2257C9.11081 20.0053 9.05896 19.654 9.05566 19.6295C9.06031 19.6426 9.09732 19.7503 9.14678 19.8246Z" fill="#F9C8A9"/>
   <path d="M9.95343 19.8459C9.95313 19.8462 9.95313 19.8465 9.95283 19.8468C9.93889 19.8674 9.74018 20.1646 9.68533 20.4109C9.62853 20.6662 9.35008 20.9423 9.35008 20.9423C9.35008 20.9423 9.29344 20.5667 9.39429 20.3817C9.51538 20.1589 9.93994 19.8551 9.95343 19.8459Z" fill="#BC7546"/>
   <path d="M9.88945 20.0522C9.86443 20.2205 9.85813 20.3642 9.80793 20.5523C9.77886 20.6621 9.57999 20.865 9.44721 20.9171C9.39566 20.9467 9.3501 20.9423 9.3501 20.9423C9.3501 20.9423 9.62854 20.6662 9.68534 20.4108C9.74019 20.1646 9.93891 19.8674 9.95285 19.8468C9.9476 19.8597 9.90264 19.9644 9.88945 20.0522Z" fill="#F9C8A9"/>
   <path d="M8.96191 20.5725C8.96206 20.5728 8.96221 20.573 8.96236 20.5734C8.97151 20.5965 9.10518 20.9265 9.27932 21.1126C9.45991 21.3053 9.53004 21.6867 9.53004 21.6867C9.53004 21.6867 9.18311 21.5148 9.0869 21.3275C8.9706 21.1023 8.96191 20.5885 8.96191 20.5725Z" fill="#BC7546"/>
   <path d="M9.09743 20.7425C9.22376 20.8599 9.3402 20.9478 9.46849 21.0965C9.54342 21.1831 9.59827 21.4588 9.565 21.5947C9.5599 21.6529 9.53008 21.6867 9.53008 21.6867C9.53008 21.6867 9.45994 21.3053 9.27936 21.1126C9.10522 20.9265 8.97154 20.5965 8.9624 20.5734C8.97005 20.585 9.03164 20.6814 9.09743 20.7425Z" fill="#F9C8A9"/>
   <path d="M9.88723 20.5807C9.88708 20.5811 9.88708 20.5814 9.88693 20.5817C9.87823 20.605 9.7555 20.939 9.76044 21.191C9.76569 21.4522 9.56038 21.7839 9.56038 21.7839C9.56038 21.7839 9.41621 21.4311 9.47046 21.2284C9.5355 20.9842 9.87644 20.5928 9.88723 20.5807Z" fill="#BC7546"/>
   <path d="M9.87381 20.7959C9.8894 20.9654 9.91743 21.1064 9.91323 21.3009C9.91098 21.4143 9.76561 21.6566 9.64887 21.7373C9.60571 21.7777 9.5603 21.7839 9.5603 21.7839C9.5603 21.7839 9.76562 21.4522 9.76037 21.191C9.75543 20.939 9.87816 20.605 9.88685 20.5817C9.88476 20.5955 9.86587 20.7076 9.87381 20.7959Z" fill="#F9C8A9"/>
   <path d="M9.07104 21.4576C9.07119 21.458 9.07149 21.458 9.07164 21.4585C9.08318 21.4804 9.25328 21.7941 9.44735 21.9603C9.64846 22.1326 9.76101 22.5042 9.76101 22.5042C9.76101 22.5042 9.397 22.3705 9.28025 22.1947C9.13923 21.9833 9.07284 21.4735 9.07104 21.4576Z" fill="#BC7546"/>
   <path d="M9.22509 21.6123C9.36371 21.7153 9.48929 21.7902 9.63361 21.9241C9.71784 22.0022 9.80326 22.2704 9.78558 22.409C9.78707 22.4673 9.76115 22.5042 9.76115 22.5042C9.76115 22.5042 9.6486 22.1326 9.44748 21.9603C9.25341 21.7941 9.08332 21.4804 9.07178 21.4585C9.08062 21.4692 9.1527 21.5584 9.22509 21.6123Z" fill="#F9C8A9"/>
   <path d="M9.99169 21.3666C9.99154 21.367 9.99169 21.3673 9.99154 21.3678C9.9854 21.3918 9.90102 21.7369 9.93429 21.9868C9.96891 22.2458 9.80211 22.5976 9.80211 22.5976C9.80211 22.5976 9.61913 22.2625 9.6503 22.0552C9.68747 21.8056 9.98225 21.3798 9.99169 21.3666Z" fill="#BC7546"/>
   <path d="M10.0025 21.582C10.037 21.7488 10.0807 21.8859 10.0986 22.0796C10.1089 22.1926 9.99188 22.4491 9.88473 22.5418C9.84636 22.5866 9.802 22.5976 9.802 22.5976C9.802 22.5976 9.9688 22.2458 9.93418 21.9868C9.90091 21.7369 9.98529 21.3918 9.99143 21.3678C9.99083 21.3815 9.98469 21.4949 10.0025 21.582Z" fill="#F9C8A9"/>
   <path d="M9.31201 22.3257C9.31231 22.3262 9.31261 22.3262 9.31276 22.3264C9.32835 22.3461 9.55509 22.6235 9.77734 22.7516C10.0077 22.8845 10.1889 23.2292 10.1889 23.2292C10.1889 23.2292 9.80566 23.1638 9.6576 23.0122C9.47896 22.8301 9.31696 22.3411 9.31201 22.3257Z" fill="#BC7546"/>
   <path d="M9.49258 22.4498C9.64844 22.526 9.78601 22.5768 9.95326 22.6825C10.051 22.7439 10.1858 22.9919 10.1948 23.1314C10.2073 23.1884 10.1888 23.2292 10.1888 23.2292C10.1888 23.2292 10.0077 22.8845 9.77732 22.7516C9.55507 22.6235 9.32833 22.3461 9.31274 22.3264C9.32368 22.3354 9.41135 22.41 9.49258 22.4498Z" fill="#F9C8A9"/>
   <path d="M10.1994 22.0698C10.1994 22.0702 10.1995 22.0704 10.1995 22.0708C10.198 22.0955 10.1806 22.4501 10.2608 22.6896C10.3441 22.9378 10.247 23.3135 10.247 23.3135C10.247 23.3135 10.0035 23.0173 9.99481 22.8081C9.98372 22.556 10.1928 22.0844 10.1994 22.0698Z" fill="#BC7546"/>
   <path d="M10.2498 22.2793C10.3137 22.4369 10.381 22.5639 10.434 22.7509C10.465 22.86 10.4002 23.1332 10.3148 23.2438C10.2862 23.2947 10.2457 23.3135 10.2457 23.3135C10.2457 23.3135 10.3405 22.9378 10.2592 22.6896C10.1809 22.4501 10.1979 22.0955 10.1993 22.0708C10.2014 22.0844 10.2164 22.1971 10.2498 22.2793Z" fill="#F9C8A9"/>
   <path d="M9.6875 23.1218C9.6878 23.1221 9.6881 23.1221 9.6884 23.1224C9.70728 23.1389 9.98018 23.3734 10.2219 23.4616C10.4726 23.553 10.7129 23.8614 10.7129 23.8614C10.7129 23.8614 10.3238 23.8626 10.1509 23.7386C9.94227 23.5897 9.69499 23.1361 9.6875 23.1218Z" fill="#BC7546"/>
   <path d="M9.88764 23.2131C10.0546 23.2614 10.1994 23.288 10.3829 23.3632C10.4901 23.4071 10.6672 23.6282 10.7012 23.764C10.7237 23.8181 10.7129 23.8615 10.7129 23.8615C10.7129 23.8615 10.4727 23.553 10.222 23.4616C9.98026 23.3734 9.70736 23.1389 9.68848 23.1224C9.70062 23.1294 9.80042 23.1878 9.88764 23.2131Z" fill="#F9C8A9"/>
   <path d="M10.5152 22.7181C10.5152 22.7185 10.5155 22.7187 10.5155 22.7191C10.5185 22.7437 10.565 23.0958 10.6869 23.3177C10.8134 23.5481 10.7851 23.9345 10.7851 23.9345C10.7851 23.9345 10.4923 23.6845 10.4461 23.48C10.3902 23.2337 10.5113 22.7336 10.5152 22.7181Z" fill="#BC7546"/>
   <path d="M10.6037 22.9155C10.6964 23.0595 10.7871 23.1727 10.874 23.3475C10.925 23.4497 10.9085 23.73 10.8421 23.8538C10.8226 23.909 10.785 23.9345 10.785 23.9345C10.785 23.9345 10.8133 23.5481 10.6868 23.3177C10.5648 23.0958 10.5184 22.7437 10.5154 22.7191C10.5199 22.7321 10.5552 22.8404 10.6037 22.9155Z" fill="#F9C8A9"/>
   <path d="M10.302 23.9166C10.3025 23.9168 10.3028 23.9168 10.3031 23.9169C10.3254 23.9285 10.6488 24.0909 10.9052 24.119C11.1712 24.148 11.4811 24.39 11.4811 24.39C11.4811 24.39 11.1041 24.4835 10.9053 24.4044C10.6659 24.3098 10.3129 23.9286 10.302 23.9166Z" fill="#BC7546"/>
   <path d="M10.5188 23.9575C10.6929 23.9647 10.8398 23.956 11.0366 23.9853C11.1515 24.0024 11.3785 24.1746 11.4454 24.2983C11.4807 24.3452 11.481 24.39 11.481 24.39C11.481 24.39 11.1711 24.148 10.9051 24.119C10.6487 24.0909 10.3253 23.9285 10.303 23.9169C10.3166 23.9208 10.428 23.9537 10.5188 23.9575Z" fill="#F9C8A9"/>
   <path d="M11.0037 23.3281C11.0038 23.3284 11.0041 23.3286 11.0043 23.329C11.0133 23.3522 11.1462 23.6825 11.3199 23.8688C11.5 24.0621 11.5692 24.4437 11.5692 24.4437C11.5692 24.4437 11.2228 24.2709 11.127 24.0835C11.0112 23.858 11.0038 23.3441 11.0037 23.3281Z" fill="#BC7546"/>
   <path d="M11.139 23.4986C11.265 23.6161 11.3811 23.7043 11.5091 23.8533C11.5839 23.9401 11.638 24.2158 11.6046 24.3518C11.5993 24.4099 11.5694 24.4437 11.5694 24.4437C11.5694 24.4437 11.5001 24.0621 11.32 23.8688C11.1463 23.6825 11.0134 23.3522 11.0044 23.329C11.012 23.3407 11.0733 23.4372 11.139 23.4986Z" fill="#F9C8A9"/>
   <path d="M10.9719 24.4858C10.9724 24.4861 10.9727 24.4859 10.973 24.4862C10.9958 24.4969 11.3249 24.6478 11.5823 24.6667C11.8491 24.6861 12.1678 24.917 12.1678 24.917C12.1678 24.917 11.7947 25.0239 11.5931 24.952C11.3502 24.8658 10.9833 24.4975 10.9719 24.4858Z" fill="#BC7546"/>
   <path d="M11.1901 24.519C11.3643 24.5199 11.5108 24.5061 11.7086 24.5284C11.824 24.5414 12.0575 24.7054 12.1286 24.8266C12.1658 24.8724 12.1678 24.917 12.1678 24.917C12.1678 24.917 11.849 24.6861 11.5822 24.6667C11.3248 24.6478 10.9957 24.4969 10.9729 24.4862C10.9867 24.4895 11.0992 24.5184 11.1901 24.519Z" fill="#F9C8A9"/>
   <path d="M11.6514 23.8729C11.6515 23.8731 11.6518 23.8733 11.652 23.8737C11.6619 23.8964 11.8069 24.222 11.9875 24.4019C12.1747 24.5886 12.258 24.9674 12.258 24.9674C12.258 24.9674 11.9054 24.8072 11.8026 24.6233C11.6785 24.4021 11.652 23.8888 11.6514 23.8729Z" fill="#BC7546"/>
   <path d="M11.793 24.0383C11.9232 24.1513 12.0426 24.2354 12.176 24.3797C12.2539 24.4638 12.3182 24.7375 12.2899 24.8744C12.2869 24.9327 12.2581 24.9674 12.2581 24.9674C12.2581 24.9674 12.1748 24.5886 11.9876 24.4019C11.8071 24.222 11.662 23.8964 11.6521 23.8737C11.6602 23.885 11.7251 23.9793 11.793 24.0383Z" fill="#F9C8A9"/>
   <path d="M11.833 25.0255C11.8335 25.0255 11.8338 25.0254 11.8342 25.0255C11.8591 25.0298 12.2177 25.0885 12.4707 25.0388C12.7331 24.9874 13.1037 25.1258 13.1037 25.1258C13.1037 25.1258 12.7738 25.327 12.56 25.3108C12.3022 25.2919 11.8471 25.0338 11.833 25.0255Z" fill="#BC7546"/>
   <path d="M12.0523 24.9999C12.2204 24.955 12.3575 24.903 12.5543 24.8725C12.669 24.8545 12.939 24.9512 13.0412 25.0491C13.0895 25.0833 13.1037 25.1257 13.1037 25.1257C13.1037 25.1257 12.7331 24.9873 12.4707 25.0388C12.2177 25.0884 11.8591 25.0298 11.8342 25.0255C11.8483 25.0251 11.9646 25.0233 12.0523 24.9999Z" fill="#F9C8A9"/>
   <path d="M12.8438 25.3699C12.8442 25.3699 12.8443 25.3698 12.8448 25.3698C12.8701 25.3699 13.2337 25.369 13.4747 25.2789C13.7245 25.1852 14.1137 25.261 14.1137 25.261C14.1137 25.261 13.823 25.5134 13.6092 25.5323C13.3521 25.5557 12.859 25.3756 12.8438 25.3699Z" fill="#BC7546"/>
   <path d="M13.0557 25.3089C13.2136 25.237 13.3401 25.1634 13.5286 25.101C13.6388 25.0646 13.9216 25.1157 14.0391 25.1956C14.0926 25.2215 14.1139 25.261 14.1139 25.261C14.1139 25.261 13.7247 25.1852 13.4748 25.2789C13.2339 25.369 12.8703 25.3698 12.845 25.3697C12.8589 25.3669 12.9733 25.3463 13.0557 25.3089Z" fill="#F9C8A9"/>
   <path d="M12.3181 24.2562C12.3184 24.2567 12.3187 24.2567 12.319 24.257C12.3348 24.2763 12.5645 24.5515 12.7879 24.6774C13.0199 24.8078 13.2047 25.1507 13.2047 25.1507C13.2047 25.1507 12.8209 25.0892 12.6712 24.9391C12.4905 24.7589 12.3232 24.2716 12.3181 24.2562Z" fill="#BC7546"/>
   <path d="M12.4999 24.3784C12.6566 24.453 12.7948 24.5025 12.9631 24.6062C13.0614 24.6668 13.199 24.9134 13.2095 25.0528C13.2225 25.1097 13.2045 25.1507 13.2045 25.1507C13.2045 25.1507 13.0198 24.8078 12.7878 24.6774C12.5643 24.5515 12.3346 24.2763 12.3188 24.257C12.3296 24.2659 12.4182 24.3395 12.4999 24.3784Z" fill="#F9C8A9"/>
   <path d="M13.1758 24.6188C13.1759 24.6191 13.1762 24.6191 13.1765 24.6194C13.1932 24.6335 13.4341 24.8366 13.6466 24.9118C13.8668 24.9899 14.0798 25.2579 14.0798 25.2579C14.0798 25.2579 13.7393 25.262 13.5867 25.155C13.4028 25.0264 13.1824 24.6312 13.1758 24.6188Z" fill="#BC7546"/>
   <path d="M13.3516 24.697C13.4983 24.738 13.6252 24.76 13.7866 24.8245C13.8807 24.8619 14.0379 25.0541 14.0686 25.1727C14.0889 25.2198 14.0797 25.2579 14.0797 25.2579C14.0797 25.2579 13.8668 24.9898 13.6466 24.9118C13.4341 24.8366 13.1931 24.6335 13.1765 24.6194C13.1873 24.6254 13.2751 24.6757 13.3516 24.697Z" fill="#F9C8A9"/>
   <path d="M13.552 25.5937C13.5522 25.5935 13.5521 25.5934 13.5524 25.5934C13.5641 25.5877 13.7321 25.506 13.8224 25.4105C13.9159 25.3113 14.1137 25.2593 14.1137 25.2593C14.1137 25.2593 14.0385 25.4409 13.944 25.4976C13.8306 25.5659 13.5604 25.5929 13.552 25.5937Z" fill="#BC7546"/>
   <path d="M13.6355 25.518C13.6917 25.4496 13.7329 25.3873 13.8056 25.3163C13.8479 25.2747 13.9907 25.2351 14.0638 25.2458C14.0945 25.2458 14.1137 25.2594 14.1137 25.2594C14.1137 25.2594 13.9159 25.3113 13.8224 25.4105C13.7322 25.506 13.5642 25.5877 13.5525 25.5934C13.5582 25.589 13.6063 25.5538 13.6355 25.518Z" fill="#F9C8A9"/>
   <path d="M19.1083 18.7591C19.1083 18.7595 19.1082 18.7598 19.1082 18.7602C19.1085 18.785 19.11 19.1399 19.019 19.3756C18.9248 19.6201 19.0049 19.9997 19.0049 19.9997C19.0049 19.9997 19.2615 19.7142 19.2796 19.5054C19.3018 19.2542 19.1143 18.774 19.1083 18.7591Z" fill="#BC7546"/>
   <path d="M19.0421 18.9662C18.9713 19.1209 18.8984 19.2448 18.8373 19.4293C18.8016 19.537 18.8544 19.8128 18.9349 19.927C18.9612 19.9792 19.0009 19.9997 19.0009 19.9997C19.0009 19.9997 18.9226 19.6201 19.0146 19.3756C19.1034 19.1399 19.102 18.785 19.1017 18.7602C19.0991 18.7737 19.079 18.8855 19.0421 18.9662Z" fill="#F9C8A9"/>
   <path d="M18.2529 19.1024C18.2532 19.1027 18.2532 19.103 18.2535 19.1033C18.2705 19.1216 18.5116 19.3873 18.6027 19.623C18.6973 19.8674 19.0141 20.1008 19.0141 20.1008C19.0141 20.1008 19.0138 19.7211 18.8862 19.5525C18.7331 19.3494 18.2675 19.1096 18.2529 19.1024Z" fill="#BC7546"/>
   <path d="M18.3469 19.2973C18.397 19.4603 18.4247 19.6014 18.5025 19.7805C18.5479 19.8849 18.7749 20.0572 18.9142 20.0898C18.9696 20.1116 19.014 20.1008 19.014 20.1008C19.014 20.1008 18.6972 19.8674 18.6026 19.623C18.5115 19.3873 18.2704 19.1216 18.2534 19.1033C18.2605 19.1152 18.3207 19.2123 18.3469 19.2973Z" fill="#F9C8A9"/>
   <path d="M19.3347 19.6286C19.3347 19.6289 19.3344 19.6292 19.3344 19.6295C19.3311 19.654 19.2793 20.0053 19.154 20.2257C19.0241 20.4541 19.0464 20.841 19.0464 20.841C19.0464 20.841 19.343 20.5953 19.3923 20.3913C19.4521 20.146 19.3385 19.6441 19.3347 19.6286Z" fill="#BC7546"/>
   <path d="M19.2434 19.8246C19.1484 19.9673 19.0559 20.0792 18.9663 20.2528C18.914 20.3542 18.9261 20.6347 18.9906 20.7593C19.0095 20.8148 19.0465 20.841 19.0465 20.841C19.0465 20.841 19.0241 20.4541 19.1541 20.2257C19.2794 20.0053 19.3312 19.654 19.3345 19.6295C19.3299 19.6426 19.2928 19.7503 19.2434 19.8246Z" fill="#F9C8A9"/>
   <path d="M18.4368 19.8459C18.4371 19.8462 18.4371 19.8465 18.4372 19.8468C18.4513 19.8674 18.65 20.1646 18.7049 20.4109C18.7617 20.6662 19.0401 20.9423 19.0401 20.9423C19.0401 20.9423 19.0968 20.5667 18.9958 20.3817C18.8747 20.1589 18.4501 19.8551 18.4368 19.8459Z" fill="#BC7546"/>
   <path d="M18.5008 20.0522C18.5258 20.2205 18.5321 20.3642 18.5822 20.5523C18.6114 20.6621 18.8103 20.865 18.943 20.9171C18.9946 20.9467 19.0402 20.9423 19.0402 20.9423C19.0402 20.9423 18.7617 20.6662 18.7049 20.4108C18.6501 20.1646 18.4513 19.8674 18.4373 19.8468C18.4427 19.8597 18.4876 19.9644 18.5008 20.0522Z" fill="#F9C8A9"/>
   <path d="M19.4282 20.5725C19.4281 20.5728 19.4278 20.573 19.4278 20.5734C19.4186 20.5965 19.285 20.9265 19.1108 21.1126C18.9301 21.3053 18.8601 21.6867 18.8601 21.6867C18.8601 21.6867 19.2069 21.5148 19.3033 21.3275C19.4195 21.1023 19.4282 20.5885 19.4282 20.5725Z" fill="#BC7546"/>
   <path d="M19.2925 20.7425C19.1664 20.8599 19.0499 20.9478 18.9216 21.0965C18.8467 21.1831 18.7919 21.4588 18.8251 21.5947C18.8302 21.6529 18.86 21.6867 18.86 21.6867C18.86 21.6867 18.93 21.3053 19.1108 21.1126C19.2849 20.9265 19.4186 20.5965 19.4277 20.5734C19.4199 20.585 19.3583 20.6814 19.2925 20.7425Z" fill="#F9C8A9"/>
   <path d="M18.5029 20.5807C18.5031 20.5811 18.5029 20.5814 18.5032 20.5817C18.5119 20.605 18.6347 20.939 18.6297 21.191C18.6243 21.4522 18.8298 21.7839 18.8298 21.7839C18.8298 21.7839 18.9739 21.4311 18.9197 21.2284C18.8547 20.9842 18.5137 20.5928 18.5029 20.5807Z" fill="#BC7546"/>
   <path d="M18.5163 20.7959C18.5008 20.9654 18.4728 21.1064 18.477 21.3009C18.4792 21.4143 18.6244 21.6566 18.7413 21.7373C18.7845 21.7777 18.8299 21.7839 18.8299 21.7839C18.8299 21.7839 18.6244 21.4522 18.6298 21.191C18.6348 20.939 18.5121 20.605 18.5034 20.5817C18.5053 20.5955 18.5243 20.7076 18.5163 20.7959Z" fill="#F9C8A9"/>
   <path d="M19.3189 21.4576C19.3187 21.458 19.3184 21.458 19.3183 21.4585C19.3066 21.4804 19.1366 21.7941 18.9426 21.9603C18.7413 22.1326 18.6289 22.5042 18.6289 22.5042C18.6289 22.5042 18.9929 22.3705 19.1097 22.1947C19.2507 21.9833 19.3171 21.4735 19.3189 21.4576Z" fill="#BC7546"/>
   <path d="M19.165 21.6123C19.0264 21.7153 18.9008 21.7902 18.7565 21.9241C18.6722 22.0022 18.5868 22.2704 18.6044 22.409C18.603 22.4673 18.6289 22.5042 18.6289 22.5042C18.6289 22.5042 18.7413 22.1326 18.9426 21.9603C19.1367 21.7941 19.3066 21.4804 19.3183 21.4585C19.3093 21.4692 19.2372 21.5584 19.165 21.6123Z" fill="#F9C8A9"/>
   <path d="M18.3987 21.3666C18.3988 21.367 18.3987 21.3673 18.3988 21.3678C18.405 21.3918 18.4893 21.7369 18.4561 21.9868C18.4213 22.2458 18.5881 22.5976 18.5881 22.5976C18.5881 22.5976 18.7712 22.2625 18.7401 22.0552C18.7029 21.8056 18.4081 21.3798 18.3987 21.3666Z" fill="#BC7546"/>
   <path d="M18.3877 21.582C18.3531 21.7488 18.3095 21.8859 18.2917 22.0796C18.2812 22.1926 18.3984 22.4491 18.5054 22.5418C18.5437 22.5866 18.5881 22.5976 18.5881 22.5976C18.5881 22.5976 18.4213 22.2458 18.4561 21.9868C18.4893 21.7369 18.405 21.3918 18.3988 21.3678C18.3994 21.3815 18.4056 21.4949 18.3877 21.582Z" fill="#F9C8A9"/>
   <path d="M19.0781 22.3257C19.078 22.3262 19.0777 22.3262 19.0774 22.3264C19.0618 22.3461 18.8352 22.6235 18.6129 22.7516C18.3824 22.8845 18.2014 23.2292 18.2014 23.2292C18.2014 23.2292 18.5845 23.1638 18.7327 23.0122C18.9113 22.8301 19.0733 22.3411 19.0781 22.3257Z" fill="#BC7546"/>
   <path d="M18.8977 22.4498C18.7419 22.526 18.6042 22.5768 18.4369 22.6825C18.3393 22.7439 18.2045 22.9919 18.1955 23.1314C18.183 23.1884 18.2015 23.2292 18.2015 23.2292C18.2015 23.2292 18.3825 22.8845 18.613 22.7516C18.8352 22.6235 19.0618 22.3461 19.0774 22.3264C19.0666 22.3354 18.979 22.41 18.8977 22.4498Z" fill="#F9C8A9"/>
   <path d="M18.1911 22.0698C18.1912 22.0702 18.1909 22.0704 18.1911 22.0708C18.1926 22.0955 18.2099 22.4501 18.1296 22.6896C18.0464 22.9378 18.1436 23.3135 18.1436 23.3135C18.1436 23.3135 18.3871 23.0173 18.3958 22.8081C18.4067 22.556 18.1978 22.0844 18.1911 22.0698Z" fill="#BC7546"/>
   <path d="M18.1345 22.2793C18.0705 22.4369 18.0031 22.5639 17.9503 22.7509C17.9192 22.86 17.9841 23.1332 18.0695 23.2438C18.098 23.2947 18.1386 23.3135 18.1386 23.3135C18.1386 23.3135 18.0438 22.9378 18.125 22.6896C18.2034 22.4501 18.1864 22.0955 18.185 22.0708C18.1829 22.0844 18.1678 22.1971 18.1345 22.2793Z" fill="#F9C8A9"/>
   <path d="M18.7026 23.1218C18.7023 23.1221 18.702 23.1221 18.7017 23.1224C18.6828 23.1389 18.4099 23.3734 18.1682 23.4616C17.9175 23.553 17.6772 23.8614 17.6772 23.8614C17.6772 23.8614 18.0663 23.8626 18.2392 23.7386C18.4478 23.5897 18.6951 23.1361 18.7026 23.1218Z" fill="#BC7546"/>
   <path d="M18.5027 23.2131C18.3356 23.2614 18.191 23.288 18.0074 23.3632C17.9002 23.4071 17.723 23.6282 17.6891 23.764C17.6666 23.8181 17.6774 23.8615 17.6774 23.8615C17.6774 23.8615 17.9176 23.553 18.1683 23.4616C18.4101 23.3734 18.683 23.1389 18.7019 23.1224C18.6896 23.1294 18.5899 23.1878 18.5027 23.2131Z" fill="#F9C8A9"/>
   <path d="M17.875 22.7181C17.875 22.7185 17.8747 22.7187 17.8747 22.7191C17.8717 22.7437 17.8253 23.0958 17.7033 23.3177C17.5768 23.5481 17.605 23.9345 17.605 23.9345C17.605 23.9345 17.898 23.6845 17.944 23.48C18 23.2337 17.8789 22.7336 17.875 22.7181Z" fill="#BC7546"/>
   <path d="M17.7867 22.9155C17.6939 23.0595 17.6031 23.1727 17.5162 23.3475C17.4654 23.4497 17.4817 23.73 17.5481 23.8538C17.5677 23.909 17.6052 23.9345 17.6052 23.9345C17.6052 23.9345 17.577 23.5481 17.7035 23.3177C17.8255 23.0958 17.8719 22.7437 17.8749 22.7191C17.8704 22.7321 17.8349 22.8404 17.7867 22.9155Z" fill="#F9C8A9"/>
   <path d="M18.0883 23.9166C18.0878 23.9168 18.0875 23.9168 18.0872 23.9169C18.0648 23.9285 17.7415 24.0909 17.4851 24.119C17.2191 24.148 16.9092 24.39 16.9092 24.39C16.9092 24.39 17.2861 24.4835 17.485 24.4044C17.7243 24.3098 18.0774 23.9286 18.0883 23.9166Z" fill="#BC7546"/>
   <path d="M17.8714 23.9575C17.6973 23.9647 17.5504 23.956 17.3535 23.9853C17.2387 24.0024 17.0117 24.1746 16.9448 24.2983C16.9095 24.3452 16.9092 24.39 16.9092 24.39C16.9092 24.39 17.2191 24.148 17.4851 24.119C17.7415 24.0909 18.0648 23.9285 18.0872 23.9169C18.0736 23.9208 17.9623 23.9537 17.8714 23.9575Z" fill="#F9C8A9"/>
   <path d="M17.3862 23.3281C17.3861 23.3284 17.3859 23.3286 17.3858 23.329C17.3768 23.3522 17.2437 23.6825 17.0702 23.8688C16.8899 24.0621 16.8208 24.4437 16.8208 24.4437C16.8208 24.4437 17.1673 24.2709 17.263 24.0835C17.3789 23.858 17.3862 23.3441 17.3862 23.3281Z" fill="#BC7546"/>
   <path d="M17.2514 23.4986C17.1253 23.6161 17.0092 23.7043 16.8812 23.8533C16.8064 23.9401 16.7523 24.2158 16.7857 24.3518C16.791 24.4099 16.8209 24.4437 16.8209 24.4437C16.8209 24.4437 16.89 24.0621 17.0703 23.8688C17.2439 23.6825 17.3769 23.3522 17.3859 23.329C17.3783 23.3407 17.317 23.4372 17.2514 23.4986Z" fill="#F9C8A9"/>
   <path d="M17.4182 24.4858C17.4179 24.4861 17.4176 24.4859 17.4173 24.4862C17.3943 24.4969 17.0652 24.6478 16.8079 24.6667C16.5412 24.6861 16.2224 24.917 16.2224 24.917C16.2224 24.917 16.5956 25.0239 16.7971 24.952C17.0399 24.8658 17.4069 24.4975 17.4182 24.4858Z" fill="#BC7546"/>
   <path d="M17.2001 24.519C17.0258 24.5199 16.8793 24.5061 16.6816 24.5284C16.566 24.5414 16.3327 24.7054 16.2614 24.8266C16.2244 24.8724 16.2224 24.917 16.2224 24.917C16.2224 24.917 16.5412 24.6861 16.8079 24.6667C17.0652 24.6478 17.3943 24.4969 17.4173 24.4862C17.4035 24.4895 17.2909 24.5184 17.2001 24.519Z" fill="#F9C8A9"/>
   <path d="M16.7387 23.8729C16.7386 23.8731 16.7383 23.8733 16.7381 23.8737C16.7282 23.8964 16.583 24.222 16.4026 24.4019C16.2154 24.5886 16.1321 24.9674 16.1321 24.9674C16.1321 24.9674 16.4847 24.8072 16.5874 24.6233C16.7116 24.4021 16.7381 23.8888 16.7387 23.8729Z" fill="#BC7546"/>
   <path d="M16.5971 24.0383C16.4669 24.1513 16.3474 24.2354 16.214 24.3797C16.136 24.4638 16.0717 24.7375 16.1001 24.8744C16.1031 24.9327 16.1319 24.9674 16.1319 24.9674C16.1319 24.9674 16.2152 24.5886 16.4024 24.4019C16.5828 24.222 16.7281 23.8964 16.738 23.8737C16.7299 23.885 16.665 23.9793 16.5971 24.0383Z" fill="#F9C8A9"/>
   <path d="M16.5569 25.0255C16.5566 25.0255 16.5563 25.0254 16.5559 25.0255C16.531 25.0298 16.1724 25.0885 15.9194 25.0388C15.657 24.9874 15.2864 25.1258 15.2864 25.1258C15.2864 25.1258 15.6162 25.327 15.8301 25.3108C16.0877 25.2919 16.5428 25.0338 16.5569 25.0255Z" fill="#BC7546"/>
   <path d="M16.3377 24.9999C16.1697 24.955 16.0324 24.903 15.8358 24.8725C15.7211 24.8545 15.4511 24.9512 15.3489 25.0491C15.3005 25.0833 15.2864 25.1257 15.2864 25.1257C15.2864 25.1257 15.657 24.9873 15.9194 25.0388C16.1724 25.0884 16.531 25.0298 16.5559 25.0255C16.5418 25.0251 16.4255 25.0233 16.3377 24.9999Z" fill="#F9C8A9"/>
   <path d="M16.072 24.2562C16.0718 24.2567 16.0715 24.2567 16.0712 24.257C16.0555 24.2763 15.8258 24.5515 15.6022 24.6774C15.3703 24.8078 15.1855 25.1507 15.1855 25.1507C15.1855 25.1507 15.5693 25.0892 15.7191 24.9391C15.8996 24.7589 16.067 24.2716 16.072 24.2562Z" fill="#BC7546"/>
   <path d="M15.8901 24.3784C15.7334 24.453 15.5952 24.5025 15.4269 24.6062C15.3286 24.6668 15.191 24.9134 15.1805 25.0528C15.1675 25.1097 15.1855 25.1507 15.1855 25.1507C15.1855 25.1507 15.3702 24.8078 15.6021 24.6774C15.8257 24.5515 16.0554 24.2763 16.0712 24.257C16.0602 24.2659 15.9718 24.3395 15.8901 24.3784Z" fill="#F9C8A9"/>
   <path d="M15.6833 25.3679C15.683 25.3679 15.6827 25.3678 15.6823 25.3678C15.657 25.3678 15.2934 25.3646 15.0532 25.2727C14.804 25.1774 14.4143 25.2506 14.4143 25.2506C14.4143 25.2506 14.7031 25.5049 14.9168 25.5252C15.1738 25.5504 15.6681 25.3737 15.6833 25.3679Z" fill="#BC7546"/>
   <path d="M15.472 25.3056C15.3147 25.2326 15.1888 25.1582 15.0006 25.0947C14.8907 25.0575 14.6076 25.1066 14.4895 25.1856C14.4359 25.2113 14.4143 25.2506 14.4143 25.2506C14.4143 25.2506 14.804 25.1775 15.0532 25.2727C15.2934 25.3646 15.657 25.3678 15.6823 25.3678C15.6685 25.365 15.5542 25.3435 15.472 25.3056Z" fill="#F9C8A9"/>
   <path d="M15.2144 24.6188C15.2141 24.6191 15.214 24.6191 15.2137 24.6194C15.197 24.6335 14.9561 24.8366 14.7436 24.9118C14.5233 24.9899 14.3103 25.2579 14.3103 25.2579C14.3103 25.2579 14.6509 25.262 14.8035 25.155C14.9874 25.0264 15.2078 24.6312 15.2144 24.6188Z" fill="#BC7546"/>
   <path d="M15.0386 24.697C14.8919 24.738 14.7651 24.76 14.6037 24.8245C14.5094 24.8619 14.3524 25.0541 14.3215 25.1727C14.3013 25.2198 14.3104 25.2579 14.3104 25.2579C14.3104 25.2579 14.5234 24.9898 14.7437 24.9118C14.9562 24.8366 15.1971 24.6335 15.2138 24.6194C15.203 24.6254 15.1152 24.6757 15.0386 24.697Z" fill="#F9C8A9"/>
   <path d="M14.8381 25.5937C14.8379 25.5935 14.8379 25.5934 14.8376 25.5934C14.8259 25.5877 14.6579 25.506 14.5677 25.4105C14.474 25.3113 14.2764 25.2593 14.2764 25.2593C14.2764 25.2593 14.3516 25.4409 14.446 25.4976C14.5595 25.5659 14.8297 25.5929 14.8381 25.5937Z" fill="#BC7546"/>
   <path d="M14.7544 25.518C14.6982 25.4496 14.6572 25.3873 14.5845 25.3163C14.5421 25.2747 14.3994 25.2351 14.3263 25.2458C14.2954 25.2458 14.2764 25.2594 14.2764 25.2594C14.2764 25.2594 14.474 25.3113 14.5677 25.4105C14.6579 25.506 14.8259 25.5877 14.8376 25.5934C14.8319 25.589 14.7838 25.5538 14.7544 25.518Z" fill="#F9C8A9"/>
   <path d="M11.737 13.1644C9.00531 13.7033 6.93211 15.2942 5.76003 17.2237C4.79447 18.8114 4.6575 20.0882 5.06572 21.6022C7.03807 29.234 9.83885 25.2221 13.602 28.9409C13.6343 28.9734 13.6292 29.0148 13.6025 29.0394L13.3163 29.3019C13.29 29.326 13.2476 29.3277 13.2191 29.299C10.8987 27.0305 9.09868 27.8939 7.25282 26.6364C5.68585 25.5557 5.00757 23.2987 4.58017 21.421C4.16355 19.5803 4.72898 17.9367 5.92908 16.3919C6.00086 16.2962 6.22746 16.0334 6.26492 15.9925C7.73718 14.427 9.45655 13.42 11.737 13.1644Z" fill="#BC7546"/>
   <path d="M3.66842 15.3233C3.66827 15.3247 3.66872 15.3254 3.66842 15.3266C3.65568 15.4032 3.48409 16.5049 3.65523 17.2779C3.83297 18.0794 3.40541 19.2219 3.40541 19.2219C3.40541 19.2219 2.74302 18.2205 2.78513 17.5641C2.83428 16.7737 3.64264 15.3668 3.66842 15.3233Z" fill="#BC7546"/>
   <path d="M3.76069 15.9939C3.91325 16.5068 4.08664 16.925 4.19409 17.5262C4.25704 17.8769 3.95926 18.7089 3.64934 19.0265C3.54129 19.1764 3.40552 19.2219 3.40552 19.2219C3.40552 19.2219 3.83307 18.0794 3.65534 17.2779C3.48419 16.5049 3.65579 15.4032 3.66853 15.3266C3.67047 15.37 3.68156 15.7263 3.76069 15.9939Z" fill="#F9C8A9"/>
   <path d="M5.39469 16.6542C5.39409 16.6554 5.39454 16.6561 5.39394 16.6575C5.36741 16.7306 4.9983 17.7848 5.02618 18.5754C5.0554 19.3949 4.42688 20.4451 4.42688 20.4451C4.42688 20.4451 3.95721 19.3449 4.11801 18.7062C4.30998 17.9369 5.36127 16.6924 5.39469 16.6542Z" fill="#BC7546"/>
   <path d="M5.36349 17.3301C5.42044 17.8612 5.51501 18.3028 5.51141 18.9131C5.50961 19.2691 5.06527 20.0364 4.70245 20.2952C4.56892 20.4239 4.427 20.4451 4.427 20.4451C4.427 20.4451 5.05553 19.3949 5.0263 18.5754C4.99843 17.7848 5.36754 16.7306 5.39407 16.6575C5.38822 16.7005 5.33427 17.0531 5.36349 17.3301Z" fill="#F9C8A9"/>
   <path d="M1.95312 17.4274C1.95357 17.4284 1.95432 17.4287 1.95477 17.4297C1.9837 17.4894 2.40811 18.342 2.9103 18.8031C3.43122 19.2808 3.69663 20.2828 3.69663 20.2828C3.69663 20.2828 2.73736 19.8934 2.44228 19.4136C2.0859 18.8367 1.95657 17.4699 1.95312 17.4274Z" fill="#BC7546"/>
   <path d="M2.34918 17.8537C2.7096 18.1411 3.0378 18.3524 3.41036 18.723C3.62796 18.939 3.83072 19.6624 3.77062 20.031C3.76913 20.1869 3.69644 20.2828 3.69644 20.2828C3.69644 20.2828 3.43104 19.2808 2.91011 18.8031C2.40792 18.342 1.98351 17.4894 1.95459 17.4297C1.97737 17.4591 2.16125 17.7036 2.34918 17.8537Z" fill="#F9C8A9"/>
   <path d="M1.65332 19.8492C1.65392 19.8501 1.65482 19.8503 1.65557 19.8513C1.70053 19.9053 2.35438 20.6754 2.98755 21.0249C3.6441 21.387 4.17326 22.3491 4.17326 22.3491C4.17326 22.3491 3.0902 22.1846 2.66459 21.7653C2.15116 21.2612 1.66771 19.8921 1.65332 19.8492Z" fill="#BC7546"/>
   <path d="M2.1688 20.1893C2.61209 20.3956 3.00263 20.5318 3.47965 20.8204C3.75809 20.9886 4.15163 21.6803 4.18475 22.0728C4.22312 22.2329 4.17321 22.3491 4.17321 22.3491C4.17321 22.3491 3.64405 21.387 2.9875 21.0249C2.35433 20.6754 1.70048 19.9053 1.65552 19.8513C1.68639 19.8757 1.93771 20.0814 2.1688 20.1893Z" fill="#F9C8A9"/>
   <path d="M3.96868 18.8999C3.96868 18.9012 3.96943 18.902 3.96943 18.9033C3.97482 18.9835 4.06399 20.135 4.42126 20.8767C4.79187 21.6457 4.63242 22.8966 4.63242 22.8966C4.63242 22.8966 3.72485 22.0358 3.61081 21.3633C3.47203 20.554 3.95294 18.9497 3.96868 18.8999Z" fill="#BC7546"/>
   <path d="M4.2217 19.5562C4.49805 20.0394 4.77275 20.4224 5.02452 21.005C5.17183 21.3449 5.06948 22.2528 4.83209 22.6439C4.75881 22.8196 4.63247 22.8966 4.63247 22.8966C4.63247 22.8966 4.79193 21.6457 4.42132 20.8767C4.06405 20.135 3.97488 18.9835 3.96948 18.9033C3.98177 18.9466 4.07783 19.3039 4.2217 19.5562Z" fill="#F9C8A9"/>
   <path d="M1.75342 23.6281C1.75477 23.6286 1.75567 23.6282 1.75687 23.6288C1.8345 23.6557 2.95262 24.0319 3.7917 24.0057C4.66165 23.9782 5.77483 24.6167 5.77483 24.6167C5.77483 24.6167 4.60575 25.0892 3.92822 24.925C3.11222 24.7286 1.79403 23.6618 1.75342 23.6281Z" fill="#BC7546"/>
   <path d="M2.47078 23.6615C3.03471 23.6051 3.50364 23.5106 4.15134 23.5157C4.52929 23.5184 5.3426 23.9699 5.6164 24.3376C5.75262 24.4731 5.7748 24.6168 5.7748 24.6168C5.7748 24.6168 4.66162 23.9782 3.79167 24.0057C2.95259 24.0319 1.83446 23.6558 1.75684 23.6288C1.80254 23.6348 2.1766 23.6904 2.47078 23.6615Z" fill="#F9C8A9"/>
   <path d="M4.14746 22.4255C4.14806 22.4266 4.14911 22.4269 4.14971 22.4281C4.19137 22.4975 4.80026 23.4875 5.46026 23.994C6.14468 24.519 6.57703 25.7068 6.57703 25.7068C6.57703 25.7068 5.37034 25.3348 4.95957 24.7838C4.46367 24.1214 4.1563 22.4768 4.14746 22.4255Z" fill="#BC7546"/>
   <path d="M4.67508 22.9013C5.144 23.2121 5.56556 23.4339 6.05831 23.8443C6.34605 24.0837 6.6717 24.9399 6.63933 25.3934C6.65446 25.5827 6.57698 25.7068 6.57698 25.7068C6.57698 25.7068 6.14463 24.519 5.46021 23.994C4.80021 23.4875 4.19132 22.4975 4.14966 22.4281C4.18053 22.4615 4.43065 22.7387 4.67508 22.9013Z" fill="#F9C8A9"/>
   <path d="M6.78157 22.1773C6.78172 22.1788 6.78232 22.1794 6.78247 22.1807C6.78891 22.2609 6.89382 23.4111 7.26098 24.1481C7.64193 24.9123 7.49941 26.1651 7.49941 26.1651C7.49941 26.1651 6.5803 25.3162 6.45727 24.6453C6.3074 23.8379 6.76659 22.2274 6.78157 22.1773Z" fill="#BC7546"/>
   <path d="M7.04353 22.8304C7.32632 23.31 7.60627 23.6893 7.86598 24.2685C8.01779 24.6065 7.92772 25.5157 7.69574 25.9099C7.6247 26.0867 7.49941 26.1651 7.49941 26.1651C7.49941 26.1651 7.64194 24.9123 7.26098 24.1481C6.89382 23.4111 6.78891 22.2609 6.78247 22.1807C6.79536 22.2239 6.89622 22.58 7.04353 22.8304Z" fill="#F9C8A9"/>
   <path d="M8.57747 23.2561C8.57762 23.2574 8.57822 23.2581 8.57822 23.2594C8.58481 23.3396 8.68956 24.4896 9.05688 25.2268C9.43783 25.9909 9.29531 27.2438 9.29531 27.2438C9.29531 27.2438 8.3762 26.3947 8.25317 25.7239C8.1033 24.9165 8.56248 23.3059 8.57747 23.2561Z" fill="#BC7546"/>
   <path d="M8.83933 23.9091C9.12213 24.3885 9.40207 24.7678 9.66163 25.3472C9.81359 25.6852 9.72352 26.5943 9.49154 26.9885C9.4205 27.1652 9.29522 27.2438 9.29522 27.2438C9.29522 27.2438 9.43774 25.9909 9.05679 25.2268C8.68947 24.4896 8.58472 23.3396 8.57812 23.2594C8.59116 23.3026 8.69202 23.6585 8.83933 23.9091Z" fill="#F9C8A9"/>
   <path d="M3.19727 26.2649C3.19861 26.2652 3.19951 26.2647 3.20086 26.265C3.28583 26.2798 4.50766 26.4804 5.37012 26.3122C6.2642 26.1374 7.5271 26.6101 7.5271 26.6101C7.5271 26.6101 6.40253 27.295 5.67344 27.2392C4.79555 27.1737 3.24507 26.293 3.19727 26.2649Z" fill="#BC7546"/>
   <path d="M3.94455 26.1785C4.51732 26.0256 4.98504 25.849 5.65523 25.7453C6.04637 25.6846 6.96638 26.0144 7.31421 26.3483C7.47891 26.4652 7.52716 26.61 7.52716 26.61C7.52716 26.61 6.26427 26.1374 5.37019 26.3122C4.50773 26.4804 3.2859 26.2798 3.20093 26.265C3.24918 26.2637 3.64557 26.258 3.94455 26.1785Z" fill="#F9C8A9"/>
   <path d="M6.78247 29.0249C6.78367 29.0246 6.78397 29.0238 6.78517 29.0235C6.85381 28.9994 7.83631 28.6436 8.39589 28.1651C8.97601 27.6689 10.1061 27.4954 10.1061 27.4954C10.1061 27.4954 9.57726 28.4605 9.01872 28.7199C8.34674 29.0332 6.82968 29.0257 6.78247 29.0249Z" fill="#BC7546"/>
   <path d="M7.29304 28.6541C7.64687 28.3061 7.91362 27.9839 8.36021 27.632C8.62067 27.4264 9.43772 27.2895 9.83681 27.3912C10.0081 27.4092 10.1061 27.4954 10.1061 27.4954C10.1061 27.4954 8.976 27.6689 8.39588 28.165C7.83629 28.6436 6.85379 28.9994 6.78516 29.0235C6.81992 29.0026 7.10811 28.8354 7.29304 28.6541Z" fill="#F9C8A9"/>
   <path d="M12.8354 11.5553C12.8344 11.5556 12.8339 11.5564 12.8329 11.5568C12.7677 11.5824 11.8367 11.959 11.3166 12.4387C10.7774 12.936 9.69775 13.1426 9.69775 13.1426C9.69775 13.1426 10.1703 12.1964 10.6975 11.9274C11.3317 11.6026 12.79 11.5562 12.8354 11.5553Z" fill="#BC7546"/>
   <path d="M12.3584 11.9298C12.0313 12.2767 11.7868 12.5957 11.3707 12.9496C11.1279 13.1564 10.3479 13.3169 9.96031 13.2334C9.79502 13.2221 9.69775 13.1426 9.69775 13.1426C9.69775 13.1426 10.7774 12.936 11.3166 12.4387C11.8367 11.9591 12.7677 11.5824 12.8329 11.5568C12.8002 11.5781 12.5294 11.7491 12.3584 11.9298Z" fill="#F9C8A9"/>
   <path d="M10.5741 11.0349C10.5735 11.0358 10.5737 11.0366 10.5729 11.0375C10.535 11.0952 9.99867 11.9283 9.85855 12.6132C9.71348 13.3234 8.95518 14.1017 8.95518 14.1017C8.95518 14.1017 8.77999 13.063 9.05064 12.5459C9.37554 11.9226 10.5376 11.0612 10.5741 11.0349Z" fill="#BC7546"/>
   <path d="M10.4068 11.6097C10.3455 12.0776 10.335 12.4757 10.2052 12.9995C10.1297 13.3053 9.58855 13.8767 9.22288 14.0274C9.08141 14.1116 8.95508 14.1018 8.95508 14.1018C8.95508 14.1018 9.71338 13.3235 9.85845 12.6133C9.99857 11.9283 10.5349 11.0952 10.5728 11.0376C10.5588 11.0734 10.4392 11.3658 10.4068 11.6097Z" fill="#F9C8A9"/>
   <path d="M8.76157 11.8566C8.76127 11.8574 8.76157 11.858 8.76127 11.8589C8.74538 11.9119 8.52359 12.6751 8.57409 13.2359C8.62654 13.8175 8.22042 14.5873 8.22042 14.5873C8.22042 14.5873 7.84396 13.8224 7.93343 13.3625C8.04028 12.8085 8.73954 11.8851 8.76157 11.8566Z" fill="#BC7546"/>
   <path d="M8.76566 12.3382C8.82665 12.7138 8.91103 13.0242 8.93201 13.4582C8.9446 13.7113 8.65836 14.2732 8.41048 14.4705C8.32057 14.567 8.22046 14.5873 8.22046 14.5873C8.22046 14.5873 8.62658 13.8175 8.57413 13.2359C8.52363 12.6751 8.74543 11.9119 8.76131 11.8589C8.75876 11.8898 8.73404 12.1423 8.76566 12.3382Z" fill="#F9C8A9"/>
   <path d="M12.4449 13.7039C12.4439 13.704 12.4436 13.7046 12.4425 13.7049C12.3833 13.7197 11.535 13.9415 11.0295 14.2978C10.5057 14.6674 9.54883 14.7256 9.54883 14.7256C9.54883 14.7256 10.0675 13.9608 10.5546 13.7871C11.1404 13.5772 12.4055 13.6995 12.4449 13.7039Z" fill="#BC7546"/>
   <path d="M11.9892 13.9743C11.6659 14.2375 11.4175 14.4858 11.0166 14.7452C10.7826 14.8968 10.09 14.9486 9.76508 14.8332C9.62361 14.8051 9.54883 14.7256 9.54883 14.7256C9.54883 14.7256 10.5057 14.6674 11.0295 14.2978C11.535 13.9415 12.3833 13.7197 12.4425 13.7049C12.4118 13.7195 12.1579 13.8372 11.9892 13.9743Z" fill="#F9C8A9"/>
   <path d="M9.85513 13.1928C9.85438 13.1937 9.85438 13.1944 9.85363 13.1951C9.81287 13.2469 9.23499 13.9965 9.04557 14.6361C8.8494 15.2995 8.06517 15.9794 8.06517 15.9794C8.06517 15.9794 7.98409 14.9789 8.28382 14.5089C8.64349 13.9424 9.81811 13.2149 9.85513 13.1928Z" fill="#BC7546"/>
   <path d="M9.64884 13.7256C9.55203 14.1653 9.50947 14.5427 9.34312 15.0302C9.24631 15.3147 8.68523 15.8152 8.32555 15.9296C8.18423 15.9986 8.06494 15.9794 8.06494 15.9794C8.06494 15.9794 8.84917 15.2995 9.04534 14.636C9.23477 13.9965 9.81264 13.2469 9.8534 13.1951C9.83722 13.228 9.69949 13.4965 9.64884 13.7256Z" fill="#F9C8A9"/>
   <path d="M10.3629 15.3816C10.3619 15.3818 10.3616 15.3826 10.3605 15.383C10.2994 15.4098 9.42671 15.8022 8.9494 16.2778C8.45455 16.771 7.43384 17.0067 7.43384 17.0067C7.43384 17.0067 7.84821 16.0883 8.34036 15.813C8.93216 15.4808 10.3196 15.3839 10.3629 15.3816Z" fill="#BC7546"/>
   <path d="M9.92261 15.7554C9.62408 16.0977 9.40333 16.4103 9.02013 16.7625C8.79684 16.9683 8.05981 17.1493 7.68755 17.0837C7.5296 17.0789 7.43384 17.0067 7.43384 17.0067C7.43384 17.0067 8.45455 16.771 8.9494 16.2778C9.42671 15.8022 10.2994 15.4098 10.3605 15.383C10.3302 15.4044 10.0786 15.5771 9.92261 15.7554Z" fill="#F9C8A9"/>
   <path d="M6.45207 13.2556C6.45192 13.257 6.45252 13.2577 6.45252 13.2591C6.45042 13.3407 6.43378 14.5137 6.72631 15.296C7.02993 16.107 6.75239 17.3588 6.75239 17.3588C6.75239 17.3588 5.91406 16.4073 5.86116 15.7168C5.79582 14.8855 6.43154 13.3046 6.45207 13.2556Z" fill="#BC7546"/>
   <path d="M6.64703 13.9421C6.88172 14.4555 7.12419 14.8673 7.32501 15.4793C7.44235 15.8362 7.25442 16.7458 6.97807 17.1207C6.88741 17.2922 6.75238 17.3588 6.75238 17.3588C6.75238 17.3588 7.02993 16.107 6.7263 15.296C6.43377 14.5137 6.45041 13.3407 6.45251 13.2591C6.4609 13.304 6.52489 13.6742 6.64703 13.9421Z" fill="#F9C8A9"/>
   <path d="M8.19005 14.7676C8.1893 14.7688 8.18945 14.7697 8.1887 14.7709C8.14854 14.8425 7.58071 15.8764 7.47161 16.7024C7.35891 17.5588 6.52253 18.5453 6.52253 18.5453C6.52253 18.5453 6.2267 17.324 6.50514 16.687C6.83904 15.9197 8.14869 14.8019 8.19005 14.7676Z" fill="#BC7546"/>
   <path d="M8.03937 15.4648C8.0058 16.0261 8.02693 16.5006 7.91663 17.134C7.85264 17.5036 7.25694 18.2269 6.83477 18.4354C6.67367 18.5469 6.52246 18.5453 6.52246 18.5453C6.52246 18.5453 7.35885 17.5588 7.47154 16.7024C7.58064 15.8764 8.14847 14.8425 8.18863 14.7709C8.175 14.8146 8.05735 15.1721 8.03937 15.4648Z" fill="#F9C8A9"/>
   <path d="M9.10145 17.3588C9.10055 17.3594 9.1004 17.3602 9.09935 17.361C9.04345 17.4066 8.24723 18.0702 7.89071 18.7067C7.5213 19.3668 6.52246 19.9088 6.52246 19.9088C6.52246 19.9088 6.67862 18.8261 7.11127 18.3953C7.6313 17.8759 9.05679 17.3737 9.10145 17.3588Z" fill="#BC7546"/>
   <path d="M8.75316 17.8779C8.54366 18.323 8.40683 18.7147 8.11191 19.1946C7.94001 19.4748 7.22187 19.8775 6.8117 19.9161C6.6446 19.9568 6.52246 19.9088 6.52246 19.9088C6.52246 19.9088 7.5213 19.3668 7.89071 18.7066C8.24723 18.0701 9.04345 17.4066 9.09935 17.3609C9.07417 17.3921 8.86271 17.6458 8.75316 17.8779Z" fill="#F9C8A9"/>
   <path d="M5.56577 17.0067C5.56592 17.0077 5.56652 17.0082 5.56667 17.009C5.58121 17.068 5.79911 17.9118 6.16177 18.4178C6.53823 18.9424 6.58438 19.8912 6.58438 19.8912C6.58438 19.8912 5.79731 19.3658 5.62407 18.8809C5.41456 18.2972 5.56067 17.0456 5.56577 17.0067Z" fill="#BC7546"/>
   <path d="M5.83985 17.4623C6.1087 17.7864 6.36302 18.0364 6.62663 18.4374C6.78069 18.6714 6.82415 19.3583 6.69931 19.6785C6.66799 19.8182 6.58437 19.8912 6.58437 19.8912C6.58437 19.8912 6.53821 18.9424 6.16175 18.4178C5.79909 17.9118 5.58119 17.068 5.56665 17.009C5.58164 17.0398 5.69988 17.2931 5.83985 17.4623Z" fill="#F9C8A9"/>
   <path d="M8.17473 19.5843C8.17398 19.5848 8.17383 19.5856 8.17308 19.5862C8.12647 19.6263 7.46348 20.2077 7.17394 20.757C6.87422 21.3266 6.03589 21.8087 6.03589 21.8087C6.03589 21.8087 6.14499 20.884 6.50376 20.5084C6.93491 20.0553 8.13711 19.598 8.17473 19.5843Z" fill="#BC7546"/>
   <path d="M7.88969 20.0335C7.72124 20.4167 7.61349 20.7529 7.37296 21.1676C7.23284 21.4097 6.63054 21.7675 6.28226 21.809C6.14109 21.8471 6.03589 21.8087 6.03589 21.8087C6.03589 21.8087 6.87422 21.3266 7.17395 20.757C7.46348 20.2077 8.12647 19.6263 8.17308 19.5862C8.15225 19.6134 7.97781 19.8337 7.88969 20.0335Z" fill="#F9C8A9"/>
   <path d="M6.13013 19.3311C6.12968 19.3324 6.13013 19.3333 6.12983 19.3346C6.11065 19.416 5.84704 20.5858 5.97487 21.4268C6.10765 22.2989 5.56665 23.4951 5.56665 23.4951C5.56665 23.4951 4.92853 22.3751 5.02085 21.674C5.1307 20.8296 6.09926 19.376 6.13013 19.3311Z" fill="#BC7546"/>
   <path d="M6.18064 20.0569C6.30727 20.6176 6.46298 21.0779 6.53491 21.7302C6.57718 22.1107 6.19772 22.9829 5.8424 23.3022C5.71561 23.4554 5.56665 23.4951 5.56665 23.4951C5.56665 23.4951 6.10765 22.2989 5.97488 21.4268C5.84704 20.5858 6.11065 19.416 6.12984 19.3346C6.12879 19.3813 6.11485 19.7644 6.18064 20.0569Z" fill="#F9C8A9"/>
   <path d="M14.9868 23.0141C14.3072 23.2101 12.9972 23.1732 12.1294 22.8055V21.6772H12.2673C13.1835 22.2179 14.9037 22.4183 14.9037 21.3804C14.9037 20.6899 14.077 20.7938 13.3593 20.7938V19.8759C13.933 19.8759 14.5203 19.9137 14.7412 19.6051C14.828 19.4838 15.0122 18.8915 14.2075 18.803C13.5678 18.7319 12.9589 18.9007 12.4122 19.2169H12.2814V18.1022C13.3742 17.6731 15.4475 17.5514 16.0029 18.4992C16.381 19.1459 16.0131 20.0794 15.1547 20.259V20.3073C16.7113 20.5161 16.6978 22.5211 14.9868 23.0141Z" fill="#FFAD67"/>
</svg>
