<?xml version="1.0" encoding="UTF-8" standalone="no"?>
<svg width="37" height="37" viewBox="0 0 37 37" fill="none" xmlns="http://www.w3.org/2000/svg">
    <g clip-path="url(#clip0_97_166)">
        <path d="M24.957 20.6949C29.6034 20.6949 33.37 16.9283 33.37 12.2819C33.37 7.63553 29.6034 3.8689 24.957 3.8689C20.3106 3.8689 16.544 7.63553 16.544 12.2819C16.544 16.9283 20.3106 20.6949 24.957 20.6949Z" fill="white"/>
        <path d="M36.242 21.8039L33.968 19.1839C35.6112 17.1305 36.5044 14.5778 36.5 11.9479C36.5 5.55092 31.296 0.346924 24.898 0.346924C18.501 0.346924 13.297 5.55092 13.297 11.9489C13.297 18.3459 18.501 23.5499 24.898 23.5499H35.445C35.6472 23.5499 35.8452 23.4917 36.0153 23.3823C36.1854 23.273 36.3205 23.117 36.4045 22.933C36.4885 22.749 36.5178 22.5448 36.489 22.3446C36.4602 22.1444 36.3745 21.9568 36.242 21.8039ZM24.898 19.1199C24.7568 19.1243 24.6161 19.1002 24.4844 19.0492C24.3527 18.9981 24.2325 18.9212 24.1311 18.8228C24.0297 18.7245 23.949 18.6067 23.894 18.4766C23.8389 18.3465 23.8105 18.2067 23.8105 18.0654C23.8105 17.9241 23.8389 17.7843 23.894 17.6542C23.949 17.5241 24.0297 17.4064 24.1311 17.308C24.2325 17.2097 24.3527 17.1327 24.4844 17.0817C24.6161 17.0306 24.7568 17.0066 24.898 17.0109C25.1778 17.0109 25.4461 17.1221 25.644 17.3199C25.8418 17.5178 25.953 17.7861 25.953 18.0659C25.953 18.3457 25.8418 18.6141 25.644 18.8119C25.4461 19.0098 25.1778 19.1209 24.898 19.1209V19.1199ZM27.833 11.5379C27.3206 12.0762 26.6703 12.4636 25.953 12.6579V14.8729C25.953 15.1527 25.8418 15.4211 25.644 15.6189C25.4461 15.8168 25.1778 15.9279 24.898 15.9279C24.6182 15.9279 24.3499 15.8168 24.152 15.6189C23.9541 15.4211 23.843 15.1527 23.843 14.8729V11.7439C23.843 11.1619 24.316 10.6899 24.898 10.6899C25.1611 10.6909 25.4215 10.6378 25.6632 10.5338C25.9049 10.4299 26.1227 10.2775 26.303 10.0859C26.673 9.69592 26.861 9.18592 26.833 8.64792C26.8052 8.15347 26.5894 7.68834 26.2299 7.34777C25.8704 7.00719 25.3942 6.81693 24.899 6.81592C24.3853 6.81592 23.8926 7.02 23.5293 7.38326C23.1661 7.74652 22.962 8.2392 22.962 8.75292C22.962 9.03273 22.8508 9.30107 22.653 9.49892C22.4551 9.69677 22.1868 9.80792 21.907 9.80792C21.6272 9.80792 21.3589 9.69677 21.161 9.49892C20.9631 9.30107 20.852 9.03273 20.852 8.75292C20.8522 8.21453 20.9597 7.68158 21.1684 7.18526C21.377 6.68895 21.6826 6.23924 22.0672 5.86247C22.4518 5.4857 22.9077 5.18943 23.4082 4.99102C23.9087 4.7926 24.4437 4.69602 24.982 4.70692C26.0027 4.73077 26.9768 5.13846 27.7103 5.8487C28.4437 6.55895 28.8824 7.51954 28.939 8.53892C28.9699 9.08791 28.8876 9.63738 28.6974 10.1533C28.5071 10.6691 28.2129 11.1404 27.833 11.5379Z" fill="#45C881"/>
        <path d="M15.617 23.6909H8.586C8.3062 23.6909 8.03785 23.5798 7.84 23.3819C7.64215 23.184 7.531 22.9157 7.531 22.6359C7.531 22.3561 7.64215 22.0878 7.84 21.8899C8.03785 21.6921 8.3062 21.5809 8.586 21.5809H15.153C12.9107 19.32 11.5278 16.3474 11.243 13.1759C5.245 13.6159 0.5 18.6369 0.5 24.7459C0.5 27.3959 1.393 29.9299 3.032 31.9799L0.758 34.6009C0.625535 34.7537 0.539788 34.9414 0.510973 35.1416C0.482158 35.3418 0.511488 35.546 0.595471 35.73C0.679454 35.914 0.81455 36.0699 0.984668 36.1793C1.15479 36.2887 1.35276 36.3469 1.555 36.3469H12.102C18.21 36.3469 23.23 31.6019 23.672 25.6039C21.1194 25.3762 18.6826 24.4339 16.641 22.8849C16.5854 23.1146 16.4542 23.3189 16.2685 23.4651C16.0828 23.6113 15.8533 23.6908 15.617 23.6909ZM15.617 27.9089H8.586C8.31195 27.9005 8.05195 27.7857 7.86108 27.5888C7.67022 27.392 7.56348 27.1286 7.56348 26.8544C7.56348 26.5802 7.67022 26.3168 7.86108 26.12C8.05195 25.9231 8.31195 25.8083 8.586 25.7999H15.617C15.8968 25.7999 16.1651 25.9111 16.363 26.1089C16.5608 26.3068 16.672 26.5751 16.672 26.8549C16.672 27.1347 16.5608 27.403 16.363 27.6009C16.1651 27.7988 15.8968 27.9099 15.617 27.9099V27.9089Z" fill="#9BE6BE"/>
    </g>
    <defs>
        <clipPath id="clip0_97_166">
            <rect width="36" height="36" fill="white" transform="translate(0.5 0.346924)"/>
        </clipPath>
    </defs>
</svg>
