<?xml version="1.0" encoding="UTF-8" standalone="no"?>
<svg width="221" height="239" viewBox="0 0 221 239" fill="none" xmlns="http://www.w3.org/2000/svg">
    <path d="M181.416 116.878C181.416 116.878 177.562 116.578 177.917 125.931C178.273 135.284 179.153 140.272 179.153 140.272C179.153 140.272 179.036 142.342 177.553 141.936C176.069 141.531 173.276 139.513 171.899 141.02C170.522 142.526 170.979 144.985 172.872 147.814C174.765 150.642 178.71 156.999 179.066 157.578C179.421 158.157 179.552 159.205 178.501 159.1C177.45 158.995 170.352 156.393 169.408 160.116C168.464 163.84 174.95 170.776 175.645 171.55C176.341 172.324 176.375 172.809 176.093 173.277C175.811 173.746 173.504 172.624 171.456 171.977C169.408 171.329 166.926 170.955 166.552 173.151C166.177 175.347 169.028 181.778 179.718 188.529L184.86 191.31L189.726 187.95C199.739 180.05 201.982 173.367 201.403 171.224C200.824 169.08 198.386 169.712 196.44 170.581C194.494 171.45 192.266 172.814 191.94 172.382C191.614 171.95 191.609 171.455 192.231 170.613C192.854 169.77 198.659 162.186 197.379 158.563C196.099 154.939 189.273 158.32 188.237 158.536C187.201 158.752 187.24 157.683 187.531 157.083C187.823 156.482 191.171 149.71 192.796 146.697C194.421 143.685 194.708 141.23 193.141 139.851C191.575 138.471 189.035 140.809 187.6 141.378C186.164 141.947 185.853 139.887 185.853 139.887C185.853 139.887 186.271 134.837 185.76 125.489C185.25 116.14 181.357 116.878 181.357 116.878" fill="#EBEBEB"/>
    <path d="M181.72 125.256C181.72 125.256 181.72 125.319 181.72 125.45C181.72 125.582 181.744 125.777 181.764 126.024C181.793 126.551 181.841 127.283 181.9 128.231C182.017 130.153 182.172 132.929 182.347 136.363C182.698 143.209 183.111 152.715 183.535 163.196C183.958 173.676 184.347 183.172 184.663 190.055C184.824 193.484 184.955 196.259 185.043 198.187C185.087 199.14 185.121 199.883 185.145 200.399C185.145 200.647 185.145 200.836 185.169 200.978C185.172 201.043 185.172 201.108 185.169 201.173C185.169 201.173 185.169 201.105 185.169 200.978C185.169 200.852 185.145 200.647 185.126 200.404C185.096 199.878 185.048 199.146 184.989 198.192C184.868 196.275 184.717 193.5 184.542 190.066C184.191 183.219 183.778 173.708 183.355 163.206C182.931 152.705 182.542 143.236 182.226 136.347C182.065 132.924 181.934 130.148 181.841 128.215C181.802 127.262 181.764 126.52 181.744 126.003C181.744 125.761 181.744 125.566 181.72 125.429C181.717 125.371 181.717 125.313 181.72 125.256Z" fill="#E0E0E0"/>
    <path d="M175.698 144.018C175.816 144.098 175.924 144.194 176.019 144.303C176.219 144.497 176.506 144.792 176.837 145.151C177.513 145.883 178.428 146.915 179.415 148.073L181.931 151.049L182.695 151.95C182.796 152.052 182.886 152.167 182.962 152.292C182.845 152.212 182.737 152.117 182.641 152.008C182.442 151.813 182.155 151.523 181.829 151.154C181.157 150.417 180.257 149.374 179.269 148.216L176.735 145.256L175.966 144.361C175.864 144.258 175.775 144.143 175.698 144.018Z" fill="#E0E0E0"/>
    <path d="M183.472 152.107C183.433 152.065 185.311 149.938 187.671 147.367C190.031 144.797 191.972 142.717 192.011 142.759C192.05 142.801 190.172 144.929 187.812 147.499C185.452 150.069 183.511 152.15 183.472 152.107Z" fill="#E0E0E0"/>
    <path d="M183.452 168.233C183.563 168.137 183.684 168.054 183.812 167.986L184.819 167.375C185.665 166.848 186.838 166.143 188.103 165.3C189.368 164.457 190.492 163.662 191.3 163.072L192.273 162.382C192.386 162.29 192.509 162.21 192.638 162.145C192.638 162.145 192.531 162.266 192.316 162.451C192.102 162.635 191.791 162.888 191.392 163.199C190.604 163.82 189.49 164.642 188.22 165.484C186.95 166.327 185.787 167.027 184.897 167.507C184.464 167.749 184.109 167.938 183.86 168.06C183.733 168.139 183.595 168.198 183.452 168.233Z" fill="#E0E0E0"/>
    <path d="M174.931 162.593C175.058 162.637 175.179 162.699 175.291 162.777C175.51 162.903 175.831 163.093 176.22 163.335C177.004 163.814 178.079 164.494 179.261 165.252C180.444 166.011 181.504 166.711 182.268 167.227C182.653 167.485 182.959 167.696 183.168 167.849C183.283 167.916 183.389 167.999 183.485 168.096C183.358 168.057 183.238 167.996 183.129 167.917C182.906 167.791 182.589 167.596 182.195 167.359C181.417 166.874 180.341 166.2 179.159 165.436C177.977 164.673 176.916 163.978 176.152 163.467C175.768 163.209 175.461 162.998 175.252 162.845C175.134 162.779 175.026 162.693 174.931 162.593Z" fill="#E0E0E0"/>
    <path d="M173.236 176.829C173.396 176.886 173.548 176.965 173.689 177.066L174.886 177.777C175.893 178.388 177.275 179.246 178.778 180.205C180.281 181.163 181.673 182.043 182.67 182.685L183.838 183.459C183.985 183.548 184.124 183.652 184.252 183.77C184.094 183.708 183.942 183.628 183.799 183.533L182.602 182.817C181.595 182.206 180.208 181.348 178.71 180.389C177.211 179.431 175.815 178.551 174.818 177.909L173.65 177.134C173.504 177.046 173.365 176.944 173.236 176.829Z" fill="#E0E0E0"/>
    <path d="M184.036 183.53C184.177 183.41 184.327 183.301 184.483 183.204L185.734 182.382C186.789 181.687 188.244 180.718 189.821 179.607C191.397 178.496 192.808 177.447 193.82 176.684L195.022 175.778C195.165 175.659 195.318 175.555 195.479 175.467C195.351 175.606 195.213 175.733 195.066 175.846C194.798 176.078 194.399 176.405 193.903 176.805C192.93 177.6 191.514 178.669 189.928 179.786C188.342 180.902 186.877 181.85 185.807 182.514C185.267 182.84 184.834 183.104 184.522 183.278C184.367 183.377 184.204 183.462 184.036 183.53Z" fill="#E0E0E0"/>
    <path d="M191.77 193.133H177.544L182.186 231.179H187.124L191.77 193.133Z" fill="#E0E0E0"/>
    <path d="M178.283 197.805C178.283 197.805 178.283 197.858 178.361 197.942C178.455 198.058 178.573 198.148 178.706 198.205C178.953 198.298 179.217 198.329 179.477 198.294C179.737 198.259 179.986 198.161 180.205 198.005C180.784 197.663 181.28 196.989 182.053 196.694C182.905 196.396 183.825 196.414 184.666 196.746C185.522 197.065 186.339 197.495 187.099 198.026C187.735 198.455 188.397 198.838 189.079 199.174C189.543 199.401 190.035 199.555 190.539 199.632C190.675 199.656 190.814 199.666 190.952 199.664C191.05 199.664 191.098 199.664 191.098 199.664C190.426 199.552 189.771 199.339 189.152 199.032C188.482 198.677 187.832 198.28 187.206 197.842C186.434 197.291 185.6 196.848 184.725 196.525C183.835 196.176 182.862 196.165 181.966 196.494C181.585 196.66 181.233 196.895 180.925 197.189C180.668 197.435 180.397 197.662 180.112 197.868C179.912 198.017 179.685 198.118 179.445 198.164C179.206 198.209 178.96 198.198 178.725 198.131C178.561 198.051 178.412 197.941 178.283 197.805Z" fill="#F5F5F5"/>
    <path d="M178.806 204.818C178.806 204.818 178.918 204.66 179.141 204.407C179.466 204.063 179.854 203.798 180.28 203.628C180.912 203.379 181.584 203.27 182.255 203.307C183.087 203.371 183.914 203.493 184.732 203.67C185.567 203.843 186.421 203.882 187.267 203.786C187.956 203.687 188.628 203.479 189.261 203.17C189.686 202.961 190.088 202.702 190.458 202.396C190.602 202.295 190.73 202.17 190.838 202.027C190.313 202.397 189.763 202.725 189.193 203.006C188.57 203.277 187.915 203.454 187.247 203.533C186.422 203.615 185.59 203.571 184.776 203.401C183.948 203.225 183.111 203.109 182.27 203.054C181.569 203.027 180.871 203.16 180.222 203.444C179.782 203.635 179.39 203.936 179.078 204.323C178.998 204.428 178.926 204.541 178.864 204.66C178.836 204.708 178.816 204.762 178.806 204.818Z" fill="#F5F5F5"/>
    <path d="M190.16 208.573C190.042 208.473 189.909 208.398 189.765 208.352C189.388 208.198 188.991 208.106 188.588 208.078C187.991 208.038 187.391 208.075 186.802 208.189C186.141 208.305 185.43 208.505 184.681 208.673C183.988 208.852 183.277 208.939 182.565 208.931C181.986 208.916 181.415 208.784 180.881 208.542C180.396 208.296 179.963 207.947 179.606 207.515C179.659 207.665 179.74 207.801 179.845 207.915C180.117 208.244 180.448 208.511 180.818 208.7C181.364 208.98 181.956 209.138 182.56 209.163C183.291 209.186 184.023 209.104 184.735 208.921C185.489 208.747 186.194 208.542 186.846 208.394C187.418 208.275 188.001 208.222 188.583 208.236C189.12 208.277 189.649 208.39 190.16 208.573Z" fill="#F5F5F5"/>
    <path d="M180.054 213.843C180.487 213.638 180.969 213.584 181.431 213.69C181.937 213.823 182.427 214.019 182.891 214.275C183.723 214.702 184.64 214.899 185.56 214.847C186.48 214.796 187.373 214.498 188.16 213.98C188.467 213.779 188.752 213.542 189.012 213.274C189.108 213.178 189.191 213.068 189.26 212.947C188.884 213.266 188.491 213.56 188.082 213.827C187.073 214.423 185.925 214.687 184.779 214.585C183.431 214.501 182.399 213.632 181.465 213.532C181.102 213.454 180.726 213.481 180.375 213.611C180.147 213.716 180.045 213.832 180.054 213.843Z" fill="#F5F5F5"/>
    <path d="M180.871 221.146C181.279 221.161 181.685 221.074 182.058 220.893C182.773 220.635 183.658 220.04 184.695 219.598C185.174 219.383 185.685 219.267 186.203 219.256C186.624 219.253 187.041 219.356 187.419 219.556C187.762 219.759 188.062 220.037 188.3 220.372C188.279 220.255 188.233 220.144 188.164 220.051C187.993 219.779 187.764 219.555 187.497 219.398C187.102 219.162 186.659 219.033 186.208 219.024C185.661 219.023 185.119 219.138 184.612 219.361C183.537 219.824 182.666 220.414 181.999 220.725C181.333 221.036 180.871 221.109 180.871 221.146Z" fill="#F5F5F5"/>
    <path d="M181.547 224.537C181.83 224.693 182.134 224.801 182.447 224.858C183.188 225.05 183.941 225.188 184.7 225.269C185.458 225.349 186.22 225.371 186.982 225.338C187.298 225.345 187.614 225.304 187.921 225.217C187.921 225.143 186.461 225.217 184.719 225.016C182.977 224.816 181.561 224.463 181.547 224.537Z" fill="#F5F5F5"/>
    <path d="M66.8922 54.5287L25.1611 65.2652L39.7218 131.578L81.4529 120.841L66.8922 54.5287Z" fill="#E0E0E0"/>
    <path d="M63.6437 52.5726L21.9126 63.3091L36.4733 129.622L78.2043 118.885L63.6437 52.5726Z" fill="#EBEBEB"/>
    <path d="M60.2921 51.986L18.561 62.7224L32.8438 127.77L74.5749 117.033L60.2921 51.986Z" fill="#F5F5F5"/>
    <path d="M59.7705 120.843C59.7705 120.843 69.5013 113.665 71.8903 105.312C70.8613 106.561 69.609 107.571 68.2091 108.282C66.8092 108.993 65.2908 109.389 63.7456 109.446C63.7456 109.446 62.7092 118.378 59.7705 120.843Z" fill="#EBEBEB"/>
    <path d="M59.9992 69.3094C59.9992 69.3831 52.6086 71.3475 43.4568 73.7017C34.3049 76.0559 26.8706 77.915 26.856 77.8307C26.8414 77.7464 34.2465 75.7925 43.3984 73.4384C52.5502 71.0842 59.9846 69.2304 59.9992 69.3094Z" fill="#E0E0E0"/>
    <path d="M61.0241 74.049C61.0241 74.1227 53.6335 76.0924 44.4817 78.4413C35.3298 80.7902 27.8955 82.6546 27.8809 82.5703C27.8663 82.4861 35.2714 80.5322 44.4233 78.178C53.5751 75.8238 61.0046 73.9489 61.0241 74.049Z" fill="#E0E0E0"/>
    <path d="M62.0666 78.7424C62.0666 78.8161 54.676 80.7858 45.5241 83.14C36.3723 85.4941 28.938 87.3533 28.9234 87.269C28.9088 87.1847 36.3091 85.2256 45.4658 82.8714C54.6225 80.5172 62.0471 78.6687 62.0666 78.7424Z" fill="#E0E0E0"/>
    <path d="M63.1276 83.4591C63.1276 83.5328 55.737 85.5025 46.5852 87.8567C37.4333 90.2108 29.999 92.0699 29.9844 91.9857C29.9698 91.9014 37.3701 89.9422 46.5268 87.5881C55.6835 85.2339 63.0887 83.3853 63.1276 83.4591Z" fill="#E0E0E0"/>
    <path d="M64.134 88.1816C64.134 88.2554 56.7434 90.2251 47.5916 92.5792C38.4397 94.9334 31.0054 96.7819 31.0054 96.6977C31.0054 96.6134 38.3911 94.6542 47.5478 92.3001C56.7045 89.9459 64.1145 88.1079 64.134 88.1816Z" fill="#E0E0E0"/>
    <path d="M65.1809 92.9002C65.1809 92.974 57.7903 94.9437 48.6384 97.2978C39.4866 99.652 32.0571 101.511 32.0425 101.427C32.0279 101.343 39.4282 99.3834 48.5849 97.0293C57.7416 94.6751 65.1614 92.8265 65.1809 92.9002Z" fill="#E0E0E0"/>
    <path d="M66.2204 97.6189C66.2204 97.6926 58.8298 99.6623 49.678 102.016C40.5261 104.371 33.0966 106.23 33.0821 106.145C33.0675 106.061 40.4678 104.102 49.6245 101.748C58.7812 99.3937 66.201 97.5451 66.2204 97.6189Z" fill="#E0E0E0"/>
    <path d="M67.2468 102.347C67.2468 102.421 59.8562 104.385 50.7044 106.74C41.5525 109.094 34.123 110.953 34.1084 110.869C34.0938 110.784 41.4941 108.825 50.6508 106.471C59.8076 104.117 67.2273 102.274 67.2468 102.347Z" fill="#E0E0E0"/>
    <path d="M220.89 231.166C220.89 231.24 171.438 231.303 110.445 231.303C49.4521 231.303 0 231.24 0 231.166C0 231.093 49.4472 231.029 110.445 231.029C171.443 231.029 220.89 231.087 220.89 231.166Z" fill="#263238"/>
    <path d="M94.9441 212.719L93.8105 226.249L90.0592 236.671C89.9952 236.849 89.9655 237.039 89.9721 237.229C89.9787 237.42 90.0214 237.607 90.0976 237.779C90.1738 237.951 90.2819 238.104 90.4151 238.228C90.5482 238.353 90.7037 238.447 90.8718 238.504C91.0673 238.572 91.2752 238.588 91.4777 238.55C91.6801 238.513 91.8712 238.423 92.0346 238.288C94.1462 236.545 101.882 230.099 101.916 229.103C101.955 227.95 103.989 214.91 103.989 214.91L94.9441 212.719Z" fill="#43D894"/>
    <g opacity="0.6">
        <path d="M90.8477 238.521L101.989 228.209L101.926 228.778C101.877 229.273 101.665 229.734 101.328 230.073C100.433 230.984 97.922 233.439 92.0494 238.31C91.8808 238.45 91.6828 238.543 91.4731 238.579C91.2633 238.616 91.0484 238.596 90.8477 238.521Z" fill="white"/>
    </g>
    <g opacity="0.6">
        <path d="M99.9186 223.535C99.7555 223.638 99.6325 223.802 99.5725 223.996C99.5126 224.19 99.5197 224.4 99.5926 224.589C99.6803 224.773 99.8305 224.914 100.012 224.982C100.193 225.05 100.391 225.039 100.566 224.952C100.742 224.842 100.874 224.666 100.937 224.457C101 224.248 100.989 224.021 100.906 223.82C100.796 223.638 100.624 223.51 100.428 223.463C100.232 223.416 100.027 223.453 99.8553 223.567" fill="white"/>
    </g>
    <path d="M94.3548 232.982C94.1037 232.523 93.7733 232.121 93.3817 231.797C92.9451 231.543 92.4679 231.383 91.9756 231.323C91.9756 231.286 92.1361 231.202 92.4329 231.191C92.8231 231.192 93.2049 231.315 93.5325 231.544C93.8601 231.77 94.1203 232.094 94.2818 232.476C94.3888 232.771 94.3888 232.971 94.3548 232.982Z" fill="#263238"/>
    <path d="M93.2864 234.663C93.2232 234.716 92.868 234.226 92.2452 233.947C91.8503 233.816 91.4491 233.709 91.0435 233.626C91.2493 233.52 91.4755 233.47 91.7032 233.478C91.9308 233.486 92.1533 233.553 92.3523 233.673C93.0431 233.979 93.3351 234.621 93.2864 234.663Z" fill="#263238"/>
    <path d="M96.242 230.878C95.7573 230.429 95.2417 230.02 94.6996 229.656C94.1168 229.375 93.5149 229.143 92.8994 228.961C93.5674 228.903 94.2368 229.052 94.829 229.392C95.4212 229.731 95.9114 230.247 96.242 230.878Z" fill="#263238"/>
    <path d="M96.9001 226.802C96.8611 226.881 96.2043 226.481 95.3091 226.339C94.4138 226.197 93.684 226.339 93.6646 226.249C94.1999 226.018 94.7831 225.947 95.3526 226.044C95.9221 226.141 96.4567 226.403 96.9001 226.802Z" fill="#263238"/>
    <path d="M97.3298 222.843C96.8071 222.585 96.2535 222.407 95.6853 222.316C95.11 222.315 94.5372 222.398 93.9824 222.563C93.9824 222.532 94.1187 222.379 94.4252 222.237C94.8308 222.057 95.2697 221.983 95.7067 222.02C96.1436 222.058 96.5662 222.206 96.9406 222.453C97.2228 222.637 97.3542 222.811 97.3298 222.843Z" fill="#263238"/>
    <path d="M95.789 221.539C95.7662 221.363 95.7795 221.183 95.828 221.013C95.9179 220.549 96.0933 220.111 96.3437 219.722C96.5038 219.422 96.7496 219.185 97.0443 219.048C97.1455 219.014 97.2539 219.014 97.3549 219.049C97.4559 219.084 97.5445 219.152 97.6087 219.243C97.7241 219.431 97.7726 219.657 97.7449 219.88C97.6672 220.33 97.4476 220.737 97.1237 221.031C96.7998 221.324 96.3917 221.488 95.9691 221.492C95.5492 221.489 95.1397 221.351 94.7929 221.095C94.4462 220.839 94.178 220.476 94.0229 220.054C93.984 219.947 93.9669 219.833 93.9728 219.718C93.9787 219.604 94.0074 219.492 94.0569 219.391C94.1141 219.293 94.1994 219.218 94.2997 219.178C94.3999 219.138 94.5095 219.135 94.6116 219.169C94.9111 219.279 95.1782 219.474 95.3852 219.733C95.6951 220.066 95.9472 220.457 96.1296 220.886C96.2057 221.038 96.2537 221.204 96.2707 221.376C95.9985 220.83 95.6561 220.328 95.2538 219.886C95.0642 219.67 94.8287 219.507 94.5678 219.412C94.5115 219.392 94.451 219.394 94.3955 219.416C94.3401 219.438 94.2929 219.479 94.2613 219.533C94.2345 219.601 94.2207 219.675 94.2207 219.749C94.2207 219.823 94.2345 219.896 94.2613 219.965C94.405 220.323 94.6411 220.63 94.9413 220.848C95.2415 221.065 95.5932 221.185 95.9545 221.192C96.311 221.187 96.6555 221.051 96.9319 220.807C97.2084 220.563 97.4006 220.226 97.4773 219.849C97.5023 219.694 97.4747 219.535 97.3995 219.401C97.3653 219.349 97.3169 219.31 97.261 219.289C97.2052 219.268 97.1447 219.267 97.0881 219.285C96.8393 219.403 96.6291 219.6 96.4848 219.849C96.1637 220.364 95.9283 220.936 95.789 221.539Z" fill="#263238"/>
    <path d="M143.786 81.2948C143.798 81.3537 143.798 81.415 143.786 81.4739C143.576 82.3007 142.263 85.7609 141.815 85.7451C141.368 85.7293 140.317 84.9867 140.409 84.4916C140.501 83.9966 142.18 80.1941 142.18 80.1941C142.18 80.1941 142.482 79.6148 143.494 79.8728C143.615 79.9097 143.756 81.437 143.786 81.2948Z" fill="#EB996E"/>
    <path d="M142.117 79.2022C142.117 79.2022 142.117 79.276 142.092 79.376C141.878 80.2082 140.569 83.6683 140.122 83.6472C139.674 83.6262 138.623 82.8888 138.716 82.3991C138.808 81.9093 140.487 78.1015 140.487 78.1015C140.487 78.1015 140.788 77.5169 141.8 77.775C142.428 77.933 142.117 79.2022 142.117 79.2022Z" fill="#EB996E"/>
    <path d="M140.654 77.7986C140.654 77.7986 140.654 77.8723 140.654 77.9724C140.445 78.8045 139.131 82.2647 138.684 82.2436C138.236 82.2225 137.185 81.4852 137.278 80.9954C137.37 80.5056 139.029 76.6979 139.029 76.6979C138.966 76.819 138.883 76.0027 140.343 76.3714C140.975 76.5294 140.654 77.7986 140.654 77.7986Z" fill="#EB996E"/>
    <path d="M138.785 76.426C138.785 76.426 138.785 76.4997 138.785 76.5998C138.576 77.4319 137.262 80.8868 136.815 80.871C136.367 80.8552 135.316 80.1126 135.409 79.6228C135.501 79.133 137.18 75.3253 137.18 75.3253C137.18 75.3253 137.481 74.7407 138.493 74.9988C139.092 75.1568 138.785 76.426 138.785 76.426Z" fill="#EB996E"/>
    <path d="M140.739 83.4745C141.054 82.9677 141.311 82.4212 141.503 81.8471C141.757 81.3088 141.945 80.7369 142.063 80.146C141.746 80.6538 141.49 81.2022 141.299 81.7787C141.042 82.3138 140.854 82.8844 140.739 83.4745Z" fill="#D1734A"/>
    <path d="M138.83 82.6788C139.249 81.9391 139.603 81.1579 139.885 80.3457C140.236 79.5668 140.522 78.7562 140.742 77.9231C140.325 78.6641 139.971 79.4451 139.686 80.2562C139.336 81.035 139.049 81.8457 138.83 82.6788Z" fill="#D1734A"/>
    <g opacity="0.78">
        <path d="M136.968 81.7274C137.396 80.9813 137.758 80.193 138.048 79.3733C138.4 78.5952 138.687 77.7844 138.905 76.9506C138.49 77.6915 138.137 78.4705 137.849 79.2785C137.489 80.0652 137.195 80.8847 136.968 81.7274Z" fill="#D1734A"/>
    </g>
    <path d="M141.396 88.2996C141.474 88.0942 142.748 83.9968 142.748 83.9968L135.45 80.1048C135.08 80.6315 133.957 86.3773 133.957 86.3773L134.214 88.3365C134.214 88.3365 139.751 91.7808 139.902 91.8124C140.053 91.844 141.396 88.2996 141.396 88.2996Z" fill="#EB996E"/>
    <path d="M135.703 86.4577L134.958 83.4874C134.634 82.1827 134.786 80.7931 135.382 79.6059L135.839 78.7L142.038 81.7547C142.038 81.7547 140.602 83.9561 139.026 82.7658L140.237 85.3149L135.703 86.4577Z" fill="#EB996E"/>
    <path d="M139.695 85.6237C139.66 85.6237 139.695 85.2761 139.607 84.6915C139.457 83.8867 139.04 83.1691 138.434 82.6744L137.86 82.2163L138.551 82.4216L140.147 82.9062H140.113C140.46 82.9556 140.813 82.8972 141.131 82.7377C141.449 82.5783 141.719 82.3244 141.908 82.0056C141.937 81.9562 141.96 81.9032 141.976 81.8476L142.069 82.0583C140.283 81.2735 138.663 80.5415 137.554 79.9516C136.989 79.6514 136.537 79.3934 136.235 79.209C136.068 79.1267 135.914 79.0165 135.778 78.8825C136.414 79.1287 137.038 79.4118 137.646 79.7304C138.79 80.2571 140.4 80.9681 142.19 81.7528L142.327 81.8107L142.278 81.9634C142.256 82.0385 142.226 82.1108 142.19 82.1794C141.978 82.5851 141.643 82.8993 141.242 83.0694C140.877 83.2186 140.487 83.278 140.098 83.2432H140.064L138.478 82.7166L138.595 82.4638C139.235 83.0099 139.653 83.8058 139.758 84.681C139.815 84.9957 139.793 85.3212 139.695 85.6237Z" fill="#D1734A"/>
    <path d="M141.18 82.5988C141.243 82.5988 141.136 82.9675 141.233 83.452C141.253 83.584 141.311 83.7058 141.398 83.8003C141.485 83.8948 141.598 83.9572 141.72 83.9787C141.873 83.9676 142.022 83.9131 142.15 83.8207C142.278 83.7283 142.381 83.6012 142.45 83.452C142.824 82.741 143.209 82.0933 143.423 81.6193C143.637 81.1453 143.773 80.8293 143.817 80.8451C143.861 80.8609 143.817 81.1979 143.627 81.7246C143.357 82.3853 143.047 83.0258 142.698 83.6416C142.602 83.8442 142.456 84.014 142.277 84.1321C142.097 84.2502 141.891 84.312 141.681 84.3105C141.503 84.2757 141.34 84.1776 141.22 84.0316C141.099 83.8856 141.027 83.7002 141.014 83.5047C140.985 83.2747 141.005 83.0403 141.073 82.82C141.121 82.6726 141.16 82.5936 141.18 82.5988Z" fill="#D1734A"/>
    <path d="M115.911 47.6337L113.775 71.3333C113.692 72.2405 113.284 73.0763 112.638 73.6613C111.992 74.2462 111.16 74.5336 110.32 74.4616L105.294 74.0245C104.454 73.9517 103.674 73.5244 103.123 72.8347C102.571 72.145 102.292 71.2483 102.346 70.3379C102.506 67.4939 102.759 64.018 102.759 64.018C102.759 64.018 98.0837 63.2333 98.0253 58.1721C97.9961 55.7495 98.3124 50.7989 98.6481 46.2749C98.8267 43.8728 99.8346 41.6317 101.471 39.9979C103.108 38.3641 105.253 37.4575 107.479 37.4586H107.79C108.946 37.5321 110.077 37.8558 111.116 38.4106C112.154 38.9654 113.08 39.7401 113.837 40.6888C114.594 41.6374 115.168 42.7409 115.524 43.9338C115.88 45.1267 116.011 46.3848 115.911 47.6337Z" fill="#EB996E"/>
    <path d="M102.751 63.9332C104.915 63.9821 107.043 63.3291 108.862 62.0583C108.862 62.0583 107.402 65.7028 102.756 65.2446L102.751 63.9332Z" fill="#D1734A"/>
    <path d="M99.6591 49.9833C99.7419 50.0781 100.248 49.6726 100.968 49.6778C101.688 49.6831 102.213 50.0676 102.291 49.9728C102.369 49.878 102.243 49.7568 102.014 49.5778C101.704 49.3455 101.335 49.2223 100.958 49.2249C100.584 49.2207 100.219 49.3483 99.917 49.5883C99.6932 49.7726 99.6154 49.9412 99.6591 49.9833Z" fill="#263238"/>
    <path d="M106.695 49.9832C106.778 50.078 107.284 49.6725 108.004 49.6778C108.724 49.6831 109.245 50.0675 109.327 49.9727C109.41 49.8779 109.279 49.7568 109.05 49.5777C108.738 49.3465 108.368 49.2235 107.989 49.2249C107.615 49.2218 107.25 49.3492 106.948 49.5883C106.729 49.7726 106.656 49.9411 106.695 49.9832Z" fill="#263238"/>
    <path d="M104.108 54.4861C103.729 54.3559 103.337 54.278 102.94 54.2543C102.755 54.2543 102.585 54.1964 102.551 54.0595C102.535 53.855 102.579 53.6503 102.677 53.4749C102.848 52.9903 103.028 52.49 103.217 51.9581C103.972 49.8093 104.517 48.0345 104.439 48.0029C104.361 47.9713 103.68 49.6935 102.926 51.8475L102.405 53.3643C102.292 53.6048 102.259 53.8802 102.312 54.1437C102.34 54.2135 102.381 54.276 102.433 54.3269C102.486 54.3778 102.547 54.4159 102.614 54.4387C102.716 54.4666 102.821 54.4808 102.926 54.4808C103.318 54.5339 103.715 54.5357 104.108 54.4861Z" fill="#263238"/>
    <path d="M106.237 55.0835C106.12 55.0835 106.115 55.9208 105.448 56.5212C104.782 57.1216 103.95 57.0479 103.945 57.1427C103.94 57.2375 104.13 57.3059 104.48 57.3165C104.937 57.3256 105.383 57.1575 105.735 56.8425C106.076 56.5441 106.294 56.1129 106.344 55.6417C106.373 55.2889 106.29 55.0782 106.237 55.0835Z" fill="#263238"/>
    <path d="M106.542 45.7299C106.61 45.9405 107.33 45.8405 108.171 45.9511C109.013 46.0617 109.694 46.3092 109.806 46.1196C109.86 46.0301 109.738 45.8299 109.466 45.6245C109.098 45.374 108.683 45.2172 108.252 45.1661C107.82 45.115 107.383 45.1709 106.975 45.3296C106.668 45.4613 106.512 45.6509 106.542 45.7299Z" fill="#263238"/>
    <path d="M99.9193 46.3646C100.046 46.5384 100.537 46.3646 101.136 46.3646C101.734 46.3646 102.235 46.4804 102.347 46.2961C102.401 46.2066 102.347 46.0328 102.099 45.8642C101.805 45.6665 101.463 45.567 101.117 45.5783C100.771 45.5895 100.436 45.711 100.153 45.9274C99.929 46.096 99.8609 46.275 99.9193 46.3646Z" fill="#263238"/>
    <path d="M110.835 42.0447H110.864C111.609 42.6809 112.099 43.6032 112.231 44.6201C112.229 44.6534 112.229 44.6869 112.231 44.7202C112.416 46.1632 112.382 47.6326 112.577 49.0756C112.702 50.539 113.28 51.9139 114.216 52.9781C114.62 53.3837 115.335 53.6681 115.676 53.1888C115.785 52.9876 115.842 52.7584 115.841 52.5252C116.09 49.0387 116.97 45.9473 116.965 42.3028C116.965 41.8148 116.859 41.3338 116.654 40.899C116.45 40.4642 116.153 40.088 115.788 39.8012C115.082 39.2745 114.221 38.6899 113.438 39.0902C112.655 39.4904 111.638 41.081 111.03 41.7235" fill="#263238"/>
    <path d="M114.325 49.8848C114.403 49.848 117.536 48.8315 117.434 52.318C117.332 55.8045 114.145 54.9513 114.14 54.8565C114.135 54.7617 114.325 49.8848 114.325 49.8848Z" fill="#EB996E"/>
    <path d="M115.185 53.6087C115.185 53.6087 115.239 53.6508 115.331 53.7035C115.466 53.7615 115.615 53.7615 115.75 53.7035C115.96 53.5697 116.133 53.3777 116.252 53.1472C116.371 52.9167 116.431 52.656 116.426 52.3921C116.442 52.0955 116.398 51.7986 116.295 51.5231C116.268 51.4141 116.217 51.3137 116.147 51.2303C116.076 51.1469 115.989 51.083 115.891 51.0439C115.827 51.0234 115.759 51.0274 115.698 51.0552C115.637 51.0831 115.586 51.133 115.555 51.1966C115.511 51.2914 115.526 51.3651 115.511 51.3704C115.497 51.3757 115.443 51.3072 115.472 51.165C115.494 51.081 115.54 51.007 115.604 50.9543C115.695 50.8874 115.806 50.8593 115.915 50.8753C116.046 50.9076 116.168 50.976 116.267 51.0738C116.367 51.1715 116.442 51.2955 116.484 51.4336C116.609 51.7379 116.664 52.0704 116.645 52.4026C116.651 52.7113 116.572 53.015 116.42 53.2762C116.268 53.5373 116.048 53.7445 115.789 53.872C115.705 53.8914 115.618 53.8916 115.535 53.8725C115.451 53.8535 115.372 53.8156 115.302 53.7614C115.185 53.693 115.151 53.614 115.185 53.6087Z" fill="#D1734A"/>
    <path d="M113.555 39.6307C114.343 38.2509 112.183 36.2601 110.606 35.7229C109.03 35.1857 106.952 36.0179 105.381 36.5814C104.408 36.9342 103.405 37.4346 102.359 37.3872C101.663 37.3111 100.98 37.1229 100.335 36.8289C99.6871 36.5337 98.99 36.385 98.2869 36.3918C97.9364 36.3995 97.5946 36.5111 97.2986 36.7145C97.0027 36.9179 96.7639 37.2052 96.6083 37.5452C96.5413 37.7174 96.5094 37.9032 96.5147 38.0899C96.5201 38.2767 96.5625 38.46 96.6391 38.6274C96.7158 38.7948 96.8248 38.9424 96.9589 39.0601C97.0929 39.1778 97.2488 39.2628 97.416 39.3095C97.1932 39.1792 96.9447 39.109 96.6915 39.105C96.4384 39.1011 96.1881 39.1633 95.9619 39.2866C95.7358 39.4098 95.5405 39.5904 95.3927 39.8129C95.2449 40.0354 95.149 40.2933 95.1131 40.5646C95.0771 40.8359 95.1023 41.1126 95.1864 41.3711C95.2705 41.6296 95.4111 41.8622 95.5961 42.0493C95.7812 42.2363 96.0052 42.3722 96.2492 42.4454C96.4932 42.5185 96.7499 42.5268 96.9975 42.4694C96.5402 42.0955 95.8444 42.7117 95.9028 43.3279C95.9636 43.6301 96.096 43.91 96.2871 44.14C96.4782 44.3699 96.7214 44.542 96.9927 44.6393C98.3258 45.2712 99.8827 45.0711 101.26 44.5655C102.637 44.0599 103.921 43.2805 105.288 42.7433C106.655 42.2061 108.947 41.2318 110.319 41.7584C111.331 42.1429 112.037 43.4595 112.606 43.1699C112.875 43.0149 113.107 42.7935 113.283 42.5236C113.459 42.2538 113.573 41.9429 113.618 41.6162C113.694 40.9585 113.673 40.2917 113.555 39.6413" fill="#263238"/>
    <path d="M97.0301 39.2458C97.0593 39.2458 97.1956 39.5039 97.541 39.9041C98.0308 40.4673 98.6405 40.8922 99.3169 41.1418C100.309 41.5325 101.403 41.4852 102.363 41.0101C103.452 40.4834 104.382 39.4301 105.452 38.4347C106.447 37.4294 107.701 36.7771 109.048 36.5651C109.604 36.4926 110.168 36.5583 110.698 36.7573C111.227 36.9562 111.708 37.2831 112.103 37.7132C112.357 38.0145 112.552 38.3679 112.676 38.7525C112.801 39.1371 112.852 39.5449 112.828 39.9515C112.808 40.1676 112.762 40.38 112.692 40.5835C112.634 40.7204 112.595 40.7889 112.585 40.7836C112.647 40.5068 112.687 40.225 112.706 39.941C112.708 39.1709 112.432 38.4305 111.938 37.8765C111.559 37.4909 111.106 37.2015 110.611 37.0293C110.116 36.8572 109.592 36.8065 109.077 36.8811C107.799 37.1045 106.613 37.7374 105.671 38.6981C104.62 39.6671 103.662 40.752 102.499 41.2998C101.641 41.6975 100.688 41.7853 99.7811 41.55C98.8738 41.3147 98.061 40.7689 97.4631 39.9937C97.3374 39.829 97.225 39.6527 97.1274 39.467C97.0496 39.3037 97.0204 39.2511 97.0301 39.2458Z" fill="#455A64"/>
    <path d="M115.146 49.7312C115.146 49.7312 115.009 49.6364 114.888 49.3573C114.727 48.9638 114.672 48.5297 114.727 48.1039C114.8 46.9926 115.7 45.7918 115.827 44.254C115.906 43.5427 115.782 42.8221 115.471 42.1895C115.199 41.6885 114.782 41.2982 114.284 41.0782C113.946 40.9258 113.577 40.8713 113.214 40.9202C112.961 40.9624 112.82 41.0308 112.81 41.0045C112.8 40.9782 112.922 40.8781 113.19 40.7886C113.578 40.6838 113.986 40.7058 114.362 40.8518C114.927 41.0615 115.406 41.4765 115.72 42.0262C116.081 42.7107 116.228 43.5033 116.138 44.2856C116.057 45.0466 115.85 45.7854 115.525 46.4659C115.26 46.9915 115.067 47.5556 114.951 48.1407C114.865 48.68 114.932 49.2349 115.146 49.7312Z" fill="#455A64"/>
    <path d="M87.5968 24.9548C87.4266 24.8021 86.8232 19.1616 86.8232 19.1616L91.2021 16.3808L98.0137 18.0819L96.6465 22.2109L89.6501 26.1819L87.5968 24.9548Z" fill="#EB996E"/>
    <path d="M74.0562 29.3881C74.0562 29.3881 85.0617 23.1946 92.1214 22.3836C99.9596 21.4777 107.861 26.5284 107.861 26.5284L106.299 4.15071C106.299 4.15071 98.9282 -1.80578 89.5525 0.727441C81.6024 2.8762 73.6475 7.04733 73.6475 7.04733L74.0562 29.3881Z" fill="#FAFAFA"/>
    <path d="M74.051 29.4099V29.0254L74.0218 27.872C73.9975 26.8187 73.9634 25.3441 73.9147 23.4218C73.832 19.5298 73.7104 13.9419 73.5596 7.0954V7.02694L73.618 6.99534C75.7247 5.94202 78.0212 4.84657 80.4928 3.83539C83.0882 2.72336 85.7353 1.75828 88.4234 0.944046L89.4841 0.638584L90.5788 0.396322C91.3178 0.233651 92.0652 0.119335 92.8169 0.0539947C94.3615 -0.0610281 95.9132 0.00784958 97.4439 0.259391C99.0176 0.532631 100.56 0.984538 102.047 1.60763C103.579 2.23863 105.037 3.06236 106.391 4.06185L106.435 4.09346V4.16192C106.435 4.37785 106.469 4.61485 106.484 4.84658C107.014 12.52 107.525 19.8563 107.987 26.5396V26.7766L107.793 26.6607C105.597 25.352 103.275 24.3083 100.869 23.5482C98.6833 22.8491 96.4194 22.477 94.1403 22.4422C92.1184 22.4559 90.1079 22.7713 88.1656 23.3796C86.3459 23.9063 84.7014 24.5278 83.2223 25.1229C80.2739 26.3289 77.992 27.4402 76.435 28.2196L74.664 29.1255L74.2115 29.3625L74.051 29.4362L74.2018 29.3414L74.6446 29.0886C75.0435 28.8674 75.6176 28.5619 76.4058 28.1406C77.9482 27.3401 80.2252 26.2025 83.1736 24.9807C84.6333 24.375 86.2973 23.7483 88.1218 23.2058C90.0777 22.5782 92.1052 22.2503 94.1452 22.2315C96.4527 22.2628 98.7451 22.6403 100.957 23.3533C103.385 24.1064 105.726 25.1523 107.939 26.4711L107.763 26.5922C107.277 19.909 106.79 12.5726 106.241 4.89924L106.192 4.20932L106.245 4.30938C104.908 3.32749 103.47 2.51798 101.959 1.8973C100.489 1.27983 98.9621 0.831458 97.405 0.559586C95.8835 0.297982 94.3399 0.218504 92.8023 0.32259C92.0608 0.387396 91.3233 0.498175 90.5934 0.654384L89.5133 0.896646L88.4575 1.19684C85.7798 1.98876 83.1409 2.92742 80.5512 4.00919C78.0844 5.0309 75.7831 6.11582 73.6861 7.16913L73.7396 7.07433C73.8418 13.9209 73.9245 19.4718 73.9829 23.348C74.0072 25.2809 74.0267 26.7924 74.0412 27.8299V29.0096C74.0558 29.2887 74.051 29.4099 74.051 29.4099Z" fill="#263238"/>
    <path d="M102.084 20.3712C102.011 20.3712 101.719 16.5951 101.432 11.9447C101.145 7.29433 100.965 3.47079 101.033 3.47079C101.102 3.47079 101.394 7.24166 101.685 11.8973C101.977 16.553 102.153 20.366 102.084 20.3712Z" fill="#E0E0E0"/>
    <path d="M99.3144 19.1686C99.2463 19.1686 98.9544 15.3925 98.6673 10.7421C98.3803 6.09171 98.1808 2.31558 98.2684 2.28398C98.3559 2.25238 98.6284 6.05484 98.9155 10.7105C99.2025 15.3661 99.3874 19.1633 99.3144 19.1686Z" fill="#E0E0E0"/>
    <path d="M96.6469 18.778C96.5788 18.778 96.2869 15.0018 95.9949 10.3515C95.703 5.70107 95.5084 1.89334 95.6008 1.89334C95.6933 1.89334 95.9609 5.66421 96.2479 10.3199C96.535 14.9755 96.715 18.7727 96.6469 18.778Z" fill="#E0E0E0"/>
    <path d="M91.1952 19.5904C91.1271 19.5904 90.8352 15.8143 90.5433 11.1639C90.2513 6.51353 90.0567 2.73739 90.1492 2.70579C90.2416 2.67419 90.5092 6.47666 90.7963 11.1323C91.0833 15.788 91.2633 19.5852 91.1952 19.5904Z" fill="#E0E0E0"/>
    <path d="M88.6406 20.3712C88.5724 20.3712 88.2805 16.6004 87.9935 11.9447C87.7064 7.28906 87.5264 3.47079 87.5945 3.47079C87.6626 3.47079 87.9545 7.24693 88.2465 11.8973C88.5384 16.5477 88.7135 20.366 88.6406 20.3712Z" fill="#E0E0E0"/>
    <path d="M85.9397 21.1579C85.8668 21.1579 85.5797 17.3818 85.2878 12.7314C84.9959 8.08099 84.8012 4.27325 84.8888 4.27325C84.9764 4.27325 85.2537 8.04412 85.5408 12.6998C85.8278 17.3554 85.9933 21.1526 85.9397 21.1579Z" fill="#E0E0E0"/>
    <path d="M80.7837 23.4201C80.7107 23.4201 80.4188 19.6492 80.1317 14.9936C79.8446 10.3379 79.6451 6.54073 79.7327 6.53547C79.8203 6.5302 80.0928 10.3116 80.3847 14.962C80.6766 19.6124 80.8518 23.4148 80.7837 23.4201Z" fill="#E0E0E0"/>
    <path d="M83.2478 22.1618C83.1749 22.1618 82.8878 18.391 82.5959 13.7353C82.304 9.07965 82.1093 5.27718 82.1969 5.27192C82.2845 5.26665 82.5618 9.04805 82.8489 13.6984C83.1359 18.3488 83.316 22.1618 83.2478 22.1618Z" fill="#E0E0E0"/>
    <path d="M77.9018 24.3973C77.8337 24.3973 77.5418 20.6212 77.2547 15.9708C76.9677 11.3204 76.7682 7.54431 76.8558 7.51271C76.9433 7.48111 77.2158 11.2836 77.5077 15.9392C77.7997 20.5949 77.9748 24.3921 77.9018 24.3973Z" fill="#E0E0E0"/>
    <path d="M93.8407 18.8937C93.7726 18.8937 93.4807 15.1176 93.1888 10.4672C92.8968 5.81683 92.7022 2.01437 92.7947 2.0091C92.8871 2.00383 93.1547 5.77997 93.4418 10.4356C93.7288 15.0913 93.9089 18.8885 93.8407 18.8937Z" fill="#E0E0E0"/>
    <path d="M97.5003 19.0509C98.0716 18.7347 98.676 18.4942 99.3005 18.3346C100.439 17.9502 102.03 17.4446 103.83 16.9074L103.757 17.3972L103.047 16.9127C99.5535 14.569 96.2986 13.6105 96.3472 13.4473C96.3472 13.3788 97.1938 13.5368 98.4929 13.9739C100.179 14.5904 101.795 15.4119 103.31 16.4229C103.563 16.5861 103.796 16.7599 104.035 16.9232C104.074 16.9525 104.106 16.9935 104.125 17.0413C104.144 17.0891 104.15 17.1418 104.142 17.1932C104.134 17.2446 104.113 17.2926 104.081 17.3315C104.049 17.3705 104.008 17.3987 103.962 17.413C102.157 17.9397 100.556 18.3715 99.3881 18.6664C98.7761 18.8793 98.1419 19.0085 97.5003 19.0509Z" fill="#43D894"/>
    <path d="M100.201 18.4727C100.065 18.4727 99.8364 17.2403 99.7148 15.6919C99.5932 14.1436 99.5689 12.8691 99.7148 12.8533C99.8608 12.8375 100.08 14.0804 100.201 15.634C100.323 17.1877 100.342 18.4569 100.201 18.4727Z" fill="#43D894"/>
    <path d="M104.042 17.443C104.042 17.443 104.101 17.5378 104.154 17.7484C104.221 18.0634 104.202 18.3925 104.101 18.6964C103.931 19.1768 103.633 19.5913 103.244 19.8867C103.014 20.0775 102.764 20.24 102.5 20.3712C102.201 20.5147 101.888 20.6191 101.566 20.6819C100.829 20.8335 100.071 20.8119 99.3423 20.6187C98.9371 20.5162 98.5402 20.3788 98.1552 20.2079C97.4972 19.9487 96.8929 19.5515 96.3769 19.0391C95.8609 18.5267 95.4434 17.9091 95.1483 17.2218C94.6349 16.2317 94.4625 15.0765 94.6618 13.9618C94.7881 13.3703 95.1056 12.8473 95.557 12.4871C95.9919 12.1647 96.493 11.9623 97.0167 11.8973C98.2801 11.7189 99.5647 11.9016 100.743 12.4274C101.921 12.9531 102.951 13.8035 103.731 14.8939C104.379 15.8231 104.766 16.9349 104.845 18.096C104.902 18.5126 104.892 18.9365 104.816 19.3495C104.741 18.9439 104.685 18.5343 104.65 18.1224C104.503 17.0287 104.088 15.9976 103.449 15.1362C102.492 13.8693 101.18 12.9729 99.7121 12.5819C98.8572 12.3463 97.9683 12.2926 97.0945 12.4239C96.6502 12.4923 96.2268 12.6727 95.8587 12.9506C95.503 13.2342 95.2541 13.6477 95.1581 14.1145C94.9899 15.1036 95.1484 16.1252 95.6057 17.0006C95.9833 17.8575 96.5497 18.6008 97.2551 19.1651C98.4969 20.0854 100.001 20.4962 101.498 20.3238C102.064 20.2389 102.604 20.0116 103.074 19.6602C103.435 19.4113 103.727 19.0597 103.916 18.6437C104.021 18.3727 104.068 18.079 104.052 17.7853C104.027 17.6731 104.024 17.5566 104.042 17.443Z" fill="#43D894"/>
    <path d="M92.9851 27.0807L95.1794 25.1584C96.1389 24.32 96.7614 23.1121 96.9164 21.7878L97.038 20.7767L90.4454 19.3336C90.4454 19.3336 89.8275 21.4929 92.3088 22.0301C90.1096 23.0834 89.2874 25.19 88.6841 27.5547L92.9851 27.0807Z" fill="#EB996E"/>
    <path d="M90.2665 23.8479C90.3005 23.8479 90.4416 23.553 90.8406 23.158C91.3884 22.6051 92.106 22.2918 92.8549 22.2785H93.5604L92.8987 22.0099L91.3612 21.3832H91.3904C91.0825 21.2072 90.8274 20.9398 90.655 20.6124C90.4827 20.2849 90.4002 19.911 90.4173 19.5346C90.4224 19.4776 90.4322 19.4212 90.4465 19.3661L90.2616 19.4767C92.1105 19.9717 93.7842 20.3878 95.0103 20.6142C95.6233 20.7301 96.1196 20.8091 96.4699 20.846C96.6476 20.8843 96.8295 20.8949 97.0099 20.8776C96.3702 20.6737 95.7205 20.5084 95.0638 20.3825C93.8572 20.0981 92.1932 19.6452 90.3443 19.1449L90.2032 19.108L90.1594 19.2555C90.1379 19.3328 90.1232 19.4121 90.1157 19.4925C90.0656 19.9485 90.1655 20.4091 90.3979 20.7933C90.6083 21.1432 90.8894 21.4368 91.2201 21.6518L92.7673 22.2311L92.8111 21.9572C92.0052 21.9937 91.2449 22.3721 90.6946 23.0105C90.4855 23.2434 90.3377 23.5325 90.2665 23.8479Z" fill="#D1734A"/>
    <path d="M105.833 217.728L115.296 136.623L113.482 124.33H94.4724L92.2052 216.248C92.1957 216.6 92.3021 216.944 92.5052 217.219C92.7084 217.494 92.9952 217.682 93.3145 217.749L103.707 219.482C103.954 219.522 104.205 219.509 104.447 219.442C104.689 219.375 104.915 219.257 105.114 219.093C105.312 218.929 105.478 218.724 105.602 218.49C105.725 218.255 105.804 217.996 105.833 217.728Z" fill="#263238"/>
    <path d="M115.014 139.318L132.227 157.751L107.462 164.266L109.224 177.764L142.742 172.829C144.16 172.62 145.524 172.101 146.751 171.303C147.978 170.506 149.042 169.446 149.879 168.189C151.145 166.287 151.839 164.009 151.868 161.665C151.897 159.321 151.258 157.024 150.04 155.086L123.932 113.612L112.255 117.725L115.014 139.318Z" fill="#263238"/>
    <path d="M114.08 134.643C114.359 135.388 114.56 136.166 114.678 136.96C114.878 137.735 114.995 138.532 115.028 139.335C114.749 138.59 114.548 137.812 114.43 137.018C114.23 136.243 114.113 135.446 114.08 134.643Z" fill="#455A64"/>
    <path d="M111.57 166.032C111.57 166.032 111.706 165.974 111.978 165.885L113.18 165.479L117.802 163.957L134.607 158.485L134.564 158.659L113.9 134.849L114.119 134.77C113.706 138.514 113.282 142.417 112.844 146.404C110.713 165.721 108.714 183.201 107.162 195.841C106.393 202.161 105.702 207.264 105.215 210.788C104.938 212.547 104.758 213.916 104.568 214.832L104.364 215.886C104.315 216.117 104.286 216.238 104.286 216.238C104.298 216.116 104.316 215.995 104.34 215.875C104.379 215.633 104.442 215.285 104.52 214.822C104.69 213.905 104.855 212.531 105.118 210.772C105.605 207.243 106.232 202.135 106.982 195.815C108.485 183.175 110.455 165.69 112.587 146.372C113.024 142.385 113.453 138.472 113.866 134.738L113.895 134.449L114.08 134.659L134.7 158.517L134.807 158.643L134.656 158.691L117.827 164.073L113.195 165.537L111.978 165.916L111.57 166.032Z" fill="#455A64"/>
    <path d="M106.001 216.218C105.928 216.218 107.894 198.991 110.38 177.772C112.867 156.553 114.949 139.326 115.017 139.357C115.085 139.389 113.124 156.574 110.638 177.804C108.152 199.033 106.07 216.223 106.001 216.218Z" fill="#455A64"/>
    <path d="M112.236 126.059C112.413 126.461 112.547 126.883 112.635 127.318C112.844 128.102 113.121 129.203 113.355 130.425C113.588 131.647 113.783 132.763 113.895 133.585C113.981 134.019 114.021 134.463 114.017 134.907C113.877 134.491 113.777 134.06 113.72 133.622C113.545 132.721 113.335 131.663 113.107 130.493L112.46 127.376C112.345 126.946 112.27 126.505 112.236 126.059Z" fill="#455A64"/>
    <path d="M113.335 124.476C113.335 124.476 113.579 124.224 114.036 124.397C114.17 124.449 114.288 124.538 114.38 124.656C114.471 124.773 114.532 124.915 114.557 125.066C114.59 125.254 114.57 125.448 114.501 125.623C114.432 125.798 114.315 125.947 114.167 126.051C114.014 126.142 113.839 126.18 113.666 126.161C113.492 126.142 113.328 126.067 113.194 125.946C113.084 125.845 113.004 125.711 112.964 125.561C112.925 125.411 112.927 125.252 112.97 125.103C113.017 124.909 113.132 124.742 113.292 124.64C113.403 124.571 113.476 124.571 113.481 124.587C113.486 124.603 113.219 124.734 113.141 125.15C113.119 125.261 113.126 125.375 113.162 125.481C113.197 125.587 113.259 125.681 113.34 125.751C113.439 125.836 113.56 125.888 113.686 125.901C113.812 125.913 113.939 125.884 114.051 125.819C114.156 125.741 114.239 125.633 114.291 125.506C114.342 125.38 114.36 125.24 114.342 125.103C114.327 124.989 114.285 124.882 114.221 124.79C114.158 124.698 114.074 124.625 113.978 124.576C113.774 124.489 113.554 124.455 113.335 124.476Z" fill="#455A64"/>
    <path d="M137.298 160.962C137.249 161.025 136.276 160.061 134.865 159.192C133.454 158.323 132.223 157.875 132.243 157.796C134.186 158.251 135.948 159.357 137.279 160.956L137.298 160.962Z" fill="#455A64"/>
    <path d="M94.2015 124.064L92.5278 91.8277C92.5278 91.8277 90.0318 80.2149 87.8765 75.5488L99.2567 66.5219L102.205 68.0544L108.044 73.8002L113.95 70.0663C113.95 70.0663 121.025 73.2894 122.888 74.5007C124.751 75.712 125.121 78.9352 125.121 78.9352C125.121 78.9352 118.986 90.6375 118.796 95.2299C118.606 99.8224 124.932 111.556 124.932 111.556C124.932 111.556 128.391 112.668 128.585 115.68C128.756 118.287 127.637 119.219 127.637 119.219C127.637 119.219 127.15 116.386 123.632 117.597C120.115 118.808 112.753 125.86 107.474 126.06C102.195 126.261 94.2015 124.064 94.2015 124.064Z" fill="#43D894"/>
    <path d="M124.797 77.5817L129.283 97.4894L134.382 84.3229L141.612 89.0628C141.612 89.0628 134.8 115.296 128.047 112.715C128.047 112.715 123.843 110.414 123.328 108.781C122.812 107.148 115.018 95.2511 115.018 95.2511L124.797 77.5817Z" fill="#43D894"/>
    <path d="M124.917 111.593C124.917 111.593 124.854 111.52 124.761 111.372L124.353 110.724C124.177 110.44 123.958 110.092 123.739 109.671C123.521 109.25 123.253 108.781 122.995 108.228C122.737 107.675 122.445 107.09 122.187 106.427C121.93 105.763 121.652 105.052 121.389 104.294C120.848 102.635 120.43 100.932 120.139 99.2011C119.871 97.4601 119.726 95.6994 119.706 93.9345C119.706 93.1234 119.706 92.3545 119.76 91.633C119.813 90.9115 119.862 90.2479 119.915 89.637C120.047 88.4204 120.188 87.4408 120.324 86.772C120.382 86.4665 120.431 86.2084 120.475 86.003C120.485 85.912 120.508 85.8232 120.543 85.7397C120.554 85.8306 120.554 85.9227 120.543 86.0136C120.514 86.2242 120.48 86.4823 120.441 86.793C120.339 87.4672 120.222 88.4467 120.115 89.658C120.071 90.2637 120.003 90.9273 119.993 91.6435C119.983 92.3598 119.954 93.1235 119.959 93.9292C119.994 95.675 120.145 97.4157 120.412 99.1379C120.697 100.855 121.105 102.545 121.633 104.194C121.886 104.947 122.119 105.668 122.401 106.3C122.684 106.932 122.927 107.554 123.17 108.107C123.413 108.66 123.657 109.129 123.881 109.555C124.104 109.982 124.294 110.34 124.455 110.635L124.82 111.314C124.862 111.403 124.894 111.497 124.917 111.593Z" fill="#263238"/>
    <path d="M85.9305 23.3224C85.9305 23.3224 74.5454 44.0306 73.767 47.0852C72.9496 50.2451 88.7573 77.31 88.7573 77.31C88.7573 77.31 89.0639 78.179 89.0687 78.1738L100.366 68.4043L87.0496 48.0068L94.2066 27.6357L85.9305 23.3224Z" fill="#43D894"/>
    <path d="M87.5032 48.8379C87.4643 48.8695 87.2259 48.5008 86.7247 48.0374C86.069 47.4384 85.2953 47.0098 84.463 46.7843C83.6306 46.5588 82.7617 46.5425 81.9226 46.7365C81.2803 46.8892 80.9057 47.0946 80.8862 47.0472C81.1716 46.7977 81.5036 46.618 81.8593 46.5206C82.2439 46.3997 82.6413 46.3325 83.0416 46.3204C83.5331 46.3091 84.0238 46.3675 84.5012 46.4942C84.9761 46.6292 85.4337 46.8274 85.8636 47.0841C86.2158 47.3004 86.5426 47.5621 86.8366 47.8636C87.122 48.1317 87.3495 48.4642 87.5032 48.8379Z" fill="#263238"/>
    <path d="M92.6738 79.0019C92.6252 79.0019 92.6495 78.2804 92.4695 77.1481C92.3593 76.4829 92.1965 75.8292 91.983 75.1942C91.4757 73.631 90.6775 72.197 89.6378 70.9809C89.2138 70.4898 88.7533 70.0371 88.2609 69.6274C87.4095 68.9323 86.8013 68.6163 86.8353 68.5741C86.9871 68.6179 87.1327 68.6834 87.2684 68.769C87.4357 68.8511 87.5982 68.9443 87.7549 69.0481C87.9659 69.1787 88.1706 69.3211 88.368 69.4747C88.893 69.869 89.3817 70.3169 89.8276 70.8124C90.3614 71.4255 90.8358 72.096 91.2434 72.8137C91.6406 73.5368 91.9667 74.3028 92.2165 75.0994C92.417 75.7505 92.5604 76.4205 92.6446 77.1007C92.6779 77.361 92.699 77.6229 92.7079 77.8854C92.7223 78.0835 92.7223 78.2825 92.7079 78.4805C92.7226 78.6552 92.7111 78.8313 92.6738 79.0019Z" fill="#263238"/>
    <path d="M123.588 112.18C123.588 112.212 123.233 112.18 122.615 112.222C121.733 112.318 120.869 112.561 120.056 112.944C118.853 113.521 117.72 114.257 116.684 115.135C115.497 116.104 114.251 117.283 112.836 118.347C111.509 119.398 109.989 120.128 108.379 120.486C107.062 120.737 105.716 120.753 104.394 120.533C103.506 120.393 102.632 120.167 101.781 119.859C101.48 119.748 101.251 119.653 101.095 119.585C101.016 119.555 100.939 119.516 100.867 119.469C101.186 119.545 101.501 119.64 101.811 119.753C102.663 120.021 103.533 120.218 104.414 120.343C105.708 120.529 107.022 120.492 108.306 120.233C109.888 119.876 111.381 119.158 112.685 118.126C114.096 117.073 115.332 115.898 116.538 114.935C117.595 114.053 118.753 113.324 119.983 112.765C120.817 112.389 121.704 112.17 122.605 112.117C122.848 112.101 123.092 112.101 123.335 112.117C123.422 112.127 123.507 112.148 123.588 112.18Z" fill="#263238"/>
    <path d="M128.832 106.639C128.68 106.215 128.581 105.77 128.536 105.318C128.379 104.231 128.329 103.129 128.385 102.031C128.443 100.933 128.606 99.8438 128.871 98.7817C128.96 98.3362 129.104 97.9057 129.3 97.502C129.241 97.9496 129.156 98.3929 129.047 98.8291C128.84 99.8893 128.708 100.965 128.652 102.047C128.599 103.129 128.625 104.214 128.73 105.291C128.793 105.738 128.827 106.188 128.832 106.639Z" fill="#263238"/>
    <g opacity="0.3">
        <path d="M101.339 119.328C101.378 118.012 102.828 117.258 104.044 117.337C105.261 117.416 106.414 118.012 107.63 118.059C109.693 118.143 111.523 116.679 113.099 115.257C114.675 113.835 116.427 112.303 118.49 112.213C118.748 112.213 119.074 112.26 119.147 112.534C119.22 112.808 119.02 113.014 118.845 113.182C116.305 115.636 113.707 118.138 110.574 119.576C107.441 121.014 103.621 121.24 100.775 119.223" fill="black"/>
    </g>
    <g opacity="0.3">
        <path d="M120.305 87.4187C119.962 93.8646 121.898 100.21 125.72 105.167C126.358 105.983 127.063 106.789 127.375 107.8C127.686 108.812 127.477 110.118 126.611 110.634C126.233 110.82 125.814 110.881 125.404 110.81C124.995 110.738 124.614 110.538 124.309 110.234C123.708 109.616 123.239 108.863 122.937 108.027C120.067 101.38 118.646 93.707 120.505 86.6498" fill="black"/>
    </g>
    <path d="M64.1962 193.779C64.6828 192.009 65.6802 190.303 67.242 189.566C68.8038 188.828 70.7451 189.239 72.4091 189.892C74.073 190.545 75.703 191.425 77.4691 191.54C79.2352 191.656 81.2252 190.75 81.7555 188.907C82.2421 187.185 81.2933 185.358 80.0964 184.109C78.8315 182.791 77.2803 181.838 75.5858 181.339C73.8913 180.84 72.108 180.811 70.4004 181.254C68.6927 181.698 67.1156 182.599 65.8146 183.876C64.5135 185.153 63.5303 186.763 62.9556 188.56" fill="#43D894"/>
    <g opacity="0.5">
        <path d="M64.1816 193.819C64.6681 192.049 65.6656 190.343 67.2274 189.606C68.7892 188.868 70.7305 189.279 72.3944 189.932C74.0584 190.585 75.6883 191.465 77.4545 191.581C79.2206 191.697 81.2105 190.791 81.7409 188.947C82.2274 187.225 81.2787 185.398 80.0818 184.15C78.8169 182.831 77.2657 181.878 75.5712 181.379C73.8766 180.88 72.0934 180.851 70.3857 181.295C68.678 181.738 67.101 182.64 65.7999 183.916C64.4988 185.193 63.5156 186.804 62.9409 188.6" fill="black"/>
    </g>
    <path d="M50.2017 201.477C47.6085 198.818 47.7398 194.178 49.0292 190.575C50.3185 186.973 53.1453 184.203 56.2932 182.375C59.3681 180.628 62.7685 179.658 66.2393 179.537C69.7102 179.415 73.1613 180.146 76.3339 181.675C74.7804 181.747 73.2668 182.23 71.9258 183.082C70.5847 183.934 69.4571 185.129 68.6417 186.562C67.2258 189.117 66.9096 192.213 65.7224 194.905C64.4009 197.939 62.0564 200.311 59.1701 201.533C56.2838 202.755 53.0748 202.735 50.2017 201.477Z" fill="#43D894"/>
    <path d="M48.958 185.497C46.0923 181.837 45.7079 175.954 46.1312 171.172C46.5545 166.39 47.5909 161.582 46.8805 156.842C46.4669 154.029 45.4598 151.349 45.1192 148.526C44.7786 145.703 45.2603 142.517 47.2795 140.694C49.6003 138.588 53.2542 139.115 55.6723 141.063C58.0904 143.012 59.4819 146.114 60.5037 149.189C62.7515 155.952 63.5786 163.446 61.7298 170.345C59.8809 177.244 55.5555 183.417 49.2062 185.497" fill="#43D894"/>
    <path d="M47.5832 215.566C47.5725 215.425 47.5725 215.284 47.5832 215.144C47.5832 214.87 47.5832 214.46 47.5832 213.933C47.6222 212.88 47.7146 211.363 47.9335 209.499C48.1864 207.311 48.5535 205.142 49.0331 203C49.6294 200.369 50.5508 197.838 51.7724 195.474C52.9985 193.113 54.5032 190.936 56.2486 188.996C57.6697 187.413 59.2438 186.001 60.9437 184.782C61.6589 184.256 62.3498 183.84 62.9482 183.461C63.5467 183.081 64.0916 182.829 64.5295 182.602L65.561 182.133C65.6784 182.073 65.8005 182.024 65.9259 181.986C65.8148 182.059 65.6994 182.124 65.5804 182.181L64.5684 182.707C64.1403 182.95 63.5953 183.234 63.0115 183.603C62.4276 183.971 61.7416 184.409 61.0361 184.951C57.2978 187.706 54.1989 191.36 51.9816 195.626C49.3445 200.619 48.6196 205.87 48.0892 209.546C47.8508 211.405 47.7292 212.917 47.6659 213.965C47.6368 214.491 47.6173 214.876 47.6027 215.171C47.6054 215.303 47.5989 215.435 47.5832 215.566Z" fill="#263238"/>
    <path d="M22.8553 171.018C17.5471 174.484 17.5666 177.638 18.4764 180.614C19.3862 183.59 22.6169 185.659 25.3172 184.543C26.8401 183.911 27.9494 182.478 28.8933 181.035C29.8372 179.592 30.7227 178.049 32.0461 177.012C33.3695 175.974 35.2864 175.579 36.6147 176.606" fill="#43D894"/>
    <g opacity="0.5">
        <path d="M22.8553 171.059C17.5471 174.524 17.5666 177.679 18.4764 180.654C19.3862 183.63 22.6169 185.7 25.3172 184.583C26.8401 183.951 27.9494 182.519 28.8933 181.076C29.8372 179.633 30.7227 178.089 32.0461 177.052C33.3695 176.014 35.2864 175.619 36.6147 176.646" fill="black"/>
    </g>
    <path d="M18.8837 174.836C20.2704 172.761 23.7005 172.161 25.8607 173.198C28.021 174.236 29.612 176.284 31.0132 178.323C32.4145 180.361 33.8108 182.536 35.7765 183.963C37.7421 185.39 40.4862 185.906 42.447 184.49C43.0708 183.986 43.5932 183.349 43.9822 182.62C44.3712 181.89 44.6186 181.082 44.7094 180.245C44.883 178.569 44.7775 176.872 44.398 175.236C43.9115 172.83 43.1671 170.312 41.3863 168.785C39.4012 167.078 36.6474 166.999 34.1174 167.089C31.1981 167.189 28.2789 167.426 25.5348 168.516C22.7907 169.606 20.0222 171.961 18.8643 174.836" fill="#43D894"/>
    <path d="M43.1693 210.998C43.1631 210.956 43.1631 210.914 43.1693 210.872C43.1693 210.772 43.1693 210.651 43.1693 210.503C43.1693 210.156 43.1693 209.676 43.1255 209.076C43.0915 207.817 43.0428 206.032 42.9844 203.836C42.9261 201.64 42.8385 198.985 42.6877 196.068C42.5368 193.15 42.3373 189.932 41.9287 186.588C41.7549 184.962 41.4604 183.354 41.048 181.779C40.2274 178.994 38.97 176.382 37.3308 174.059C36.6475 173.111 35.8976 172.222 35.0879 171.399C33.906 170.215 32.568 169.228 31.1177 168.471C30.8598 168.339 30.6312 168.213 30.4317 168.123L29.9111 167.907L29.5948 167.77L29.4878 167.712L29.6046 167.744L29.9305 167.86L30.456 168.055C30.6652 168.134 30.8939 168.255 31.1566 168.376C32.6342 169.109 33.9994 170.082 35.2047 171.262C36.0299 172.085 36.7929 172.978 37.4865 173.932C38.2737 175.033 38.972 176.204 39.5738 177.434C40.2442 178.792 40.7979 180.212 41.228 181.679C41.6469 183.269 41.9447 184.893 42.1184 186.535C42.532 189.89 42.7266 193.108 42.8628 196.015C42.999 198.922 43.0672 201.576 43.1109 203.794C43.1547 206.011 43.1645 207.801 43.1742 209.06V210.472C43.1742 210.624 43.1742 210.745 43.1742 210.846C43.1788 210.896 43.1772 210.948 43.1693 210.998Z" fill="#263238"/>
    <path d="M45.0828 213.554C44.8308 212.748 44.6372 211.922 44.5038 211.084C44.1343 208.798 44.0525 206.468 44.2606 204.158C44.5859 200.743 45.2632 197.378 46.2797 194.125C47.3696 190.439 48.8486 186.478 50.1088 182.233C50.7318 180.17 51.2403 178.069 51.6317 175.94C51.9819 173.955 52.2337 171.95 52.3858 169.936C52.6278 166.521 52.6847 163.094 52.5561 159.671C52.4636 156.743 52.3177 154.378 52.2301 152.746L52.1279 150.866C52.1279 150.66 52.1279 150.497 52.1279 150.376C52.1215 150.32 52.1215 150.263 52.1279 150.207C52.1323 150.262 52.1323 150.316 52.1279 150.371C52.1279 150.497 52.1523 150.655 52.1717 150.86C52.2074 151.31 52.2561 151.937 52.3177 152.741C52.4345 154.373 52.6047 156.738 52.7166 159.666C52.8703 163.096 52.8313 166.532 52.5999 169.957C52.4533 171.98 52.2048 173.993 51.8555 175.987C51.4652 178.125 50.9567 180.235 50.3326 182.307C49.0627 186.568 47.5788 190.512 46.4841 194.194C45.4605 197.438 44.7687 200.793 44.4211 204.2C44.2024 206.496 44.258 208.813 44.5865 211.094C44.7179 211.9 44.8395 212.521 44.9417 212.938C44.9855 213.138 45.0244 213.296 45.0488 213.412C45.065 213.457 45.0764 213.505 45.0828 213.554Z" fill="#263238"/>
    <path d="M58.2419 216.133H33.331L32.7617 210.945H58.2419V216.133Z" fill="#455A64"/>
    <path d="M36.0039 215.572L39.1178 231.145H52.6533L55.5677 215.572H36.0039Z" fill="#455A64"/>
    <path d="M58.249 216.166C58.249 216.24 52.7754 216.282 46.0173 216.261C39.2592 216.24 33.7856 216.166 33.7856 216.093C33.7856 216.019 39.2641 215.982 46.0222 216.003C52.7802 216.024 58.249 216.098 58.249 216.166Z" fill="#455A64"/>
    <path d="M53.9603 223.841C53.2825 223.292 52.5457 222.834 51.766 222.477C50.914 222.115 50.0098 221.919 49.0949 221.898C47.9746 221.902 46.864 222.123 45.8156 222.551C44.682 222.967 43.6213 223.451 42.5898 223.715C41.672 223.93 40.7251 223.961 39.7971 223.804C39.1731 223.709 38.5681 223.503 38.0066 223.193C37.8545 223.107 37.7096 223.006 37.5736 222.893C37.4811 222.819 37.4325 222.777 37.4373 222.767C37.4422 222.756 37.6514 222.903 38.0455 223.104C38.6102 223.373 39.2087 223.55 39.8214 223.63C40.7287 223.756 41.6493 223.708 42.5412 223.488C43.5386 223.219 44.5992 222.73 45.7426 222.314C46.8171 221.876 47.9567 221.657 49.1046 221.666C50.0415 221.702 50.9645 221.922 51.8293 222.314C52.4094 222.576 52.9543 222.921 53.4494 223.341C53.5854 223.452 53.7154 223.571 53.8387 223.699C53.9214 223.783 53.9652 223.83 53.9603 223.841Z" fill="#263238"/>
    <path d="M53.7812 224.848C53.1268 224.318 52.4203 223.867 51.6745 223.505C50.8565 223.144 49.984 222.949 49.1007 222.931C48.0182 222.935 46.9446 223.143 45.9284 223.547C44.8289 223.947 43.8023 224.406 42.8194 224.695C41.9473 224.966 41.0395 225.076 40.1337 225.022C39.5215 224.976 38.9242 224.797 38.3773 224.495C38.2308 224.411 38.0908 224.314 37.9589 224.206C37.8664 224.132 37.8226 224.09 37.8275 224.084C37.8324 224.079 38.0367 224.216 38.4162 224.406C38.9652 224.658 39.5523 224.799 40.1483 224.822C41.0306 224.852 41.9116 224.726 42.7562 224.448C43.7293 224.158 44.7413 223.689 45.8555 223.289C46.8962 222.876 47.9971 222.669 49.1056 222.678C50.0128 222.709 50.9062 222.927 51.7378 223.321C52.2959 223.586 52.8194 223.929 53.2947 224.342C53.425 224.451 53.5486 224.569 53.6645 224.695C53.7472 224.795 53.7861 224.843 53.7812 224.848Z" fill="white"/>
    <path d="M54.2001 222.822C53.5023 222.251 52.7465 221.769 51.9474 221.384C51.0803 220.979 50.1554 220.739 49.213 220.673C48.0496 220.64 46.8918 220.859 45.8072 221.316C44.7144 221.778 43.5985 222.174 42.4647 222.501C41.5097 222.675 40.5345 222.675 39.5795 222.501C38.9372 222.39 38.314 222.175 37.7306 221.863C37.5743 221.776 37.4246 221.676 37.283 221.563C37.1857 221.484 37.1371 221.442 37.1419 221.431C37.1468 221.421 37.3609 221.574 37.7696 221.774C38.3589 222.035 38.9771 222.212 39.6087 222.3C40.5429 222.445 41.4925 222.426 42.4209 222.242C43.542 221.906 44.6463 221.507 45.7294 221.047C46.8355 220.582 48.0174 220.365 49.2033 220.41C50.1681 220.487 51.1123 220.751 51.9912 221.189C52.5852 221.475 53.1441 221.839 53.6552 222.274C53.7948 222.39 53.928 222.515 54.0541 222.648C54.166 222.764 54.205 222.811 54.2001 222.822Z" fill="white"/>
    <path d="M58.4618 216.182C58.4618 216.25 52.8569 216.308 45.9431 216.308C39.0294 216.308 33.4438 216.256 33.4438 216.182C33.4438 216.108 39.0488 216.05 45.9577 216.05C52.8666 216.05 58.4618 216.108 58.4618 216.182Z" fill="#263238"/>
    <path d="M198.572 89.7446C198.341 89.4406 198.153 89.1017 198.013 88.7386C197.682 88.0593 197.21 87.0481 196.611 85.7367C195.415 83.1034 193.692 79.2957 191.62 74.5294C187.435 64.9969 181.679 51.6936 175.257 36.6628H176.405C175.53 38.8695 174.595 41.192 173.72 43.583C172.138 47.7963 170.693 52.0096 169.419 56.0648C168.757 58.0977 168.178 60.1148 167.584 62.0845C166.991 64.0542 166.47 66.0028 165.974 67.8777C163.96 75.4827 162.471 82.4293 161.386 88.3015C160.301 94.1737 159.61 98.9611 159.133 102.274C158.895 103.933 158.734 105.223 158.593 106.092C158.554 106.543 158.464 106.987 158.325 107.414C158.268 106.965 158.268 106.509 158.325 106.06C158.384 105.181 158.466 103.875 158.627 102.205C158.953 98.8663 159.517 94.0421 160.491 88.1225C161.464 82.2028 162.87 75.1983 164.835 67.5354C165.322 65.6184 165.867 63.6645 166.417 61.6685C166.966 59.6724 167.57 57.6501 168.227 55.6066C169.496 51.504 170.941 47.3012 172.528 43.0406C173.413 40.639 174.357 38.3007 175.238 36.0887C175.27 36.0067 175.318 35.9324 175.377 35.8703C175.437 35.8081 175.507 35.7592 175.584 35.7264C175.66 35.6936 175.742 35.6776 175.825 35.6792C175.908 35.6808 175.989 35.7001 176.065 35.7358C176.206 35.8002 176.319 35.9208 176.381 36.0729C182.774 51.1195 188.389 64.5124 192.369 74.1239C194.359 78.9428 195.945 82.8243 197.01 85.5102C197.541 86.8532 197.945 87.896 198.207 88.607C198.378 88.9654 198.501 89.3485 198.572 89.7446Z" fill="#43D894"/>
    <path d="M190.435 67.0133C190.527 67.382 181.371 70.3945 170 73.744C158.63 77.0936 149.303 79.5373 149.21 79.1475C149.118 78.7578 158.274 75.7664 169.669 72.4168C181.064 69.0673 190.342 66.6605 190.435 67.0133Z" fill="#43D894"/>
    <path d="M184.051 25.1531C184.232 25.0048 184.43 24.8826 184.64 24.7897L185.385 24.3894C185.686 24.242 186.051 24.0998 186.46 23.926C187.478 23.5205 188.528 23.219 189.598 23.0254C191.068 22.7861 192.561 22.7684 194.035 22.9727C195.884 23.255 197.678 23.8597 199.348 24.7634C201.32 25.8623 203.142 27.2499 204.764 28.8871C206.624 30.7617 208.278 32.863 209.692 35.149C210.081 35.763 210.427 36.4073 210.729 37.0766C211.04 37.7455 211.366 38.4196 211.677 39.1095L212.514 41.2688C212.806 41.9956 213.001 42.7645 213.254 43.5282C214.212 46.7574 214.81 50.099 215.034 53.482C215.263 57.1424 215.143 60.8186 214.674 64.4522C214.17 68.3321 213.401 72.1661 212.373 75.9228C212.13 76.8972 211.823 77.8557 211.551 78.8353C211.278 79.8148 210.909 80.7839 210.578 81.7687C210.184 82.722 209.819 83.6963 209.386 84.6496L208.709 86.0663L208.374 86.7772L207.994 87.4672C205.947 91.2564 203.498 94.7738 200.696 97.9476C197.785 101.252 194.566 104.222 191.092 106.811C187.521 109.542 183.666 111.806 179.604 113.558C175.375 115.383 170.85 116.27 166.298 116.165C163.984 116.087 161.698 115.601 159.53 114.727C157.373 113.851 155.403 112.509 153.74 110.782C152.919 109.94 152.171 109.018 151.507 108.028C150.845 107.054 150.253 106.028 149.736 104.957C148.716 102.859 147.9 100.651 147.303 98.369C145.117 89.706 144.679 80.6353 146.018 71.7728C146.625 67.6642 147.564 63.6215 148.826 59.6913C148.986 59.2173 149.142 58.7433 149.312 58.2693C149.483 57.7953 149.624 57.3266 149.799 56.8684C150.152 55.952 150.503 55.0409 150.85 54.135L152.008 51.5017C152.378 50.6222 152.835 49.8006 153.239 48.958C154.851 45.743 156.694 42.6702 158.751 39.7678L159.481 38.7145L160.245 37.7139C160.761 37.0555 161.247 36.3867 161.768 35.76L163.33 33.9167C163.816 33.2952 164.4 32.7527 164.921 32.1787C165.962 31.0253 167.091 30.0247 168.141 29.0187L169.786 27.6073L170.594 26.9174L171.421 26.2854L173.046 25.053L174.676 23.947L175.469 23.4204L176.276 22.9306L177.853 21.9879C178.899 21.398 179.935 20.8714 180.923 20.3552C181.911 19.8391 182.898 19.4283 183.842 19.0228L186.562 17.9326L189.063 17.0689C192.245 16.0524 194.755 15.4468 196.468 15.0939C197.324 14.9254 197.981 14.799 198.414 14.7253C198.633 14.6638 198.859 14.6372 199.086 14.6463C198.879 14.7458 198.661 14.8183 198.438 14.8622C198.005 14.9833 197.358 15.1519 196.492 15.3625C194.804 15.8049 192.318 16.4896 189.194 17.5798L186.732 18.4961L184.051 19.6074C183.127 20.0287 182.183 20.5027 181.186 20.9767C180.188 21.4507 179.205 22.03 178.179 22.6409L176.637 23.5994L175.843 24.0892L175.065 24.6159L173.469 25.7271L171.888 26.9859L171.08 27.6178L170.292 28.3025L168.686 29.7087C167.66 30.7304 166.56 31.7258 165.548 32.8686C165.037 33.4374 164.483 33.9746 163.991 34.5908C163.5 35.207 162.979 35.8021 162.468 36.4235C161.958 37.045 161.495 37.7139 160.984 38.3616L160.235 39.357L159.525 40.4103C157.516 43.2833 155.718 46.3227 154.149 49.5004C153.754 50.3326 153.312 51.1436 152.952 52.0073L151.828 54.609L150.811 57.3055C150.631 57.7532 150.475 58.2166 150.324 58.6853L149.872 60.0863C148.659 63.9495 147.759 67.9197 147.181 71.9518C146.57 76.1923 146.358 80.4891 146.549 84.776C146.732 89.241 147.385 93.669 148.495 97.974C149.071 100.162 149.853 102.28 150.83 104.294C151.322 105.306 151.883 106.276 152.509 107.196C153.132 108.121 153.833 108.983 154.601 109.771C156.141 111.364 157.961 112.607 159.953 113.426C161.997 114.242 164.149 114.696 166.327 114.769C170.707 114.862 175.061 114.008 179.132 112.257C183.11 110.551 186.889 108.345 190.391 105.684C193.801 103.155 196.962 100.254 199.825 97.026C202.565 93.9328 204.963 90.506 206.972 86.8141L207.342 86.14L207.673 85.4501L208.335 84.0755C208.758 83.1538 209.113 82.2059 209.502 81.2842C209.819 80.3257 210.164 79.3935 210.451 78.435C210.738 77.4765 211.035 76.5232 211.278 75.5594C212.31 71.8663 213.089 68.0957 213.609 64.2784C214.092 60.7226 214.234 57.1221 214.032 53.5346C213.84 50.2307 213.285 46.9634 212.378 43.802C212.14 43.0594 211.955 42.301 211.677 41.5901C211.4 40.8791 211.142 40.1681 210.879 39.4834L209.974 37.4821C209.693 36.8353 209.368 36.2121 209.001 35.6178C207.649 33.3672 206.062 31.2926 204.272 29.4348C202.718 27.8198 200.968 26.4414 199.071 25.3374C197.474 24.435 195.755 23.8145 193.977 23.4994C192.547 23.2612 191.093 23.2364 189.656 23.4256C188.603 23.5803 187.565 23.8341 186.552 24.184C186.144 24.3368 185.779 24.4526 185.467 24.579L184.703 24.9161C184.496 25.0238 184.277 25.1034 184.051 25.1531Z" fill="#43D894"/>
    <path d="M194.965 59.9C194.615 59.9 194.026 53.5801 193.656 45.6802C193.287 37.7804 193.262 31.4078 193.613 31.4078C193.963 31.4078 194.547 37.7277 194.921 45.6276C195.296 53.5274 195.311 59.8789 194.965 59.9Z" fill="#43D894"/>
    <path d="M202.86 42.229C202.991 42.5766 199.167 44.5989 194.229 46.4896C189.29 48.3803 185.145 49.4336 185.048 49.0755C184.95 48.7174 188.901 47.09 193.805 45.1993C198.71 43.3086 202.729 41.8761 202.86 42.229Z" fill="#43D894"/>
</svg>
