<?xml version="1.0" encoding="UTF-8" standalone="no"?>
<svg width="210" height="210" viewBox="0 0 210 210" fill="none" xmlns="http://www.w3.org/2000/svg">
   <path d="M55.38 105.032C55.604 102.088 56.74 99.784 58.788 98.12C60.836 96.456 63.492 95.624 66.756 95.624C68.932 95.624 70.804 96.024 72.372 96.824C73.972 97.592 75.172 98.648 75.972 99.992C76.804 101.336 77.22 102.856 77.22 104.552C77.22 106.536 76.644 108.248 75.492 109.688C74.372 111.128 72.9 112.056 71.076 112.472V112.712C73.156 113.224 74.804 114.232 76.02 115.736C77.236 117.24 77.844 119.208 77.844 121.64C77.844 123.464 77.428 125.112 76.596 126.584C75.764 128.024 74.516 129.16 72.852 129.992C71.188 130.824 69.188 131.24 66.852 131.24C63.46 131.24 60.676 130.36 58.5 128.6C56.324 126.808 55.108 124.28 54.852 121.016H59.076C59.3 122.936 60.084 124.504 61.428 125.72C62.772 126.936 64.564 127.544 66.804 127.544C69.044 127.544 70.74 126.968 71.892 125.816C73.076 124.632 73.668 123.112 73.668 121.256C73.668 118.856 72.868 117.128 71.268 116.072C69.668 115.016 67.252 114.488 64.02 114.488H62.916V110.84H64.068C67.012 110.808 69.236 110.328 70.74 109.4C72.244 108.44 72.996 106.968 72.996 104.984C72.996 103.288 72.436 101.928 71.316 100.904C70.228 99.88 68.66 99.368 66.612 99.368C64.628 99.368 63.028 99.88 61.812 100.904C60.596 101.928 59.876 103.304 59.652 105.032H55.38ZM83.2136 127.496C87.2776 124.232 90.4616 121.56 92.7656 119.48C95.0696 117.368 97.0056 115.176 98.5736 112.904C100.174 110.6 100.974 108.344 100.974 106.136C100.974 104.056 100.462 102.424 99.4376 101.24C98.4456 100.024 96.8296 99.416 94.5896 99.416C92.4136 99.416 90.7176 100.104 89.5016 101.48C88.3176 102.824 87.6776 104.632 87.5816 106.904H83.3576C83.4856 103.32 84.5736 100.552 86.6216 98.6C88.6696 96.648 91.3096 95.672 94.5416 95.672C97.8376 95.672 100.446 96.584 102.366 98.408C104.318 100.232 105.294 102.744 105.294 105.944C105.294 108.6 104.494 111.192 102.894 113.72C101.326 116.216 99.5336 118.424 97.5176 120.344C95.5016 122.232 92.9256 124.44 89.7896 126.968H106.302V130.616H83.2136V127.496ZM110.391 104.12C110.391 101.944 111.047 100.216 112.359 98.936C113.671 97.624 115.351 96.968 117.399 96.968C119.447 96.968 121.127 97.624 122.439 98.936C123.751 100.216 124.407 101.944 124.407 104.12C124.407 106.328 123.751 108.088 122.439 109.4C121.127 110.68 119.447 111.32 117.399 111.32C115.351 111.32 113.671 110.68 112.359 109.4C111.047 108.088 110.391 106.328 110.391 104.12ZM138.423 97.496L118.983 131H114.663L134.103 97.496H138.423ZM117.399 99.656C116.311 99.656 115.447 100.04 114.807 100.808C114.199 101.544 113.895 102.648 113.895 104.12C113.895 105.592 114.199 106.712 114.807 107.48C115.447 108.248 116.311 108.632 117.399 108.632C118.487 108.632 119.351 108.248 119.991 107.48C120.631 106.68 120.951 105.56 120.951 104.12C120.951 102.648 120.631 101.544 119.991 100.808C119.351 100.04 118.487 99.656 117.399 99.656ZM128.775 124.376C128.775 122.168 129.431 120.424 130.743 119.144C132.055 117.832 133.735 117.176 135.783 117.176C137.831 117.176 139.495 117.832 140.775 119.144C142.087 120.424 142.743 122.168 142.743 124.376C142.743 126.552 142.087 128.296 140.775 129.608C139.495 130.92 137.831 131.576 135.783 131.576C133.735 131.576 132.055 130.936 130.743 129.656C129.431 128.344 128.775 126.584 128.775 124.376ZM135.735 119.912C134.647 119.912 133.783 120.296 133.143 121.064C132.503 121.8 132.183 122.904 132.183 124.376C132.183 125.816 132.503 126.92 133.143 127.688C133.783 128.424 134.647 128.792 135.735 128.792C136.823 128.792 137.687 128.424 138.327 127.688C138.967 126.92 139.287 125.816 139.287 124.376C139.287 122.904 138.967 121.8 138.327 121.064C137.687 120.296 136.823 119.912 135.735 119.912Z" fill="black"/>
   <path d="M157.631 186.952C159 188.796 161.611 189.188 163.396 187.744C179.976 174.33 191.865 155.939 197.264 135.232C203.014 113.182 201.061 89.8292 191.727 69.0408C182.393 48.2524 166.24 31.2752 145.94 20.9204C125.641 10.5657 102.414 7.45435 80.1058 12.1017C57.7971 16.7491 37.7447 28.8763 23.269 46.4754C8.79327 64.0745 0.762456 86.0898 0.506317 108.876C0.250178 131.662 7.78408 153.852 21.8605 171.772C35.0792 188.6 53.3228 200.715 73.8798 206.392C76.0936 207.003 78.3308 205.601 78.8496 203.364C79.3684 201.127 77.972 198.902 75.7605 198.282C57.0493 193.039 40.4487 181.972 28.4009 166.635C15.4952 150.205 8.58785 129.861 8.82269 108.969C9.05752 88.0784 16.4204 67.8941 29.6922 51.7587C42.964 35.6233 61.3486 24.5046 81.8019 20.2438C102.255 15.983 123.55 18.8355 142.161 28.3291C160.772 37.8227 175.582 53.3879 184.14 72.4473C192.697 91.5068 194.488 112.917 189.217 133.134C184.295 152.006 173.495 168.781 158.434 181.06C156.654 182.511 156.262 185.108 157.631 186.952Z" fill="#43D894"/>
   <circle cx="18.5" cy="61" r="13.5" fill="#EBAD25" stroke="white"/>
   <path d="M17.488 63.512H14.344L13.84 65H11.692L14.74 56.576H17.116L20.164 65H17.992L17.488 63.512ZM16.96 61.928L15.916 58.844L14.884 61.928H16.96ZM20.6717 58.148V56.24H23.9957V65H21.8597V58.148H20.6717Z" fill="white"/>
   <circle cx="107.5" cy="14" r="13.5" fill="#D9D9D9" stroke="white"/>
   <path d="M105.488 15.512H102.344L101.84 17H99.692L102.74 8.576H105.116L108.164 17H105.992L105.488 15.512ZM104.96 13.928L103.916 10.844L102.884 13.928H104.96ZM108.816 15.356C109.088 15.14 109.212 15.04 109.188 15.056C109.972 14.408 110.588 13.876 111.036 13.46C111.492 13.044 111.876 12.608 112.188 12.152C112.5 11.696 112.656 11.252 112.656 10.82C112.656 10.492 112.58 10.236 112.428 10.052C112.276 9.868 112.048 9.776 111.744 9.776C111.44 9.776 111.2 9.892 111.024 10.124C110.856 10.348 110.772 10.668 110.772 11.084H108.792C108.808 10.404 108.952 9.836 109.224 9.38C109.504 8.924 109.868 8.588 110.316 8.372C110.772 8.156 111.276 8.048 111.828 8.048C112.78 8.048 113.496 8.292 113.976 8.78C114.464 9.268 114.708 9.904 114.708 10.688C114.708 11.544 114.416 12.34 113.832 13.076C113.248 13.804 112.504 14.516 111.6 15.212H114.84V16.88H108.816V15.356Z" fill="#404040"/>
   <circle cx="192.5" cy="75" r="13.5" fill="#D9D9D9" stroke="white"/>
   <path d="M192.344 74.68C192.832 74.784 193.224 75.028 193.52 75.412C193.816 75.788 193.964 76.22 193.964 76.708C193.964 77.412 193.716 77.972 193.22 78.388C192.732 78.796 192.048 79 191.168 79H187.244V70.576H191.036C191.892 70.576 192.56 70.772 193.04 71.164C193.528 71.556 193.772 72.088 193.772 72.76C193.772 73.256 193.64 73.668 193.376 73.996C193.12 74.324 192.776 74.552 192.344 74.68ZM189.296 73.984H190.64C190.976 73.984 191.232 73.912 191.408 73.768C191.592 73.616 191.684 73.396 191.684 73.108C191.684 72.82 191.592 72.6 191.408 72.448C191.232 72.296 190.976 72.22 190.64 72.22H189.296V73.984ZM190.808 77.344C191.152 77.344 191.416 77.268 191.6 77.116C191.792 76.956 191.888 76.728 191.888 76.432C191.888 76.136 191.788 75.904 191.588 75.736C191.396 75.568 191.128 75.484 190.784 75.484H189.296V77.344H190.808ZM194.734 72.148V70.24H198.058V79H195.922V72.148H194.734Z" fill="#404040"/>
   <circle cx="195.5" cy="123" r="13.5" fill="#D9D9D9" stroke="white"/>
   <path d="M192.344 122.68C192.832 122.784 193.224 123.028 193.52 123.412C193.816 123.788 193.964 124.22 193.964 124.708C193.964 125.412 193.716 125.972 193.22 126.388C192.732 126.796 192.048 127 191.168 127H187.244V118.576H191.036C191.892 118.576 192.56 118.772 193.04 119.164C193.528 119.556 193.772 120.088 193.772 120.76C193.772 121.256 193.64 121.668 193.376 121.996C193.12 122.324 192.776 122.552 192.344 122.68ZM189.296 121.984H190.64C190.976 121.984 191.232 121.912 191.408 121.768C191.592 121.616 191.684 121.396 191.684 121.108C191.684 120.82 191.592 120.6 191.408 120.448C191.232 120.296 190.976 120.22 190.64 120.22H189.296V121.984ZM190.808 125.344C191.152 125.344 191.416 125.268 191.6 125.116C191.792 124.956 191.888 124.728 191.888 124.432C191.888 124.136 191.788 123.904 191.588 123.736C191.396 123.568 191.128 123.484 190.784 123.484H189.296V125.344H190.808ZM194.878 125.356C195.15 125.14 195.274 125.04 195.25 125.056C196.034 124.408 196.65 123.876 197.098 123.46C197.554 123.044 197.938 122.608 198.25 122.152C198.562 121.696 198.718 121.252 198.718 120.82C198.718 120.492 198.642 120.236 198.49 120.052C198.338 119.868 198.11 119.776 197.806 119.776C197.502 119.776 197.262 119.892 197.086 120.124C196.918 120.348 196.834 120.668 196.834 121.084H194.854C194.87 120.404 195.014 119.836 195.286 119.38C195.566 118.924 195.93 118.588 196.378 118.372C196.834 118.156 197.338 118.048 197.89 118.048C198.842 118.048 199.558 118.292 200.038 118.78C200.526 119.268 200.77 119.904 200.77 120.688C200.77 121.544 200.478 122.34 199.894 123.076C199.31 123.804 198.566 124.516 197.662 125.212H200.902V126.88H194.878V125.356Z" fill="#404040"/>
   <circle cx="176.5" cy="167" r="13.5" fill="#D9D9D9" stroke="white"/>
   <path d="M168.896 166.776C168.896 165.944 169.076 165.204 169.436 164.556C169.796 163.9 170.296 163.392 170.936 163.032C171.584 162.664 172.316 162.48 173.132 162.48C174.132 162.48 174.988 162.744 175.7 163.272C176.412 163.8 176.888 164.52 177.128 165.432H174.872C174.704 165.08 174.464 164.812 174.152 164.628C173.848 164.444 173.5 164.352 173.108 164.352C172.476 164.352 171.964 164.572 171.572 165.012C171.18 165.452 170.984 166.04 170.984 166.776C170.984 167.512 171.18 168.1 171.572 168.54C171.964 168.98 172.476 169.2 173.108 169.2C173.5 169.2 173.848 169.108 174.152 168.924C174.464 168.74 174.704 168.472 174.872 168.12H177.128C176.888 169.032 176.412 169.752 175.7 170.28C174.988 170.8 174.132 171.06 173.132 171.06C172.316 171.06 171.584 170.88 170.936 170.52C170.296 170.152 169.796 169.644 169.436 168.996C169.076 168.348 168.896 167.608 168.896 166.776ZM177.965 164.148V162.24H181.289V171H179.153V164.148H177.965Z" fill="#404040"/>
</svg>