<?xml version="1.0" encoding="UTF-8" standalone="no"?>
<svg
   width="44"
   height="40"
   viewBox="0 0 44 40"
   fill="none"
   version="1.1"
   id="svg5"
   xmlns="http://www.w3.org/2000/svg"
   xmlns:svg="http://www.w3.org/2000/svg">
  <circle
     cx="22.7764"
     cy="20"
     r="18.5"
     stroke="#DFDFDF"
     stroke-width="3"
     stroke-dasharray="4 4"
     id="circle1" />
  <mask
     id="path-2-inside-1_187_769"
     fill="white">
    <path
       d="M22.7764 -8.74228e-07C18.5528 -6.89609e-07 14.4376 1.3371 11.0207 3.81966C7.60371 6.30222 5.06039 9.80279 3.75524 13.8197L22.7764 20L22.7764 -8.74228e-07Z"
       id="path1" />
  </mask>
  <path
     d="M22.7764 -8.74228e-07C18.5528 -6.89609e-07 14.4376 1.3371 11.0207 3.81966C7.60371 6.30222 5.06039 9.80279 3.75524 13.8197L22.7764 20L22.7764 -8.74228e-07Z"
     stroke="url(#paint0_linear_187_769)"
     stroke-width="6"
     mask="url(#path-2-inside-1_187_769)"
     id="path2" />
  <circle
     cx="22.7764"
     cy="20"
     r="17"
     fill="#FAFAFA"
     id="circle2" />
  <path
     d="M8.95605 9.03906L12.3076 9.53125C12.5889 9.57812 12.8232 9.76562 12.917 10.0469C13.0107 10.3047 12.9404 10.6094 12.7295 10.7969L10.292 13.2109L10.8779 16.6328C10.9248 16.9141 10.8076 17.1953 10.5732 17.3594C10.3389 17.5469 10.0342 17.5469 9.77637 17.4297L6.77637 15.8125L3.75293 17.4297C3.51855 17.5469 3.19043 17.5469 2.97949 17.3594C2.74512 17.1953 2.62793 16.9141 2.6748 16.6328L3.2373 13.2109L0.799805 10.7969C0.588867 10.6094 0.518555 10.3047 0.612305 10.0469C0.706055 9.76562 0.94043 9.57812 1.22168 9.53125L4.59668 9.03906L6.09668 5.92188C6.21387 5.66406 6.47168 5.5 6.77637 5.5C7.05762 5.5 7.31543 5.66406 7.43262 5.92188L8.95605 9.03906Z"
     fill="#FF991F"
     id="path4" />
  <defs
     id="defs5">
    <linearGradient
       id="paint0_linear_187_769"
       x1="4.27637"
       y1="13.5"
       x2="22.7764"
       y2="-8.74228e-07"
       gradientUnits="userSpaceOnUse">
      <stop
         stop-color="#FFC887"
         id="stop4" />
      <stop
         offset="1"
         stop-color="#FFF1E0"
         id="stop5" />
    </linearGradient>
  </defs>
</svg>
